<svg xmlns="http://www.w3.org/2000/svg" viewBox="0 0 302.67 151.33"><defs><style>.cls-1{fill:none;}.cls-2{fill:#dd1919;}</style></defs><title>Asset 618</title><g id="Layer_2" data-name="Layer 2"><g id="Layer_12" data-name="Layer 12"><rect class="cls-1" width="302.67" height="151.33"/><circle class="cls-2" cx="204.95" cy="31.8" r="18.43"/><rect x="201.72" y="17.06" width="6.45" height="29.49" rx="3.23" ry="3.23"/><rect x="201.72" y="17.06" width="6.45" height="29.49" rx="3.23" ry="3.23" transform="translate(236.75 -173.15) rotate(90)"/><path d="M165.21,18.89a30.66,30.66,0,0,1,16.9,27.36H183c2.85,0,4.85,1.89,4.83,4.54s-2,4.49-4.88,4.49h-63.4A4.51,4.51,0,0,1,115.2,49a4.36,4.36,0,0,1,4-2.77c.44,0,.89,0,1.39,0a30.68,30.68,0,0,1,7.43-20,30.15,30.15,0,0,1,9.46-7.42c.42,2.36.83,4.66,1.23,7,.44,2.49.86,5,1.34,7.47a2.33,2.33,0,0,0,3.47,1.65,2.37,2.37,0,0,0,1.15-2.43c-.91-5.16-1.8-10.32-2.75-15.47a2.08,2.08,0,0,1,.62-2.07A6.25,6.25,0,0,1,147,13c2.91,0,5.82,0,8.73,0a6,6,0,0,1,4.87,2.43,1.51,1.51,0,0,1,.25,1c-.9,5.29-1.84,10.57-2.76,15.86a2.33,2.33,0,0,0,1.82,2.83,2.3,2.3,0,0,0,2.78-2c.8-4.44,1.58-8.89,2.37-13.33C165.08,19.53,165.15,19.22,165.21,18.89Z"/><path d="M121.14,60.15h60.43a28.49,28.49,0,0,1-1.06,11.21,29.86,29.86,0,0,1-10.1,15.16,30.32,30.32,0,0,1-49.27-26.37Z"/><path d="M173.81,123.77h-45v-.92q0-9.41,0-18.81c0-1.37-.13-1.07,1.1-1.27a131,131,0,0,1,23.9-1.69,127.47,127.47,0,0,1,19.69,1.81l.32.09Z"/><path d="M111.18,138.53c-3.67-1.06-7.1-2.28-9.85-4.88a11.41,11.41,0,0,1-3.4-8.11,29.5,29.5,0,0,1,0-5.4c.36-2.75,2-4.8,4-6.59a35.57,35.57,0,0,1,11-6.3c1.29-.51,2.62-1,4.07-1.48v.87c0,5.74,0,11.49,0,17.23a1.07,1.07,0,0,1-.65,1.09,9.68,9.68,0,0,0-5.23,8.78C111.15,135.29,111.18,136.84,111.18,138.53Z"/><path d="M191.49,138.52V134a9.87,9.87,0,0,0-5.43-9.21.9.9,0,0,1-.43-.66c0-6,0-12,0-18a1.16,1.16,0,0,1,.06-.26.82.82,0,0,1,.27,0,44.69,44.69,0,0,1,13.31,6.48,16.49,16.49,0,0,1,4.09,4.28,8.56,8.56,0,0,1,1.48,5.11,62.38,62.38,0,0,1-.51,6.43,10,10,0,0,1-4.14,6.42A25.31,25.31,0,0,1,191.49,138.52Z"/></g></g></svg>