<svg xmlns="http://www.w3.org/2000/svg" viewBox="0 0 78.02 78.02"><defs><style>.cls-1{fill:none;}</style></defs><title>Asset 617</title><g id="Layer_2" data-name="Layer 2"><g id="Layer_13" data-name="Layer 13"><path d="M39.12,54.63c-5.82,0-11.64,0-17.46,0a2.37,2.37,0,0,1-1.15-.42A3.1,3.1,0,0,1,18.9,51.5c0-4.1-.08-8.2-.08-12.3s.11-8.06.08-12.09A3.58,3.58,0,0,1,22,24c3.42,0,6.84-.07,10.26-.09l10.53-.07a.91.91,0,0,0,.58-.26c.69-.72,1.35-1.47,2-2.18a.89.89,0,0,1,.59-.26q2.84,0,5.67,0a.94.94,0,0,1,.6.24c.76.71,1.48,1.46,2.24,2.17a1.34,1.34,0,0,0,.63.31c.39.08.8.1,1.2.16a3.25,3.25,0,0,1,2.51,1.58,3.92,3.92,0,0,1,.44,1.86q.1,4.83.11,9.66c0,4.55,0,9.09,0,13.64,0,.23-.05.47,0,.7.13,1.44-1.22,2.64-2.32,3.08a1.43,1.43,0,0,1-.51.05Zm6.76-15.25c0-1.21,0-2.42,0-3.64a.63.63,0,0,0-.24-.48c-2.08-1.26-4.19-2.49-6.28-3.74a.6.6,0,0,0-.74,0c-2,1.25-3.92,2.49-5.9,3.71a.73.73,0,0,0-.38.69c0,2.35,0,4.71,0,7.06a.55.55,0,0,0,.31.54q3.16,1.8,6.3,3.63a.51.51,0,0,0,.59,0q3-1.82,6-3.6a.56.56,0,0,0,.33-.58C45.88,41.78,45.88,40.58,45.88,39.38ZM49.66,36l.09-.09c0-.13-.09-.27-.15-.39-.3-.61-.57-1.23-.91-1.82a10.92,10.92,0,0,0-5.21-4.56,1,1,0,0,0-.83,0c-.8.41-1.55.91-2.4,1.43Zm-12,12.36v-.19l-9-5.25-.09.12.17.48a12,12,0,0,0,4.9,5.66,5,5,0,0,0,1,.5,1,1,0,0,0,.67,0C36.09,49.22,36.86,48.76,37.64,48.31Zm9.81-12c-.14,3.56-.11,7,0,10.42a.79.79,0,0,0,.25-.22,11.7,11.7,0,0,0,2.54-8.32.48.48,0,0,0-.14-.33C49.26,37.38,48.41,36.9,47.45,36.34Zm-10.21,14a.8.8,0,0,0,.21,0,11.45,11.45,0,0,0,8.24-2,.6.6,0,0,0,.19-.43c0-.78,0-1.56,0-2.33a5.29,5.29,0,0,0,0-.56A76.32,76.32,0,0,0,37.24,50.39Zm-6.67-8,.14-.09V32a15.09,15.09,0,0,0-1.4,2A12,12,0,0,0,28,40.7a.33.33,0,0,0,.11.26C28.92,41.44,29.75,41.91,30.57,42.38ZM40.65,28.53l-.07-.19c-.22,0-.44-.09-.67-.11a10.88,10.88,0,0,0-7,1.85,1,1,0,0,0-.51,1c0,.63,0,1.26,0,1.9,0,.28,0,.55,0,.94Z"/><path d="M39,76.39a37.28,37.28,0,1,1,14.55-2.94A37.13,37.13,0,0,1,39,76.39ZM39,3.53A35.48,35.48,0,1,0,74.48,39,35.52,35.52,0,0,0,39,3.53Z"/><rect class="cls-1" width="78.02" height="78.02"/></g></g></svg>