<svg xmlns="http://www.w3.org/2000/svg" viewBox="0 0 79.98 79.98"><defs><style>.cls-1{fill:none;}.cls-2{stroke:#000;stroke-miterlimit:10;stroke-width:0.5px;}</style></defs><title>Asset 620</title><g id="Layer_2" data-name="Layer 2"><g id="Layer_13" data-name="Layer 13"><rect class="cls-1" width="79.98" height="79.98"/><polygon class="cls-2" points="20.75 1.77 3.79 1.77 1.8 1.77 1.8 3.76 1.8 20.72 3.79 20.72 3.79 3.76 20.75 3.76 20.75 1.77"/><polygon class="cls-2" points="78.25 20.72 78.25 3.76 78.25 1.77 76.26 1.77 59.3 1.77 59.3 3.76 76.26 3.76 76.26 20.72 78.25 20.72"/><polygon class="cls-2" points="59.3 78.22 76.26 78.22 78.25 78.22 78.25 76.22 78.25 59.27 76.26 59.27 76.26 76.22 59.3 76.22 59.3 78.22"/><polygon class="cls-2" points="1.73 59.27 1.73 76.22 1.73 78.22 3.73 78.22 20.68 78.22 20.68 76.22 3.73 76.22 3.73 59.27 1.73 59.27"/><path d="M31.67,44.61a16,16,0,0,0,18.42-1.26,16,16,0,0,0,6-11.6h0v-.38c0-.29,0-.58,0-.87V22.19a16.1,16.1,0,0,0-31.54-5.07A15.46,15.46,0,0,0,23.92,21h0v9.78c0,.22,0,.43,0,.65v.34h0A16,16,0,0,0,31.67,44.61Z"/><path d="M40,51.05c-15.5,0-28.09,4.69-28.32,10.5h0v3.22c0,5.36,12.68,9.72,28.33,9.72s28.33-4.36,28.33-9.72V61.71C68.32,55.82,55.64,51.05,40,51.05Z"/></g></g></svg>