<svg xmlns="http://www.w3.org/2000/svg" viewBox="0 0 79.98 79.98"><defs><style>.cls-1{fill:none;}.cls-2{stroke:#000;stroke-miterlimit:10;stroke-width:0.5px;}</style></defs><title>Asset 621</title><g id="Layer_2" data-name="Layer 2"><g id="Layer_13" data-name="Layer 13"><rect class="cls-1" width="79.98" height="79.98"/><polygon class="cls-2" points="20.75 1.77 3.79 1.77 1.8 1.77 1.8 3.76 1.8 20.72 3.79 20.72 3.79 3.76 20.75 3.76 20.75 1.77"/><polygon class="cls-2" points="78.25 20.72 78.25 3.76 78.25 1.77 76.26 1.77 59.3 1.77 59.3 3.76 76.26 3.76 76.26 20.72 78.25 20.72"/><polygon class="cls-2" points="59.3 78.22 76.26 78.22 78.25 78.22 78.25 76.22 78.25 59.27 76.26 59.27 76.26 76.22 59.3 76.22 59.3 78.22"/><polygon class="cls-2" points="1.73 59.27 1.73 76.22 1.73 78.22 3.73 78.22 20.68 78.22 20.68 76.22 3.73 76.22 3.73 59.27 1.73 59.27"/><path d="M39.08,39.79A12.59,12.59,0,0,1,38.7,43a.55.55,0,0,1-.47.46.56.56,0,0,1-.64-.74,11.84,11.84,0,0,0,.3-3.46,11,11,0,0,0-3.84-7.69c-.33-.29-.69-.54-1-.8a.59.59,0,1,1,.66-1A12.11,12.11,0,0,1,39,38.49C39,39,39.06,39.51,39.08,39.79Z"/><path d="M26.9,32.4a7.5,7.5,0,0,1,5.23,2.2,1.09,1.09,0,0,1,.23.3.58.58,0,0,1-.2.69.6.6,0,0,1-.75-.08,6.82,6.82,0,0,0-1.77-1.29,6.47,6.47,0,0,0-8,1.85,1.49,1.49,0,0,1-.15.2.57.57,0,0,1-.81.1.58.58,0,0,1-.1-.81,7.63,7.63,0,0,1,1.83-1.8A7.71,7.71,0,0,1,26.9,32.4Z"/><path d="M26.49,27.71a13.58,13.58,0,0,1,3.72.49.59.59,0,0,1,.46.61.57.57,0,0,1-.48.52,1.27,1.27,0,0,1-.43,0,10.93,10.93,0,0,0-8.7,1.18,21,21,0,0,0-1.94,1.47.61.61,0,0,1-.71.13.51.51,0,0,1-.3-.59.76.76,0,0,1,.21-.37,11.93,11.93,0,0,1,6.46-3.21C25.45,27.78,26.14,27.74,26.49,27.71Z"/><path d="M16.85,39.32a9.52,9.52,0,0,1,.95-3.61,9.89,9.89,0,0,1,7-5.46c.51-.11.87.17.81.63,0,.27-.21.43-.57.51A8.46,8.46,0,0,0,21.6,32.9,8.66,8.66,0,0,0,18,39.14a2.51,2.51,0,0,1,0,.27.58.58,0,0,1-.61.48A.58.58,0,0,1,16.85,39.32Z"/><path d="M32.12,41.88c-.1,1.23-.19,2.46-.29,3.68,0,.43-.29.68-.63.65s-.57-.31-.52-.75A35.23,35.23,0,0,0,30.89,40,4.13,4.13,0,0,0,27.46,36c-.41-.08-.63-.35-.56-.7a.6.6,0,0,1,.79-.43A5.27,5.27,0,0,1,32.05,40c0,.62,0,1.24,0,1.86Z"/><path d="M23.51,51.27A11,11,0,0,0,26,45a28.69,28.69,0,0,0,.18-4.9.59.59,0,0,1,.54-.67.57.57,0,0,1,.62.59,23.66,23.66,0,0,1-1,8.53A10.13,10.13,0,0,1,25,51.35a.34.34,0,0,1-.41.16C24.21,51.41,23.88,51.35,23.51,51.27Z"/><path d="M29.73,40.88c0,.36,0,.73,0,1.1a.6.6,0,0,1-.61.66c-.34,0-.54-.27-.55-.68,0-.66,0-1.32,0-2A1.76,1.76,0,1,0,25,40c0,.1,0,.2,0,.3a.58.58,0,0,1-1.14,0,2.92,2.92,0,0,1,5.75-1,12.47,12.47,0,0,1,.13,1.5Z"/><path d="M28.6,30.2c.42.12.88.22,1.32.37A9.86,9.86,0,0,1,36.1,36.5c.19.49-.11.93-.58.87a.6.6,0,0,1-.5-.45,8.8,8.8,0,0,0-6.5-5.53.6.6,0,0,1-.53-.48.54.54,0,0,1,.29-.6A2.33,2.33,0,0,1,28.6,30.2Z"/><path d="M14.41,40a12.84,12.84,0,0,1,2.2-6.93,1,1,0,0,1,.43-.34.49.49,0,0,1,.59.24.61.61,0,0,1,0,.67,20.21,20.21,0,0,0-1.08,2,10.88,10.88,0,0,0-.65,6.64c0,.26.06.52-.18.66a.84.84,0,0,1-.56.1.51.51,0,0,1-.39-.48C14.64,41.74,14.53,40.89,14.41,40Z"/><path d="M19.13,41.25c.06-.9.11-1.8.19-2.7a3.15,3.15,0,0,1,.16-.69.58.58,0,1,1,1.11.32,7.33,7.33,0,0,0-.25,2.28A20,20,0,0,1,20,45.29c-.08.38-.21.76-.32,1.13a3.37,3.37,0,0,1-.94,1.33.55.55,0,0,1-.73,0,.56.56,0,0,1-.14-.74.42.42,0,0,1,.11-.15,3.33,3.33,0,0,0,.94-2.05,17.89,17.89,0,0,0,.27-3.58Z"/><path d="M34.4,41.61a32.07,32.07,0,0,1-.54,6.11.62.62,0,0,1-.44.57.56.56,0,0,1-.71-.66c.09-.67.22-1.34.31-2a34.55,34.55,0,0,0,.18-6.27,7,7,0,0,0-.19-1,.6.6,0,0,1,.41-.78.57.57,0,0,1,.71.5c.11.66.21,1.32.26,2S34.4,41.09,34.4,41.61Z"/><path d="M21.51,43.76c0-1.18,0-2.36,0-3.54a5.31,5.31,0,0,1,3.34-5.11.59.59,0,1,1,.44,1.07,4.2,4.2,0,0,0-2.62,4.22c0,1.14,0,2.29-.07,3.43,0,.47-.25.72-.63.7S21.42,44.24,21.51,43.76Z"/><path d="M35,48.31c.1-.6.21-1.21.29-1.81a33.4,33.4,0,0,0,.34-5.74c0-.54,0-1.08-.06-1.62a.57.57,0,0,1,.52-.63.53.53,0,0,1,.62.51c0,1.17.1,2.34.06,3.51s-.19,2.6-.29,3.91a.54.54,0,0,1-.08.28c-.43.55-.87,1.1-1.31,1.64Z"/><path d="M26.15,51.71a12.15,12.15,0,0,0,1.4-2.88,18.62,18.62,0,0,0,.88-4.37c0-.39.23-.62.54-.65a.57.57,0,0,1,.62.66c-.16,1.08-.3,2.16-.52,3.22A14,14,0,0,1,27.7,51.4a.49.49,0,0,1-.51.32C26.87,51.69,26.54,51.71,26.15,51.71Z"/><path d="M22.3,50.84l-1-.49a3.42,3.42,0,0,1,.39-.54,6.49,6.49,0,0,0,1.71-3.35c.2-.89.3-1.8.44-2.7a.58.58,0,1,1,1.15.09,14.76,14.76,0,0,1-1,4.45,6.48,6.48,0,0,1-1.41,2.2Z"/><path d="M16.9,46.32c-.19-.33-.36-.63-.52-.94a.22.22,0,0,1,0-.17,4.51,4.51,0,0,0,.43-1.9c0-.5,0-1,.07-1.51a.56.56,0,0,1,.59-.61.52.52,0,0,1,.56.62c-.07,1-.14,2-.28,3C17.6,45.63,17.54,45.65,16.9,46.32Z"/><path d="M20.22,49.72,19.3,49l.69-.89c.23-.32.46-.63.66-1s.5-.48.82-.33a.57.57,0,0,1,.22.84,14,14,0,0,1-.81,1.2C20.68,49.16,20.46,49.42,20.22,49.72Z"/><path d="M29,51.52c.33-.92.64-1.79,1-2.67a.55.55,0,0,1,.7-.33.54.54,0,0,1,.39.68c-.19.62-.42,1.23-.64,1.84a.2.2,0,0,1-.12.12Z"/><path d="M33.23,49.8,32,50.51l-.07,0a4.41,4.41,0,0,1,.32-.81C32.47,49.31,33,49.37,33.23,49.8Z"/><rect x="46.33" y="24.56" width="1.53" height="12.42" rx="0.76" ry="0.76" transform="translate(77.86 -16.32) rotate(90)"/><rect x="52.55" y="24.58" width="1.53" height="24.85" rx="0.76" ry="0.76" transform="translate(90.31 -16.31) rotate(90)"/><rect x="52.55" y="30.81" width="1.53" height="24.85" rx="0.76" ry="0.76" transform="translate(96.55 -10.07) rotate(90)"/><rect x="56.15" y="29.23" width="1.53" height="3.08" rx="0.76" ry="0.76" transform="translate(87.69 -26.15) rotate(90)"/><rect x="41.65" y="46.88" width="1.53" height="3.08" rx="0.76" ry="0.76" transform="translate(90.84 6.01) rotate(90)"/><rect x="47.34" y="46.37" width="1.53" height="4.12" rx="0.76" ry="0.76" transform="translate(96.54 0.32) rotate(90)"/><rect x="53.06" y="46.88" width="1.53" height="3.08" rx="0.76" ry="0.76" transform="translate(102.25 -5.4) rotate(90)"/><rect x="58.77" y="46.37" width="1.53" height="4.11" rx="0.76" ry="0.76" transform="translate(107.96 -11.1) rotate(90)"/><rect x="63.95" y="47.4" width="1.53" height="2.05" rx="0.76" ry="0.76" transform="translate(113.14 -16.29) rotate(90)"/><path d="M9,17.14a.11.11,0,0,0-.11.11V62.73a.11.11,0,0,0,.11.11H71a.11.11,0,0,0,.11-.11V17.25a.11.11,0,0,0-.11-.11ZM69.48,61.31h-59a.11.11,0,0,1-.11-.11V18.78a.11.11,0,0,1,.11-.11h59a.11.11,0,0,1,.11.11V61.2A.11.11,0,0,1,69.48,61.31Z"/></g></g></svg>