<svg xmlns="http://www.w3.org/2000/svg" viewBox="0 0 79.98 79.98"><defs><style>.cls-1{fill:none;}.cls-2{stroke:#000;stroke-miterlimit:10;stroke-width:0.5px;}</style></defs><title>Asset 619</title><g id="Layer_2" data-name="Layer 2"><g id="Layer_13" data-name="Layer 13"><rect class="cls-1" width="79.98" height="79.98"/><polygon class="cls-2" points="20.75 1.77 3.79 1.77 1.8 1.77 1.8 3.76 1.8 20.72 3.79 20.72 3.79 3.76 20.75 3.76 20.75 1.77"/><polygon class="cls-2" points="78.25 20.72 78.25 3.76 78.25 1.77 76.26 1.77 59.3 1.77 59.3 3.76 76.26 3.76 76.26 20.72 78.25 20.72"/><polygon class="cls-2" points="59.3 78.22 76.26 78.22 78.25 78.22 78.25 76.22 78.25 59.27 76.26 59.27 76.26 76.22 59.3 76.22 59.3 78.22"/><polygon class="cls-2" points="1.73 59.27 1.73 76.22 1.73 78.22 3.73 78.22 20.68 78.22 20.68 76.22 3.73 76.22 3.73 59.27 1.73 59.27"/><rect x="46.45" y="24.54" width="1.53" height="12.42" rx="0.76" ry="0.76" transform="translate(77.97 -16.46) rotate(90)"/><rect x="52.67" y="24.56" width="1.53" height="24.85" rx="0.76" ry="0.76" transform="translate(90.41 -16.45) rotate(90)"/><rect x="52.67" y="30.8" width="1.53" height="24.85" rx="0.76" ry="0.76" transform="translate(96.65 -10.21) rotate(90)"/><rect x="56.28" y="29.21" width="1.53" height="3.08" rx="0.76" ry="0.76" transform="translate(87.79 -26.29) rotate(90)"/><rect x="41.77" y="46.87" width="1.53" height="3.08" rx="0.76" ry="0.76" transform="translate(90.95 5.87) rotate(90)"/><rect x="47.46" y="46.35" width="1.53" height="4.12" rx="0.76" ry="0.76" transform="translate(96.64 0.18) rotate(90)"/><rect x="53.18" y="46.87" width="1.53" height="3.08" rx="0.76" ry="0.76" transform="translate(102.35 -5.54) rotate(90)"/><rect x="58.89" y="46.35" width="1.53" height="4.11" rx="0.76" ry="0.76" transform="translate(108.06 -11.24) rotate(90)"/><rect x="64.07" y="47.38" width="1.53" height="2.05" rx="0.76" ry="0.76" transform="translate(113.24 -16.43) rotate(90)"/><path d="M9,17.14a.11.11,0,0,0-.11.11V62.73a.11.11,0,0,0,.11.11H71a.11.11,0,0,0,.11-.11V17.25a.11.11,0,0,0-.11-.11ZM69.48,61.31h-59a.11.11,0,0,1-.11-.11V18.78a.11.11,0,0,1,.11-.11h59a.11.11,0,0,1,.11.11V61.2A.11.11,0,0,1,69.48,61.31Z"/><path d="M22.64,41.9a6.77,6.77,0,0,0,10-3.91,6.92,6.92,0,0,0,.25-1.5h0v-4a6.76,6.76,0,0,0-13.25-2.14A6.52,6.52,0,0,0,19.38,32h0v4.52h0A6.73,6.73,0,0,0,22.64,41.9Z"/><path d="M26.13,44.6c-6.51,0-11.8,2-11.9,4.41h0v1.36c0,2.25,5.33,4.08,11.9,4.08S38,52.62,38,50.37V49.08C38,46.61,32.71,44.6,26.13,44.6Z"/></g></g></svg>