<svg xmlns="http://www.w3.org/2000/svg" viewBox="0 0 85.04 42.52"><defs><style>.cls-1{fill:#dd1919;}.cls-2{fill:#fff;}.cls-3{fill:none;}.cls-4{fill:#0ba81d;}.cls-5{fill:#e29205;}</style></defs><title>Asset 680</title><g id="Layer_2" data-name="Layer 2"><g id="Layer_12" data-name="Layer 12"><circle class="cls-1" cx="66.06" cy="8.83" r="5.18"/><rect class="cls-2" x="65.15" y="4.68" width="1.81" height="8.29" rx="0.91" ry="0.91"/><rect class="cls-2" x="65.15" y="4.68" width="1.81" height="8.29" rx="0.91" ry="0.91" transform="translate(74.88 -57.23) rotate(90)"/><rect class="cls-3" width="85.04" height="42.52"/><path class="cls-2" d="M37,8.31a10.23,10.23,0,0,1-1.2,4c-.21.46-.41.91-.58,1.34A5,5,0,0,0,33.91,13c.17-.43.37-.87.56-1.29a9.22,9.22,0,0,0,1.07-3.42c0-1.61-1.48-2.83-3.44-2.83a3.2,3.2,0,0,0-3.39,3,8.38,8.38,0,0,0,1.18,3.37c.21.4.41.81.6,1.22a4.72,4.72,0,0,0-1.32.68c-.17-.4-.38-.81-.6-1.23a9.34,9.34,0,0,1-1.34-4A4.68,4.68,0,0,1,32.1,4C34.9,4,37,5.85,37,8.31Z"/><path class="cls-2" d="M31,16.43a4.09,4.09,0,0,1-1.79,2.19,4.8,4.8,0,0,1-.31-1.56v0a2.63,2.63,0,0,0,.7-1.06,1.57,1.57,0,0,0,.08-.69A3.46,3.46,0,0,1,31,14.44,3.45,3.45,0,0,1,31,16.43Z"/><path class="cls-2" d="M27.82,19.23a7.52,7.52,0,0,1-2.11.36h0a.74.74,0,1,1,0-1.47,6.61,6.61,0,0,0,1.74-.32A7.37,7.37,0,0,0,27.82,19.23Z"/><path class="cls-2" d="M35.63,17.13a5.43,5.43,0,0,1-.37,1.64,4.9,4.9,0,0,1-1.73-2.34,3.76,3.76,0,0,1-.07-2,3.57,3.57,0,0,1,1.38.82,2,2,0,0,0,.08.7A3.35,3.35,0,0,0,35.63,17.13Z"/><path class="cls-2" d="M37.66,19q0,.3,0,.69a7.53,7.53,0,0,1-1.1-.23A8.22,8.22,0,0,0,37,18a4.41,4.41,0,0,0,.73.17A4.15,4.15,0,0,0,37.66,19Z"/><path class="cls-2" d="M41.62,17.57A3,3,0,0,1,40,19.39a3.5,3.5,0,0,1-.87.27c0-.27,0-.49,0-.68a2.55,2.55,0,0,1,.17-.88l.12-.05a1.54,1.54,0,0,0,.81-1c0-.05,0-.1,0-.16a3.83,3.83,0,0,1,1.5-.61A3.06,3.06,0,0,1,41.62,17.57Z"/><path class="cls-2" d="M47.38,8.31a12.36,12.36,0,0,1-1.4,4.5,24.07,24.07,0,0,0-1,2.52,5.3,5.3,0,0,0-1.41-.46,25.06,25.06,0,0,1,1.07-2.66,11.48,11.48,0,0,0,1.27-3.9c0-1.75-1.75-2.83-3.38-2.83s-3.39,1.08-3.39,2.83a11.53,11.53,0,0,0,1.28,3.9,25.06,25.06,0,0,1,1.07,2.66,5.3,5.3,0,0,0-1.41.46,24.07,24.07,0,0,0-1-2.52,12.36,12.36,0,0,1-1.4-4.5A4.61,4.61,0,0,1,42.52,4,4.61,4.61,0,0,1,47.38,8.31Z"/><path class="cls-2" d="M45.9,19c0,.19,0,.41,0,.68a3.37,3.37,0,0,1-.87-.27,2.94,2.94,0,0,1-1.58-1.82,3.06,3.06,0,0,1-.15-1.25,3.9,3.9,0,0,1,1.5.61.75.75,0,0,0,0,.16,1.54,1.54,0,0,0,.81,1l.12.05A2.55,2.55,0,0,1,45.9,19Z"/><path class="cls-2" d="M47.35,19.67q0-.39,0-.69a4.15,4.15,0,0,0-.08-.79A4.41,4.41,0,0,0,48,18a8.22,8.22,0,0,0,.42,1.42A7.25,7.25,0,0,1,47.35,19.67Z"/><path class="cls-2" d="M51.51,16.43a4.9,4.9,0,0,1-1.73,2.34,5.14,5.14,0,0,1-.37-1.64,3.19,3.19,0,0,0,.7-1.18,1.83,1.83,0,0,0,.09-.71,3.68,3.68,0,0,1,1.38-.81A3.76,3.76,0,0,1,51.51,16.43Z"/><path class="cls-2" d="M57.81,8.46a9.36,9.36,0,0,1-1.35,4c-.21.42-.42.83-.59,1.23A5,5,0,0,0,54.55,13c.18-.4.39-.81.6-1.21a8.38,8.38,0,0,0,1.18-3.37,3.24,3.24,0,0,0-3.39-3c-2,0-3.44,1.19-3.44,2.83a9.22,9.22,0,0,0,1.07,3.42c.19.42.39.86.56,1.29a5,5,0,0,0-1.33.65c-.17-.43-.37-.88-.58-1.34a10.23,10.23,0,0,1-1.2-4C48,5.85,50.14,4,52.94,4A4.69,4.69,0,0,1,57.81,8.46Z"/><path class="cls-2" d="M56.18,17.06a5.08,5.08,0,0,1-.31,1.56,4.09,4.09,0,0,1-1.79-2.19,3.37,3.37,0,0,1,0-2,3.46,3.46,0,0,1,1.35.82,1.57,1.57,0,0,0,.08.69,2.53,2.53,0,0,0,.7,1.06Z"/><path class="cls-2" d="M60.07,18.86a.73.73,0,0,1-.74.73h0a7.52,7.52,0,0,1-2.11-.36,7.37,7.37,0,0,0,.38-1.43,6.61,6.61,0,0,0,1.74.32A.72.72,0,0,1,60.07,18.86Z"/><path class="cls-2" d="M36.44,36.64c-.18.44-.38.87-.58,1.3l-.1.21a.75.75,0,0,1-.67.43.73.73,0,0,1-.67-1l.1-.21c.17-.38.35-.76.51-1.13h0A4.62,4.62,0,0,0,36.44,36.64Z"/><path class="cls-2" d="M29.6,32.13a2.49,2.49,0,0,0-.74,1.76c0,.12,0,.23,0,.35a4,4,0,0,1-1.37.79,5.54,5.54,0,0,1-.13-1.14,4.09,4.09,0,0,1,1.71-3.27,7.6,7.6,0,0,1,.51,1.5Z"/><path class="cls-2" d="M29.71,38.51a.74.74,0,0,1-1-.36l-.1-.21c-.23-.49-.46-1-.67-1.5a5.9,5.9,0,0,0,1.34-.65c.19.51.43,1,.67,1.53l.1.21A.74.74,0,0,1,29.71,38.51Z"/><path class="cls-2" d="M34.05,29.89c-.21.46-.41.92-.58,1.37a4,4,0,0,0-1.23-.2,3.85,3.85,0,0,0-1.33.24,9.81,9.81,0,0,0-.52-1.39,5.39,5.39,0,0,1,3.66,0Z"/><path class="cls-2" d="M37.11,33.89a5.22,5.22,0,0,1-.18,1.3h-.25a2.89,2.89,0,0,1-1.16-.41,3.92,3.92,0,0,0,.11-.88A2.53,2.53,0,0,0,34.77,32a13.46,13.46,0,0,1,.59-1.42A4.12,4.12,0,0,1,37.11,33.89Z"/><path class="cls-2" d="M46.93,36.54c-.21.55-.46,1.14-.73,1.74a.73.73,0,0,1-.67.44.77.77,0,0,1-.3-.06.74.74,0,0,1-.38-1c.24-.53.52-1.16.75-1.79A3.83,3.83,0,0,0,46.93,36.54Z"/><path class="cls-2" d="M39.39,32.49a2.53,2.53,0,0,0-.41,1.4c0,.11,0,.23,0,.35h0a2.12,2.12,0,0,1-1.34.87,5.47,5.47,0,0,1-.16-1.23,4.25,4.25,0,0,1,1.76-3.38c.07.75.12,1.42.13,2Z"/><path class="cls-2" d="M39.81,38.66a.76.76,0,0,1-1-.38c-.26-.6-.52-1.19-.73-1.74a4,4,0,0,0,1.34-.64c.23.62.51,1.25.75,1.78A.75.75,0,0,1,39.81,38.66Z"/><path class="cls-2" d="M44.38,29.76c-.07.55-.12,1.07-.15,1.54a4,4,0,0,0-3.42,0c0-.47-.08-1-.15-1.54a5.57,5.57,0,0,1,3.72,0Z"/><path class="cls-2" d="M47.54,33.89a5.47,5.47,0,0,1-.16,1.23A2.16,2.16,0,0,1,46,34.25a2.38,2.38,0,0,0,0-.36,2.53,2.53,0,0,0-.41-1.4h0c0-.56.05-1.23.13-2A4.28,4.28,0,0,1,47.54,33.89Z"/><path class="cls-2" d="M57.08,36.44c-.21.5-.44,1-.67,1.5l-.1.21a.74.74,0,0,1-.67.43.67.67,0,0,1-.31-.07.74.74,0,0,1-.36-1l.1-.21c.24-.51.47-1,.67-1.53A5.9,5.9,0,0,0,57.08,36.44Z"/><path class="cls-2" d="M49.41,33.89a3.92,3.92,0,0,0,.11.88,3,3,0,0,1-1.16.41H48.1a5.72,5.72,0,0,1-.17-1.3,4.12,4.12,0,0,1,1.75-3.3A13.46,13.46,0,0,1,50.27,32,2.53,2.53,0,0,0,49.41,33.89Z"/><path class="cls-2" d="M50.26,38.51a.74.74,0,0,1-1-.36l-.1-.21c-.2-.43-.4-.86-.58-1.3A4.71,4.71,0,0,0,50,36.19c.16.37.34.75.51,1.13l.1.21A.74.74,0,0,1,50.26,38.51Z"/><path class="cls-2" d="M54.64,29.91a11.13,11.13,0,0,0-.51,1.39,3.85,3.85,0,0,0-1.33-.24,4,4,0,0,0-1.23.2c-.17-.45-.37-.91-.58-1.37a5.37,5.37,0,0,1,1.81-.31A5.31,5.31,0,0,1,54.64,29.91Z"/><path class="cls-2" d="M57.66,33.89A5.54,5.54,0,0,1,57.53,35a4,4,0,0,1-1.37-.79c0-.11,0-.23,0-.35a2.49,2.49,0,0,0-.74-1.76h0a7.6,7.6,0,0,1,.51-1.5A4.12,4.12,0,0,1,57.66,33.89Z"/><path class="cls-2" d="M29.3,35.79a5.9,5.9,0,0,1-1.34.65A11,11,0,0,1,27.51,35a4,4,0,0,0,1.37-.79A6,6,0,0,0,29.3,35.79Z"/><path class="cls-2" d="M39.44,35.9a4,4,0,0,1-1.34.64,12.71,12.71,0,0,1-.44-1.42A2.12,2.12,0,0,0,39,34.25,7.82,7.82,0,0,0,39.44,35.9Z"/><path class="cls-2" d="M36.93,35.19a9.9,9.9,0,0,1-.49,1.45h0A4.62,4.62,0,0,1,35,36.19a9.58,9.58,0,0,0,.49-1.42,2.89,2.89,0,0,0,1.16.41Z"/><path class="cls-2" d="M40.27,16.93a3.57,3.57,0,0,0-.2-1.6,5.3,5.3,0,0,1,1.41-.46,6.77,6.77,0,0,1,.29,1.45A3.83,3.83,0,0,0,40.27,16.93Z"/><path class="cls-2" d="M44.77,16.93a3.9,3.9,0,0,0-1.5-.61,6.77,6.77,0,0,1,.29-1.45,5.3,5.3,0,0,1,1.41.46A3.43,3.43,0,0,0,44.77,16.93Z"/><path class="cls-2" d="M50,36.19a4.71,4.71,0,0,1-1.41.45,10,10,0,0,1-.5-1.45h.26a3,3,0,0,0,1.16-.41A9.58,9.58,0,0,0,50,36.19Z"/><path class="cls-2" d="M47.38,35.12a11,11,0,0,1-.45,1.42,3.83,3.83,0,0,1-1.33-.65A7,7,0,0,0,46,34.25,2.16,2.16,0,0,0,47.38,35.12Z"/><path class="cls-2" d="M57.53,35a11,11,0,0,1-.45,1.41,5.9,5.9,0,0,1-1.34-.65,5.89,5.89,0,0,0,.42-1.55A4,4,0,0,0,57.53,35Z"/><path class="cls-2" d="M31,14.44a3.46,3.46,0,0,0-1.35.82,4.83,4.83,0,0,0-.47-1.53,4.72,4.72,0,0,1,1.32-.68A7.75,7.75,0,0,1,31,14.44Z"/><path class="cls-2" d="M35.24,13.67a5.17,5.17,0,0,0-.4,1.58,3.57,3.57,0,0,0-1.38-.82A8.53,8.53,0,0,1,33.91,13,5,5,0,0,1,35.24,13.67Z"/><path class="cls-2" d="M51.58,14.43a3.68,3.68,0,0,0-1.38.81,5.18,5.18,0,0,0-.4-1.57A5,5,0,0,1,51.13,13,8.53,8.53,0,0,1,51.58,14.43Z"/><path class="cls-2" d="M55.87,13.73a4.83,4.83,0,0,0-.47,1.53,3.46,3.46,0,0,0-1.35-.82,8.13,8.13,0,0,1,.5-1.4A5,5,0,0,1,55.87,13.73Z"/><path class="cls-4" d="M39.13,19c0,.19,0,.41,0,.68a4.9,4.9,0,0,1-1.48,0q0-.39,0-.69a4.15,4.15,0,0,1,.08-.79,3.17,3.17,0,0,0,1.56-.09A2.55,2.55,0,0,0,39.13,19Z"/><path class="cls-4" d="M30.39,29.91a4.83,4.83,0,0,0-1.3.71c-.14-.33-.3-.67-.46-1-.25-.55-.51-1.09-.72-1.65a6.23,6.23,0,0,0,1.34-.63c.2.54.46,1.1.72,1.65C30.11,29.29,30.26,29.6,30.39,29.91Z"/><path class="cls-4" d="M30.91,31.3a3.55,3.55,0,0,0-1.31.82,7.6,7.6,0,0,0-.51-1.5,4.83,4.83,0,0,1,1.3-.71A9.81,9.81,0,0,1,30.91,31.3Z"/><path class="cls-4" d="M31,33.68a4.07,4.07,0,0,1-1.66,2.11,6,6,0,0,1-.42-1.55,2.52,2.52,0,0,0,.68-1,2.12,2.12,0,0,0,0-1.07h0a3.55,3.55,0,0,1,1.31-.82A3.88,3.88,0,0,1,31,33.68Z"/><path class="cls-4" d="M28,36.44a7.65,7.65,0,0,1-2.25.4h0a.74.74,0,1,1,0-1.47A6.59,6.59,0,0,0,27.51,35,11,11,0,0,0,28,36.44Z"/><path class="cls-4" d="M29.62,23.77a2.5,2.5,0,0,0-.76,1.79v.2a4,4,0,0,1-1.38.78,5.43,5.43,0,0,1-.1-1,4.15,4.15,0,0,1,1.76-3.32,6.66,6.66,0,0,1,.48,1.53Z"/><path class="cls-4" d="M34,21.55a10.24,10.24,0,0,0-.5,1.4,3.76,3.76,0,0,0-1.29-.22A3.84,3.84,0,0,0,31,23a10.24,10.24,0,0,0-.5-1.4,5.55,5.55,0,0,1,1.79-.3A5.46,5.46,0,0,1,34,21.55Z"/><path class="cls-4" d="M37.11,25.56a5.25,5.25,0,0,1-.12,1l-.31,0a1.77,1.77,0,0,1-1.07-.64c0-.12,0-.24,0-.35a2.5,2.5,0,0,0-.76-1.79h0a6.15,6.15,0,0,1,.47-1.53A4.14,4.14,0,0,1,37.11,25.56Z"/><path class="cls-4" d="M40.25,26.79l-1.51-.07c-.12-.8-.25-1.58-.36-2.29-.32-1.91-.6-3.62-.69-4.76a4.9,4.9,0,0,0,1.48,0c.1,1.07.38,2.77.67,4.53C40,25.11,40.12,26,40.25,26.79Z"/><path class="cls-4" d="M40.66,29.76a5.23,5.23,0,0,0-1.4.75c-.08-.72-.18-1.5-.29-2.29l1.5.05C40.54,28.8,40.61,29.29,40.66,29.76Z"/><path class="cls-4" d="M40.81,31.3a3.31,3.31,0,0,0-1.42,1.19c0-.56-.06-1.23-.13-2a5.23,5.23,0,0,1,1.4-.75C40.73,30.31,40.78,30.83,40.81,31.3Z"/><path class="cls-4" d="M40.62,34.34a3.7,3.7,0,0,1-1.18,1.56A7.82,7.82,0,0,1,39,34.25h0a1.94,1.94,0,0,0,.25-.45,4.16,4.16,0,0,0,.14-1.3h0a3.31,3.31,0,0,1,1.42-1.19A7.62,7.62,0,0,1,40.62,34.34Z"/><path class="cls-4" d="M38.1,36.54a4.2,4.2,0,0,1-1.61.1h-.05a9.9,9.9,0,0,0,.49-1.45,2.51,2.51,0,0,0,.73-.07A12.71,12.71,0,0,0,38.1,36.54Z"/><path class="cls-4" d="M35.52,34.77A9.58,9.58,0,0,1,35,36.19h0a3.59,3.59,0,0,1-1.81-2,4.45,4.45,0,0,1,.25-2.91,3.58,3.58,0,0,1,1.3.75,2.82,2.82,0,0,0-.15,1.68A2.06,2.06,0,0,0,35.52,34.77Z"/><path class="cls-4" d="M35.36,30.59A13.46,13.46,0,0,0,34.77,32a3.58,3.58,0,0,0-1.3-.75h0c.17-.45.37-.91.58-1.37A5,5,0,0,1,35.36,30.59Z"/><path class="cls-4" d="M36.54,28c-.24.61-.54,1.22-.83,1.82-.11.25-.24.5-.35.75a5,5,0,0,0-1.31-.7l.33-.69c.28-.57.55-1.16.78-1.72a3,3,0,0,0,1.33.54Z"/><path class="cls-4" d="M40.27,16.93a2.75,2.75,0,0,0-1,1.17,3.17,3.17,0,0,1-1.56.09,4.24,4.24,0,0,1,2.33-2.86A3.57,3.57,0,0,1,40.27,16.93Z"/><path class="cls-4" d="M43.56,14.87a6.77,6.77,0,0,0-.29,1.45,4.05,4.05,0,0,0-1.5,0,6.77,6.77,0,0,0-.29-1.45,6.05,6.05,0,0,1,2.08,0Z"/><path class="cls-4" d="M47.38,19q0,.3,0,.69a5.55,5.55,0,0,1-.72,0,5,5,0,0,1-.76-.06c0-.27,0-.49,0-.68a2.55,2.55,0,0,0-.16-.88,3.16,3.16,0,0,0,1.56.09A4.15,4.15,0,0,1,47.38,19Z"/><path class="cls-4" d="M47.3,18.19a3.16,3.16,0,0,1-1.56-.09,2.75,2.75,0,0,0-1-1.17,3.43,3.43,0,0,1,.2-1.6A4.24,4.24,0,0,1,47.3,18.19Z"/><path class="cls-4" d="M47.35,19.67c-.1,1.14-.37,2.85-.69,4.76-.11.71-.24,1.49-.37,2.29l-1.5.07c.13-.82.26-1.68.41-2.6.29-1.76.57-3.46.67-4.53a5,5,0,0,0,.76.06A5.55,5.55,0,0,0,47.35,19.67Z"/><path class="cls-4" d="M50.17,23.77a2.5,2.5,0,0,0-.76,1.79c0,.11,0,.23,0,.35a1.79,1.79,0,0,1-1.07.64l-.31,0a4.59,4.59,0,0,1-.12-1,4.15,4.15,0,0,1,1.76-3.32,6.66,6.66,0,0,1,.48,1.53Z"/><path class="cls-4" d="M51,29.89a5,5,0,0,0-1.31.7c-.11-.25-.24-.5-.36-.75-.28-.6-.58-1.21-.82-1.82h0a3,3,0,0,0,1.33-.54c.22.56.5,1.15.78,1.72Z"/><path class="cls-4" d="M51.57,31.26h0a3.58,3.58,0,0,0-1.3.75,13.46,13.46,0,0,0-.59-1.42,5,5,0,0,1,1.31-.7C51.2,30.35,51.4,30.81,51.57,31.26Z"/><path class="cls-4" d="M51.82,34.17a3.63,3.63,0,0,1-1.81,2,9.58,9.58,0,0,1-.49-1.42,2.06,2.06,0,0,0,.9-1.08A2.82,2.82,0,0,0,50.27,32a3.58,3.58,0,0,1,1.3-.75A4.45,4.45,0,0,1,51.82,34.17Z"/><path class="cls-4" d="M48.6,36.64h-.05a4.25,4.25,0,0,1-1.62-.1,11,11,0,0,0,.45-1.42,2.48,2.48,0,0,0,.72.07A10,10,0,0,0,48.6,36.64Z"/><path class="cls-4" d="M46,34.25a7,7,0,0,1-.43,1.64,3.53,3.53,0,0,1-1.18-1.55,7.62,7.62,0,0,1-.19-3,3.31,3.31,0,0,1,1.42,1.19h0a3.91,3.91,0,0,0,.14,1.3A2.84,2.84,0,0,0,46,34.25Z"/><path class="cls-4" d="M45.78,30.51c-.08.75-.12,1.42-.13,2a3.31,3.31,0,0,0-1.42-1.19c0-.47.08-1,.15-1.54A5.23,5.23,0,0,1,45.78,30.51Z"/><path class="cls-4" d="M46.07,28.22c-.11.79-.21,1.57-.29,2.29a5.23,5.23,0,0,0-1.4-.75c0-.47.12-1,.19-1.49Z"/><path class="cls-4" d="M54.58,21.55a11.78,11.78,0,0,0-.5,1.4,3.86,3.86,0,0,0-2.57,0,11.78,11.78,0,0,0-.5-1.4,5.46,5.46,0,0,1,3.57,0Z"/><path class="cls-4" d="M57.66,25.56a5.43,5.43,0,0,1-.1,1,4.1,4.1,0,0,1-1.39-.78,1.41,1.41,0,0,0,0-.2,2.5,2.5,0,0,0-.76-1.79h0a6.66,6.66,0,0,1,.48-1.53A4.15,4.15,0,0,1,57.66,25.56Z"/><path class="cls-4" d="M60.07,36.11a.73.73,0,0,1-.74.73h0a7.65,7.65,0,0,1-2.25-.4A11,11,0,0,0,57.53,35a6.53,6.53,0,0,0,1.81.34A.72.72,0,0,1,60.07,36.11Z"/><path class="cls-4" d="M56.16,34.24a5.89,5.89,0,0,1-.42,1.55,4.07,4.07,0,0,1-1.66-2.11,3.88,3.88,0,0,1,.05-2.38,3.63,3.63,0,0,1,1.31.82h0a2.12,2.12,0,0,0,0,1.07A2.45,2.45,0,0,0,56.16,34.24Z"/><path class="cls-4" d="M56,30.62a7.6,7.6,0,0,0-.51,1.5,3.63,3.63,0,0,0-1.31-.82,11.13,11.13,0,0,1,.51-1.39A4.74,4.74,0,0,1,56,30.62Z"/><path class="cls-4" d="M57.13,28c-.21.56-.47,1.1-.72,1.65-.16.34-.32.68-.46,1a4.74,4.74,0,0,0-1.31-.71l.43-.93c.26-.55.52-1.11.72-1.65A6,6,0,0,0,57.13,28Z"/><path class="cls-4" d="M29.25,27.33a6.23,6.23,0,0,1-1.34.63,8.26,8.26,0,0,1-.43-1.42,4,4,0,0,0,1.38-.78A5.81,5.81,0,0,0,29.25,27.33Z"/><path class="cls-4" d="M37,26.59A9.05,9.05,0,0,1,36.54,28h0a3,3,0,0,1-1.33-.54,6.49,6.49,0,0,0,.45-1.57,1.77,1.77,0,0,0,1.07.64Z"/><path class="cls-4" d="M40.47,28.27,39,28.22h0c-.07-.5-.15-1-.23-1.5l1.51.07C40.33,27.3,40.4,27.8,40.47,28.27Z"/><path class="cls-4" d="M46.29,26.72c-.07.5-.15,1-.22,1.5l-1.5.05c.07-.47.14-1,.22-1.48Z"/><path class="cls-4" d="M49.88,27.48a3,3,0,0,1-1.33.54h0a9.05,9.05,0,0,1-.45-1.43l.31,0a1.79,1.79,0,0,0,1.07-.64A6.49,6.49,0,0,0,49.88,27.48Z"/><path class="cls-4" d="M57.56,26.54A9.25,9.25,0,0,1,57.13,28a6,6,0,0,1-1.34-.63,5.77,5.77,0,0,0,.38-1.57A4.1,4.1,0,0,0,57.56,26.54Z"/><path class="cls-5" d="M29.17,18.62a5.75,5.75,0,0,1-1.35.61,7.37,7.37,0,0,1-.38-1.43A4,4,0,0,0,28.86,17v0A4.8,4.8,0,0,0,29.17,18.62Z"/><path class="cls-5" d="M29.64,15.26A2.42,2.42,0,0,0,28.86,17a4,4,0,0,1-1.42.79,4.62,4.62,0,0,1-.06-.74,4.13,4.13,0,0,1,1.79-3.33A4.83,4.83,0,0,1,29.64,15.26Z"/><path class="cls-5" d="M27.91,28a7.93,7.93,0,0,1-2.2.39h0a.74.74,0,0,1,0-1.48,6.19,6.19,0,0,0,1.78-.33A8.26,8.26,0,0,0,27.91,28Z"/><path class="cls-5" d="M31,25.19a4.13,4.13,0,0,1-1.71,2.14,5.81,5.81,0,0,1-.39-1.57,2.47,2.47,0,0,0,.7-1.06,1.9,1.9,0,0,0,.06-.93h0A3.38,3.38,0,0,1,31,23,3.72,3.72,0,0,1,31,25.19Z"/><path class="cls-5" d="M31,23a3.38,3.38,0,0,0-1.33.82,6.66,6.66,0,0,0-.48-1.53,5.27,5.27,0,0,1,1.31-.69A10.24,10.24,0,0,1,31,23Z"/><path class="cls-5" d="M30.45,21.55a5.27,5.27,0,0,0-1.31.69c-.15-.36-.33-.74-.51-1.13-.29-.62-.58-1.24-.81-1.88a5.75,5.75,0,0,0,1.35-.61,19.82,19.82,0,0,0,.8,1.87C30.13,20.84,30.3,21.2,30.45,21.55Z"/><path class="cls-5" d="M33.91,13a8.53,8.53,0,0,0-.45,1.41,3.9,3.9,0,0,0-1.22-.2,3.81,3.81,0,0,0-1.25.21,7.75,7.75,0,0,0-.5-1.39,5.27,5.27,0,0,1,1.75-.3A5.36,5.36,0,0,1,33.91,13Z"/><path class="cls-5" d="M37,18a8.22,8.22,0,0,1-.42,1.42l-.27-.09a4.23,4.23,0,0,1-1.06-.58,5.43,5.43,0,0,0,.37-1.64,3.06,3.06,0,0,0,1.21.83Z"/><path class="cls-5" d="M37.11,17.06a5.21,5.21,0,0,1-.1,1L36.84,18a3.06,3.06,0,0,1-1.21-.83v-.07a2.47,2.47,0,0,0-.79-1.81,5.17,5.17,0,0,1,.4-1.58A4.15,4.15,0,0,1,37.11,17.06Z"/><path class="cls-5" d="M49.78,18.77a4.12,4.12,0,0,1-1.07.58l-.26.09A8.22,8.22,0,0,1,48,18l.16-.05a3.12,3.12,0,0,0,1.22-.84A5.14,5.14,0,0,0,49.78,18.77Z"/><path class="cls-5" d="M36.59,19.44c-.22.56-.48,1.12-.73,1.67-.18.39-.36.77-.52,1.13A5.27,5.27,0,0,0,34,21.55c.16-.35.32-.71.49-1.06.26-.57.53-1.15.74-1.72a4.23,4.23,0,0,0,1.06.58Z"/><path class="cls-5" d="M35.34,22.24a6.15,6.15,0,0,0-.47,1.53A3.42,3.42,0,0,0,33.53,23a10.24,10.24,0,0,1,.5-1.4A5.27,5.27,0,0,1,35.34,22.24Z"/><path class="cls-5" d="M35.61,25.91a6.49,6.49,0,0,1-.45,1.57,4.51,4.51,0,0,1-1.63-2.29,3.8,3.8,0,0,1,0-2.24,3.42,3.42,0,0,1,1.34.82h0a2,2,0,0,0,.05.93A3.62,3.62,0,0,0,35.61,25.91Z"/><path class="cls-5" d="M39,28.22c-.92,0-1.75-.11-2.43-.2A9.05,9.05,0,0,0,37,26.59c.51.05,1.11.1,1.75.13C38.82,27.22,38.9,27.72,39,28.22Z"/><path class="cls-5" d="M44.79,26.79c-.08.51-.15,1-.22,1.48-1.34,0-2.76,0-4.1,0-.07-.47-.14-1-.22-1.48C41.72,26.83,43.32,26.83,44.79,26.79Z"/><path class="cls-5" d="M48.5,28c-.67.09-1.51.15-2.43.2.07-.5.15-1,.22-1.5.65,0,1.25-.08,1.76-.13A9.05,9.05,0,0,0,48.5,28Z"/><path class="cls-5" d="M51.51,25.19a4.57,4.57,0,0,1-1.63,2.29,6.49,6.49,0,0,1-.45-1.57,3.45,3.45,0,0,0,.68-1.21,1.9,1.9,0,0,0,.06-.93h0A3.42,3.42,0,0,1,51.51,23,3.8,3.8,0,0,1,51.51,25.19Z"/><path class="cls-5" d="M51.51,23a3.42,3.42,0,0,0-1.34.82,6.66,6.66,0,0,0-.48-1.53A5,5,0,0,1,51,21.55,11.78,11.78,0,0,1,51.51,23Z"/><path class="cls-5" d="M51,21.55a5,5,0,0,0-1.32.69c-.15-.36-.33-.74-.51-1.13-.25-.55-.52-1.11-.73-1.67l.26-.09a4.12,4.12,0,0,0,1.07-.58c.21.57.48,1.15.74,1.72C50.69,20.84,50.85,21.2,51,21.55Z"/><path class="cls-5" d="M49.41,17.06v.07a3.12,3.12,0,0,1-1.22.84L48,18a5.21,5.21,0,0,1-.1-1,4.15,4.15,0,0,1,1.87-3.39,5.18,5.18,0,0,1,.4,1.57A2.51,2.51,0,0,0,49.41,17.06Z"/><path class="cls-5" d="M54.55,13a8.13,8.13,0,0,0-.5,1.4,3.86,3.86,0,0,0-1.25-.21,3.9,3.9,0,0,0-1.22.2A8.53,8.53,0,0,0,51.13,13a5.36,5.36,0,0,1,1.67-.27A5.53,5.53,0,0,1,54.55,13Z"/><path class="cls-5" d="M57.6,17.8a7.37,7.37,0,0,1-.38,1.43,6,6,0,0,1-1.35-.61,5.08,5.08,0,0,0,.31-1.56v0A3.85,3.85,0,0,0,57.6,17.8Z"/><path class="cls-5" d="M57.66,17.06a4.62,4.62,0,0,1-.06.74A3.85,3.85,0,0,1,56.18,17a2.5,2.5,0,0,0-.78-1.75,4.83,4.83,0,0,1,.47-1.53A4.13,4.13,0,0,1,57.66,17.06Z"/><path class="cls-5" d="M57.22,19.23c-.23.64-.52,1.26-.81,1.88-.18.39-.36.77-.51,1.13a5,5,0,0,0-1.32-.69c.16-.35.32-.71.49-1.06.29-.62.58-1.26.8-1.87A6,6,0,0,0,57.22,19.23Z"/><path class="cls-5" d="M55.9,22.24a6.66,6.66,0,0,0-.48,1.53A3.35,3.35,0,0,0,54.08,23a11.78,11.78,0,0,1,.5-1.4A5,5,0,0,1,55.9,22.24Z"/><path class="cls-5" d="M56.17,25.76a5.77,5.77,0,0,1-.38,1.57,4.09,4.09,0,0,1-1.71-2.14,3.8,3.8,0,0,1,0-2.24,3.35,3.35,0,0,1,1.34.82h0a1.9,1.9,0,0,0,.06.93A2.45,2.45,0,0,0,56.17,25.76Z"/><path class="cls-5" d="M60.07,27.62a.74.74,0,0,1-.74.73h0a7.93,7.93,0,0,1-2.2-.39,9.25,9.25,0,0,0,.43-1.42,6.19,6.19,0,0,0,1.78.33A.74.74,0,0,1,60.07,27.62Z"/></g></g></svg>