<svg xmlns="http://www.w3.org/2000/svg" viewBox="0 0 28.35 28.35"><defs><style>.cls-1{fill:none;}.cls-2{fill:#fff;}</style></defs><title>Asset 673</title><g id="Layer_2" data-name="Layer 2"><g id="Layer_13" data-name="Layer 13"><rect class="cls-1" width="28.35" height="28.35"/><path class="cls-2" d="M17.25,25.38l.15-1.29c.09-.75.17-1.51.26-2.26a4.92,4.92,0,0,1,.27-1.32,3.3,3.3,0,0,1,2.82-2.07,1.34,1.34,0,0,0,1.05-.68c.39-.67.77-1.36,1.16-2A1.55,1.55,0,0,1,24.11,15,1.84,1.84,0,0,1,25,15l.07,0c.18.09.19.11.09.29l-1.29,2.3L23,19.19a.48.48,0,0,0,.82.49l.68-1.18,1.15-2c.17-.29.31-.59.47-.88a1,1,0,0,0-.33-1.19.26.26,0,0,0-.11-.07c-.18-.06-.19-.19-.19-.35,0-1.25,0-2.51,0-3.76a1.5,1.5,0,0,1,1.12-1.5h.07l.06.72c.06.91.12,1.82.19,2.73l.12,1.94c0,.65.09,1.3.14,1.95a1.86,1.86,0,0,1-.13.84c-.49,1.15-1,2.29-1.48,3.44-.11.25-.21.5-.33.75a2,2,0,0,1-1,1c-.47.23-.95.42-1.43.63a4.36,4.36,0,0,0-1.28.72,2.07,2.07,0,0,0-.74,1.5c0,.15,0,.3,0,.46Z"/><path class="cls-2" d="M18.74,13.55a2.93,2.93,0,0,1,1.15.59,3.05,3.05,0,0,1,1.06,2c0,.25.07.51.1.77a.49.49,0,0,1-.43.55,7,7,0,0,0-.89.17,4.09,4.09,0,0,0-1.84,1.15A4.37,4.37,0,0,0,17,20.19a.14.14,0,0,1-.1.08c-.48,0-1,.09-1.44.11-.82,0-1.65,0-2.47,0-.53,0-1-.06-1.57-.09a.14.14,0,0,1-.1-.08A4.4,4.4,0,0,0,10,18.37a4.17,4.17,0,0,0-2.19-.87.5.5,0,0,1-.42-.25l-.21-.38s0-.07,0-.1A5.2,5.2,0,0,1,7.62,15,2.77,2.77,0,0,1,9,13.72l.45-.16c.07,0,.11,0,.14.06A4.73,4.73,0,0,0,12.39,16a5.65,5.65,0,0,0,2.91.22,4.53,4.53,0,0,0,2.75-1.53,4.39,4.39,0,0,0,.63-1Z"/><path class="cls-2" d="M10.48,7.35a6.41,6.41,0,0,0,4.79-1.49A3,3,0,0,0,17.92,7c0,.13,0,.27,0,.41a6.62,6.62,0,0,1-.8,2.67,3.2,3.2,0,0,1-3.18,1.7,3,3,0,0,1-1.52-.49,3.3,3.3,0,0,1-1-1,6,6,0,0,1-.87-2.6Q10.5,7.5,10.48,7.35Z"/><path class="cls-2" d="M17.87,6a1,1,0,0,1-.56,0,2.18,2.18,0,0,1-1.48-1,.71.71,0,0,1-.07-.26.48.48,0,0,0-.95,0,.86.86,0,0,1-.25.5,3.59,3.59,0,0,1-1.54.9,6,6,0,0,1-2.46.29h-.1A4.07,4.07,0,0,1,10.8,5a3.52,3.52,0,0,1,1.12-1.36A4,4,0,0,1,13.73,3a3.87,3.87,0,0,1,1.62.15A3.41,3.41,0,0,1,17.8,5.71,2.29,2.29,0,0,1,17.87,6Z"/><path class="cls-2" d="M17.8,13.31a4.15,4.15,0,0,1-.27.47,3.51,3.51,0,0,1-2.21,1.45,4.64,4.64,0,0,1-3.27-.43,3.62,3.62,0,0,1-1.43-1.34,1.28,1.28,0,0,1-.1-.17l.67-.17a2.47,2.47,0,0,0,1-.43c.1-.09.19-.2.29-.3a4.49,4.49,0,0,0,3.47,0,1.72,1.72,0,0,0,1.22.76Z"/><path class="cls-2" d="M22.86,9v5.31a.21.21,0,0,1-.09.2,2.88,2.88,0,0,0-.81,1,2.19,2.19,0,0,1-.11.2,1.43,1.43,0,0,1,0-.54,6.71,6.71,0,0,0,0-.9V10.38A1.4,1.4,0,0,1,22.86,9Z"/><path class="cls-2" d="M24.55,14l-.74.06V8.54a1.46,1.46,0,0,1,1-1.37l.12,0c0,.41.05.82.08,1.22,0,.06,0,.13,0,.19a.46.46,0,0,1-.08.36,2.26,2.26,0,0,0-.34,1.26c0,1.22,0,2.44,0,3.67Z"/><path class="cls-2" d="M11.1,25.38c-.06-.44-.11-.86-.16-1.29-.08-.75-.17-1.51-.25-2.26a4.92,4.92,0,0,0-.27-1.32,3.12,3.12,0,0,0-.71-1.08,3.27,3.27,0,0,0-2.11-1,1.31,1.31,0,0,1-1-.68c-.39-.67-.77-1.36-1.16-2A1.56,1.56,0,0,0,4.24,15a1.83,1.83,0,0,0-.9.07l-.07,0c-.19.09-.2.11-.1.29l1.29,2.3c.29.51.58,1,.88,1.53a.46.46,0,0,1-.15.64.48.48,0,0,1-.68-.15L3.84,18.5l-1.16-2c-.16-.29-.3-.59-.46-.88a1,1,0,0,1,.32-1.19.34.34,0,0,1,.11-.07c.18-.06.2-.19.2-.35,0-1.25,0-2.51,0-3.76a1.5,1.5,0,0,0-1.12-1.5H1.65c0,.24,0,.48,0,.72-.06.91-.13,1.82-.19,2.73l-.12,1.94c-.05.65-.09,1.3-.14,1.95a1.73,1.73,0,0,0,.13.84c.49,1.15,1,2.29,1.48,3.44.1.25.21.5.32.75a2,2,0,0,0,1,1c.47.23,1,.42,1.43.63a4.63,4.63,0,0,1,1.28.72,2.07,2.07,0,0,1,.74,1.5v.46Z"/><path class="cls-2" d="M5.49,9v5.31a.21.21,0,0,0,.09.2,2.74,2.74,0,0,1,.8,1l.12.2a1.66,1.66,0,0,0,0-.54,6.71,6.71,0,0,1,0-.9V10.38A1.4,1.4,0,0,0,5.49,9Z"/><path class="cls-2" d="M3.79,14l.74.06V8.54a1.45,1.45,0,0,0-1-1.37l-.13,0c0,.41-.05.82-.07,1.22,0,.06,0,.13,0,.19a.51.51,0,0,0,.08.36,2.19,2.19,0,0,1,.35,1.26c0,1.22,0,2.44,0,3.67Z"/></g></g></svg>