<svg xmlns="http://www.w3.org/2000/svg" viewBox="0 0 85.04 42.52"><defs><style>.cls-1{fill:#dd1919;}.cls-2{fill:#fff;}.cls-3{fill:none;}.cls-4{fill:#0ba81d;}.cls-5{fill:#e29205;}</style></defs><title>Asset 681</title><g id="Layer_2" data-name="Layer 2"><g id="Layer_12" data-name="Layer 12"><circle class="cls-1" cx="66.06" cy="8.83" r="5.18"/><path class="cls-2" d="M69.05,11a.47.47,0,0,1-.71.13L66.46,9.5l0,0,.47,2.33a.48.48,0,0,1-.47.56h-.7a.47.47,0,0,1-.46-.55l.41-2.36,0,0L63.8,11.09a.47.47,0,0,1-.72-.12l-.38-.64A.48.48,0,0,1,63,9.65l2.29-.84,0,0L63,7.92a.48.48,0,0,1-.24-.69l.37-.6a.47.47,0,0,1,.71-.12L65.64,8.1h0l-.43-2.3a.48.48,0,0,1,.47-.56h.69a.48.48,0,0,1,.47.56l-.46,2.26,0,0,1.86-1.57a.48.48,0,0,1,.71.13l.37.65a.46.46,0,0,1-.24.67l-2.26.83v0l2.26.84a.47.47,0,0,1,.25.68Z"/><rect class="cls-3" width="85.04" height="42.52"/><path class="cls-2" d="M37,8.24a10.27,10.27,0,0,1-1.2,4c-.21.46-.41.91-.58,1.34A5,5,0,0,0,33.91,13c.17-.43.37-.86.56-1.29a9.22,9.22,0,0,0,1.07-3.42c0-1.61-1.48-2.83-3.44-2.83a3.21,3.21,0,0,0-3.39,3,8.33,8.33,0,0,0,1.18,3.37c.21.41.41.81.6,1.22a4.72,4.72,0,0,0-1.32.68c-.17-.4-.38-.81-.6-1.23a9.34,9.34,0,0,1-1.34-4A4.68,4.68,0,0,1,32.1,3.93C34.9,3.93,37,5.79,37,8.24Z"/><path class="cls-2" d="M31,16.37a4.12,4.12,0,0,1-1.79,2.19A4.85,4.85,0,0,1,28.86,17v-.06a2.56,2.56,0,0,0,.7-1.06,1.57,1.57,0,0,0,.08-.69A3.58,3.58,0,0,1,31,14.37,3.49,3.49,0,0,1,31,16.37Z"/><path class="cls-2" d="M27.82,19.17a8,8,0,0,1-2.11.36h0a.74.74,0,0,1,0-1.48,6.61,6.61,0,0,0,1.74-.32A7.66,7.66,0,0,0,27.82,19.17Z"/><path class="cls-2" d="M35.63,17.07a5.49,5.49,0,0,1-.37,1.64,4.9,4.9,0,0,1-1.73-2.34,3.8,3.8,0,0,1-.07-2,3.57,3.57,0,0,1,1.38.82,2,2,0,0,0,.08.7A3.49,3.49,0,0,0,35.63,17.07Z"/><path class="cls-2" d="M37.66,18.92c0,.19,0,.43,0,.69a6.25,6.25,0,0,1-1.1-.24A8.38,8.38,0,0,0,37,18a4.51,4.51,0,0,0,.73.16A4.26,4.26,0,0,0,37.66,18.92Z"/><path class="cls-2" d="M41.62,17.51A3,3,0,0,1,40,19.33a3.47,3.47,0,0,1-.87.26c0-.26,0-.49,0-.67A2.56,2.56,0,0,1,39.3,18l.12,0a1.59,1.59,0,0,0,.81-1c0-.05,0-.1,0-.15a3.69,3.69,0,0,1,1.5-.61A3.06,3.06,0,0,1,41.62,17.51Z"/><path class="cls-2" d="M47.38,8.24A12.4,12.4,0,0,1,46,12.75a22.45,22.45,0,0,0-1,2.52,5,5,0,0,0-1.41-.47,24.94,24.94,0,0,1,1.07-2.65A11.6,11.6,0,0,0,45.9,8.24c0-1.75-1.75-2.83-3.38-2.83s-3.39,1.08-3.39,2.83a11.64,11.64,0,0,0,1.28,3.91,24.94,24.94,0,0,1,1.07,2.65,5,5,0,0,0-1.41.47,22.45,22.45,0,0,0-1-2.52,12.4,12.4,0,0,1-1.4-4.51,4.62,4.62,0,0,1,4.86-4.31A4.62,4.62,0,0,1,47.38,8.24Z"/><path class="cls-2" d="M45.9,18.92c0,.18,0,.41,0,.67a3.35,3.35,0,0,1-.87-.26,3,3,0,0,1-1.58-1.82,3.06,3.06,0,0,1-.15-1.25,3.75,3.75,0,0,1,1.5.61.83.83,0,0,0,0,.15,1.59,1.59,0,0,0,.81,1l.12,0A2.56,2.56,0,0,1,45.9,18.92Z"/><path class="cls-2" d="M47.35,19.61c0-.26,0-.5,0-.69a4.26,4.26,0,0,0-.08-.8A4.51,4.51,0,0,0,48,18a8.38,8.38,0,0,0,.42,1.41A6,6,0,0,1,47.35,19.61Z"/><path class="cls-2" d="M51.51,16.37a5,5,0,0,1-1.73,2.34,5.2,5.2,0,0,1-.37-1.64,3.32,3.32,0,0,0,.7-1.19,1.78,1.78,0,0,0,.09-.7,3.57,3.57,0,0,1,1.38-.82A3.8,3.8,0,0,1,51.51,16.37Z"/><path class="cls-2" d="M57.81,8.39a9.36,9.36,0,0,1-1.35,4c-.21.42-.42.83-.59,1.23A4.72,4.72,0,0,0,54.55,13c.18-.41.39-.81.6-1.22a8.33,8.33,0,0,0,1.18-3.37,3.25,3.25,0,0,0-3.39-3c-2,0-3.44,1.19-3.44,2.83a9.22,9.22,0,0,0,1.07,3.42c.19.43.39.86.56,1.29a5,5,0,0,0-1.33.66c-.17-.44-.37-.89-.58-1.34a10.27,10.27,0,0,1-1.2-4c0-2.45,2.12-4.31,4.92-4.31A4.69,4.69,0,0,1,57.81,8.39Z"/><path class="cls-2" d="M56.18,17a5,5,0,0,1-.31,1.55,4.06,4.06,0,0,1-1.79-2.18,3.41,3.41,0,0,1,0-2,3.58,3.58,0,0,1,1.35.82,1.57,1.57,0,0,0,.08.69,2.47,2.47,0,0,0,.7,1.06Z"/><path class="cls-2" d="M60.07,18.8a.74.74,0,0,1-.74.73h0a8,8,0,0,1-2.11-.36,7.66,7.66,0,0,0,.38-1.44,6.61,6.61,0,0,0,1.74.32A.74.74,0,0,1,60.07,18.8Z"/><path class="cls-2" d="M36.44,36.57c-.18.44-.38.87-.58,1.3l-.1.22a.76.76,0,0,1-.67.42.91.91,0,0,1-.32-.06.76.76,0,0,1-.35-1l.1-.21c.17-.37.35-.75.51-1.13h0A4.62,4.62,0,0,0,36.44,36.57Z"/><path class="cls-2" d="M29.6,32.06a2.49,2.49,0,0,0-.74,1.77c0,.11,0,.23,0,.34a4,4,0,0,1-1.37.79,5.52,5.52,0,0,1-.13-1.13,4.11,4.11,0,0,1,1.71-3.28,7.47,7.47,0,0,1,.51,1.51Z"/><path class="cls-2" d="M29.71,38.45a.74.74,0,0,1-1-.36l-.1-.22c-.23-.49-.46-1-.67-1.5a5.86,5.86,0,0,0,1.34-.64c.19.5.43,1,.67,1.52l.1.21A.75.75,0,0,1,29.71,38.45Z"/><path class="cls-2" d="M34.05,29.83c-.21.45-.41.91-.58,1.36a4,4,0,0,0-1.23-.2,4.1,4.1,0,0,0-1.33.24,10.29,10.29,0,0,0-.52-1.39,5.47,5.47,0,0,1,3.66,0Z"/><path class="cls-2" d="M37.11,33.83a5.29,5.29,0,0,1-.18,1.3l-.25,0a2.89,2.89,0,0,1-1.16-.41,3.84,3.84,0,0,0,.11-.87A2.49,2.49,0,0,0,34.77,32a12.76,12.76,0,0,1,.59-1.43A4.12,4.12,0,0,1,37.11,33.83Z"/><path class="cls-2" d="M46.93,36.47c-.21.56-.46,1.14-.73,1.74a.73.73,0,0,1-.67.44.77.77,0,0,1-.3-.06.74.74,0,0,1-.38-1c.24-.53.52-1.16.75-1.78A3.64,3.64,0,0,0,46.93,36.47Z"/><path class="cls-2" d="M39.39,32.43A2.5,2.5,0,0,0,39,33.82c0,.11,0,.23,0,.36h0a2.18,2.18,0,0,1-1.34.88,5.48,5.48,0,0,1-.16-1.24,4.22,4.22,0,0,1,1.76-3.37c.07.74.12,1.42.13,2Z"/><path class="cls-2" d="M39.81,38.59a.74.74,0,0,1-1-.38c-.26-.6-.52-1.18-.73-1.74a3.61,3.61,0,0,0,1.34-.64c.23.63.51,1.25.75,1.78A.75.75,0,0,1,39.81,38.59Z"/><path class="cls-2" d="M44.38,29.69c-.07.56-.12,1.07-.15,1.54a4,4,0,0,0-3.42,0c0-.47-.08-1-.15-1.54a5.74,5.74,0,0,1,3.72,0Z"/><path class="cls-2" d="M47.54,33.82a5.48,5.48,0,0,1-.16,1.24A2.22,2.22,0,0,1,46,34.18a2.38,2.38,0,0,0,0-.36,2.5,2.5,0,0,0-.41-1.39h0c0-.56.05-1.24.13-2A4.25,4.25,0,0,1,47.54,33.82Z"/><path class="cls-2" d="M57.08,36.37c-.21.51-.44,1-.67,1.5l-.1.22a.75.75,0,0,1-.67.42.81.81,0,0,1-.31-.06.75.75,0,0,1-.36-1l.1-.21c.24-.51.47-1,.67-1.53A5.51,5.51,0,0,0,57.08,36.37Z"/><path class="cls-2" d="M49.41,33.83a3.84,3.84,0,0,0,.11.87,3,3,0,0,1-1.16.41l-.26,0a5.8,5.8,0,0,1-.17-1.3,4.12,4.12,0,0,1,1.75-3.31,13.46,13.46,0,0,1,.59,1.42A2.53,2.53,0,0,0,49.41,33.83Z"/><path class="cls-2" d="M50.26,38.45a.74.74,0,0,1-1-.36l-.1-.22c-.2-.43-.4-.86-.58-1.3A4.71,4.71,0,0,0,50,36.12c.16.38.34.76.51,1.13l.1.21A.75.75,0,0,1,50.26,38.45Z"/><path class="cls-2" d="M54.64,29.84a11.13,11.13,0,0,0-.51,1.39A4.1,4.1,0,0,0,52.8,31a4,4,0,0,0-1.23.2c-.17-.45-.37-.91-.58-1.36a5.37,5.37,0,0,1,1.81-.31A5.31,5.31,0,0,1,54.64,29.84Z"/><path class="cls-2" d="M57.66,33.83A5.36,5.36,0,0,1,57.53,35a3.77,3.77,0,0,1-1.37-.78c0-.12,0-.24,0-.35a2.49,2.49,0,0,0-.74-1.77h0A7.47,7.47,0,0,1,56,30.55,4.14,4.14,0,0,1,57.66,33.83Z"/><path class="cls-2" d="M29.3,35.73a5.86,5.86,0,0,1-1.34.64A11,11,0,0,1,27.51,35a4,4,0,0,0,1.37-.79A6.06,6.06,0,0,0,29.3,35.73Z"/><path class="cls-2" d="M39.44,35.83a3.61,3.61,0,0,1-1.34.64,13.24,13.24,0,0,1-.44-1.41A2.18,2.18,0,0,0,39,34.18,7.67,7.67,0,0,0,39.44,35.83Z"/><path class="cls-2" d="M36.93,35.13a10.2,10.2,0,0,1-.49,1.44h0A4.62,4.62,0,0,1,35,36.12a9.58,9.58,0,0,0,.49-1.42,2.89,2.89,0,0,0,1.16.41Z"/><path class="cls-2" d="M40.27,16.87a3.56,3.56,0,0,0-.2-1.6,5,5,0,0,1,1.41-.47,6.85,6.85,0,0,1,.29,1.46A3.69,3.69,0,0,0,40.27,16.87Z"/><path class="cls-2" d="M44.77,16.87a3.75,3.75,0,0,0-1.5-.61,6.85,6.85,0,0,1,.29-1.46,5,5,0,0,1,1.41.47A3.42,3.42,0,0,0,44.77,16.87Z"/><path class="cls-2" d="M50,36.12a4.71,4.71,0,0,1-1.41.45,10.26,10.26,0,0,1-.5-1.44l.26,0a3,3,0,0,0,1.16-.41A9.58,9.58,0,0,0,50,36.12Z"/><path class="cls-2" d="M47.38,35.06a11.4,11.4,0,0,1-.45,1.41,3.64,3.64,0,0,1-1.33-.64A7.2,7.2,0,0,0,46,34.18,2.22,2.22,0,0,0,47.38,35.06Z"/><path class="cls-2" d="M57.53,35a10.49,10.49,0,0,1-.45,1.41,5.51,5.51,0,0,1-1.34-.65,5.92,5.92,0,0,0,.42-1.54A3.77,3.77,0,0,0,57.53,35Z"/><path class="cls-2" d="M31,14.37a3.58,3.58,0,0,0-1.35.82,4.91,4.91,0,0,0-.47-1.53A4.72,4.72,0,0,1,30.49,13,8,8,0,0,1,31,14.37Z"/><path class="cls-2" d="M35.24,13.61a5.11,5.11,0,0,0-.4,1.57,3.57,3.57,0,0,0-1.38-.82A8.84,8.84,0,0,1,33.91,13,5,5,0,0,1,35.24,13.61Z"/><path class="cls-2" d="M51.58,14.36a3.57,3.57,0,0,0-1.38.82,5,5,0,0,0-.4-1.57A5,5,0,0,1,51.13,13,8.84,8.84,0,0,1,51.58,14.36Z"/><path class="cls-2" d="M55.87,13.66a4.91,4.91,0,0,0-.47,1.53,3.58,3.58,0,0,0-1.35-.82,7.75,7.75,0,0,1,.5-1.39A4.72,4.72,0,0,1,55.87,13.66Z"/><path class="cls-4" d="M39.13,18.92c0,.18,0,.41,0,.67a5.27,5.27,0,0,1-1.48,0c0-.26,0-.5,0-.69a4.26,4.26,0,0,1,.08-.8A3.06,3.06,0,0,0,39.3,18,2.56,2.56,0,0,0,39.13,18.92Z"/><path class="cls-4" d="M30.39,29.84a5.45,5.45,0,0,0-1.3.71c-.14-.33-.3-.67-.46-1-.25-.54-.51-1.09-.72-1.65a6.23,6.23,0,0,0,1.34-.63c.2.55.46,1.11.72,1.66C30.11,29.22,30.26,29.53,30.39,29.84Z"/><path class="cls-4" d="M30.91,31.23a3.45,3.45,0,0,0-1.31.83,7.47,7.47,0,0,0-.51-1.51,5.45,5.45,0,0,1,1.3-.71A10.29,10.29,0,0,1,30.91,31.23Z"/><path class="cls-4" d="M31,33.62a4.11,4.11,0,0,1-1.66,2.11,6.06,6.06,0,0,1-.42-1.56,2.45,2.45,0,0,0,.68-1,2.12,2.12,0,0,0,0-1.07h0a3.45,3.45,0,0,1,1.31-.83A3.91,3.91,0,0,1,31,33.62Z"/><path class="cls-4" d="M28,36.37a7.85,7.85,0,0,1-2.25.41h0a.74.74,0,0,1,0-1.48A6.59,6.59,0,0,0,27.51,35,11,11,0,0,0,28,36.37Z"/><path class="cls-4" d="M29.62,23.7a2.52,2.52,0,0,0-.76,1.79v.2a3.81,3.81,0,0,1-1.38.78,5.34,5.34,0,0,1-.1-1,4.13,4.13,0,0,1,1.76-3.31,6.59,6.59,0,0,1,.48,1.52Z"/><path class="cls-4" d="M34,21.49a9.67,9.67,0,0,0-.5,1.39,4,4,0,0,0-1.29-.22,4.11,4.11,0,0,0-1.29.22,9.67,9.67,0,0,0-.5-1.39,5.3,5.3,0,0,1,1.79-.31A5.22,5.22,0,0,1,34,21.49Z"/><path class="cls-4" d="M37.11,25.49a5.25,5.25,0,0,1-.12,1l-.31,0a1.68,1.68,0,0,1-1.07-.64c0-.12,0-.23,0-.35a2.52,2.52,0,0,0-.76-1.79h0a6.08,6.08,0,0,1,.47-1.52A4.12,4.12,0,0,1,37.11,25.49Z"/><path class="cls-4" d="M40.25,26.72l-1.51-.06c-.12-.81-.25-1.59-.36-2.29-.32-1.92-.6-3.63-.69-4.76a5.27,5.27,0,0,0,1.48,0c.1,1.08.38,2.77.67,4.54C40,25,40.12,25.9,40.25,26.72Z"/><path class="cls-4" d="M40.66,29.69a5,5,0,0,0-1.4.76c-.08-.72-.18-1.51-.29-2.3l1.5.06C40.54,28.73,40.61,29.23,40.66,29.69Z"/><path class="cls-4" d="M40.81,31.23a3.34,3.34,0,0,0-1.42,1.2c0-.56-.06-1.24-.13-2a5,5,0,0,1,1.4-.76C40.73,30.25,40.78,30.76,40.81,31.23Z"/><path class="cls-4" d="M40.62,34.27a3.58,3.58,0,0,1-1.18,1.56A7.67,7.67,0,0,1,39,34.18h0a2,2,0,0,0,.25-.46,4.08,4.08,0,0,0,.14-1.29h0a3.34,3.34,0,0,1,1.42-1.2A7.62,7.62,0,0,1,40.62,34.27Z"/><path class="cls-4" d="M38.1,36.47a4.42,4.42,0,0,1-1.61.11h-.05a10.2,10.2,0,0,0,.49-1.44,3.48,3.48,0,0,0,.73-.07A13.24,13.24,0,0,0,38.1,36.47Z"/><path class="cls-4" d="M35.52,34.7A9.58,9.58,0,0,1,35,36.12h0a3.56,3.56,0,0,1-1.81-2,4.42,4.42,0,0,1,.25-2.9,3.44,3.44,0,0,1,1.3.75,2.79,2.79,0,0,0-.15,1.67A2,2,0,0,0,35.52,34.7Z"/><path class="cls-4" d="M35.36,30.52A12.76,12.76,0,0,0,34.77,32a3.44,3.44,0,0,0-1.3-.75h0c.17-.45.37-.91.58-1.36A5,5,0,0,1,35.36,30.52Z"/><path class="cls-4" d="M36.54,28c-.24.61-.54,1.22-.83,1.82-.11.25-.24.5-.35.75a5,5,0,0,0-1.31-.69l.33-.7c.28-.57.55-1.15.78-1.71a3.06,3.06,0,0,0,1.33.53Z"/><path class="cls-4" d="M40.27,16.87a2.72,2.72,0,0,0-1,1.16,3.06,3.06,0,0,1-1.56.09,4.2,4.2,0,0,1,2.33-2.85A3.56,3.56,0,0,1,40.27,16.87Z"/><path class="cls-4" d="M43.56,14.8a6.85,6.85,0,0,0-.29,1.46,4.05,4.05,0,0,0-1.5,0,6.85,6.85,0,0,0-.29-1.46,6.05,6.05,0,0,1,2.08,0Z"/><path class="cls-4" d="M47.38,18.92c0,.19,0,.43,0,.69a5.58,5.58,0,0,1-.72,0,4,4,0,0,1-.76-.06c0-.26,0-.49,0-.67a2.56,2.56,0,0,0-.16-.89,3.05,3.05,0,0,0,1.56.09A4.26,4.26,0,0,1,47.38,18.92Z"/><path class="cls-4" d="M47.3,18.12A3.05,3.05,0,0,1,45.74,18a2.72,2.72,0,0,0-1-1.16,3.42,3.42,0,0,1,.2-1.6A4.2,4.2,0,0,1,47.3,18.12Z"/><path class="cls-4" d="M47.35,19.61c-.1,1.13-.37,2.84-.69,4.76-.11.7-.24,1.48-.37,2.29-.47,0-1,.05-1.5.06.13-.82.26-1.68.41-2.59.29-1.77.57-3.46.67-4.54a4,4,0,0,0,.76.06A5.58,5.58,0,0,0,47.35,19.61Z"/><path class="cls-4" d="M50.17,23.7a2.5,2.5,0,0,0-.76,1.79c0,.12,0,.23,0,.36a1.83,1.83,0,0,1-1.07.63l-.31,0a4.59,4.59,0,0,1-.12-1,4.13,4.13,0,0,1,1.76-3.31,6.45,6.45,0,0,1,.48,1.52Z"/><path class="cls-4" d="M51,29.83a5,5,0,0,0-1.31.69c-.11-.25-.24-.5-.36-.75-.28-.6-.58-1.21-.82-1.82h0a3.06,3.06,0,0,0,1.33-.53c.22.56.5,1.14.78,1.71Z"/><path class="cls-4" d="M51.57,31.19h0a3.56,3.56,0,0,0-1.3.74,13.46,13.46,0,0,0-.59-1.42A5,5,0,0,1,51,29.83C51.2,30.28,51.4,30.74,51.57,31.19Z"/><path class="cls-4" d="M51.82,34.1a3.59,3.59,0,0,1-1.81,2,9.58,9.58,0,0,1-.49-1.42,2,2,0,0,0,.9-1.08,2.82,2.82,0,0,0-.15-1.68,3.56,3.56,0,0,1,1.3-.74A4.42,4.42,0,0,1,51.82,34.1Z"/><path class="cls-4" d="M48.6,36.57h-.05a4.47,4.47,0,0,1-1.62-.11,11.4,11.4,0,0,0,.45-1.41,3.45,3.45,0,0,0,.72.07A10.26,10.26,0,0,0,48.6,36.57Z"/><path class="cls-4" d="M46,34.18a7.2,7.2,0,0,1-.43,1.65,3.56,3.56,0,0,1-1.18-1.56,7.62,7.62,0,0,1-.19-3,3.34,3.34,0,0,1,1.42,1.2h0a3.81,3.81,0,0,0,.14,1.29A2.48,2.48,0,0,0,46,34.18Z"/><path class="cls-4" d="M45.78,30.45c-.08.74-.12,1.42-.13,2a3.34,3.34,0,0,0-1.42-1.2c0-.47.08-1,.15-1.54A5,5,0,0,1,45.78,30.45Z"/><path class="cls-4" d="M46.07,28.15c-.11.79-.21,1.58-.29,2.3a5,5,0,0,0-1.4-.76c0-.46.12-1,.19-1.48C45.09,28.19,45.59,28.18,46.07,28.15Z"/><path class="cls-4" d="M54.58,21.49a11.05,11.05,0,0,0-.5,1.39,3.86,3.86,0,0,0-2.57,0,11.05,11.05,0,0,0-.5-1.39,5.29,5.29,0,0,1,3.57,0Z"/><path class="cls-4" d="M57.66,25.49a5.34,5.34,0,0,1-.1,1,3.93,3.93,0,0,1-1.39-.78,1.34,1.34,0,0,0,0-.2,2.52,2.52,0,0,0-.76-1.79h0a6.59,6.59,0,0,1,.48-1.52A4.13,4.13,0,0,1,57.66,25.49Z"/><path class="cls-4" d="M60.07,36a.74.74,0,0,1-.74.74h0a7.85,7.85,0,0,1-2.25-.41A10.49,10.49,0,0,0,57.53,35a6.13,6.13,0,0,0,1.81.34A.73.73,0,0,1,60.07,36Z"/><path class="cls-4" d="M56.16,34.18a5.92,5.92,0,0,1-.42,1.54,4.08,4.08,0,0,1-1.66-2.1,3.91,3.91,0,0,1,.05-2.39,3.53,3.53,0,0,1,1.31.83h0a2.12,2.12,0,0,0,0,1.07A2.55,2.55,0,0,0,56.16,34.18Z"/><path class="cls-4" d="M56,30.55a7.47,7.47,0,0,0-.51,1.51,3.53,3.53,0,0,0-1.31-.83,11.13,11.13,0,0,1,.51-1.39A5,5,0,0,1,56,30.55Z"/><path class="cls-4" d="M57.13,27.89c-.21.56-.47,1.11-.72,1.65-.16.34-.32.68-.46,1a5,5,0,0,0-1.31-.71c.14-.31.29-.62.43-.92.26-.55.52-1.11.72-1.66A6,6,0,0,0,57.13,27.89Z"/><path class="cls-4" d="M29.25,27.26a6.23,6.23,0,0,1-1.34.63,8.26,8.26,0,0,1-.43-1.42,3.81,3.81,0,0,0,1.38-.78A5.64,5.64,0,0,0,29.25,27.26Z"/><path class="cls-4" d="M37,26.52A9.05,9.05,0,0,1,36.54,28h0a3.06,3.06,0,0,1-1.33-.53,6.69,6.69,0,0,0,.45-1.58,1.68,1.68,0,0,0,1.07.64Z"/><path class="cls-4" d="M40.47,28.21,39,28.15h0c-.07-.5-.15-1-.23-1.49l1.51.06C40.33,27.23,40.4,27.73,40.47,28.21Z"/><path class="cls-4" d="M46.29,26.66c-.07.49-.15,1-.22,1.49-.48,0-1,0-1.5.06.07-.48.14-1,.22-1.49C45.31,26.71,45.82,26.68,46.29,26.66Z"/><path class="cls-4" d="M49.88,27.42a3.06,3.06,0,0,1-1.33.53h0a9.05,9.05,0,0,1-.45-1.43l.31,0a1.83,1.83,0,0,0,1.07-.63A6.75,6.75,0,0,0,49.88,27.42Z"/><path class="cls-4" d="M57.56,26.47a9.25,9.25,0,0,1-.43,1.42,6,6,0,0,1-1.34-.63,5.6,5.6,0,0,0,.38-1.57A3.93,3.93,0,0,0,57.56,26.47Z"/><path class="cls-5" d="M29.17,18.56a6.19,6.19,0,0,1-1.35.61,7.66,7.66,0,0,1-.38-1.44,3.85,3.85,0,0,0,1.42-.79V17A4.85,4.85,0,0,0,29.17,18.56Z"/><path class="cls-5" d="M29.64,15.19a2.44,2.44,0,0,0-.78,1.75,3.85,3.85,0,0,1-1.42.79,4.49,4.49,0,0,1-.06-.73,4.14,4.14,0,0,1,1.79-3.34A4.91,4.91,0,0,1,29.64,15.19Z"/><path class="cls-5" d="M27.91,27.89a7.53,7.53,0,0,1-2.2.39h0a.74.74,0,1,1,0-1.48,6.19,6.19,0,0,0,1.78-.33A8.26,8.26,0,0,0,27.91,27.89Z"/><path class="cls-5" d="M31,25.12a4.13,4.13,0,0,1-1.71,2.14,5.64,5.64,0,0,1-.39-1.57,2.49,2.49,0,0,0,.7-1.05,2,2,0,0,0,.06-.94h0A3.63,3.63,0,0,1,31,22.88,3.72,3.72,0,0,1,31,25.12Z"/><path class="cls-5" d="M31,22.88a3.63,3.63,0,0,0-1.33.82,6.59,6.59,0,0,0-.48-1.52,4.68,4.68,0,0,1,1.31-.69A9.67,9.67,0,0,1,31,22.88Z"/><path class="cls-5" d="M30.45,21.49a4.68,4.68,0,0,0-1.31.69c-.15-.37-.33-.75-.51-1.14-.29-.61-.58-1.24-.81-1.87a6.19,6.19,0,0,0,1.35-.61,19.66,19.66,0,0,0,.8,1.86C30.13,20.77,30.3,21.13,30.45,21.49Z"/><path class="cls-5" d="M33.91,13a8.84,8.84,0,0,0-.45,1.41,3.9,3.9,0,0,0-1.22-.2,4.1,4.1,0,0,0-1.25.21,8,8,0,0,0-.5-1.39,5.27,5.27,0,0,1,1.75-.29A5.36,5.36,0,0,1,33.91,13Z"/><path class="cls-5" d="M37,18a8.38,8.38,0,0,1-.42,1.41l-.27-.09a4.19,4.19,0,0,1-1.06-.57,5.49,5.49,0,0,0,.37-1.64,3.17,3.17,0,0,0,1.21.83Z"/><path class="cls-5" d="M37.11,17a5.21,5.21,0,0,1-.1,1l-.17-.06a3.17,3.17,0,0,1-1.21-.83V17a2.5,2.5,0,0,0-.79-1.82,5.11,5.11,0,0,1,.4-1.57A4.13,4.13,0,0,1,37.11,17Z"/><path class="cls-5" d="M49.78,18.71a4.44,4.44,0,0,1-1.07.58l-.26.08A8.38,8.38,0,0,1,48,18l.16-.06a3.2,3.2,0,0,0,1.22-.83A5.2,5.2,0,0,0,49.78,18.71Z"/><path class="cls-5" d="M36.59,19.37c-.22.57-.48,1.12-.73,1.67-.18.39-.36.77-.52,1.14A4.68,4.68,0,0,0,34,21.49c.16-.36.32-.72.49-1.07.26-.57.53-1.15.74-1.71a4.19,4.19,0,0,0,1.06.57Z"/><path class="cls-5" d="M35.34,22.18a6.08,6.08,0,0,0-.47,1.52,3.67,3.67,0,0,0-1.34-.82,9.67,9.67,0,0,1,.5-1.39A4.68,4.68,0,0,1,35.34,22.18Z"/><path class="cls-5" d="M35.61,25.84a6.69,6.69,0,0,1-.45,1.58,4.58,4.58,0,0,1-1.63-2.3,3.8,3.8,0,0,1,0-2.24,3.67,3.67,0,0,1,1.34.82h0a2.09,2.09,0,0,0,.05.94A3.57,3.57,0,0,0,35.61,25.84Z"/><path class="cls-5" d="M39,28.15c-.92,0-1.75-.11-2.43-.2A9.05,9.05,0,0,0,37,26.52c.51.06,1.11.1,1.75.14C38.82,27.15,38.9,27.65,39,28.15Z"/><path class="cls-5" d="M44.79,26.72c-.08.52-.15,1-.22,1.49-1.34,0-2.76,0-4.1,0-.07-.48-.14-1-.22-1.49C41.72,26.76,43.32,26.76,44.79,26.72Z"/><path class="cls-5" d="M48.5,28c-.67.09-1.51.16-2.43.2.07-.5.15-1,.22-1.49.65,0,1.25-.08,1.76-.14A9.05,9.05,0,0,0,48.5,28Z"/><path class="cls-5" d="M51.51,25.12a4.64,4.64,0,0,1-1.63,2.3,6.75,6.75,0,0,1-.45-1.57,3.54,3.54,0,0,0,.68-1.21,2,2,0,0,0,.06-.94h0a3.67,3.67,0,0,1,1.34-.82A3.8,3.8,0,0,1,51.51,25.12Z"/><path class="cls-5" d="M51.51,22.88a3.67,3.67,0,0,0-1.34.82,6.45,6.45,0,0,0-.48-1.52A4.74,4.74,0,0,1,51,21.49,11.05,11.05,0,0,1,51.51,22.88Z"/><path class="cls-5" d="M51,21.49a4.74,4.74,0,0,0-1.32.69c-.15-.37-.33-.75-.51-1.14-.25-.55-.52-1.1-.73-1.67l.26-.08a4.44,4.44,0,0,0,1.07-.58c.21.56.48,1.14.74,1.71C50.69,20.77,50.85,21.13,51,21.49Z"/><path class="cls-5" d="M49.41,17v.07a3.2,3.2,0,0,1-1.22.83L48,18a5.21,5.21,0,0,1-.1-1,4.12,4.12,0,0,1,1.87-3.39,5,5,0,0,1,.4,1.57A2.48,2.48,0,0,0,49.41,17Z"/><path class="cls-5" d="M54.55,13a7.75,7.75,0,0,0-.5,1.39,4.15,4.15,0,0,0-1.25-.21,3.9,3.9,0,0,0-1.22.2A8.84,8.84,0,0,0,51.13,13a5.36,5.36,0,0,1,1.67-.26A5.27,5.27,0,0,1,54.55,13Z"/><path class="cls-5" d="M57.6,17.73a7.66,7.66,0,0,1-.38,1.44,5.62,5.62,0,0,1-1.35-.62A5,5,0,0,0,56.18,17v-.06A3.85,3.85,0,0,0,57.6,17.73Z"/><path class="cls-5" d="M57.66,17a4.49,4.49,0,0,1-.06.73,3.85,3.85,0,0,1-1.42-.79,2.52,2.52,0,0,0-.78-1.75,4.91,4.91,0,0,1,.47-1.53A4.14,4.14,0,0,1,57.66,17Z"/><path class="cls-5" d="M57.22,19.17c-.23.63-.52,1.26-.81,1.87-.18.39-.36.77-.51,1.14a4.74,4.74,0,0,0-1.32-.69c.16-.36.32-.72.49-1.07.29-.62.58-1.25.8-1.87A5.62,5.62,0,0,0,57.22,19.17Z"/><path class="cls-5" d="M55.9,22.18a6.59,6.59,0,0,0-.48,1.52,3.59,3.59,0,0,0-1.34-.82,11.05,11.05,0,0,1,.5-1.39A4.74,4.74,0,0,1,55.9,22.18Z"/><path class="cls-5" d="M56.17,25.69a5.6,5.6,0,0,1-.38,1.57,4.09,4.09,0,0,1-1.71-2.14,3.8,3.8,0,0,1,0-2.24,3.59,3.59,0,0,1,1.34.82h0a2,2,0,0,0,.06.94A2.41,2.41,0,0,0,56.17,25.69Z"/><path class="cls-5" d="M60.07,27.55a.73.73,0,0,1-.74.73h0a7.53,7.53,0,0,1-2.2-.39,9.25,9.25,0,0,0,.43-1.42,6.19,6.19,0,0,0,1.78.33A.74.74,0,0,1,60.07,27.55Z"/></g></g></svg>