<svg xmlns="http://www.w3.org/2000/svg" viewBox="0 0 42.52 42.52"><defs><style>.cls-1{fill:none;}.cls-2{fill:#fff;}.cls-3{fill:#0ba81d;}.cls-4{fill:#e29205;}</style></defs><title>Asset 679</title><g id="Layer_2" data-name="Layer 2"><g id="Layer_12" data-name="Layer 12"><rect class="cls-1" width="42.52" height="42.52"/><path class="cls-2" d="M15.76,8.21a10.23,10.23,0,0,1-1.2,4c-.21.46-.41.91-.58,1.34a5,5,0,0,0-1.33-.65c.17-.43.37-.87.56-1.29a9.22,9.22,0,0,0,1.07-3.42c0-1.61-1.48-2.83-3.44-2.83a3.2,3.2,0,0,0-3.39,3,8.38,8.38,0,0,0,1.18,3.37c.21.4.41.81.6,1.22a4.72,4.72,0,0,0-1.32.68c-.17-.4-.38-.81-.59-1.23A9.36,9.36,0,0,1,6,8.36,4.69,4.69,0,0,1,10.84,3.9C13.64,3.9,15.76,5.75,15.76,8.21Z"/><path class="cls-2" d="M9.7,16.33a4.09,4.09,0,0,1-1.79,2.19A4.8,4.8,0,0,1,7.6,17v-.05a2.63,2.63,0,0,0,.7-1.06,1.57,1.57,0,0,0,.08-.69,3.46,3.46,0,0,1,1.35-.82A3.45,3.45,0,0,1,9.7,16.33Z"/><path class="cls-2" d="M6.56,19.13a7.52,7.52,0,0,1-2.11.36h0a.74.74,0,0,1,0-1.47,6.61,6.61,0,0,0,1.74-.32A7.37,7.37,0,0,0,6.56,19.13Z"/><path class="cls-2" d="M14.37,17A5.14,5.14,0,0,1,14,18.67a4.9,4.9,0,0,1-1.73-2.34,3.66,3.66,0,0,1-.06-2,3.61,3.61,0,0,1,1.37.82,1.8,1.8,0,0,0,.09.7A3.19,3.19,0,0,0,14.37,17Z"/><path class="cls-2" d="M16.4,18.88q0,.3,0,.69a7.53,7.53,0,0,1-1.1-.23,8.22,8.22,0,0,0,.42-1.42,4.41,4.41,0,0,0,.73.17A4.15,4.15,0,0,0,16.4,18.88Z"/><path class="cls-2" d="M20.36,17.47a2.94,2.94,0,0,1-1.58,1.82,3.37,3.37,0,0,1-.87.27c0-.27,0-.49,0-.68A2.55,2.55,0,0,1,18,18l.12-.05A1.54,1.54,0,0,0,19,17s0-.1,0-.16a3.83,3.83,0,0,1,1.5-.61A3.06,3.06,0,0,1,20.36,17.47Z"/><path class="cls-2" d="M26.12,8.21a12.36,12.36,0,0,1-1.4,4.5,24.07,24.07,0,0,0-1,2.52,5.3,5.3,0,0,0-1.41-.46,25.06,25.06,0,0,1,1.07-2.66,11.53,11.53,0,0,0,1.28-3.9c0-1.75-1.76-2.83-3.39-2.83s-3.38,1.08-3.38,2.83a11.48,11.48,0,0,0,1.27,3.9,25.06,25.06,0,0,1,1.07,2.66,5.3,5.3,0,0,0-1.41.46,24.07,24.07,0,0,0-1-2.52,12.36,12.36,0,0,1-1.4-4.5A4.61,4.61,0,0,1,21.26,3.9,4.61,4.61,0,0,1,26.12,8.21Z"/><path class="cls-2" d="M24.65,18.88c0,.19,0,.41,0,.68a3.5,3.5,0,0,1-.87-.27,2.94,2.94,0,0,1-1.58-1.82A3.06,3.06,0,0,1,22,16.22a3.83,3.83,0,0,1,1.5.61c0,.06,0,.11,0,.16a1.54,1.54,0,0,0,.81,1l.12.05A2.55,2.55,0,0,1,24.65,18.88Z"/><path class="cls-2" d="M26.09,19.57q0-.39,0-.69a3.47,3.47,0,0,0-.08-.79,4.41,4.41,0,0,0,.73-.17,8.22,8.22,0,0,0,.42,1.42A7.25,7.25,0,0,1,26.09,19.57Z"/><path class="cls-2" d="M30.25,16.33a4.9,4.9,0,0,1-1.73,2.34A5.14,5.14,0,0,1,28.15,17a3.35,3.35,0,0,0,.71-1.18,2,2,0,0,0,.08-.71,3.68,3.68,0,0,1,1.38-.81A3.76,3.76,0,0,1,30.25,16.33Z"/><path class="cls-2" d="M36.55,8.36a9.48,9.48,0,0,1-1.34,4c-.22.42-.43.83-.6,1.23a5,5,0,0,0-1.32-.69c.19-.4.39-.81.6-1.21a8.38,8.38,0,0,0,1.18-3.37,3.24,3.24,0,0,0-3.39-3c-2,0-3.44,1.19-3.44,2.83a9.22,9.22,0,0,0,1.07,3.42c.19.42.39.86.56,1.29a5,5,0,0,0-1.33.65c-.17-.43-.37-.88-.58-1.34a10.23,10.23,0,0,1-1.2-4c0-2.46,2.12-4.31,4.92-4.31A4.68,4.68,0,0,1,36.55,8.36Z"/><path class="cls-2" d="M34.92,17a4.8,4.8,0,0,1-.31,1.56,4.09,4.09,0,0,1-1.79-2.19,3.45,3.45,0,0,1,0-2,3.46,3.46,0,0,1,1.35.82,1.57,1.57,0,0,0,.08.69,2.63,2.63,0,0,0,.7,1.06Z"/><path class="cls-2" d="M38.81,18.76a.73.73,0,0,1-.73.73h0A7.52,7.52,0,0,1,36,19.13a7.37,7.37,0,0,0,.38-1.43,6.61,6.61,0,0,0,1.74.32A.72.72,0,0,1,38.81,18.76Z"/><path class="cls-2" d="M15.18,36.54c-.18.44-.38.87-.58,1.3l-.1.21a.74.74,0,0,1-.67.43.67.67,0,0,1-.31-.07.74.74,0,0,1-.36-1l.1-.21c.17-.38.35-.76.51-1.13h0A4.62,4.62,0,0,0,15.18,36.54Z"/><path class="cls-2" d="M8.34,32a2.49,2.49,0,0,0-.74,1.76c0,.12,0,.23,0,.35a4,4,0,0,1-1.37.79,5.54,5.54,0,0,1-.13-1.14,4.12,4.12,0,0,1,1.71-3.27A7.6,7.6,0,0,1,8.34,32Z"/><path class="cls-2" d="M8.45,38.41a.74.74,0,0,1-1-.36l-.1-.21c-.23-.49-.46-1-.67-1.5A5.9,5.9,0,0,0,8,35.69c.2.51.43,1,.67,1.53l.1.21A.74.74,0,0,1,8.45,38.41Z"/><path class="cls-2" d="M12.79,29.79c-.21.46-.41.92-.58,1.37A4,4,0,0,0,11,31a3.85,3.85,0,0,0-1.33.24,9.81,9.81,0,0,0-.52-1.39,5.39,5.39,0,0,1,3.66,0Z"/><path class="cls-2" d="M15.85,33.79a5.72,5.72,0,0,1-.17,1.3h-.26a2.89,2.89,0,0,1-1.16-.41,3.92,3.92,0,0,0,.11-.88,2.53,2.53,0,0,0-.86-1.88,13.46,13.46,0,0,1,.59-1.42A4.12,4.12,0,0,1,15.85,33.79Z"/><path class="cls-2" d="M25.67,36.44c-.21.55-.46,1.14-.73,1.74a.73.73,0,0,1-.67.44.8.8,0,0,1-.3-.06.76.76,0,0,1-.38-1c.24-.53.52-1.16.75-1.79A3.83,3.83,0,0,0,25.67,36.44Z"/><path class="cls-2" d="M18.13,32.39a2.53,2.53,0,0,0-.41,1.4,2.16,2.16,0,0,0,0,.35h0A2.16,2.16,0,0,1,16.4,35a5.47,5.47,0,0,1-.16-1.23A4.25,4.25,0,0,1,18,30.41c.08.75.12,1.42.13,2Z"/><path class="cls-2" d="M18.55,38.56a.74.74,0,0,1-1-.38c-.27-.6-.52-1.19-.73-1.74a4,4,0,0,0,1.33-.64c.23.62.51,1.25.75,1.78A.76.76,0,0,1,18.55,38.56Z"/><path class="cls-2" d="M23.12,29.66c-.07.55-.12,1.07-.15,1.54a4,4,0,0,0-3.42,0c0-.47-.08-1-.15-1.54a5.57,5.57,0,0,1,3.72,0Z"/><path class="cls-2" d="M26.28,33.79A5.47,5.47,0,0,1,26.12,35a2.12,2.12,0,0,1-1.34-.87c0-.13,0-.25,0-.36a2.53,2.53,0,0,0-.41-1.4h0c0-.56.06-1.23.13-2A4.25,4.25,0,0,1,26.28,33.79Z"/><path class="cls-2" d="M35.82,36.34c-.21.5-.44,1-.67,1.5l-.1.21a.74.74,0,0,1-.67.43.7.7,0,0,1-.31-.07.74.74,0,0,1-.36-1l.1-.21c.24-.51.48-1,.67-1.53A5.9,5.9,0,0,0,35.82,36.34Z"/><path class="cls-2" d="M28.15,33.79a3.92,3.92,0,0,0,.11.88,2.89,2.89,0,0,1-1.16.41h-.25a5.22,5.22,0,0,1-.18-1.3,4.12,4.12,0,0,1,1.75-3.3A13.46,13.46,0,0,1,29,31.91,2.53,2.53,0,0,0,28.15,33.79Z"/><path class="cls-2" d="M29,38.41a.74.74,0,0,1-1-.36l-.1-.21c-.2-.43-.4-.86-.58-1.3a4.62,4.62,0,0,0,1.41-.45c.16.37.34.75.51,1.13l.1.21A.74.74,0,0,1,29,38.41Z"/><path class="cls-2" d="M33.39,29.81a9.81,9.81,0,0,0-.52,1.39A3.85,3.85,0,0,0,31.54,31a4,4,0,0,0-1.23.2c-.17-.45-.37-.91-.58-1.37a5.39,5.39,0,0,1,3.66,0Z"/><path class="cls-2" d="M36.4,33.79a5.54,5.54,0,0,1-.13,1.14,4,4,0,0,1-1.37-.79c0-.11,0-.23,0-.35A2.49,2.49,0,0,0,34.18,32h0a7.6,7.6,0,0,1,.51-1.5A4.09,4.09,0,0,1,36.4,33.79Z"/><path class="cls-2" d="M8,35.69a5.9,5.9,0,0,1-1.34.65,11,11,0,0,1-.45-1.41,4,4,0,0,0,1.37-.79A6,6,0,0,0,8,35.69Z"/><path class="cls-2" d="M18.18,35.8a4,4,0,0,1-1.33.64A11,11,0,0,1,16.4,35a2.16,2.16,0,0,0,1.35-.87A7.2,7.2,0,0,0,18.18,35.8Z"/><path class="cls-2" d="M15.68,35.09a10,10,0,0,1-.5,1.45h0a4.62,4.62,0,0,1-1.41-.45,10,10,0,0,0,.49-1.42,2.89,2.89,0,0,0,1.16.41Z"/><path class="cls-2" d="M19,16.83a3.57,3.57,0,0,0-.2-1.6,5.3,5.3,0,0,1,1.41-.46,6.77,6.77,0,0,1,.29,1.45A3.83,3.83,0,0,0,19,16.83Z"/><path class="cls-2" d="M23.51,16.83a3.83,3.83,0,0,0-1.5-.61,6.77,6.77,0,0,1,.29-1.45,5.3,5.3,0,0,1,1.41.46A3.57,3.57,0,0,0,23.51,16.83Z"/><path class="cls-2" d="M28.75,36.09a4.62,4.62,0,0,1-1.41.45,8.84,8.84,0,0,1-.49-1.45h.25a2.89,2.89,0,0,0,1.16-.41A10,10,0,0,0,28.75,36.09Z"/><path class="cls-2" d="M26.12,35a11,11,0,0,1-.45,1.42,3.83,3.83,0,0,1-1.33-.65,7.59,7.59,0,0,0,.44-1.64A2.12,2.12,0,0,0,26.12,35Z"/><path class="cls-2" d="M36.27,34.93a11,11,0,0,1-.45,1.41,5.9,5.9,0,0,1-1.34-.65,5.89,5.89,0,0,0,.42-1.55A4,4,0,0,0,36.27,34.93Z"/><path class="cls-2" d="M9.73,14.34a3.46,3.46,0,0,0-1.35.82,4.83,4.83,0,0,0-.47-1.53A4.72,4.72,0,0,1,9.23,13,7.75,7.75,0,0,1,9.73,14.34Z"/><path class="cls-2" d="M14,13.57a5.17,5.17,0,0,0-.4,1.58,3.61,3.61,0,0,0-1.37-.82,7.63,7.63,0,0,1,.44-1.41A5,5,0,0,1,14,13.57Z"/><path class="cls-2" d="M30.32,14.33a3.68,3.68,0,0,0-1.38.81,5.18,5.18,0,0,0-.4-1.57,5,5,0,0,1,1.33-.65A8.53,8.53,0,0,1,30.32,14.33Z"/><path class="cls-2" d="M34.61,13.63a4.83,4.83,0,0,0-.47,1.53,3.46,3.46,0,0,0-1.35-.82,8.13,8.13,0,0,1,.5-1.4A5,5,0,0,1,34.61,13.63Z"/><path class="cls-3" d="M17.88,18.88c0,.19,0,.41,0,.68a4.9,4.9,0,0,1-1.48,0q0-.39,0-.69a4.15,4.15,0,0,1,.08-.79A3.16,3.16,0,0,0,18,18,2.55,2.55,0,0,0,17.88,18.88Z"/><path class="cls-3" d="M9.13,29.81a4.83,4.83,0,0,0-1.3.71c-.14-.33-.3-.67-.46-1-.25-.55-.51-1.09-.72-1.65A6,6,0,0,0,8,27.23c.2.54.46,1.1.72,1.65C8.85,29.19,9,29.5,9.13,29.81Z"/><path class="cls-3" d="M9.65,31.2A3.55,3.55,0,0,0,8.34,32a7.6,7.6,0,0,0-.51-1.5,4.83,4.83,0,0,1,1.3-.71A9.81,9.81,0,0,1,9.65,31.2Z"/><path class="cls-3" d="M9.7,33.58A4.07,4.07,0,0,1,8,35.69a6,6,0,0,1-.42-1.55,2.52,2.52,0,0,0,.68-1,2.12,2.12,0,0,0,0-1.07h0a3.55,3.55,0,0,1,1.31-.82A3.88,3.88,0,0,1,9.7,33.58Z"/><path class="cls-3" d="M6.7,36.34a7.65,7.65,0,0,1-2.25.4h0a.74.74,0,0,1,0-1.47,6.53,6.53,0,0,0,1.81-.34A11,11,0,0,0,6.7,36.34Z"/><path class="cls-3" d="M8.36,23.67a2.5,2.5,0,0,0-.76,1.79,1.41,1.41,0,0,0,0,.2,4.1,4.1,0,0,1-1.39.78,5.43,5.43,0,0,1-.1-1,4.15,4.15,0,0,1,1.76-3.32,6.66,6.66,0,0,1,.48,1.53Z"/><path class="cls-3" d="M12.77,21.45a11.78,11.78,0,0,0-.5,1.4A3.76,3.76,0,0,0,11,22.63a3.84,3.84,0,0,0-1.29.22,10.24,10.24,0,0,0-.5-1.4,5.55,5.55,0,0,1,1.79-.3A5.46,5.46,0,0,1,12.77,21.45Z"/><path class="cls-3" d="M15.85,25.46a5.25,5.25,0,0,1-.12,1l-.31,0a1.77,1.77,0,0,1-1.07-.64c0-.12,0-.24,0-.35a2.5,2.5,0,0,0-.76-1.79h0a6.66,6.66,0,0,1,.48-1.53A4.15,4.15,0,0,1,15.85,25.46Z"/><path class="cls-3" d="M19,26.69l-1.5-.07c-.13-.8-.26-1.58-.37-2.29-.32-1.91-.59-3.62-.69-4.76a4.9,4.9,0,0,0,1.48,0c.1,1.07.38,2.77.67,4.53C18.73,25,18.86,25.87,19,26.69Z"/><path class="cls-3" d="M19.4,29.66a5.23,5.23,0,0,0-1.4.75c-.08-.72-.18-1.5-.29-2.29l1.5.05C19.28,28.7,19.35,29.19,19.4,29.66Z"/><path class="cls-3" d="M19.55,31.2a3.31,3.31,0,0,0-1.42,1.19c0-.56-.05-1.23-.13-2a5.23,5.23,0,0,1,1.4-.75C19.47,30.21,19.52,30.73,19.55,31.2Z"/><path class="cls-3" d="M19.36,34.24a3.7,3.7,0,0,1-1.18,1.56,7.2,7.2,0,0,1-.43-1.65h0a2.38,2.38,0,0,0,.24-.45,4.2,4.2,0,0,0,.14-1.3h0a3.31,3.31,0,0,1,1.42-1.19A7.62,7.62,0,0,1,19.36,34.24Z"/><path class="cls-3" d="M16.85,36.44a4.26,4.26,0,0,1-1.62.1h-.05a10,10,0,0,0,.5-1.45A2.48,2.48,0,0,0,16.4,35,11,11,0,0,0,16.85,36.44Z"/><path class="cls-3" d="M14.26,34.67a10,10,0,0,1-.49,1.42h0a3.63,3.63,0,0,1-1.81-2,4.45,4.45,0,0,1,.25-2.91,3.58,3.58,0,0,1,1.3.75,2.82,2.82,0,0,0-.15,1.68A2.06,2.06,0,0,0,14.26,34.67Z"/><path class="cls-3" d="M14.1,30.49a13.46,13.46,0,0,0-.59,1.42,3.58,3.58,0,0,0-1.3-.75h0c.17-.45.37-.91.58-1.37A5,5,0,0,1,14.1,30.49Z"/><path class="cls-3" d="M15.28,27.92c-.24.61-.54,1.22-.82,1.82l-.36.75a5,5,0,0,0-1.31-.7l.33-.69c.28-.57.56-1.16.78-1.72a3,3,0,0,0,1.33.54Z"/><path class="cls-3" d="M19,16.83A2.69,2.69,0,0,0,18,18a3.16,3.16,0,0,1-1.56.09,4.24,4.24,0,0,1,2.33-2.86A3.57,3.57,0,0,1,19,16.83Z"/><path class="cls-3" d="M22.3,14.77A6.77,6.77,0,0,0,22,16.22a4.05,4.05,0,0,0-1.5,0,6.77,6.77,0,0,0-.29-1.45,6.05,6.05,0,0,1,2.08,0Z"/><path class="cls-3" d="M26.12,18.88q0,.3,0,.69a5.43,5.43,0,0,1-.72.05,5,5,0,0,1-.76-.06c0-.27,0-.49,0-.68a2.55,2.55,0,0,0-.17-.88,3.18,3.18,0,0,0,1.56.09A3.47,3.47,0,0,1,26.12,18.88Z"/><path class="cls-3" d="M26,18.09A3.18,3.18,0,0,1,24.48,18a2.69,2.69,0,0,0-1-1.17,3.57,3.57,0,0,1,.2-1.6A4.24,4.24,0,0,1,26,18.09Z"/><path class="cls-3" d="M26.09,19.57c-.09,1.14-.37,2.85-.69,4.76-.11.71-.24,1.49-.36,2.29l-1.51.07c.13-.82.27-1.69.41-2.6.29-1.76.57-3.46.67-4.53a5,5,0,0,0,.76.06A5.43,5.43,0,0,0,26.09,19.57Z"/><path class="cls-3" d="M28.91,23.67a2.5,2.5,0,0,0-.76,1.79c0,.11,0,.23,0,.35a1.79,1.79,0,0,1-1.07.64l-.31,0a5.25,5.25,0,0,1-.12-1,4.15,4.15,0,0,1,1.76-3.32,5.81,5.81,0,0,1,.48,1.53Z"/><path class="cls-3" d="M29.73,29.79a5,5,0,0,0-1.31.7c-.11-.25-.24-.5-.35-.75-.29-.6-.59-1.21-.83-1.82h.05a3,3,0,0,0,1.33-.54c.23.56.5,1.15.78,1.72Z"/><path class="cls-3" d="M30.31,31.16h0a3.58,3.58,0,0,0-1.3.75,13.46,13.46,0,0,0-.59-1.42,5,5,0,0,1,1.31-.7C29.94,30.25,30.14,30.71,30.31,31.16Z"/><path class="cls-3" d="M30.56,34.07a3.63,3.63,0,0,1-1.81,2,10,10,0,0,1-.49-1.42,2.06,2.06,0,0,0,.9-1.08A2.82,2.82,0,0,0,29,31.91a3.58,3.58,0,0,1,1.3-.75A4.45,4.45,0,0,1,30.56,34.07Z"/><path class="cls-3" d="M27.34,36.54h-.05a4.25,4.25,0,0,1-1.62-.1A11,11,0,0,0,26.12,35a2.51,2.51,0,0,0,.73.07A8.84,8.84,0,0,0,27.34,36.54Z"/><path class="cls-3" d="M24.78,34.15a7.59,7.59,0,0,1-.44,1.64,3.53,3.53,0,0,1-1.18-1.55,7.62,7.62,0,0,1-.19-3,3.31,3.31,0,0,1,1.42,1.19h0a4.2,4.2,0,0,0,.14,1.3A2.25,2.25,0,0,0,24.78,34.15Z"/><path class="cls-3" d="M24.52,30.41c-.07.75-.12,1.42-.13,2A3.31,3.31,0,0,0,23,31.2c0-.47.08-1,.15-1.54A5.23,5.23,0,0,1,24.52,30.41Z"/><path class="cls-3" d="M24.81,28.12c-.11.79-.21,1.57-.29,2.29a5.23,5.23,0,0,0-1.4-.75c.05-.47.12-1,.19-1.49Z"/><path class="cls-3" d="M33.33,21.45a10.24,10.24,0,0,0-.5,1.4,3.84,3.84,0,0,0-1.29-.22,3.76,3.76,0,0,0-1.29.22,11.78,11.78,0,0,0-.5-1.4,5.49,5.49,0,0,1,3.58,0Z"/><path class="cls-3" d="M36.4,25.46a5.43,5.43,0,0,1-.1,1,4,4,0,0,1-1.38-.78v-.2a2.5,2.5,0,0,0-.76-1.79h0a6.66,6.66,0,0,1,.48-1.53A4.15,4.15,0,0,1,36.4,25.46Z"/><path class="cls-3" d="M38.81,36a.73.73,0,0,1-.73.73h0a7.65,7.65,0,0,1-2.25-.4,11,11,0,0,0,.45-1.41,6.59,6.59,0,0,0,1.81.34A.72.72,0,0,1,38.81,36Z"/><path class="cls-3" d="M34.9,34.14a5.89,5.89,0,0,1-.42,1.55,4.07,4.07,0,0,1-1.66-2.11,3.88,3.88,0,0,1,0-2.38,3.55,3.55,0,0,1,1.31.82h0a2.12,2.12,0,0,0,0,1.07A2.45,2.45,0,0,0,34.9,34.14Z"/><path class="cls-3" d="M34.69,30.52a7.6,7.6,0,0,0-.51,1.5,3.55,3.55,0,0,0-1.31-.82,9.81,9.81,0,0,1,.52-1.39A4.83,4.83,0,0,1,34.69,30.52Z"/><path class="cls-3" d="M35.87,27.86c-.21.56-.47,1.1-.72,1.65-.16.34-.32.68-.46,1a4.83,4.83,0,0,0-1.3-.71c.13-.31.28-.62.42-.93.26-.55.52-1.11.72-1.65A6,6,0,0,0,35.87,27.86Z"/><path class="cls-3" d="M8,27.23a6,6,0,0,1-1.34.63,9.25,9.25,0,0,1-.43-1.42,4.1,4.1,0,0,0,1.39-.78A5.77,5.77,0,0,0,8,27.23Z"/><path class="cls-3" d="M15.73,26.49a9.05,9.05,0,0,1-.45,1.43h0a3,3,0,0,1-1.33-.54,6.49,6.49,0,0,0,.45-1.57,1.77,1.77,0,0,0,1.07.64Z"/><path class="cls-3" d="M19.21,28.17l-1.5-.05h0c-.07-.5-.15-1-.22-1.5l1.5.07C19.07,27.2,19.14,27.7,19.21,28.17Z"/><path class="cls-3" d="M25,26.62c-.08.5-.16,1-.23,1.5l-1.5.05c.07-.47.14-1,.22-1.48Z"/><path class="cls-3" d="M28.62,27.38a3,3,0,0,1-1.33.54h-.05a9.05,9.05,0,0,1-.45-1.43l.31,0a1.79,1.79,0,0,0,1.07-.64A6.49,6.49,0,0,0,28.62,27.38Z"/><path class="cls-3" d="M36.3,26.44a7.46,7.46,0,0,1-.43,1.42,6,6,0,0,1-1.34-.63,5.81,5.81,0,0,0,.39-1.57A4,4,0,0,0,36.3,26.44Z"/><path class="cls-4" d="M7.91,18.52a5.58,5.58,0,0,1-1.35.61,7.37,7.37,0,0,1-.38-1.43,4,4,0,0,0,1.42-.79V17A4.8,4.8,0,0,0,7.91,18.52Z"/><path class="cls-4" d="M8.38,15.16a2.5,2.5,0,0,0-.78,1.75,4,4,0,0,1-1.42.79A4.62,4.62,0,0,1,6.12,17a4.13,4.13,0,0,1,1.79-3.33A4.83,4.83,0,0,1,8.38,15.16Z"/><path class="cls-4" d="M6.65,27.86a7.93,7.93,0,0,1-2.2.39h0a.74.74,0,0,1,0-1.48,6.62,6.62,0,0,0,1.78-.33A9.25,9.25,0,0,0,6.65,27.86Z"/><path class="cls-4" d="M9.7,25.09A4.13,4.13,0,0,1,8,27.23a5.77,5.77,0,0,1-.38-1.57A2.45,2.45,0,0,0,8.3,24.6a1.9,1.9,0,0,0,.06-.93h0a3.38,3.38,0,0,1,1.33-.82A3.72,3.72,0,0,1,9.7,25.09Z"/><path class="cls-4" d="M9.69,22.85a3.38,3.38,0,0,0-1.33.82,6.66,6.66,0,0,0-.48-1.53,5.45,5.45,0,0,1,1.31-.69A10.24,10.24,0,0,1,9.69,22.85Z"/><path class="cls-4" d="M9.19,21.45a5.45,5.45,0,0,0-1.31.69c-.15-.36-.33-.74-.51-1.13-.29-.62-.58-1.24-.81-1.88a5.58,5.58,0,0,0,1.35-.61c.22.61.51,1.25.8,1.87C8.88,20.74,9,21.1,9.19,21.45Z"/><path class="cls-4" d="M12.65,12.92a7.63,7.63,0,0,0-.44,1.41,4,4,0,0,0-1.23-.2,3.86,3.86,0,0,0-1.25.21A7.75,7.75,0,0,0,9.23,13a5.27,5.27,0,0,1,1.75-.3A5.36,5.36,0,0,1,12.65,12.92Z"/><path class="cls-4" d="M15.75,17.92a8.22,8.22,0,0,1-.42,1.42l-.27-.09A4.23,4.23,0,0,1,14,18.67,5.14,5.14,0,0,0,14.37,17a3.06,3.06,0,0,0,1.21.83Z"/><path class="cls-4" d="M15.85,17a5.21,5.21,0,0,1-.1,1l-.17-.06A3.06,3.06,0,0,1,14.37,17V17a2.47,2.47,0,0,0-.79-1.81,5.17,5.17,0,0,1,.4-1.58A4.15,4.15,0,0,1,15.85,17Z"/><path class="cls-4" d="M28.52,18.67a4.12,4.12,0,0,1-1.07.58l-.26.09a8.22,8.22,0,0,1-.42-1.42l.16-.05A3.12,3.12,0,0,0,28.15,17,5.14,5.14,0,0,0,28.52,18.67Z"/><path class="cls-4" d="M15.33,19.34c-.22.56-.48,1.12-.73,1.67-.18.39-.36.77-.51,1.13a5.52,5.52,0,0,0-1.32-.69c.16-.35.32-.71.49-1.06.26-.57.53-1.15.74-1.72a4.23,4.23,0,0,0,1.06.58Z"/><path class="cls-4" d="M14.09,22.14a6.66,6.66,0,0,0-.48,1.53,3.42,3.42,0,0,0-1.34-.82,11.78,11.78,0,0,1,.5-1.4A5.52,5.52,0,0,1,14.09,22.14Z"/><path class="cls-4" d="M14.35,25.81a6.49,6.49,0,0,1-.45,1.57,4.51,4.51,0,0,1-1.63-2.29,3.8,3.8,0,0,1,0-2.24,3.42,3.42,0,0,1,1.34.82h0a1.9,1.9,0,0,0,.06.93A3.45,3.45,0,0,0,14.35,25.81Z"/><path class="cls-4" d="M17.71,28.12c-.92-.05-1.75-.11-2.43-.2a9.05,9.05,0,0,0,.45-1.43c.51.05,1.11.1,1.76.13C17.56,27.12,17.64,27.62,17.71,28.12Z"/><path class="cls-4" d="M23.53,26.69c-.08.51-.15,1-.22,1.48-1.34,0-2.76,0-4.1,0-.07-.47-.14-1-.22-1.48C20.46,26.73,22.06,26.73,23.53,26.69Z"/><path class="cls-4" d="M27.24,27.92c-.67.09-1.51.15-2.43.2.07-.5.15-1,.23-1.5.64,0,1.24-.08,1.75-.13A9.05,9.05,0,0,0,27.24,27.92Z"/><path class="cls-4" d="M30.25,25.09a4.51,4.51,0,0,1-1.63,2.29,6.49,6.49,0,0,1-.45-1.57,3.62,3.62,0,0,0,.69-1.21,2,2,0,0,0,.05-.93h0a3.42,3.42,0,0,1,1.34-.82A3.8,3.8,0,0,1,30.25,25.09Z"/><path class="cls-4" d="M30.25,22.85a3.42,3.42,0,0,0-1.34.82,5.81,5.81,0,0,0-.48-1.53,5,5,0,0,1,1.32-.69A11.78,11.78,0,0,1,30.25,22.85Z"/><path class="cls-4" d="M29.75,21.45a5,5,0,0,0-1.32.69c-.15-.36-.33-.74-.51-1.13-.25-.55-.52-1.11-.73-1.67l.26-.09a4.12,4.12,0,0,0,1.07-.58c.21.57.48,1.15.74,1.72C29.43,20.74,29.59,21.1,29.75,21.45Z"/><path class="cls-4" d="M28.15,17V17a3.12,3.12,0,0,1-1.22.84l-.16.05a5.21,5.21,0,0,1-.1-1,4.15,4.15,0,0,1,1.87-3.39,5.18,5.18,0,0,1,.4,1.57A2.51,2.51,0,0,0,28.15,17Z"/><path class="cls-4" d="M33.29,12.94a8.13,8.13,0,0,0-.5,1.4,3.86,3.86,0,0,0-1.25-.21,3.9,3.9,0,0,0-1.22.2,8.53,8.53,0,0,0-.45-1.41,5.36,5.36,0,0,1,1.67-.27A5.53,5.53,0,0,1,33.29,12.94Z"/><path class="cls-4" d="M36.34,17.7A7.37,7.37,0,0,1,36,19.13a6,6,0,0,1-1.35-.61A4.8,4.8,0,0,0,34.92,17v-.05A3.93,3.93,0,0,0,36.34,17.7Z"/><path class="cls-4" d="M36.4,17a4.62,4.62,0,0,1-.06.74,3.93,3.93,0,0,1-1.42-.79,2.42,2.42,0,0,0-.78-1.75,4.83,4.83,0,0,1,.47-1.53A4.13,4.13,0,0,1,36.4,17Z"/><path class="cls-4" d="M36,19.13c-.23.64-.52,1.26-.81,1.88-.18.39-.36.77-.51,1.13a5,5,0,0,0-1.31-.69c.15-.35.31-.71.48-1.06.29-.62.58-1.26.8-1.87A6,6,0,0,0,36,19.13Z"/><path class="cls-4" d="M34.64,22.14a6.66,6.66,0,0,0-.48,1.53,3.38,3.38,0,0,0-1.33-.82,10.24,10.24,0,0,1,.5-1.4A5,5,0,0,1,34.64,22.14Z"/><path class="cls-4" d="M34.92,25.66a5.81,5.81,0,0,1-.39,1.57,4.13,4.13,0,0,1-1.71-2.14,3.72,3.72,0,0,1,0-2.24,3.38,3.38,0,0,1,1.33.82h0a1.9,1.9,0,0,0,.06.93A2.47,2.47,0,0,0,34.92,25.66Z"/><path class="cls-4" d="M38.81,27.52a.73.73,0,0,1-.73.73h0a7.93,7.93,0,0,1-2.2-.39,7.46,7.46,0,0,0,.43-1.42,6.62,6.62,0,0,0,1.78.33A.74.74,0,0,1,38.81,27.52Z"/></g></g></svg>