<svg xmlns="http://www.w3.org/2000/svg" viewBox="0 0 56.69 28.35"><defs><style>.cls-1{fill:#fff;}.cls-2{fill:none;}</style></defs><title>Asset 557</title><g id="Layer_2" data-name="Layer 2"><g id="Layer_12" data-name="Layer 12"><path class="cls-1" d="M48.43,25.79a10.06,10.06,0,0,1-3,.5,5,5,0,0,1-3.64-1.21,4.35,4.35,0,0,1-1.26-3.25c0-3,2.18-4.68,5.12-4.68a6,6,0,0,1,2.48.44l-.42,1.62a5,5,0,0,0-2.09-.39,2.71,2.71,0,0,0-3,2.9,2.91,2.91,0,0,0,3.81,2.8V22.65H45.1V21.07h3.33Z"/><path class="cls-1" d="M8.76,25.09a.5.5,0,0,1-.5-.5V2.77a.5.5,0,0,1,.5-.5.51.51,0,0,1,.5.5V24.59A.51.51,0,0,1,8.76,25.09Z"/><path class="cls-1" d="M12.34,25.09a.51.51,0,0,1-.5-.5V2.77a.51.51,0,0,1,.5-.5.5.5,0,0,1,.5.5V24.59A.5.5,0,0,1,12.34,25.09Z"/><path class="cls-1" d="M15.92,25.09a.51.51,0,0,1-.5-.5V2.77a.51.51,0,0,1,.5-.5.5.5,0,0,1,.5.5V24.59A.5.5,0,0,1,15.92,25.09Z"/><path class="cls-1" d="M19.51,25.09a.5.5,0,0,1-.5-.5V2.77a.5.5,0,0,1,.5-.5.51.51,0,0,1,.5.5V24.59A.51.51,0,0,1,19.51,25.09Z"/><path class="cls-1" d="M23.09,25.09a.51.51,0,0,1-.5-.5V2.77a.51.51,0,0,1,.5-.5.5.5,0,0,1,.5.5V24.59A.5.5,0,0,1,23.09,25.09Z"/><path class="cls-1" d="M26.67,25.09a.51.51,0,0,1-.5-.5V2.77a.51.51,0,0,1,.5-.5.5.5,0,0,1,.5.5V24.59A.5.5,0,0,1,26.67,25.09Z"/><path class="cls-1" d="M30.26,25.09a.5.5,0,0,1-.5-.5V2.77a.5.5,0,0,1,.5-.5.51.51,0,0,1,.5.5V24.59A.51.51,0,0,1,30.26,25.09Z"/><path class="cls-1" d="M33.84,25.09a.51.51,0,0,1-.5-.5V2.77a.51.51,0,0,1,.5-.5.5.5,0,0,1,.5.5V24.59A.5.5,0,0,1,33.84,25.09Z"/><path class="cls-1" d="M37.42,25.09a.51.51,0,0,1-.5-.5V2.77a.51.51,0,0,1,.5-.5.5.5,0,0,1,.5.5V24.59A.5.5,0,0,1,37.42,25.09Z"/><rect class="cls-2" width="56.69" height="28.35"/></g></g></svg>