<svg xmlns="http://www.w3.org/2000/svg" viewBox="0 0 34.02 34.02"><defs><style>.cls-1{fill:#fff;}.cls-2{fill:none;}</style></defs><title>Asset 553</title><g id="Layer_2" data-name="Layer 2"><g id="Layer_12" data-name="Layer 12"><path class="cls-1" d="M29.45,10.72h-.2v-1h.14V5.43h-.14l0-1.2h.24a.37.37,0,0,0,.36-.37.36.36,0,0,0-.36-.36h-.11l.05-.1V3.05h-.48V1.48H26.53s-2.2.08-2.77,1.89c0,0-4.72,0-10,.24V11.3l.82.08s.63,0,.48.47S12,18.23,11.5,23.42c0,0-.3,0-.35.39s-.45,5.91-.45,5.91a.32.32,0,0,0,.21.28s0,.6.73.71S21.9,32,21.9,32s.61.12.84-.23.74-.45.74-4.87c0,0-5.14-2.22-5.57-3a1.62,1.62,0,0,1,.46-2.21s.24-.09.1-.23a2.15,2.15,0,0,1-.09-2.17l.37-.54a.2.2,0,0,0,0-.29c-.17-.16-.85-1.49,1.11-2.31a.68.68,0,0,0,.3-.11.6.6,0,0,1-.22-.16.5.5,0,0,1-.08-.33,8.9,8.9,0,0,1,.38-2,1.19,1.19,0,0,1,1.25-.72,3,3,0,0,1,.53.05l.07,0,.16.2,3.1.27.67.24h2.88V11.94l.36,0v-.47h.2a.36.36,0,0,0,.36-.36A.37.37,0,0,0,29.45,10.72Z"/><path class="cls-1" d="M20.41,13.57a8.59,8.59,0,0,0-.36,1.92s-.12.4.75.38l.31,0L22,13S20.7,12.75,20.41,13.57Z"/><path class="cls-1" d="M12.64,3.68V11.2l.76,0V3.63Z"/><path class="cls-1" d="M4.28,4.54a1.4,1.4,0,0,0-.86,1.37V9a1.38,1.38,0,0,0,.86,1.37,75.67,75.67,0,0,0,8.19.86V3.69A75.82,75.82,0,0,0,4.28,4.54Z"/><rect class="cls-2" width="34.02" height="34.02"/></g></g></svg>