<svg xmlns="http://www.w3.org/2000/svg" viewBox="0 0 56.69 28.35"><defs><style>.cls-1{fill:#fff;}.cls-2{fill:none;}</style></defs><title>Asset 556</title><g id="Layer_2" data-name="Layer 2"><g id="Layer_12" data-name="Layer 12"><path class="cls-1" d="M15.47,27.71A13.5,13.5,0,1,1,29,14.21,13.52,13.52,0,0,1,15.47,27.71Zm0-26A12.5,12.5,0,1,0,28,14.21,12.52,12.52,0,0,0,15.47,1.71Z"/><path class="cls-1" d="M22.56,6.44H19.81a1,1,0,0,0,0,2h1L9.28,20V19a1,1,0,1,0-2,0v2.75a1,1,0,0,0,1,1H11a1,1,0,1,0,0-2H10L21.56,9.15v1a1,1,0,1,0,2,0V7.44A1,1,0,0,0,22.56,6.44ZM11.12,21.18a.51.51,0,0,1,.5.5.5.5,0,0,1-.5.5H8.31a.5.5,0,0,1-.5-.5v-2.8a.5.5,0,0,1,1,0v2.3ZM23.06,10.25a.51.51,0,0,1-.5.5.5.5,0,0,1-.5-.5V7.94H19.8a.5.5,0,0,1,0-1h2.76a.5.5,0,0,1,.5.5Z"/><path class="cls-1" d="M32.63,17.43v9h-2V17.43Z"/><path class="cls-1" d="M34.36,22c0-.81,0-1.5-.06-2.07h1.76l.09.89h0a2.37,2.37,0,0,1,2-1c1.33,0,2.32.88,2.32,2.79v3.85h-2v-3.6c0-.84-.29-1.41-1-1.41a1.07,1.07,0,0,0-1,.76,1.27,1.27,0,0,0-.08.51v3.74h-2Z"/><path class="cls-1" d="M47,26.23a5.17,5.17,0,0,1-1.81.29,3.15,3.15,0,0,1-3.44-3.33,3.38,3.38,0,0,1,3.72-3.45A4.69,4.69,0,0,1,47,20l-.32,1.5a2.89,2.89,0,0,0-1.13-.2,1.69,1.69,0,0,0-1.74,1.82,1.7,1.7,0,0,0,1.78,1.83,3.14,3.14,0,0,0,1.16-.2Z"/><path class="cls-1" d="M48.14,17h2v3.71h0A2.37,2.37,0,0,1,51,20a2.26,2.26,0,0,1,1-.25c1.29,0,2.27.89,2.27,2.84v3.8h-2V22.81c0-.85-.29-1.44-1-1.44a1.08,1.08,0,0,0-1,.71,1.33,1.33,0,0,0-.07.45v3.85h-2Z"/><rect class="cls-2" width="56.69" height="28.35"/></g></g></svg>