<svg xmlns="http://www.w3.org/2000/svg" viewBox="0 0 56.69 28.35"><defs><style>.cls-1{fill:#fff;}.cls-2{fill:none;}</style></defs><title>Asset 555</title><g id="Layer_2" data-name="Layer 2"><g id="Layer_12" data-name="Layer 12"><path class="cls-1" d="M20.63,23.14a11.23,11.23,0,1,0-11.46-11A11.22,11.22,0,0,0,20.63,23.14ZM20.31,3.92a8,8,0,1,1-7.86,8A8,8,0,0,1,20.31,3.92Z"/><path class="cls-1" d="M36.69,15.22c.57-.54,1.15-1.06,1.74-1.58a2.7,2.7,0,0,0,1-2,2.59,2.59,0,0,0-1-2.32,9.63,9.63,0,0,0-1.06-.64L34.78,7.25l-3.6-2-1.51-.85a11.89,11.89,0,0,1,2.53,9.23,11.56,11.56,0,0,1-5,8.14A11.9,11.9,0,0,1,11,19.17a1.1,1.1,0,0,0,0,.16c-.08,1.23-.16,2.46-.25,3.69a5.21,5.21,0,0,0-.06.88,2,2,0,0,0,2.08,1.82H33.07a.21.21,0,0,0,.26-.2c.16-.67.32-1.34.49-2,.45-1.87.91-3.74,1.36-5.62A5.19,5.19,0,0,1,36.69,15.22Z"/><path class="cls-1" d="M38.56,8.2a.64.64,0,0,0-.38-1c-.44-.16-.88-.33-1.33-.46a6,6,0,0,1-3-1.87c-.32-.38-.68-.72-1-1.08a.65.65,0,0,0-1,0c-.16.22-.29.45-.45.7l7,4C38.44,8.39,38.51,8.3,38.56,8.2Z"/><path class="cls-1" d="M20.44,19.22a7.31,7.31,0,1,0-7.29-7.14A7.32,7.32,0,0,0,20.44,19.22Zm.78-7.85c0-.34.12-.46.46-.47h2a1,1,0,0,1,1,1.06V13.9s0,.11,0,.18h-.69v-2c0-.36-.09-.45-.46-.45h-.25v2.48h-.71V11.61h-.71v2.46h-.7c0-.07,0-.14,0-.21Zm-1.85,1.26a1.26,1.26,0,0,0-1.11-1,3.55,3.55,0,0,0-1.34-.06q-.48.08-.48-.42V8.86c0-.31.12-.42.43-.42h2.85v.69H17.15v1.73c.37,0,.73,0,1.08.09a2.32,2.32,0,0,1,1.33.62,1.84,1.84,0,0,1-.83,3.09,5.31,5.31,0,0,1-2.38,0l.13-.62c.52,0,1,0,1.51,0a2.47,2.47,0,0,0,.76-.17A1,1,0,0,0,19.37,12.63Z"/><path class="cls-1" d="M47.92,22.58v1.55h-.68V22.58H46.06v1.55h-.7V22.59H44.18v1.55H43.5V22.58H42.31v1.56h-.69V22.58H40.44v1.56h-.69V22.58H38.57v1.56h-.69V22.59H36.7v1.56h-.53c-.14,0-.17,0-.17-.19,0-.45,0-.9,0-1.38H34.76l-.63,2.58H49v2.49a.1.1,0,0,0,.1.1h.43a.09.09,0,0,0,.1-.1V22.58Z"/><rect class="cls-2" width="56.69" height="28.35"/></g></g></svg>