<svg xmlns="http://www.w3.org/2000/svg" viewBox="0 0 206.3 206.3"><defs><style>.cls-1{fill:none;}</style></defs><title>Asset 638</title><g id="Layer_2" data-name="Layer 2"><g id="Layer_13" data-name="Layer 13"><path d="M79.27,148.31l18.51,16.41L96.87,166a19.8,19.8,0,0,1-2.74.37c-16.66,0-33.32-.07-50,.08-4.46,0-6.3-1.55-6.28-6.12q.18-37.23,0-74.45c0-4.55,1.63-6.51,6.12-6.19,1.16.08,2.33,0,3.49,0,37.81,0,75.62,0,113.43.11,2.38,0,5.8.71,6.92,2.34,2.58,3.72,0,7.34-4.89,7.36-14.82.06-29.65.16-44.47,0-4.52-.06-6.17,1.45-6.1,6,.2,14.65-.09,29.32.14,44,.08,4.82-1.64,6.58-6.38,6.4-6.66-.25-13.33-.09-20,0-1.93,0-3.86.33-5.79.5Z"/><path d="M189.14,156.1c-.95,1.1-1.82,2.26-2.83,3.27-12.47,12.5-25,24.92-37.4,37.5-2.59,2.63-4.19,3.24-7.15.2-12.53-12.9-25.36-25.51-38.08-38.23-.8-.81-1.54-1.7-3.39-3.73,6,0,10.82-.24,15.62.07,4.51.29,6.16-1.26,6.08-5.91-.23-14.65.08-29.31-.16-44-.08-4.83,1.54-6.45,6.35-6.34,11.49.27,23,.24,34.48,0,4.58-.09,6.21,1.62,6.16,6.12-.15,14-.07,28,0,42,0,8,.05,8,8.34,8q5.5,0,11,.15C188.36,155.27,188.6,155.65,189.14,156.1Z"/><path d="M194.08,165.27c0,6.1.15,11.41-.05,16.7-.16,3.95-2.27,6.83-6.39,7.05-5.59.31-11.22.08-17.42.08,2.41-4.22,5.15-6.18,9.75-6.06,8.83.22,7.93.85,8-8.06C188,169.8,188.22,169.48,194.08,165.27Z"/><path d="M194,45.9a15.1,15.1,0,0,0-3.67-9.28c-8-8.69-16.62-16.82-24.91-25.26-3-3.08-6.48-4.18-10.76-4.17q-65.75.13-131.5.06c-9.07,0-11.07,2-11.07,11.27q0,79.74,0,159.49c0,9.39,2,11.3,11.53,11.31q45.49,0,91,0h6c-3.08-4.62-6-6.33-10.61-6.29-28.16.2-56.33.1-84.5.09-7.16,0-7.18,0-7.18-7V80.64c0-20.66.07-41.33-.06-62,0-3.39.77-5.11,4-5.27H41.76c4.31-.21,5.36,1.56,5.29,5.54C46.84,30.07,47,41.24,47,52.41c0,6.16.85,7,6.87,7q33.49,0,67,0c5.88,0,6.48-.65,6.5-6.73,0-10.66,0-21.33,0-32,0-7.24,0-7.25,7-7.27,6.5,0,13-.35,19.48.16A15.55,15.55,0,0,1,162.61,17c7.5,6.85,14.43,14.32,21.72,21.39a11.83,11.83,0,0,1,3.72,9.31c-.12,30.33-.07,60.66-.06,91,0,1.5-.26,3.13.24,4.45a3.91,3.91,0,0,0,2.72,2.24,4,4,0,0,0,2.83-2.1c.55-1.1.38-2.6.39-3.92C194.18,108.23,194.28,77.07,194,45.9ZM82.74,48.16c-.07,3.9-2.21,6-6.39,6-5.65-.12-11.3-.08-16.95,0-4.22,0-6-2.15-6-6.15,0-4.82,0-9.64,0-14.46v-14c0-4,1.8-6.17,6-6.09,5.65.1,11.3.16,17,0,4.24-.14,6.33,1.95,6.39,5.85Q83,33.71,82.74,48.16Z"/><rect class="cls-1" width="206.3" height="206.3"/></g></g></svg>