<svg xmlns="http://www.w3.org/2000/svg" viewBox="0 0 206.3 206.3"><defs><style>.cls-1{fill:none;}</style></defs><title>Asset 639</title><g id="Layer_2" data-name="Layer 2"><g id="Layer_13" data-name="Layer 13"><path d="M79.08,147.42l18.5,16.41-.9,1.32a20.15,20.15,0,0,1-2.75.37c-16.66,0-33.31-.07-50,.08-4.45,0-6.3-1.56-6.27-6.12q.16-37.23,0-74.45c0-4.55,1.63-6.51,6.11-6.19,1.16.08,2.33,0,3.5,0,37.81,0,75.61,0,113.42.1,2.38,0,5.8.71,6.92,2.34,2.58,3.73-.05,7.35-4.89,7.37-14.82.06-29.64.15-44.47,0-4.52-.06-6.17,1.45-6.1,6,.2,14.65-.08,29.31.15,44,.07,4.82-1.65,6.57-6.39,6.4-6.65-.25-13.32-.09-20,0-1.94,0-3.87.33-5.8.5Z"/><rect x="37.86" y="79.29" width="130.97" height="86.77" rx="4.29" ry="4.29"/><path d="M194.2,116.85h0c0-23.79,0-47.59-.16-71.38a15.13,15.13,0,0,0-3.67-9.29c-8-8.68-16.62-16.81-24.91-25.25-3-3.08-6.48-4.18-10.76-4.17q-65.75.13-131.5.06c-9.07,0-11.07,2-11.07,11.27q0,79.74,0,159.49c0,9.39,2,11.3,11.53,11.3q45.49,0,91,0h6l-.09-.14h61.68c1.83,0,3.65-.05,5.46-.15,4.12-.22,6.23-3.1,6.39-7.05.06-1.57.08-3.15.1-4.75h.07ZM59.39,13c5.65.1,11.3.16,17,0,4.24-.14,6.33,1.95,6.39,5.85q.24,14.46,0,28.91c-.07,3.9-2.21,6-6.39,6-5.65-.12-11.3-.08-16.95,0-4.22.05-6-2.15-6-6.16,0-4.81,0-9.63,0-14.45v-14C53.34,15.06,55.14,12.92,59.39,13ZM180,182.61a13.67,13.67,0,0,0-2,.1H112a14.43,14.43,0,0,0-2-.11q-18.15.12-36.29.11H56.45l-31,0c-7.16,0-7.18,0-7.18-7V80.21c0-20.66.07-41.33-.06-62,0-3.39.77-5.12,4-5.28H41.76c4.31-.21,5.36,1.55,5.29,5.54C46.84,29.64,47,40.81,47,52c0,6.15.85,7,6.87,7q33.49,0,67,0c5.88,0,6.48-.65,6.5-6.73,0-10.67,0-21.33,0-32,0-7.25,0-7.25,7-7.27,6.5,0,13-.36,19.48.16a15.55,15.55,0,0,1,8.75,3.44C170.11,23.46,177,30.92,184.33,38a11.85,11.85,0,0,1,3.72,9.31Q187.92,82.17,188,117v21.84a19.69,19.69,0,0,0,0,2.77V175.3C187.94,183.42,188.54,182.82,180,182.61Z"/><rect class="cls-1" width="206.3" height="206.3"/></g></g></svg>