<svg xmlns="http://www.w3.org/2000/svg" viewBox="0 0 317.48 22.68"><defs><style>.cls-1{fill:red;}.cls-2{fill:#fff;}.cls-3{fill:none;}</style></defs><title>Asset 592</title><g id="Layer_2" data-name="Layer 2"><g id="Layer_13" data-name="Layer 13"><path class="cls-1" d="M299.19.94h-283a7.34,7.34,0,0,0,0,14.67H29.06l5.36,5.62,5.35-5.62H299.19a7.34,7.34,0,1,0,0-14.67Z"/><path class="cls-2" d="M14,7.35h1V3.87a14.34,14.34,0,0,1,2.22-.18,4.62,4.62,0,0,1,3.27,1,3.77,3.77,0,0,1,1.14,2.94,4.27,4.27,0,0,1-1.16,3.15A5,5,0,0,1,16.85,12a16.91,16.91,0,0,1-1.9-.09V8.19H14Zm4.19.84H16v2.88a7.93,7.93,0,0,0,1,0,3.11,3.11,0,0,0,3.45-3.47c0-1.93-1.07-3.12-3.27-3.12A6,6,0,0,0,16,4.64V7.35h2.16Z"/><path class="cls-2" d="M26.12,11.87,26,11.14h0a2.15,2.15,0,0,1-1.77.87,1.66,1.66,0,0,1-1.78-1.67c0-1.41,1.25-2.17,3.49-2.16V8.06a1.19,1.19,0,0,0-1.32-1.34,2.84,2.84,0,0,0-1.51.43l-.24-.7a3.63,3.63,0,0,1,1.91-.51c1.77,0,2.2,1.21,2.2,2.37v2.17a8.24,8.24,0,0,0,.1,1.39Zm-2.71-6.8c0-.78.3-1.24.82-1.24a1.44,1.44,0,0,1,.74.26,1.16,1.16,0,0,0,.5.2c.2,0,.3-.1.34-.51h.55c0,.8-.25,1.21-.81,1.21a1.65,1.65,0,0,1-.74-.24,1.13,1.13,0,0,0-.51-.22c-.19,0-.29.21-.31.54ZM26,8.91c-1.15,0-2.45.18-2.45,1.31a.93.93,0,0,0,1,1,1.45,1.45,0,0,0,1.41-1A1.2,1.2,0,0,0,26,9.92Z"/><path class="cls-2" d="M36.25,5.25v5.12c0,.52,0,1.11,0,1.5h-.95l-.05-1h0a2.17,2.17,0,0,1-2,1.14c-1.41,0-2.48-1.19-2.48-3,0-1.93,1.18-3.11,2.6-3.11a2,2,0,0,1,1.75.88h0V5.25H32.83V4.59h2.36V3.36h1.06V4.59h.92v.66ZM35.19,8.43a1.65,1.65,0,0,0,0-.44,1.55,1.55,0,0,0-1.52-1.23c-1.09,0-1.74,1-1.74,2.25s.58,2.14,1.72,2.14a1.57,1.57,0,0,0,1.54-1.26,1.59,1.59,0,0,0,0-.45Z"/><path class="cls-2" d="M43.8,4.77a1.83,1.83,0,0,1,.21.87,1,1,0,0,1-1,1l-.13,0v3.63c0,.6,0,1.13,0,1.58H42l-.06-.94h0A2.21,2.21,0,0,1,40,12c-.91,0-2-.51-2-2.55V6.07H39V9.28c0,1.11.34,1.85,1.3,1.85a1.53,1.53,0,0,0,1.39-1,1.57,1.57,0,0,0,.09-.54V6.07h.83c.42,0,.57-.17.57-.47A1.46,1.46,0,0,0,43,4.91Z"/><path class="cls-2" d="M50.18,5.09a2,2,0,0,1,.2.87,1,1,0,0,1-1.11,1,3.06,3.06,0,0,1,.6,1.92A2.84,2.84,0,0,1,47,12a2.77,2.77,0,0,1-2.79-3,2.84,2.84,0,0,1,2.88-3.08,3.27,3.27,0,0,1,1,.16,3.49,3.49,0,0,0,1,.32.43.43,0,0,0,.48-.48,1.59,1.59,0,0,0-.19-.71ZM45.26,9c0,1.27.73,2.23,1.77,2.23s1.76-.94,1.76-2.25c0-1-.49-2.23-1.74-2.23S45.26,7.88,45.26,9Zm2.38,4.46a.6.6,0,0,1-.61.63.62.62,0,0,1,0-1.24A.61.61,0,0,1,47.64,13.44Z"/><path class="cls-2" d="M55.39,11.66a4,4,0,0,1-1.67.33,2.75,2.75,0,0,1-2.89-3A2.94,2.94,0,0,1,54,6a3.44,3.44,0,0,1,1.46.3l-.24.81A2.5,2.5,0,0,0,54,6.79,2,2,0,0,0,51.9,9a2,2,0,0,0,2,2.17,3.07,3.07,0,0,0,1.3-.28Z"/><path class="cls-2" d="M64.18,3.36v7c0,.52,0,1.11,0,1.5h-1l0-1h0a2.16,2.16,0,0,1-2,1.14c-1.4,0-2.48-1.19-2.48-3,0-1.93,1.19-3.11,2.6-3.11a1.94,1.94,0,0,1,1.75.88h0V3.36ZM63.13,8.43A1.65,1.65,0,0,0,63.08,8a1.56,1.56,0,0,0-1.52-1.23c-1.09,0-1.74,1-1.74,2.25s.57,2.14,1.71,2.14a1.67,1.67,0,0,0,1.6-1.71Z"/><path class="cls-2" d="M70.8,10.29c0,.6,0,1.13,0,1.58h-.93l-.06-.94h0A2.18,2.18,0,0,1,67.91,12c-.92,0-2-.51-2-2.55V6.07H67V9.28c0,1.11.33,1.85,1.29,1.85a1.52,1.52,0,0,0,1.39-1,1.57,1.57,0,0,0,.1-.54V6.07H70.8ZM67.91,3.56l1,1.72h-.75L66.74,3.56Z"/><path class="cls-2" d="M72.55,7.64c0-.6,0-1.09,0-1.57h.94l.06,1h0a2.14,2.14,0,0,1,1.92-1.09c.8,0,2,.48,2,2.47v3.46h-1V8.53c0-.94-.35-1.72-1.35-1.72a1.5,1.5,0,0,0-1.41,1.08,1.45,1.45,0,0,0-.07.49v3.49H72.55Z"/><path class="cls-2" d="M84.21,6.07c0,.42,0,.89,0,1.59V11a3.33,3.33,0,0,1-.82,2.65,3.08,3.08,0,0,1-2.11.7,3.79,3.79,0,0,1-1.94-.48l.27-.8a3.25,3.25,0,0,0,1.7.45c1.08,0,1.87-.56,1.87-2v-.65h0a2.08,2.08,0,0,1-1.85,1A2.59,2.59,0,0,1,78.79,9,2.78,2.78,0,0,1,81.4,5.94a2,2,0,0,1,1.82,1h0l.05-.87ZM83.12,8.36a1.44,1.44,0,0,0-.06-.48,1.53,1.53,0,0,0-1.48-1.12c-1,0-1.72.86-1.72,2.2,0,1.14.57,2.09,1.71,2.09A1.55,1.55,0,0,0,83,10a1.87,1.87,0,0,0,.08-.57Z"/><path class="cls-2" d="M90.91,8.24V9H88V8.24Z"/><path class="cls-2" d="M95.73,8.73h0c.14-.2.35-.45.51-.66l1.71-2h1.27L97,8.46l2.56,3.41H98.28l-2-2.78-.54.6v2.18h-1V3.36h1Z"/><path class="cls-2" d="M100.52,3.36h1.06V7h0a1.93,1.93,0,0,1,.76-.74,2.16,2.16,0,0,1,1.08-.3c.78,0,2,.48,2,2.48v3.45h-1V8.54c0-.94-.35-1.73-1.35-1.73a1.51,1.51,0,0,0-1.41,1.06,1.26,1.26,0,0,0-.07.5v3.5h-1.06Z"/><path class="cls-2" d="M112.43,8.92A2.84,2.84,0,0,1,109.54,12a2.76,2.76,0,0,1-2.78-3,2.83,2.83,0,0,1,2.88-3.08A2.74,2.74,0,0,1,112.43,8.92Zm-4.6.06c0,1.27.73,2.23,1.76,2.23s1.77-.94,1.77-2.25c0-1-.5-2.23-1.74-2.23S107.83,7.88,107.83,9ZM110,3.56l1.15,1.72h-.81l-.7-1.14h0l-.7,1.14h-.78l1.13-1.72Z"/><path class="cls-2" d="M113.77,7.64c0-.6,0-1.09,0-1.57h.94l.06,1h0a2.14,2.14,0,0,1,1.92-1.09c.8,0,2,.48,2,2.47v3.46h-1V8.53c0-.94-.35-1.72-1.35-1.72a1.5,1.5,0,0,0-1.41,1.08,1.45,1.45,0,0,0-.07.49v3.49h-1.06Z"/><path class="cls-2" d="M125.43,6.07c0,.42-.05.89-.05,1.59V11a3.33,3.33,0,0,1-.82,2.65,3.09,3.09,0,0,1-2.12.7,3.78,3.78,0,0,1-1.93-.48l.27-.8a3.25,3.25,0,0,0,1.7.45c1.08,0,1.87-.56,1.87-2v-.65h0a2.08,2.08,0,0,1-1.85,1A2.59,2.59,0,0,1,120,9a2.78,2.78,0,0,1,2.61-3.08,2,2,0,0,1,1.82,1h0l.05-.87Zm-1.09,2.29a1.44,1.44,0,0,0-.06-.48,1.53,1.53,0,0,0-1.48-1.12c-1,0-1.72.86-1.72,2.2,0,1.14.57,2.09,1.71,2.09A1.53,1.53,0,0,0,124.25,10a1.62,1.62,0,0,0,.09-.57Z"/><path class="cls-2" d="M131,4.4V6.07h1.51v.8H131V10c0,.72.21,1.13.79,1.13a2.78,2.78,0,0,0,.62-.07l0,.79a2.63,2.63,0,0,1-.93.14,1.45,1.45,0,0,1-1.14-.44,2.15,2.15,0,0,1-.41-1.51V6.87H129v-.8h.9V4.68Z"/><path class="cls-2" d="M133.65,3.36h1.06V7h0a1.93,1.93,0,0,1,.76-.74,2.16,2.16,0,0,1,1.08-.3c.78,0,2,.48,2,2.48v3.45h-1.05V8.54c0-.94-.35-1.73-1.34-1.73a1.51,1.51,0,0,0-1.42,1.06,1.26,1.26,0,0,0-.07.5v3.5h-1.06Z"/><path class="cls-2" d="M140.9,9.16a1.86,1.86,0,0,0,2,2,3.8,3.8,0,0,0,1.61-.3l.18.75a4.67,4.67,0,0,1-1.93.36,2.69,2.69,0,0,1-2.86-2.92c0-1.75,1-3.13,2.73-3.13A2.45,2.45,0,0,1,145,8.67a4.68,4.68,0,0,1,0,.49Zm3.1-.75a1.51,1.51,0,0,0-1.47-1.72,1.76,1.76,0,0,0-1.62,1.72Zm-1.08-4.85,1,1.72h-.79l-.62-1.13h0l-.61,1.13h-.77l1-1.72Zm.86.57c.19-.51.61-.62.61-1a.39.39,0,0,0-.41-.39c-.24,0-.43.22-.56.43l-.4-.24a1.28,1.28,0,0,1,1.15-.77.89.89,0,0,1,1,.85c0,.59-.5.7-.81,1.24Z"/><path class="cls-2" d="M148.72,10.79a2.76,2.76,0,0,0,1.4.42c.76,0,1.12-.38,1.12-.86s-.3-.78-1.08-1.07c-1-.37-1.53-.94-1.53-1.64a1.78,1.78,0,0,1,2-1.7,2.81,2.81,0,0,1,1.43.36l-.26.76a2.32,2.32,0,0,0-1.19-.33c-.63,0-1,.36-1,.79s.34.7,1.1,1c1,.39,1.52.89,1.52,1.75,0,1-.79,1.74-2.17,1.74a3.33,3.33,0,0,1-1.63-.39Z"/><path class="cls-2" d="M159.41,4.77a1.73,1.73,0,0,1,.22.87,1,1,0,0,1-1,1l-.13,0v3.63c0,.6,0,1.13.05,1.58h-.94l-.06-.94h0A2.21,2.21,0,0,1,155.59,12c-.91,0-2-.51-2-2.55V6.07h1.06V9.28c0,1.11.34,1.85,1.3,1.85a1.54,1.54,0,0,0,1.39-1,1.57,1.57,0,0,0,.09-.54V6.07h.83c.42,0,.56-.17.56-.47a1.45,1.45,0,0,0-.2-.69Zm-3.67.6c.15-.53.69-.68.69-1.12a.39.39,0,0,0-.41-.41.75.75,0,0,0-.58.42L155,4a1.27,1.27,0,0,1,1.17-.81.94.94,0,0,1,1,.9c0,.68-.64.87-.91,1.41Z"/><path class="cls-2" d="M163.45,11.87l-.09-.73h0a2.17,2.17,0,0,1-1.78.87,1.65,1.65,0,0,1-1.77-1.67c0-1.41,1.24-2.17,3.49-2.16V8.06A1.19,1.19,0,0,0,162,6.72a2.81,2.81,0,0,0-1.51.43l-.24-.7a3.6,3.6,0,0,1,1.9-.51c1.78,0,2.21,1.21,2.21,2.37v2.17a7.31,7.31,0,0,0,.1,1.39Zm-.16-3c-1.15,0-2.46.18-2.46,1.31a.94.94,0,0,0,1,1,1.44,1.44,0,0,0,1.4-1,.92.92,0,0,0,.06-.33Z"/><path class="cls-2" d="M169.83,4.4V6.07h1.51v.8h-1.51V10c0,.72.21,1.13.79,1.13a2.78,2.78,0,0,0,.62-.07l0,.79a2.63,2.63,0,0,1-.93.14,1.45,1.45,0,0,1-1.14-.44A2.15,2.15,0,0,1,168.8,10V6.87h-.9v-.8h.9V4.68Z"/><path class="cls-2" d="M173.05,9.16a1.86,1.86,0,0,0,2,2,3.83,3.83,0,0,0,1.61-.3l.18.75a4.71,4.71,0,0,1-1.93.36A2.69,2.69,0,0,1,172,9.07c0-1.75,1-3.13,2.72-3.13a2.45,2.45,0,0,1,2.4,2.73,4.68,4.68,0,0,1,0,.49Zm3.09-.75a1.5,1.5,0,0,0-1.46-1.72,1.75,1.75,0,0,0-1.62,1.72Zm-1-4.85,1.15,1.72h-.8l-.7-1.14h0L174,5.28h-.79l1.14-1.72Z"/><path class="cls-2" d="M178.47,7.64c0-.6,0-1.09-.05-1.57h.94l.06,1h0a2.14,2.14,0,0,1,1.92-1.09c.81,0,2,.48,2,2.47v3.46h-1V8.53c0-.94-.35-1.72-1.35-1.72a1.5,1.5,0,0,0-1.41,1.08,1.45,1.45,0,0,0-.07.49v3.49h-1.06Z"/><path class="cls-2" d="M190.12,8.24V9h-3V8.24Z"/><path class="cls-2" d="M198,11.66a4,4,0,0,1-1.67.33,2.75,2.75,0,0,1-2.89-3A3,3,0,0,1,196.6,6a3.45,3.45,0,0,1,1.47.3l-.24.81a2.54,2.54,0,0,0-1.23-.27,2,2,0,0,0-2,2.19,2,2,0,0,0,2,2.17,3,3,0,0,0,1.29-.28Z"/><path class="cls-2" d="M199.28,3.36h1.06V7h0a2,2,0,0,1,.75-.74,2.22,2.22,0,0,1,1.08-.3c.78,0,2,.48,2,2.48v3.45h-1.05V8.54c0-.94-.35-1.73-1.35-1.73a1.51,1.51,0,0,0-1.41,1.06,1.26,1.26,0,0,0-.07.5v3.5h-1.06Z"/><path class="cls-2" d="M206.07,5.37c.15-.53.69-.68.69-1.12a.39.39,0,0,0-.41-.41.73.73,0,0,0-.58.42L205.36,4a1.29,1.29,0,0,1,1.17-.81,1,1,0,0,1,1,.9c0,.68-.64.87-.91,1.41Zm-.13,6.5V6.07H207v5.8Z"/><path class="cls-2" d="M215.43,11.66a4,4,0,0,1-1.67.33,2.75,2.75,0,0,1-2.89-3A3,3,0,0,1,214,6a3.4,3.4,0,0,1,1.46.3l-.24.81A2.47,2.47,0,0,0,214,6.79,2,2,0,0,0,211.94,9a2,2,0,0,0,2,2.17,3.07,3.07,0,0,0,1.3-.28Z"/><path class="cls-2" d="M221.85,8.92A2.84,2.84,0,0,1,219,12a2.76,2.76,0,0,1-2.78-3,2.83,2.83,0,0,1,2.87-3.08A2.75,2.75,0,0,1,221.85,8.92ZM217.24,9c0,1.27.74,2.23,1.77,2.23s1.76-.94,1.76-2.25c0-1-.49-2.23-1.74-2.23S217.24,7.88,217.24,9Zm3.35-5.42-1.46,1.72h-.76l1.06-1.72Z"/><path class="cls-2" d="M227,4.4V6.07h1.51v.8H227V10c0,.72.2,1.13.79,1.13a2.6,2.6,0,0,0,.61-.07l0,.79a2.69,2.69,0,0,1-.94.14,1.43,1.43,0,0,1-1.13-.44A2.15,2.15,0,0,1,226,10V6.87h-.9v-.8h.9V4.68Z"/><path class="cls-2" d="M229.7,3.36h1.05V7h0a2,2,0,0,1,.75-.74,2.22,2.22,0,0,1,1.08-.3c.78,0,2,.48,2,2.48v3.45h-1V8.54c0-.94-.35-1.73-1.35-1.73a1.51,1.51,0,0,0-1.41,1.06,1.25,1.25,0,0,0-.08.5v3.5H229.7Z"/><path class="cls-2" d="M237,9.16a1.86,1.86,0,0,0,2,2,3.83,3.83,0,0,0,1.61-.3l.18.75a4.72,4.72,0,0,1-1.94.36,2.69,2.69,0,0,1-2.85-2.92c0-1.75,1-3.13,2.72-3.13a2.45,2.45,0,0,1,2.4,2.73,2.72,2.72,0,0,1,0,.49ZM240,8.41a1.5,1.5,0,0,0-1.46-1.72A1.75,1.75,0,0,0,237,8.41ZM239,3.56l1,1.72h-.79l-.61-1.13h0L238,5.28h-.76l1-1.72Zm.87.57c.19-.51.61-.62.61-1a.39.39,0,0,0-.41-.39c-.24,0-.43.22-.56.43l-.4-.24a1.27,1.27,0,0,1,1.15-.77.89.89,0,0,1,.95.85c0,.59-.5.7-.82,1.24Z"/><path class="cls-2" d="M244.77,10.79a2.69,2.69,0,0,0,1.39.42c.77,0,1.13-.38,1.13-.86s-.3-.78-1.08-1.07c-1-.37-1.53-.94-1.53-1.64a1.78,1.78,0,0,1,2-1.7,2.83,2.83,0,0,1,1.43.36l-.27.76a2.32,2.32,0,0,0-1.19-.33c-.62,0-1,.36-1,.79s.35.7,1.11,1c1,.39,1.52.89,1.52,1.75,0,1-.79,1.74-2.17,1.74a3.3,3.3,0,0,1-1.63-.39Z"/><path class="cls-2" d="M255.46,4.77a1.84,1.84,0,0,1,.22.87,1,1,0,0,1-1,1l-.14,0v3.63c0,.6,0,1.13,0,1.58h-.93l-.06-.94h0A2.18,2.18,0,0,1,251.63,12c-.91,0-2-.51-2-2.55V6.07h1.06V9.28c0,1.11.33,1.85,1.29,1.85a1.52,1.52,0,0,0,1.39-1,1.57,1.57,0,0,0,.1-.54V6.07h.83c.42,0,.56-.17.56-.47a1.45,1.45,0,0,0-.2-.69Zm-3.67.6c.14-.53.68-.68.68-1.12a.39.39,0,0,0-.4-.41.72.72,0,0,0-.58.42L251.08,4a1.29,1.29,0,0,1,1.18-.81.94.94,0,0,1,1,.9c0,.68-.64.87-.92,1.41Z"/><path class="cls-2" d="M259.49,11.87l-.08-.73h0a2.14,2.14,0,0,1-1.77.87,1.66,1.66,0,0,1-1.78-1.67c0-1.41,1.25-2.17,3.49-2.16V8.06A1.19,1.19,0,0,0,258,6.72a2.84,2.84,0,0,0-1.51.43l-.24-.7a3.63,3.63,0,0,1,1.91-.51c1.77,0,2.21,1.21,2.21,2.37v2.17a8.32,8.32,0,0,0,.09,1.39Zm-.15-3c-1.15,0-2.46.18-2.46,1.31a.93.93,0,0,0,1,1,1.45,1.45,0,0,0,1.41-1,1.2,1.2,0,0,0,.06-.33Z"/><path class="cls-2" d="M264.61,7.64c0-.6,0-1.09-.05-1.57h.92l0,.93h0a2,2,0,0,1,1.82-1.06A1.71,1.71,0,0,1,269,7.1h0a2.44,2.44,0,0,1,.64-.76,2,2,0,0,1,1.29-.4c.76,0,1.9.5,1.9,2.52v3.41h-1V8.59c0-1.12-.4-1.79-1.26-1.79a1.35,1.35,0,0,0-1.24,1,1.63,1.63,0,0,0-.09.53v3.58h-1V8.39c0-.92-.41-1.59-1.21-1.59a1.45,1.45,0,0,0-1.31,1.06,1.4,1.4,0,0,0-.08.51v3.5h-1Z"/><path class="cls-2" d="M277.83,11.87l-.08-.73h0a2.16,2.16,0,0,1-1.78.87,1.65,1.65,0,0,1-1.77-1.67c0-1.41,1.25-2.17,3.49-2.16V8.06a1.19,1.19,0,0,0-1.32-1.34,2.84,2.84,0,0,0-1.51.43l-.24-.7a3.61,3.61,0,0,1,1.91-.51c1.77,0,2.2,1.21,2.2,2.37v2.17a8.24,8.24,0,0,0,.1,1.39ZM277,3.56l1.14,1.72h-.8l-.7-1.14h0l-.7,1.14h-.78l1.13-1.72Zm.68,5.35c-1.15,0-2.46.18-2.46,1.31a.94.94,0,0,0,1,1,1.42,1.42,0,0,0,1.4-1,.92.92,0,0,0,.06-.33Zm-.45,4.53a.6.6,0,0,1-.6.63.62.62,0,0,1,0-1.24A.6.6,0,0,1,277.22,13.44Z"/><path class="cls-2" d="M281.62,4.4V6.07h1.51v.8h-1.51V10c0,.72.21,1.13.79,1.13a2.78,2.78,0,0,0,.62-.07l0,.79a2.63,2.63,0,0,1-.93.14,1.45,1.45,0,0,1-1.14-.44,2.15,2.15,0,0,1-.41-1.51V6.87h-.9v-.8h.9V4.68Z"/><path class="cls-2" d="M291.88,5.25v5.12c0,.52,0,1.11.05,1.5H291l-.05-1h0a2.17,2.17,0,0,1-2,1.14c-1.4,0-2.48-1.19-2.48-3,0-1.93,1.18-3.11,2.6-3.11a1.94,1.94,0,0,1,1.75.88h0V5.25h-2.36V4.59h2.36V3.36h1.06V4.59h.92v.66Zm-1.06,3.18a2.18,2.18,0,0,0,0-.44,1.56,1.56,0,0,0-1.53-1.23c-1.09,0-1.74,1-1.74,2.25s.58,2.14,1.72,2.14a1.59,1.59,0,0,0,1.55-1.26,2.09,2.09,0,0,0,0-.45Z"/><path class="cls-2" d="M298.89,8.92A2.84,2.84,0,0,1,296,12a2.77,2.77,0,0,1-2.79-3,2.84,2.84,0,0,1,2.88-3.08A2.75,2.75,0,0,1,298.89,8.92ZM294.28,9c0,1.27.73,2.23,1.77,2.23s1.76-.94,1.76-2.25c0-1-.49-2.23-1.74-2.23S294.28,7.88,294.28,9Zm2.12-5.42,1.14,1.72h-.8l-.69-1.14h0l-.69,1.14h-.78l1.12-1.72Zm.24,9.88a.61.61,0,0,1-.61.63.62.62,0,0,1,0-1.24A.6.6,0,0,1,296.64,13.44Z"/><path class="cls-2" d="M300,11.26a.7.7,0,0,1,.71-.74.68.68,0,0,1,.7.74.7.7,0,0,1-.7.75A.71.71,0,0,1,300,11.26Zm.3-1.71-.17-5.76h1.15l-.17,5.76Z"/><rect class="cls-3" width="317.48" height="22.68"/></g></g></svg>