<svg xmlns="http://www.w3.org/2000/svg" viewBox="0 0 288.74 288.74"><defs><style>.cls-1{fill:#008c35;}.cls-2{fill:#1c3560;}.cls-3{fill:#dd1919;}.cls-4{fill:#fff;}.cls-5{fill:none;}</style></defs><title>Asset 703</title><g id="Layer_2" data-name="Layer 2"><g id="Layer_13" data-name="Layer 13"><path class="cls-1" d="M60.42,32.45v7c0,.82,0,.82-.82.95a40.46,40.46,0,0,0-17.41,7.22C34,53.51,29.36,61.56,27.77,71.4a36.27,36.27,0,0,0,4.55,24.35,37.72,37.72,0,0,0,12.56,12.84,35.61,35.61,0,0,0,13.22,5.48c.63.12,1.26.19,1.9.25.3,0,.43.12.43.44,0,2.18,0,4.35,0,6.53,0,.39-.18.5-.52.45-1.6-.22-3.21-.35-4.78-.7a44.63,44.63,0,0,1-26-16.25,42.89,42.89,0,0,1-9-20.55c-2-13.68,1.38-25.91,10.35-36.43A43.7,43.7,0,0,1,56.2,33c1.25-.24,2.53-.37,3.79-.54A3,3,0,0,1,60.42,32.45Z"/><path class="cls-1" d="M68.75,114.43c1.31-.23,2.59-.39,3.85-.69a38.74,38.74,0,0,0,14.07-6.85,37,37,0,0,0,5.49-54.71A36.91,36.91,0,0,0,81,44.11a39.29,39.29,0,0,0-11.93-3.74.46.46,0,0,1-.33-.32c0-2.51,0-5,0-7.69,13.67,1.58,24.62,7.74,32.58,18.87a44.88,44.88,0,0,1-17.45,66.45,42.43,42.43,0,0,1-15.09,4.14Z"/><path class="cls-2" d="M82.18,50,67.56,70.26H81.5c-.21.27-.33.44-.47.59L54.28,101.78c-1.26,1.46-2.52,2.93-3.8,4.38a1.84,1.84,0,0,1-.56.28,1.65,1.65,0,0,1,0-.63q5-11.64,10-23.25l.28-.73H48.35c.38-1,.72-1.84,1-2.71L60.14,50.57c.12-.33.22-.57.68-.57,7,0,14,0,21,0Z"/><circle class="cls-3" cx="122.03" cy="107.23" r="14.59"/><path class="cls-4" d="M117.9,115.44v-2.08l2.93-.36V101.28h-3v-2l6.42-1.17V113l2.92.36v2.08Z"/><path class="cls-1" d="M60.42,166.8v7c0,.82,0,.82-.82.95A40.6,40.6,0,0,0,42.19,182c-8.19,5.85-12.83,13.9-14.42,23.73a36.27,36.27,0,0,0,4.55,24.35A37.75,37.75,0,0,0,44.88,243a35.77,35.77,0,0,0,13.22,5.48c.63.11,1.26.18,1.9.24.3,0,.43.12.43.44,0,2.18,0,4.36,0,6.54,0,.38-.18.5-.52.45-1.6-.23-3.21-.36-4.78-.71a44.58,44.58,0,0,1-26-16.25,42.84,42.84,0,0,1-9-20.55c-2-13.68,1.38-25.9,10.35-36.43A43.68,43.68,0,0,1,56.2,167.35c1.25-.24,2.53-.37,3.79-.55C60.1,166.79,60.21,166.8,60.42,166.8Z"/><path class="cls-1" d="M68.75,248.78c1.31-.23,2.59-.39,3.85-.69a38.88,38.88,0,0,0,14.07-6.84,37,37,0,0,0,5.49-54.71A37,37,0,0,0,81,178.46a39,39,0,0,0-11.93-3.73c-.13,0-.33-.21-.33-.33,0-2.51,0-5,0-7.69,13.67,1.59,24.62,7.74,32.58,18.88A44.88,44.88,0,0,1,83.84,252a42.22,42.22,0,0,1-15.09,4.14Z"/><path class="cls-2" d="M82.18,184.39,67.56,204.61H81.5c-.21.27-.33.44-.47.59L54.28,236.13c-1.26,1.46-2.52,2.93-3.8,4.38-.13.15-.37.19-.56.28a1.65,1.65,0,0,1,0-.63q5-11.62,10-23.25l.28-.72H48.35c.38-1,.72-1.85,1-2.72l10.74-28.55c.12-.33.22-.57.68-.57q10.5,0,21,0Z"/><circle class="cls-3" cx="122.03" cy="241.58" r="14.59"/><path class="cls-4" d="M116.45,249.79v-2.27l5.61-6a17.09,17.09,0,0,0,1.34-1.67,5.81,5.81,0,0,0,.7-1.3,3.8,3.8,0,0,0,.2-1.18,2.63,2.63,0,0,0-.57-1.71,2.07,2.07,0,0,0-1.7-.7,2.16,2.16,0,0,0-1.81.78,3.32,3.32,0,0,0-.62,2.15h-3.38l0-.08a5.35,5.35,0,0,1,.67-2.82,5.08,5.08,0,0,1,2-2,6.5,6.5,0,0,1,3.16-.74,6.84,6.84,0,0,1,3.06.64,4.67,4.67,0,0,1,2,1.78,5,5,0,0,1,.69,2.64,5.27,5.27,0,0,1-.37,1.94,8.76,8.76,0,0,1-1.15,1.92c-.53.67-1.2,1.44-2,2.32l-3.36,3.61,0,.06h4.49l.17-1.65h2.69v4.3Z"/><path class="cls-4" d="M139.31,216.15v-2.79h3.17v2.79Zm0,9v-2.79h3.17v2.79Z"/><path class="cls-4" d="M149.38,225.16v-1.91l1.69-.33V211.51l-1.69-.33v-1.92h4.92l6.93,11h.06v-8.77l-2-.33v-1.92h6.59v1.92l-1.71.33v13.65h-3.08L154,214.24h-.07v8.67l2,.33v1.91Z"/><path class="cls-4" d="M165.68,225.16v-1.91l1.14-.16,5.05-13.83h3.27l5,13.83,1.14.16v1.91h-5.42v-1.91l1.1-.2-.69-2.18h-5.6l-.69,2.18,1.1.2v1.91Zm5.77-6.64h4.08l-1.85-5.45-.16-.48h-.06l-.17.52Z"/><path class="cls-4" d="M187.84,225.16v-1.91l1.69-.33V211.51l-1.69-.33v-1.92h6.5v1.92l-1.62.33v11.41l1.62.33v1.91Zm4.22-3.9-1.65-1.89,7.78-8,0,0-1.57-.13v-1.92h6.54v1.92l-1.49.3Zm4.93,3.9v-1.91l1.49-.13h0l-4-5.57,2.11-2.11,5.63,7.54,1.56.27v1.91Z"/><path class="cls-4" d="M209.79,225.16l-3.69-13.81-1.63-.17v-1.92h6.4v1.92l-1.71.25,1.87,7.74.33,1.42h.07l.4-1.42,3.15-9.91h2.35l3.26,10.18.39,1.26H221l.33-1.26,1.93-8-1.81-.25v-1.92h6.28v1.92l-1.52.17-3.73,13.81h-2.89l-3-9.29-.38-1.31h-.07l-.43,1.35-3,9.25Z"/><path class="cls-4" d="M228.76,225.16v-1.91l1.69-.33V211.51l-1.69-.33v-1.92h6.59v1.92l-1.71.33v4.59h6.49v-4.59l-1.7-.33v-1.92H245v1.92l-1.7.33v11.41l1.7.33v1.91h-6.58v-1.91l1.7-.33v-4.37h-6.49v4.37l1.71.33v1.91Z"/><path class="cls-4" d="M139.31,82v-2.8h3.17V82Zm0,9v-2.8h3.17V91Z"/><path class="cls-4" d="M149.38,91V89.11l1.69-.32V77.37l-1.69-.32V75.12h4.92l6.93,11h.06V77.37l-2-.32V75.12h6.59v1.93l-1.71.32V91h-3.08L154,80.1l-.07,0v8.67l2,.32V91Z"/><path class="cls-4" d="M165.68,91V89.11l1.14-.16,5.05-13.83h3.27l5,13.83,1.14.16V91h-5.42V89.11l1.1-.19-.69-2.19h-5.6L170,88.92l1.1.19V91Zm5.77-6.64h4.08l-1.85-5.45-.16-.48h-.06l-.17.51Z"/><path class="cls-4" d="M187.84,91V89.11l1.69-.32V77.37l-1.69-.32V75.12h6.5v1.93l-1.62.32V88.79l1.62.32V91Zm4.22-3.9-1.65-1.89,7.78-8,0,0-1.57-.13V75.12h6.54v1.93l-1.49.29ZM197,91V89.11l1.49-.13h0l-4-5.57,2.11-2.1,5.63,7.53,1.56.27V91Z"/><path class="cls-4" d="M209.79,91,206.1,77.21l-1.63-.16V75.12h6.4v1.93l-1.71.25L211,85l.33,1.42h.07l.4-1.42L215,75.12h2.35l3.26,10.18.39,1.26H221l.33-1.26,1.93-8-1.81-.25V75.12h6.28v1.93l-1.52.16L222.52,91h-2.89l-3-9.3-.38-1.31h-.07l-.43,1.36-3,9.25Z"/><path class="cls-4" d="M228.76,91V89.11l1.69-.32V77.37l-1.69-.32V75.12h6.59v1.93l-1.71.32V82h6.49V77.37l-1.7-.32V75.12H245v1.93l-1.7.32V88.79l1.7.32V91h-6.58V89.11l1.7-.32V84.42h-6.49v4.37l1.71.32V91Z"/><rect class="cls-5" width="288.74" height="288.74"/></g></g></svg>