<svg xmlns="http://www.w3.org/2000/svg" viewBox="0 0 391.5 391.5"><defs><style>.cls-1{fill:none;}</style></defs><title>Asset 632</title><g id="Layer_2" data-name="Layer 2"><g id="Layer_13" data-name="Layer 13"><path d="M337.26,195.83q0,67.74,0,135.47c0,33.76-22.66,56.44-56.38,56.45h-164a42.19,42.19,0,0,1-4.5-.08,10.71,10.71,0,0,1-9.8-10.75,10.58,10.58,0,0,1,10.16-10.33c1.83-.13,3.67-.08,5.5-.08q81.74,0,163.47,0c16.42,0,28.76-8.73,32.79-23.27A43.21,43.21,0,0,0,316,331.88q.1-136.21,0-272.44C316,38.51,302.48,25,281.56,25q-81.74-.07-163.47,0c-1.83,0-3.67.05-5.5-.1a10.59,10.59,0,0,1-10-10.49,10.73,10.73,0,0,1,9.48-10.55,27.18,27.18,0,0,1,3.5-.1q83.73,0,167.46,0c25.91.05,47,16.51,52.71,41.22a66.6,66.6,0,0,1,1.45,14.86Q337.36,127.84,337.26,195.83Z"/><path d="M273.85,185.25c-1.83-.14-3.67-.08-5.5-.08H44.6l-.68-.88L57.15,171h0q25-24.93,50-49.95a44.4,44.4,0,0,0,3.75-4,10.56,10.56,0,0,0-14.79-14.9,33.76,33.76,0,0,0-3.29,3q-40.32,40.29-80.6,80.59c-7.52,7.52-7.52,12.36,0,19.88Q52.5,246,92.81,286.25a30,30,0,0,0,3.67,3.38A10.48,10.48,0,0,0,113,283.34c1.12-4.83-1.17-8.28-4.39-11.5q-30.45-30.36-60.81-60.79c-1.24-1.24-2.41-2.56-4.35-4.64H268.64a53.08,53.08,0,0,0,5.5-.09,10.43,10.43,0,0,0,9.71-10.72C283.79,189.85,279.82,185.7,273.85,185.25Z"/><rect class="cls-1" width="391.5" height="391.5"/></g></g></svg>