<svg xmlns="http://www.w3.org/2000/svg" viewBox="0 0 754.25 754.25"><defs><style>.cls-1{fill:none;}.cls-2{fill:#777;}.cls-3{fill:#dd1919;}</style></defs><title>Asset 698</title><g id="Layer_2" data-name="Layer 2"><g id="Layer_13" data-name="Layer 13"><rect class="cls-1" width="754.25" height="754.25"/><polygon class="cls-2" points="191.92 652.78 191.68 652.78 176.34 613.55 159.64 613.55 153.65 613.55 153.65 620.35 159.64 621.51 159.64 661.9 153.65 663.06 153.65 669.83 176.96 669.83 176.96 663.06 170.31 661.9 170.31 649.96 169.65 626.07 169.88 626.03 187.08 669.05 195.63 669.05 212.44 625.68 212.67 625.72 212.48 651.12 212.48 661.9 206.18 663.06 206.18 669.83 229.49 669.83 229.49 663.06 223.46 661.9 223.46 621.51 229.49 620.35 229.49 613.55 206.76 613.55 191.92 652.78"/><path class="cls-2" d="M269.86,660.84c0-.55,0-1.12,0-1.68V641.92q0-7.08-4.75-10.88t-12.95-3.81a29.45,29.45,0,0,0-8.54,1.16,35.18,35.18,0,0,0-7.12,3l.16,10.87h8.12l.88-5.53a9.56,9.56,0,0,1,2.61-1.26,11.4,11.4,0,0,1,3.27-.44,6.29,6.29,0,0,1,7,6.76v3.09H253a27.44,27.44,0,0,0-10.34,1.71,14,14,0,0,0-6.34,4.67,11.54,11.54,0,0,0-2.15,6.92,11.7,11.7,0,0,0,3.67,9.1q3.67,3.35,9.9,3.35a12.87,12.87,0,0,0,6.4-1.53A16,16,0,0,0,258.9,665a15,15,0,0,0,.62,2.48c.28.82.57,1.6.85,2.32h14v-6.77l-4.36-.62A11.75,11.75,0,0,1,269.86,660.84Zm-11.31-2.42a8.27,8.27,0,0,1-3.28,2.81,10,10,0,0,1-4.48,1.06,5.83,5.83,0,0,1-3.93-1.22,4.31,4.31,0,0,1-1.41-3.46,5.32,5.32,0,0,1,1.91-4.1,8.25,8.25,0,0,1,5.63-1.7h5.56Z"/><polygon class="cls-2" points="266.21 611.42 273.82 602.92 273.75 602.68 264.16 602.68 259.79 611.42 260.1 611.42 266.21 611.42"/><polygon class="cls-2" points="252.45 616.45 257.55 621.47 266.52 621.47 266.52 620.58 256.74 611.81 248.27 611.81 238.42 620.47 238.42 621.47 247.23 621.47 252.45 616.45"/><path class="cls-2" d="M298.37,661.61a16.33,16.33,0,0,1-2,.14,3.76,3.76,0,0,1-2.81-1,4.85,4.85,0,0,1-1-3.47v-21.3h7.69V628h-7.69V617.76H281.28V628h-5.76v7.93h5.76v21.33q0,7,3.15,10.17t9,3.21a24.9,24.9,0,0,0,4-.33,33.49,33.49,0,0,0,3.77-.83l-1-8.16C299.71,661.43,299.09,661.52,298.37,661.61Z"/><polygon class="cls-2" points="357.26 637.94 373.55 621.39 378.84 620.35 378.84 613.55 355.69 613.55 355.69 620.35 361.26 620.81 361.18 620.93 341.81 640.89 341.81 621.51 347.53 620.35 347.53 613.55 324.54 613.55 324.54 620.35 330.53 621.51 330.53 661.9 324.54 663.06 324.54 669.83 347.53 669.83 347.53 663.06 341.81 661.9 341.81 653.63 349.82 645.5 362.22 662.6 362.19 662.6 356.93 663.06 356.93 669.83 380.85 669.83 380.85 663.06 375.33 662.1 357.26 637.94"/><path class="cls-2" d="M412.09,629.47a18.82,18.82,0,0,0-9.55-2.24,17.62,17.62,0,0,0-10,2.73,18.19,18.19,0,0,0-6.55,7.57,25.09,25.09,0,0,0-2.32,11v1.54a22.24,22.24,0,0,0,2.45,10.59,18.11,18.11,0,0,0,6.94,7.29,20.17,20.17,0,0,0,10.47,2.65,27.3,27.3,0,0,0,9-1.37,21.72,21.72,0,0,0,6.51-3.46l-3.05-7a22.34,22.34,0,0,1-5.24,2.34A20.24,20.24,0,0,1,405,662a9.9,9.9,0,0,1-5.06-1.22,8.36,8.36,0,0,1-3.23-3.36,12.48,12.48,0,0,1-1.37-4.89l.08-.23H420v-6.15a23.54,23.54,0,0,0-2-10.2A14.51,14.51,0,0,0,412.09,629.47Zm-2.67,15.35h-14l-.11-.2a16.71,16.71,0,0,1,1.18-4.63,7.71,7.71,0,0,1,2.41-3.23,6.05,6.05,0,0,1,3.79-1.18,6.75,6.75,0,0,1,3.85,1,5.7,5.7,0,0,1,2.16,2.84,12.77,12.77,0,0,1,.68,4.39Z"/><polygon class="cls-2" points="402.31 616.45 407.41 621.47 416.38 621.47 416.38 620.58 406.6 611.81 398.13 611.81 388.27 620.47 388.27 621.47 397.09 621.47 402.31 616.45"/><polygon class="cls-2" points="414.02 602.68 409.65 611.42 409.96 611.42 416.07 611.42 423.68 602.92 423.6 602.68 414.02 602.68"/><path class="cls-2" d="M446.57,661.61a16.59,16.59,0,0,1-2,.14,3.76,3.76,0,0,1-2.81-1,4.85,4.85,0,0,1-1-3.47v-21.3h7.69V628h-7.69V617.76H429.48V628h-5.76v7.93h5.76v21.33q0,7,3.15,10.17t9,3.21a24.9,24.9,0,0,0,4-.33,33.49,33.49,0,0,0,3.77-.83l-1-8.16C447.91,661.43,447.29,661.52,446.57,661.61Z"/><polygon class="cls-2" points="507.72 613.55 507.72 620.35 514.9 621.51 514.9 652.55 514.67 652.59 490.17 613.55 478.73 613.55 472.73 613.55 472.73 620.35 478.73 621.51 478.73 661.9 472.73 663.06 472.73 669.83 496.04 669.83 496.04 663.06 488.81 661.9 488.81 631.21 489.05 631.17 514.09 669.83 524.99 669.83 524.99 621.51 531.02 620.35 531.02 613.55 524.99 613.55 507.72 613.55"/><polygon class="cls-2" points="554.87 616.45 559.98 621.47 568.94 621.47 568.94 620.58 559.16 611.81 550.7 611.81 540.84 620.47 540.84 621.47 549.65 621.47 554.87 616.45"/><polygon class="cls-2" points="566.58 602.68 562.22 611.42 562.52 611.42 568.63 611.42 576.25 602.92 576.17 602.68 566.58 602.68"/><path class="cls-2" d="M565.5,630a21.94,21.94,0,0,0-21.2,0,17.81,17.81,0,0,0-6.78,7.53,24.82,24.82,0,0,0-2.36,11v.81a24.86,24.86,0,0,0,2.36,11.07,17.7,17.7,0,0,0,6.8,7.52A20,20,0,0,0,555,670.64a19.71,19.71,0,0,0,10.55-2.71,17.83,17.83,0,0,0,6.77-7.52,24.86,24.86,0,0,0,2.35-11.07v-.81a24.78,24.78,0,0,0-2.35-11.06A18,18,0,0,0,565.5,630Zm-2.12,19.38a22.31,22.31,0,0,1-.89,6.63,9.31,9.31,0,0,1-2.75,4.42A7.08,7.08,0,0,1,555,662a7.34,7.34,0,0,1-4.87-1.57,8.89,8.89,0,0,1-2.76-4.42,22.91,22.91,0,0,1-.87-6.65v-.81a22.35,22.35,0,0,1,.87-6.55,9.17,9.17,0,0,1,2.76-4.45,8.06,8.06,0,0,1,9.64,0,9.41,9.41,0,0,1,2.77,4.45,22,22,0,0,1,.89,6.55Z"/><rect class="cls-2" x="584.37" y="609.53" width="11.67" height="9.63"/><polygon class="cls-2" points="596.04 661.9 596.04 628 578.72 628 578.72 634.81 584.75 635.97 584.75 661.9 579.3 663.06 579.3 669.83 601.45 669.83 601.45 663.06 596.04 661.9"/><path class="cls-2" d="M156.29,517.36c-3.45-.05-6.91,0-10.36,0-7.41,0-14.81,0-22.22,0a17.11,17.11,0,0,1-14.25-7c-4.33-5.73-5.07-12.08-2-18.56s8.54-10.07,15.79-10.15c13.21-.16,26.42-.14,39.63,0,6.13.06,10.91,3,14.36,8a18.18,18.18,0,0,1,3,10,6.09,6.09,0,0,0,12.17-.21A29.44,29.44,0,0,0,180,475.14a29.09,29.09,0,0,0-17.85-5.76H123.8a29.81,29.81,0,0,0-17.37,5.39c-.92.64-1.8,1.34-2.7,2L101,479.56c-.73,1-1.51,1.91-2.18,2.92a29.61,29.61,0,0,0-3.85,26.16A28.2,28.2,0,0,0,100.71,519a2.26,2.26,0,0,1,.25.4l2.68,2.68c.17.11.35.21.5.33a28.61,28.61,0,0,0,18.31,7.09c7.43.15,14.86.05,22.29.06,3.77,0,7.54,0,11.31,0a5.93,5.93,0,0,0,5.83-3.76A6.07,6.07,0,0,0,156.29,517.36Z"/><path class="cls-2" d="M362.66,525.47a29.93,29.93,0,0,0-9.48-35,28.2,28.2,0,0,0-17.45-6.29c-11.22-.12-22.45-.05-33.67-.05l-.47,0a6.11,6.11,0,0,0,.83,12.2c10.91,0,21.81-.08,32.72,0a17.84,17.84,0,0,1-.53,35.68c-7.79,0-15.59,0-23.38,0-5.26,0-10.52.1-15.78,0A17.25,17.25,0,0,1,281,524a18.09,18.09,0,0,1-2.94-9.91,6,6,0,0,0-6.26-5.94,6.08,6.08,0,0,0-5.93,6.29,29.9,29.9,0,0,0,8.78,21.06,29.55,29.55,0,0,0,20.52,8.8c4.11.1,8.22,0,12.33,0,9.4,0,18.79.11,28.18,0A30,30,0,0,0,362.66,525.47Z"/><path class="cls-2" d="M445.64,501h-12.5a6.5,6.5,0,1,0,0,13h12.5a6.5,6.5,0,0,0,0-13Z"/><path class="cls-2" d="M558.88,501H530.57a6.5,6.5,0,1,0,0,13h28.31a6.5,6.5,0,0,0,0-13Z"/><path class="cls-2" d="M502.26,501H474a6.5,6.5,0,1,0,0,13h28.31a6.5,6.5,0,0,0,0-13Z"/><path class="cls-2" d="M615.5,501H587.19a6.5,6.5,0,1,0,0,13H615.5a6.5,6.5,0,1,0,0-13Z"/><path class="cls-2" d="M656.31,501h-12.5a6.5,6.5,0,1,0,0,13h12.5a6.5,6.5,0,0,0,0-13Z"/><path class="cls-3" d="M215.9,495.8a4.5,4.5,0,0,1-4-2.35l-25.69-47.33a4.5,4.5,0,0,1,7.91-4.29l25.69,47.32a4.5,4.5,0,0,1-1.81,6.11A4.45,4.45,0,0,1,215.9,495.8Z"/><path class="cls-3" d="M242.42,495.8a4.5,4.5,0,0,1-4-6.65l25.69-47.32a4.5,4.5,0,0,1,7.91,4.29l-25.69,47.33A4.49,4.49,0,0,1,242.42,495.8Z"/><path class="cls-3" d="M268.11,573.11a4.5,4.5,0,0,1-4-2.35l-25.69-47.33a4.5,4.5,0,0,1,7.91-4.29l25.69,47.33a4.49,4.49,0,0,1-1.81,6.1A4.45,4.45,0,0,1,268.11,573.11Z"/><path class="cls-3" d="M190.21,573.11a4.49,4.49,0,0,1-4-6.64l25.69-47.33a4.5,4.5,0,0,1,7.91,4.29l-25.69,47.33A4.49,4.49,0,0,1,190.21,573.11Z"/><path class="cls-2" d="M596,262.15c-.63,3.89-1,7.83-1.91,11.66-3.4,14.92-11.14,27.51-21.46,38.57-17.35,18.62-38.68,30.95-62.62,39A149.75,149.75,0,0,1,455.17,359c5.35-2,10.34-5,16.32-5.41,18.21-1.38,35.43-6.56,51.84-14.44,17.72-8.51,33.42-19.76,45.94-35.08,8.83-10.81,15.3-22.85,17.22-36.82a113.11,113.11,0,0,0,.52-19c-.39-11.77-1.25-23.52-1.74-35.29-.67-16.18-2.72-32.08-8.74-47.26-8.12-20.49-22.24-35.76-40.93-47-15.39-9.28-32.12-15.17-49.48-19.45A333.61,333.61,0,0,0,443,91.8a489.64,489.64,0,0,0-59.68-3.09c-12.95.15-25.92-.11-38.84.53-13.3.66-26.57,2-39.82,3.4A265.37,265.37,0,0,0,254,103.1c-16.1,5-31.35,11.78-45,21.88-19.5,14.44-31.36,33.73-36.63,57.26A173,173,0,0,0,168.76,213c-.58,13.84-1.58,27.66-2.15,41.49-.69,16.88,5,31.77,14.78,45.25,10,13.76,22.73,24.39,37.25,33,18,10.71,37.41,17.76,58.24,20.2,7.84.92,15.13,3.17,22.45,5.71a6.58,6.58,0,0,1,.84.69c-7.3-.22-14.16-.14-21-.68A153.87,153.87,0,0,1,224,343.34c-19.13-9.28-36-21.54-49.07-38.5-8.45-10.94-14.38-23.07-16.18-36.89A92.73,92.73,0,0,1,158.3,253c.3-9.45.89-18.88,1.42-28.31.84-14.85,1.11-29.73,4.42-44.35,6.87-30.4,24.32-52.68,51.37-67.72,16.43-9.13,34.09-14.91,52.33-19.07a395.94,395.94,0,0,1,48.45-7.49c26.27-2.64,52.62-2.68,79-2.34,11.77.15,23.55.81,35.28,1.74,27.33,2.16,54.35,6.17,80.42,15.08C527.5,106.23,543,113.81,556.57,125c18,14.87,28.65,34.07,33.54,56.7a186.82,186.82,0,0,1,3.53,31.39c.51,11.63,1.21,23.26,1.84,34.89.14,2.52.37,5,.56,7.54Z"/><path class="cls-2" d="M289.3,360.27h175c-3.15.87-6,1.5-8.75,2.44-4.22,1.46-8.41,3-12.5,4.75A35.31,35.31,0,0,0,433,374.27c-12.45,11.54-27.29,18.07-44,20.34a85.14,85.14,0,0,1-49-7.42,66.63,66.63,0,0,1-18.45-12.43,43.6,43.6,0,0,0-16.88-10c-4.51-1.56-9.17-2.69-13.76-4Z"/><path class="cls-2" d="M377.21,186.18c13.75.61,25.13,5.46,32.47,17.55a36.26,36.26,0,0,1,5.13,21.42c-.4,6.35-3.78,11.61-8.1,16.1-9.08,9.44-20.35,13.14-33.28,12.17a36.92,36.92,0,0,1-18.36-6c-15.22-10.37-19.16-22.44-12.71-38.87,5.08-12.93,15.31-19.46,28.58-21.76C373,186.38,375.17,186.36,377.21,186.18Zm-.84,8.56a27.09,27.09,0,0,0-14.67,4.55c-12.34,8.25-13.82,24.42-3.18,34.54,9.81,9.31,26.61,9.56,36.69.53,9.75-8.74,10.4-22.43,1.38-31.74C391.09,196.94,384.17,194.63,376.37,194.74Z"/><path class="cls-2" d="M336,389.08q41.3,23.85,82.38-.26C408.07,402.3,395,410.87,377.6,411.05,359.86,411.23,346.5,402.72,336,389.08Z"/><path class="cls-2" d="M420.18,317.68c1.89,4.67,3.62,9.48,5.76,14.1,1.77,3.8,1.63,7.74,1.21,11.61-.53,4.8-1.67,9.53-2.65,14.27-.11.58-.89,1.45-1.37,1.46-5.62.1-11.24.06-17.16.06.27-1,.52-1.76.67-2.54.22-1.13.87-2.53.44-3.35-1-2-.2-3.43.26-5.27a17.41,17.41,0,0,0,.08-7.4c-1-5.25-2.51-10.42-3.8-15.62a1.62,1.62,0,0,1,.1-1.22c.3.58.61,1.16.9,1.75,2.41,4.79,4.75,9.62,7.25,14.37,1.85,3.51,5,4.64,8.47,3.28a6.83,6.83,0,0,0,4.18-8.2,42.73,42.73,0,0,0-2.32-6.35A22,22,0,0,1,420.18,317.68Z"/><path class="cls-2" d="M348.12,359c-.94.07-1.5.15-2.06.15-4.85,0-9.7,0-14.55,0-1.26,0-1.87-.38-2.11-1.66-1-5.05-2-10.09-2.7-15.33,3.34,3.72,7.23,5.65,12.08,4.64,5.11-1.07,6.9-5.18,8.25-9.68-.84,4.61-2.39,9.2,1,13.6C345.63,353.33,347.14,356,348.12,359Z"/><path class="cls-2" d="M376.88,359.19c-8.55,0-17.1,0-25.65,0-1.5,0-2.31-.47-2.61-1.9a17.31,17.31,0,0,1-.75-3.75c0-1.85,1-2.32,2.71-1.66a71.07,71.07,0,0,0,52.65.06c1.85-.71,3,0,3,2a4.18,4.18,0,0,1-.22,1.14c-1.07,4.06-1.07,4.06-5.24,4.06Z"/><path class="cls-2" d="M333.62,318.2a21.32,21.32,0,0,1-2,11,25.83,25.83,0,0,0-2.18,7.92c-.33,3,2,5.53,4.94,6.35a6,6,0,0,0,7.31-2.89c2.79-5.17,5.35-10.47,8-15.71a2,2,0,0,1,.77-.94c-.19.62-.35,1.25-.57,1.86-1.74,4.86-3.51,9.72-5.23,14.59-1.46,4.11-5,6.18-9.66,5.64-4-.47-7.91-4-8.11-7.7a14.72,14.72,0,0,1,.89-5.65C329.59,327.75,331.68,323,333.62,318.2Z"/><path class="cls-2" d="M331.66,332.09c.53-2.83,1.12-3.4,3.62-3.35a10,10,0,0,1,7,2.89c2,2,2.07,2.39.31,5.05C340.45,331.56,336.79,330,331.66,332.09Z"/><path class="cls-2" d="M411.47,336.56c-1.79-2.27-1.78-2.74-.09-4.59a10.28,10.28,0,0,1,6.09-3.15c2.95-.51,4,.17,5,3.35C417.43,330.09,413.72,331.39,411.47,336.56Z"/><path class="cls-2" d="M324.84,268c2.91,5.9,6.2,5.35,2.22,14.71,0,5.06-1.47-6.54-1.68-8.2C325.19,273.1,325.07,269.69,324.84,268Z"/><path class="cls-2" d="M391.76,203.68a23.57,23.57,0,0,0-29.41-.11A18.14,18.14,0,0,0,361,230.94a22.14,22.14,0,0,0,16.07,6.37s6.64-.81,10.13-2.35C400.09,229,402.53,212.64,391.76,203.68Z"/><path class="cls-2" d="M433.66,306.68a64,64,0,0,0-5.92-18.8c-6.92-14.86-10-30.65-11.72-46.81q-.36-3.37-.67-6.79a35.65,35.65,0,0,1-6.32,8.64c-9.79,10.19-21.94,14.18-35.89,13.13a39.66,39.66,0,0,1-19.8-6.53c-6.93-4.71-11.68-9.76-14.34-15.34-.29,2.9-.58,5.77-.93,8.64-1.16,9.43-2.16,18.93-5.19,28-2.54,7.59-5.69,15-8.56,22.46-3.34,8.71-5.42,17.56-2.93,26.9a35.06,35.06,0,0,0,5.48,11.94c1.41-3.39,2.78-6.36,3.88-9.43s1.9-6.11,2.83-9.16l.77.15c1.17,4.61.34,9.2-.66,14a12.11,12.11,0,0,1,10.94,5.11c.45-.81.79-1.33,1.06-1.89,1.14-2.4,2.17-4.85,3.44-7.17.39-.71,1.42-1.07,2.15-1.6.09.82.19,1.63.27,2.44,0,.12-.09.24-.12.37-1.39,5.65-2.83,11.28-4.15,16.95-1.23,5.27.18,7.86,5.28,9.68a71.58,71.58,0,0,0,49.94-.26c3.79-1.38,5.26-4,4.35-8.05-1.37-6-2.92-11.92-4.34-17.9-.26-1.09-1.23-2.66.54-3.07.64-.15,1.93,1.19,2.46,2.12,1.23,2.13,2.16,4.42,3.22,6.63.24.51.54,1,.93,1.69,2.74-3.4,6.1-5.21,10.06-5.07-.2-3.86-.44-7.51-.56-11.17,0-1.16,0-2.46,1.37-2.84,2.21,6.16,4.38,12.17,6.62,18.42.63-.52.82-.61.91-.76A35.75,35.75,0,0,0,433.66,306.68Z"/><path class="cls-2" d="M333.69,257.79a2.17,2.17,0,0,0-.36,0,5.5,5.5,0,0,0-5,4,4.21,4.21,0,0,0-.18.72,4.42,4.42,0,0,0-.13,1.27c.07,1.93,1.2,3,2.51,4.11.43.44,1.56.62,1.7.95s-.91,3.55-2.24,2.42c-3.06-2.42-5.39-5.25-4.77-9.16.52-3.3,2.57-5.29,6.52-6l.38-.06a8.76,8.76,0,0,1,3-.3,1.78,1.78,0,0,1-.33,2.36A3.89,3.89,0,0,1,333.69,257.79Z"/><path class="cls-2" d="M430.37,268c-2.91,5.9-6.21,5.35-2.22,14.71,0,5.06,1.46-6.54,1.68-8.2C430,273.1,430.14,269.69,430.37,268Z"/><path class="cls-2" d="M421.52,257.79a2,2,0,0,1,.35,0,5.5,5.5,0,0,1,5,4,4.21,4.21,0,0,1,.18.72,4.42,4.42,0,0,1,.12,1.27c-.07,1.93-1.19,3-2.51,4.11-.42.44-1.55.62-1.69.95s.9,3.55,2.24,2.42c3.05-2.42,5.39-5.25,4.77-9.16-.53-3.3-2.57-5.29-6.52-6l-.38-.06a8.78,8.78,0,0,0-3-.3,1.77,1.77,0,0,0,.33,2.36A3.89,3.89,0,0,0,421.52,257.79Z"/><path class="cls-2" d="M325.22,348.92c-2.1-2.28-4.53-4.28-6.53-6.64-9.69-11.44-14-24.52-11.06-39.46,2.18-11.15,8.05-20.05,16.22-27.44-.16-1.25-.29-2.23-.36-2.76-.13-1-.24-2.35-.35-3.89-6.53,4.21-11.41,10.06-15.57,16.58a48.75,48.75,0,0,0-7.91,22.07,45.88,45.88,0,0,0,10,33.59c4.89,6.16,10.57,11.71,16,17.45.57.6,1.72.64,3.13,1.13-.65-2.94-1-5.22-1.69-7.42A8.71,8.71,0,0,0,325.22,348.92Z"/><path class="cls-2" d="M326.14,333.81a2.12,2.12,0,0,0-.43-1.41c-7.28-11.18-8.23-23.06-3.75-35.44,1.14-3.15,2.37-6.26,3.63-9.37-.56-3.56-1.15-7.82-1.57-11-9.7,9.11-15.84,19.91-16.19,33.81-.39,15.5,6.67,27.58,18.23,37.86a6.53,6.53,0,0,0,.13-1.2C325.66,342.67,324.92,338.26,326.14,333.81Z"/><path class="cls-2" d="M454.16,304c-2.16-12-8.33-21.89-16.87-30.38a36.39,36.39,0,0,0-5.26-4.35c-.1,1.33-.2,2.51-.31,3.38-.09.68-.27,2.06-.51,3.82a65.85,65.85,0,0,1,7,7.66c7.85,10.45,11,22.29,8.62,35.3-2.13,11.6-8.11,21.09-17,28.66-3.64,3.1-2.77,7.26-3.87,11.17A5.88,5.88,0,0,0,429.1,358a104.91,104.91,0,0,0,8.35-8.39,118.4,118.4,0,0,0,10.63-13.8A44.07,44.07,0,0,0,454.16,304Z"/><path class="cls-2" d="M446.22,306.56c-1.29-11.84-6.83-21.22-15.17-28.92-.47,3.5-1.11,8-1.69,11.47.73,1.77,1.45,3.53,2.14,5.31,5.09,13.05,5.07,25.73-2.78,37.85a4.06,4.06,0,0,0-.37,2.19c0,1.09.28,2.17.29,3.26,0,3.39,0,6.78,0,10.22C441,337,448.07,323.57,446.22,306.56Z"/><path class="cls-2" d="M580,252.09c-.62-11-1-22-1.66-33-.58-10.58-1-21.19-3-31.65C571.9,169.91,565,154,552.73,140.75c-10.26-11.12-22.7-19.16-36.42-25.33-20.6-9.26-42.4-14-64.63-17.18a409.52,409.52,0,0,0-51.62-4.14c-25.24-.35-50.49-.66-75.69,1.72A379.29,379.29,0,0,0,276.45,103c-17.17,3.87-33.8,9.27-49.24,17.91C205.61,133,190.1,150.17,182.4,174c-4.61,14.26-5.74,29-6.38,43.81-.4,9.44-1,18.88-1.45,28.31-.34,6.78-.76,13.56.45,20.32a73.14,73.14,0,0,0,17,35.06c21.77,25.42,50,39.45,82.41,45.6,8.42,1.6,17.1,1.87,25.08,5.51a24.58,24.58,0,0,0,5.34,1.76,59.59,59.59,0,0,0,6,.66c-1.56-1.81-3.06-3.67-4.68-5.42-9.07-9.75-15.36-20.8-16.1-34.42-.8-14.85,3.24-28.14,13-39.53a76.85,76.85,0,0,1,17.71-15,11.51,11.51,0,0,1,6.7-8.2,31.87,31.87,0,0,1,5.14-1.53s.2-.87.42-2h0c.08-.43.18-.92.27-1.46.07-.37.13-.74.18-1.08h0c1.32-8.22,3-24.9,3-24.9h0a42.65,42.65,0,0,1,3.18-13.89c5.48-13.94,16.51-21,30.83-23.46,2.25-.39,4.56-.42,6.75-.6,14.84.65,27.1,5.89,35,18.92a38.67,38.67,0,0,1,5.6,19.36l.14-.33s1.6,16.3,2.92,24.62c0,0,0,0,0,.08.3,1.95.88,4.52.88,4.52a48.4,48.4,0,0,1,6,1.77,11.58,11.58,0,0,1,6.81,8.87,76.83,76.83,0,0,1,15.23,12.71c12.13,13.32,16.51,29,13.76,46.69-1.7,11-7.34,20.05-14.73,28.13-1.83,2-3.68,4-5.52,5.94v.55c2.93-.6,5.93-1,8.79-1.83,6.78-2,13.29-4.72,20.54-5.4a131.72,131.72,0,0,0,39.93-10.73c19.78-8.55,37.29-20.28,50.86-37.28C574.66,286.12,581.05,270.37,580,252.09Z"/></g></g></svg>