<svg xmlns="http://www.w3.org/2000/svg" viewBox="0 0 288.62 216.46"><defs><style>.cls-1{fill:#fff;}.cls-2{fill:#727773;}</style></defs><title>Asset 634</title><g id="Layer_2" data-name="Layer 2"><g id="Layer_13" data-name="Layer 13"><rect class="cls-1" width="288.62" height="216.46"/><path class="cls-2" d="M128.05,117.26A31.47,31.47,0,0,0,174.51,99.1a30.8,30.8,0,0,0,1.18-7h0v-.74c0-.57,0-1.13,0-1.7V73.45a31.44,31.44,0,0,0-61.61-9.91,30.43,30.43,0,0,0-1.21,7.55h0v.68c0,.25,0,.51,0,.77V90.2c0,.42,0,.84,0,1.26v.66h0A31.28,31.28,0,0,0,128.05,117.26Z"/><path class="cls-2" d="M144.31,129.85c-30.3,0-54.9,9.15-55.34,20.5h0v.17s0,.1,0,.15,0,.06,0,.09v5.88c0,10.49,24.79,19,55.37,19s55.37-8.51,55.37-19v-6C199.68,139.17,174.89,129.85,144.31,129.85Z"/></g></g></svg>