<svg xmlns="http://www.w3.org/2000/svg" viewBox="0 0 85.04 42.52"><defs><style>.cls-1{fill:none;}.cls-2{fill:#dd1919;}.cls-3{fill:#fff;}</style></defs><title>Asset 549</title><g id="Layer_2" data-name="Layer 2"><g id="Layer_12" data-name="Layer 12"><rect class="cls-1" width="85.04" height="42.52"/><circle class="cls-2" cx="57.58" cy="8.94" r="5.18"/><rect class="cls-3" x="56.68" y="4.79" width="1.81" height="8.29" rx="0.91" ry="0.91"/><rect class="cls-3" x="56.68" y="4.79" width="1.81" height="8.29" rx="0.91" ry="0.91" transform="translate(66.52 -48.65) rotate(90)"/><path class="cls-3" d="M46.42,5.31A8.62,8.62,0,0,1,51.17,13h.24a1.26,1.26,0,0,1,1.36,1.27,1.28,1.28,0,0,1-1.38,1.26H33.58a1.26,1.26,0,0,1-1.21-1.75A1.19,1.19,0,0,1,33.48,13h.39A8.64,8.64,0,0,1,36,7.38a8.51,8.51,0,0,1,2.66-2.09c.12.66.23,1.31.34,2s.25,1.4.38,2.1a.66.66,0,0,0,1,.47.67.67,0,0,0,.32-.69c-.26-1.45-.51-2.9-.77-4.34A.58.58,0,0,1,40,4.19a1.8,1.8,0,0,1,1.25-.53q1.23,0,2.46,0a1.66,1.66,0,0,1,1.36.68.39.39,0,0,1,.07.29c-.25,1.48-.51,3-.77,4.45a.66.66,0,0,0,.51.8.65.65,0,0,0,.78-.56c.23-1.25.45-2.49.67-3.74A2.56,2.56,0,0,1,46.42,5.31Z"/><path class="cls-3" d="M34,16.9H51a8.18,8.18,0,0,1-.3,3.15,8.42,8.42,0,0,1-2.84,4.26A8.52,8.52,0,0,1,34,16.9Z"/><path class="cls-3" d="M48.84,34.78H36.19V29.23c0-.38,0-.3.31-.36a36.76,36.76,0,0,1,6.71-.47,35.32,35.32,0,0,1,5.53.51l.1,0Z"/><path class="cls-3" d="M31.24,38.92a6.45,6.45,0,0,1-2.77-1.37,3.26,3.26,0,0,1-1-2.28,8.58,8.58,0,0,1,0-1.52,3,3,0,0,1,1.14-1.85,10.12,10.12,0,0,1,3.07-1.77l1.15-.41V30c0,1.62,0,3.23,0,4.84a.31.31,0,0,1-.18.31,2.72,2.72,0,0,0-1.47,2.47C31.23,38,31.24,38.45,31.24,38.92Z"/><path class="cls-3" d="M53.8,38.92V37.66a2.76,2.76,0,0,0-1.52-2.59.25.25,0,0,1-.12-.19c0-1.68,0-3.36,0-5.05a.25.25,0,0,1,0-.07.21.21,0,0,1,.08,0A12.73,12.73,0,0,1,56,31.58a4.82,4.82,0,0,1,1.14,1.2,2.4,2.4,0,0,1,.42,1.44c0,.6,0,1.21-.14,1.81a2.85,2.85,0,0,1-1.17,1.8A7.19,7.19,0,0,1,53.8,38.92Z"/></g></g></svg>