<svg xmlns="http://www.w3.org/2000/svg" viewBox="0 0 21.62 21.62"><defs><style>.cls-1{fill:none;}.cls-2{fill:#fff;}</style></defs><title>Asset 628</title><g id="Layer_2" data-name="Layer 2"><g id="Layer_11" data-name="Layer 11"><rect class="cls-1" width="21.62" height="21.62"/><path class="cls-2" d="M10.06,8.7a1.65,1.65,0,0,1,2.12.82,1.71,1.71,0,0,1,1.4,0,1.55,1.55,0,0,1,.91,1,4.37,4.37,0,0,1,.5-.09A1.53,1.53,0,0,1,16.76,12c0,1.37,0,2.75,0,4.12a4.86,4.86,0,0,1-1,2.82.53.53,0,0,0-.1.32c0,.26,0,.52,0,.79a1.17,1.17,0,0,1-1.21,1.21c-1.78,0-3.56,0-5.35,0A1.16,1.16,0,0,1,7.93,20c0-.1,0-.2,0-.3a1.53,1.53,0,0,0-.47-1.33c-.58-.65-1.11-1.34-1.65-2a2.53,2.53,0,0,1,.49-3.76,1.27,1.27,0,0,0,.61-1.22c0-1.59,0-3.18,0-4.77a1.48,1.48,0,0,1,.84-1.45A1.55,1.55,0,0,1,10,6.4c.06.65,0,1.31,0,2ZM6.9,13.38l-.07,0a3.41,3.41,0,0,0-.38.38,1.59,1.59,0,0,0,.06,2q1,1.3,2.1,2.61a1,1,0,0,1,.25.69c0,.31,0,.62,0,.93a.29.29,0,0,0,.33.33h5.25c.25,0,.33-.09.34-.33s0-.64,0-.95a1.07,1.07,0,0,1,.17-.53,4.09,4.09,0,0,0,.88-2.6V12.76c0-.27,0-.54,0-.81a.65.65,0,0,0-1.3,0c0,.37,0,.75,0,1.13a.46.46,0,0,1-.92,0V11a.66.66,0,1,0-1.31,0v1.94a1.51,1.51,0,0,1,0,.3.46.46,0,0,1-.44.35.47.47,0,0,1-.44-.35,1.51,1.51,0,0,1,0-.3c0-.91,0-1.82,0-2.73a.62.62,0,0,0-.6-.68.63.63,0,0,0-.7.68c0,.9,0,1.8,0,2.7a2.26,2.26,0,0,1,0,.26.48.48,0,0,1-.45.42.47.47,0,0,1-.46-.41,2.62,2.62,0,0,1,0-.28V6.75a2.62,2.62,0,0,0,0-.28.59.59,0,0,0-.54-.54.62.62,0,0,0-.75.7q0,3.6,0,7.22c0,.21,0,.43,0,.64a.87.87,0,0,1-.17.42.37.37,0,0,1-.46.08.44.44,0,0,1-.29-.43Z"/><path class="cls-2" d="M10.46,4.66A.46.46,0,0,1,10,4a.73.73,0,0,1,.14-.18L12,1.94c.26-.25.55-.26.74,0a.44.44,0,0,1,0,.63c-.66.67-1.32,1.33-2,2C10.64,4.61,10.51,4.63,10.46,4.66Z"/><path class="cls-2" d="M7,4.22a1.66,1.66,0,0,1-.3.37.39.39,0,0,1-.48,0,1.88,1.88,0,0,1-.25-.24L4.26,2.69l-.14-.15a.48.48,0,0,1,0-.67.46.46,0,0,1,.67,0c.35.33.69.68,1,1l.86.87A2.57,2.57,0,0,1,7,4.22Z"/><path class="cls-2" d="M8.89,2.27c0,.44,0,.89,0,1.34s-.19.54-.47.53S8,3.93,8,3.61V.93C8,.6,8.15.39,8.43.4s.45.21.45.53S8.89,1.82,8.89,2.27Z"/><path class="cls-2" d="M4.27,6.3H3c-.34,0-.54-.18-.54-.46s.2-.47.54-.47H5.6c.34,0,.55.18.55.46s-.2.46-.54.47Z"/><path class="cls-2" d="M12.56,6.3H11.24c-.34,0-.54-.18-.55-.46s.21-.47.55-.47h2.67a.47.47,0,1,1,0,.93Z"/></g></g></svg>