<svg xmlns="http://www.w3.org/2000/svg" viewBox="0 0 60.52 60.52"><defs><style>.cls-1{fill:none;}.cls-2{fill:#ffc200;}.cls-3{fill:#fff;}</style></defs><title>Asset 515</title><g id="Layer_2" data-name="Layer 2"><g id="Layer_11" data-name="Layer 11"><rect class="cls-1" width="60.52" height="60.52"/><path class="cls-2" d="M30.26,51.76A21.53,21.53,0,1,1,51.78,30.24,21.55,21.55,0,0,1,30.26,51.76Zm0-37A15.53,15.53,0,1,0,45.78,30.24,15.54,15.54,0,0,0,30.26,14.71Z"/><circle class="cls-3" cx="30.26" cy="30.24" r="15.52"/><path d="M30.23,27.88c-5.83,0-10.41,5-10.41,5.55S24.4,39,30.23,39s10.42-5,10.42-5.55S36.07,27.88,30.23,27.88Zm0,10a4.47,4.47,0,1,1,4.47-4.47A4.47,4.47,0,0,1,30.23,37.9ZM21,33.43a14.69,14.69,0,0,1,5.14-3.65,5.4,5.4,0,0,0,0,7.3A14.69,14.69,0,0,1,21,33.43Zm13.29,3.65a5.4,5.4,0,0,0,0-7.3,14.69,14.69,0,0,1,5.14,3.65A14.69,14.69,0,0,1,34.31,37.08Z"/><path class="cls-3" d="M24.74,33.43a5.45,5.45,0,0,1,1.42-3.65A14.69,14.69,0,0,0,21,33.43a14.69,14.69,0,0,0,5.14,3.65A5.45,5.45,0,0,1,24.74,33.43Z"/><path class="cls-3" d="M39.45,33.43a14.69,14.69,0,0,0-5.14-3.65,5.4,5.4,0,0,1,0,7.3A14.69,14.69,0,0,0,39.45,33.43Z"/><path class="cls-3" d="M34.7,33.43a4.47,4.47,0,1,0-4.47,4.47A4.47,4.47,0,0,0,34.7,33.43Z"/><path d="M35.93,22.52a.69.69,0,0,0-.94.28l-1.28,2.38a.73.73,0,0,0-.06.54.76.76,0,0,0,.34.41.64.64,0,0,0,.33.08.69.69,0,0,0,.2,0,.63.63,0,0,0,.41-.34l1.29-2.38A.69.69,0,0,0,35.93,22.52Z"/><path d="M40.61,25.64a.75.75,0,0,0-.14-.52.71.71,0,0,0-1-.13l-2.15,1.64a.65.65,0,0,0-.27.46.66.66,0,0,0,.13.51.69.69,0,0,0,.46.27h.1a.71.71,0,0,0,.42-.14l2.16-1.64A.69.69,0,0,0,40.61,25.64Z"/><path d="M44.06,28.84a.69.69,0,0,0-.86-.48l-2.6.76a.69.69,0,0,0,.2,1.36.65.65,0,0,0,.19,0l2.6-.76A.68.68,0,0,0,44.06,28.84Z"/><path d="M30.26,21.49a.71.71,0,0,0-.7.7V24.9a.7.7,0,0,0,.7.7h0a.7.7,0,0,0,.7-.7V22.19A.7.7,0,0,0,30.26,21.49Z"/><path d="M25.53,22.8a.7.7,0,0,0-1.23.66l1.29,2.38a.63.63,0,0,0,.41.34.69.69,0,0,0,.2,0,.62.62,0,0,0,.33-.08.72.72,0,0,0,.34-.41.78.78,0,0,0-.05-.54Z"/><path d="M21,25a.71.71,0,0,0-1,.13.75.75,0,0,0-.14.52.73.73,0,0,0,.27.46l2.16,1.64a.71.71,0,0,0,.42.14h.1a.69.69,0,0,0,.46-.27.66.66,0,0,0,.13-.51.65.65,0,0,0-.27-.46Z"/><path d="M19.92,29.12l-2.6-.76a.69.69,0,0,0-.86.48.68.68,0,0,0,.47.86l2.6.76a.65.65,0,0,0,.19,0,.69.69,0,0,0,.2-1.36Z"/></g></g></svg>