<svg xmlns="http://www.w3.org/2000/svg" viewBox="0 0 21.05 21.05"><defs><style>.cls-1{fill:#ffc200;}.cls-2{fill:#fff;}</style></defs><title>Asset 509</title><g id="Layer_2" data-name="Layer 2"><g id="Layer_11" data-name="Layer 11"><circle class="cls-1" cx="10.52" cy="10.52" r="10.52"/><path d="M10.51,8.45A7.29,7.29,0,0,1,12,8.59a10,10,0,0,1,1.79.53,13,13,0,0,1,3.44,2.05c.44.36.84.76,1.26,1.14a.48.48,0,0,1,.16.52.43.43,0,0,1-.14.21c-.39.37-.78.74-1.19,1.09a12,12,0,0,1-1.54,1.11,11,11,0,0,1-1.77.92c-.41.16-.82.31-1.24.44a7.73,7.73,0,0,1-2.44.33A8.58,8.58,0,0,1,9,16.79a9.55,9.55,0,0,1-1.3-.34,12.24,12.24,0,0,1-1.54-.65,14.65,14.65,0,0,1-3-2.13c-.22-.2-.44-.42-.65-.63a.47.47,0,0,1,0-.67c.31-.32.63-.63,1-.93a12.83,12.83,0,0,1,2-1.46c.46-.26.94-.5,1.43-.73a8.83,8.83,0,0,1,.9-.35c.34-.11.7-.19,1.05-.27A7,7,0,0,1,10.51,8.45Zm3.21,4.19a3.27,3.27,0,0,0-6.53,0,3.27,3.27,0,1,0,6.53,0ZM14,15a11.86,11.86,0,0,0,3.46-2.38A11.53,11.53,0,0,0,14,10.28,4.32,4.32,0,0,1,14,15Zm-7,.06a4.39,4.39,0,0,1,0-4.75,11.17,11.17,0,0,0-3.45,2.39A12.58,12.58,0,0,0,7,15.08Z"/><path d="M18,10.82a.51.51,0,0,1-.52-.64.57.57,0,0,1,.43-.36l.95-.29.68-.21L20,9.18a.53.53,0,0,1,.58.26.5.5,0,0,1-.18.63,2.32,2.32,0,0,1-.46.18c-.39.13-.78.24-1.17.36l-.65.2Z"/><path d="M3.61,10.27a.5.5,0,0,1-.67.45c-.27-.11-.56-.18-.84-.27l-.68-.23L.78,10A.45.45,0,0,1,.44,9.4.49.49,0,0,1,1,9.07c.24.06.48.14.72.22l.67.22.67.22.22.07A.51.51,0,0,1,3.61,10.27Z"/><path d="M3.1,6.53a.51.51,0,0,1,.36.15c.53.41,1.06.82,1.6,1.22a.5.5,0,0,1,0,.83.52.52,0,0,1-.57-.05L2.79,7.39a.49.49,0,0,1,.31-.86Z"/><path d="M16.19,8.78a.52.52,0,0,1-.56-.52A.37.37,0,0,1,15.79,8c.57-.45,1.16-.89,1.74-1.34a.51.51,0,0,1,.68.09.5.5,0,0,1-.1.68L17,8.27l-.52.4A.46.46,0,0,1,16.19,8.78Z"/><path d="M14.48,4.73a.51.51,0,0,1,.51.74l-.91,1.65a.57.57,0,0,1-.49.35.49.49,0,0,1-.46-.64,4.92,4.92,0,0,1,.3-.61c.21-.39.44-.78.65-1.17C14.19,4.86,14.33,4.73,14.48,4.73Z"/><path d="M10.94,5.55v.94a.46.46,0,0,1-.5.48A.51.51,0,0,1,10,6.48C10,6,10,5.5,10,5c0-.16,0-.31,0-.46a.47.47,0,0,1,.63-.42.44.44,0,0,1,.33.47Z"/><path d="M6.64,4.73A.5.5,0,0,1,7,5l.86,1.66a.47.47,0,0,1,0,.55.42.42,0,0,1-.45.18A.53.53,0,0,1,7,7.13L6.39,5.9c-.07-.14-.14-.29-.22-.43A.52.52,0,0,1,6.64,4.73Z"/><path class="cls-2" d="M14,15a4.32,4.32,0,0,0,0-4.74,11.53,11.53,0,0,1,3.46,2.36A11.86,11.86,0,0,1,14,15Z"/><path class="cls-2" d="M7,15.08a12.58,12.58,0,0,1-3.45-2.36A11.17,11.17,0,0,1,7,10.33,4.39,4.39,0,0,0,7,15.08Z"/><path class="cls-2" d="M10.46,9.38a3.27,3.27,0,1,0,3.26,3.26A3.26,3.26,0,0,0,10.46,9.38Z"/></g></g></svg>