<svg xmlns="http://www.w3.org/2000/svg" viewBox="0 0 85.04 42.52"><defs><style>.cls-1{fill:none;}.cls-2{fill:#fff;}</style></defs><title>Asset 672</title><g id="Layer_2" data-name="Layer 2"><g id="Layer_13" data-name="Layer 13"><rect class="cls-1" width="85.04" height="42.52"/><path class="cls-2" d="M47.49,39.5c.08-.71.16-1.4.24-2.09.14-1.22.28-2.43.41-3.65a7.85,7.85,0,0,1,.44-2.13,5.2,5.2,0,0,1,1.14-1.74,5.34,5.34,0,0,1,3.41-1.61,2.07,2.07,0,0,0,1.69-1.09c.64-1.09,1.25-2.19,1.88-3.28a2.52,2.52,0,0,1,1.86-1.22,3,3,0,0,1,1.45.12l.11,0c.3.14.32.18.16.47-.7,1.24-1.39,2.48-2.09,3.71-.46.83-.94,1.65-1.41,2.48a.74.74,0,0,0,.24,1,.75.75,0,0,0,1.09-.24c.37-.63.73-1.27,1.09-1.9.62-1.09,1.25-2.17,1.87-3.27.26-.46.49-.95.74-1.42a1.57,1.57,0,0,0-.52-1.92.67.67,0,0,0-.18-.11c-.29-.09-.31-.3-.31-.57,0-2,0-4,0-6.05a2.44,2.44,0,0,1,1.81-2.44h.12c0,.39.05.77.08,1.16.1,1.47.21,2.94.31,4.41.07,1,.13,2.09.2,3.14s.14,2.09.22,3.13a2.79,2.79,0,0,1-.21,1.37L61,31.36c-.18.4-.35.81-.53,1.21a3.2,3.2,0,0,1-1.56,1.58c-.75.37-1.54.68-2.31,1a7.4,7.4,0,0,0-2.06,1.18,3.26,3.26,0,0,0-1.19,2.41c0,.24,0,.49,0,.75Z"/><path class="cls-2" d="M49.88,20.39a4.67,4.67,0,0,1,1.86,1,4.87,4.87,0,0,1,1.72,3.28c0,.41.11.83.16,1.25a.79.79,0,0,1-.69.88,10.17,10.17,0,0,0-1.44.28,6.59,6.59,0,0,0-3,1.86,7,7,0,0,0-1.4,2.21.24.24,0,0,1-.17.12c-.77.07-1.54.16-2.32.18-1.33,0-2.66.06-4,0-.85,0-1.69-.1-2.54-.16a.21.21,0,0,1-.16-.11,7,7,0,0,0-2.22-3,6.8,6.8,0,0,0-3.53-1.41.77.77,0,0,1-.68-.4c-.11-.21-.23-.41-.34-.61a.35.35,0,0,1,0-.17,8.62,8.62,0,0,1,.81-2.85,4.53,4.53,0,0,1,2.26-2.06c.24-.1.49-.18.73-.27a.17.17,0,0,1,.23.1,7.57,7.57,0,0,0,4.48,3.82,9.07,9.07,0,0,0,4.7.37,7.37,7.37,0,0,0,4.43-2.47,7.18,7.18,0,0,0,1-1.64Z"/><path class="cls-2" d="M36.55,10.39A10.27,10.27,0,0,0,44.29,8a4.8,4.8,0,0,0,4.28,1.81c0,.22,0,.44,0,.66a10.6,10.6,0,0,1-1.28,4.32,5.46,5.46,0,0,1-2.45,2.3,5.59,5.59,0,0,1-2.68.45,5,5,0,0,1-2.46-.8A5.43,5.43,0,0,1,38,15a9.78,9.78,0,0,1-1.4-4.19Z"/><path class="cls-2" d="M48.49,8.2a1.58,1.58,0,0,1-.91.05A3.55,3.55,0,0,1,45.2,6.57a.86.86,0,0,1-.12-.42.77.77,0,0,0-1.53-.05,1.36,1.36,0,0,1-.4.8,5.87,5.87,0,0,1-2.5,1.46,9.79,9.79,0,0,1-3.95.47h-.17a6.48,6.48,0,0,1,.55-2.18,5.47,5.47,0,0,1,1.81-2.18,6.46,6.46,0,0,1,5.53-.87,5.54,5.54,0,0,1,4,4.15C48.42,7.88,48.45,8,48.49,8.2Z"/><path class="cls-2" d="M48.38,20c-.16.27-.29.53-.45.76a5.63,5.63,0,0,1-3.56,2.34,7.46,7.46,0,0,1-5.28-.7,5.83,5.83,0,0,1-2.31-2.15c-.05-.08-.09-.17-.15-.28l1.08-.28A3.8,3.8,0,0,0,39.29,19a5.5,5.5,0,0,0,.46-.49,7.25,7.25,0,0,0,5.6,0,2.81,2.81,0,0,0,2,1.23Z"/><path class="cls-2" d="M56.54,13.11v8.57a.34.34,0,0,1-.15.32,4.59,4.59,0,0,0-1.3,1.6l-.18.31a2.3,2.3,0,0,1-.07-.86,10,10,0,0,0,0-1.45V15.29A2.25,2.25,0,0,1,56.54,13.11Z"/><path class="cls-2" d="M59.27,21.08l-1.19.1V12.31a2.33,2.33,0,0,1,1.54-2.2l.2-.06c0,.67.08,1.32.12,2l0,.31a.8.8,0,0,1-.13.58,3.42,3.42,0,0,0-.55,2c0,2,0,4,0,5.92Z"/><path class="cls-2" d="M37.55,39.5c-.08-.71-.16-1.4-.24-2.09-.14-1.22-.28-2.43-.41-3.65a7.85,7.85,0,0,0-.44-2.13,5.2,5.2,0,0,0-1.14-1.74,5.34,5.34,0,0,0-3.41-1.61,2.07,2.07,0,0,1-1.69-1.09C29.58,26.1,29,25,28.34,23.91a2.52,2.52,0,0,0-1.86-1.22,3,3,0,0,0-1.45.12l-.11,0c-.3.14-.32.18-.16.47.7,1.24,1.39,2.48,2.09,3.71.46.83.94,1.65,1.41,2.48a.74.74,0,0,1-.24,1,.75.75,0,0,1-1.09-.24c-.37-.63-.73-1.27-1.09-1.9-.62-1.09-1.25-2.17-1.87-3.27-.26-.46-.49-.95-.74-1.42a1.57,1.57,0,0,1,.52-1.92.54.54,0,0,1,.18-.11c.29-.09.31-.3.31-.57q0-3,0-6.05a2.43,2.43,0,0,0-1.81-2.44h-.11c0,.39,0,.77-.08,1.16-.1,1.47-.21,2.94-.31,4.41-.07,1-.13,2.09-.2,3.14s-.14,2.09-.22,3.13a2.79,2.79,0,0,0,.21,1.37l2.38,5.55c.18.4.35.81.53,1.21a3.2,3.2,0,0,0,1.56,1.58c.75.37,1.53.68,2.31,1a7.4,7.4,0,0,1,2.06,1.18,3.29,3.29,0,0,1,1.19,2.41c0,.24,0,.49,0,.75Z"/><path class="cls-2" d="M28.5,13.11v8.57a.34.34,0,0,0,.15.32A4.59,4.59,0,0,1,30,23.6l.18.31a2.3,2.3,0,0,0,.07-.86,10,10,0,0,1-.05-1.45V15.29A2.25,2.25,0,0,0,28.5,13.11Z"/><path class="cls-2" d="M25.77,21.08l1.19.1V12.31a2.33,2.33,0,0,0-1.54-2.2l-.2-.06c0,.67-.08,1.32-.12,2l0,.31a.8.8,0,0,0,.13.58,3.42,3.42,0,0,1,.55,2c0,2,0,4,0,5.92Z"/></g></g></svg>