<svg xmlns="http://www.w3.org/2000/svg" viewBox="0 0 85.04 42.52"><defs><style>.cls-1{fill:none;}.cls-2{fill:red;}.cls-3{fill:lime;}</style></defs><title>Asset 706</title><g id="Layer_2" data-name="Layer 2"><g id="Layer_13" data-name="Layer 13"><rect class="cls-1" width="85.04" height="42.52"/><path class="cls-2" d="M41.45,9.42a1.87,1.87,0,0,1,.19-1.78,2,2,0,0,1,1.55-.87,1.73,1.73,0,0,1,.29-1.63A2,2,0,0,1,45,4.41a5.22,5.22,0,0,1,0-.67,1.65,1.65,0,0,1,1-1.44A2.11,2.11,0,0,1,47,2.06c1.26,0,2.53,0,3.8,0,.81,0,1.63.11,2.44.21s1.55.24,2.33.36a.75.75,0,0,0,.15,0,.67.67,0,0,1,.74-.6c.74,0,1.48,0,2.22,0a.6.6,0,0,1,.64.59.63.63,0,0,1-.64.61H56.92v4c0,.38,0,.77,0,1.15s0,.58,0,.87c0,.13,0,.26,0,.39,0,.7,0,1.41,0,2.12v.25h1.81a.6.6,0,0,1,.59.42.57.57,0,0,1-.24.66.83.83,0,0,1-.38.1H56.32a.58.58,0,0,1-.62-.47c0-.14-.1-.13-.2-.1a2.59,2.59,0,0,0-1.33,1.06,7.86,7.86,0,0,0-1.1,2.62,10.82,10.82,0,0,1-.35,1.27,2.05,2.05,0,0,1-2.48,1.13,2,2,0,0,1-1.37-2.41c.18-.85.39-1.7.59-2.54,0-.13,0-.25.08-.37s0-.18-.15-.19H40.94a2,2,0,0,1-1.71-.88A1.89,1.89,0,0,1,40,9.62a4,4,0,0,1,.93-.2A4,4,0,0,1,41.45,9.42Zm3.74,2.65h4.24a1.3,1.3,0,0,1,1.31,1.53q-.09.46-.21.93c-.16.7-.33,1.4-.49,2.1a.84.84,0,0,0,1.6.49c.06-.19.09-.4.14-.6a11.35,11.35,0,0,1,.93-2.66,4.06,4.06,0,0,1,2.84-2.41.22.22,0,0,0,.13-.15c0-.59,0-1.18,0-1.77s0-1.18,0-1.77V4.07c0-.1,0-.18-.13-.2-1.14-.17-2.29-.36-3.43-.49a45.33,45.33,0,0,0-5.34-.11,1,1,0,0,0-.53.22.43.43,0,0,0,0,.71,1.34,1.34,0,0,0,.61.2c.47,0,.94,0,1.42,0h1.32a.61.61,0,0,1,.58.35.55.55,0,0,1,0,.58.66.66,0,0,1-.59.27H45.15a1.4,1.4,0,0,0-.41.06.56.56,0,0,0-.41.44.46.46,0,0,0,.29.54,1.68,1.68,0,0,0,.54.11h4.12a1.63,1.63,0,0,1,.31,0,.59.59,0,0,1,.37.87.62.62,0,0,1-.59.3h-6a.82.82,0,0,0-.83.5.79.79,0,0,0,.06.63,1.08,1.08,0,0,0,.78.32h4.9a.56.56,0,0,1,.49.48.49.49,0,0,1-.24.58,1.18,1.18,0,0,1-.53.12h-7.3a.73.73,0,0,0-.5,1.06.79.79,0,0,0,.73.38Z"/><path class="cls-3" d="M29.34,39.86a.66.66,0,0,1-.7.61c-.75,0-1.49,0-2.24,0a.64.64,0,0,1-.65-.59.64.64,0,0,1,.65-.62h1.71c0-.08,0-.15,0-.21,0-1.46,0-2.92,0-4.38,0-.3,0-.6,0-.9,0-.11.06-.23.06-.34,0-1-.06-2-.09-3H26.33a.61.61,0,0,1-.59-.41.58.58,0,0,1,.24-.67.87.87,0,0,1,.39-.1h2.34a.6.6,0,0,1,.63.47c0,.15.11.13.22.09A2.72,2.72,0,0,0,31,28.56,8.64,8.64,0,0,0,32,26a7.59,7.59,0,0,1,.3-1.09,2,2,0,0,1,2.41-1.16,2,2,0,0,1,1.45,2.43c-.19.85-.4,1.69-.6,2.54a1.25,1.25,0,0,1,0,.19c-.15.4,0,.37.29.37h8.28a1.92,1.92,0,0,1,1.13,3.53,2,2,0,0,1-1.12.32h-.54a1.85,1.85,0,0,1-.18,1.77,2,2,0,0,1-1.54.88c.25,1.45-.47,2.15-1.8,2.38,0,.18,0,.35.06.52a1.69,1.69,0,0,1-1,1.57,2.19,2.19,0,0,1-1.1.24c-1.26,0-2.52,0-3.78,0-.82,0-1.65-.11-2.47-.21s-1.53-.24-2.3-.36Zm10.51-9.42H35.61a1.31,1.31,0,0,1-1.32-1.53c.07-.32.14-.63.22-.94.16-.69.33-1.39.49-2.09a.83.83,0,0,0-1.61-.43c-.09.28-.15.58-.22.87a8.94,8.94,0,0,1-1.22,3A3.7,3.7,0,0,1,29.56,31c-.17,0-.21.11-.21.27,0,.81,0,1.63,0,2.45,0,1.56,0,3.12,0,4.68,0,.11,0,.19.14.21.78.13,1.57.29,2.36.38,1,.1,1.91.16,2.87.22.41,0,.82,0,1.23,0,.11,0,.22.06.33.06l.58-.06c.47,0,.94,0,1.4,0a1,1,0,0,0,.54-.25.38.38,0,0,0,0-.59.79.79,0,0,0-.31-.23,1.37,1.37,0,0,0-.45-.07H35.4a.65.65,0,0,1-.61-.34.55.55,0,0,1,.05-.59.66.66,0,0,1,.6-.27h4.44a1.83,1.83,0,0,0,.4,0,.62.62,0,0,0,.44-.46.49.49,0,0,0-.31-.53,1.31,1.31,0,0,0-.52-.11H35.77a1.09,1.09,0,0,1-.31,0,.58.58,0,0,1-.38-.86.59.59,0,0,1,.58-.31h6a1.25,1.25,0,0,0,.5-.11.68.68,0,0,0,.32-.94.82.82,0,0,0-.8-.41h-4.9a.59.59,0,0,1-.5-.48.51.51,0,0,1,.25-.58,1.08,1.08,0,0,1,.53-.12h7a1.72,1.72,0,0,0,.32,0,.71.71,0,0,0,.5-1.05.8.8,0,0,0-.74-.39Z"/><path class="cls-2" d="M44.32,16.52c0,.21,0,.41,0,.62a.25.25,0,0,0,.15.27l3.32,1.94a.73.73,0,0,1,.36.67v3.8a.3.3,0,0,0,.19.32c.37.2.74.41,1.1.63a.61.61,0,1,1-.59,1.07c-.38-.24-.78-.45-1.16-.68a.2.2,0,0,0-.25,0l-3.42,2a.6.6,0,0,1-.63,0l-3.4-2a.18.18,0,0,0-.24,0c-.39.24-.79.46-1.19.69a.62.62,0,0,1-.82-.21.59.59,0,0,1,.19-.81c.38-.25.78-.48,1.17-.7a.29.29,0,0,0,.18-.29c0-1.3,0-2.6,0-3.9a.68.68,0,0,1,.35-.61l3.34-2a.25.25,0,0,0,.15-.27c0-.42,0-.84,0-1.26a.57.57,0,0,1,.57-.61.61.61,0,0,1,.64.6v.66ZM40.48,21c0,1,0,2,0,3,0,.06.08.14.14.18l1.76,1,.72.42c0-1,0-2,0-3a.23.23,0,0,0-.12-.17l-1.57-.94Zm.6-1.07,1.09.63c.16.11.31.24.48.34s.56.28.83.45a.36.36,0,0,0,.43,0c.38-.24.77-.46,1.16-.69l1.23-.73s0-.07-.08-.08c-.8-.47-1.6-.95-2.41-1.41a.31.31,0,0,0-.23,0l-1.35.79Zm3.24,5.68c.82-.48,1.6-.95,2.39-1.4a.38.38,0,0,0,.22-.4c0-.84,0-1.69,0-2.54,0-.07,0-.15,0-.24l-.12,0c-.7.41-1.4.85-2.12,1.24a.61.61,0,0,0-.36.65C44.33,23.81,44.32,24.68,44.32,25.59Z"/></g></g></svg>