<svg xmlns="http://www.w3.org/2000/svg" viewBox="0 0 60.52 60.52"><defs><style>.cls-1{fill:#ff1212;}.cls-2{fill:none;}</style></defs><title>Asset 517</title><g id="Layer_2" data-name="Layer 2"><g id="Layer_11" data-name="Layer 11"><polygon class="cls-1" points="52.37 8.15 30.26 26 8.15 8.15 26.79 30.09 8.15 52.03 30.26 34.18 52.37 52.03 33.73 30.09 52.37 8.15"/><rect class="cls-2" width="60.52" height="60.52"/><path class="cls-1" d="M24.33,15.75a15.49,15.49,0,0,1,11.86,0l5.09-4.11a21.31,21.31,0,0,0-22,0Z"/><path class="cls-1" d="M45.78,30.09a15.43,15.43,0,0,1-1.26,6.12l4.18,4.93a21.36,21.36,0,0,0,0-22.1L44.52,24A15.48,15.48,0,0,1,45.78,30.09Z"/><path class="cls-1" d="M14.74,30.09A15.45,15.45,0,0,1,16,24L11.83,19a21.3,21.3,0,0,0,0,22.1L16,36.22A15.52,15.52,0,0,1,14.74,30.09Z"/><path class="cls-1" d="M36.19,44.43a15.49,15.49,0,0,1-11.86,0l-5.09,4.11a21.31,21.31,0,0,0,22,0Z"/></g></g></svg>