<svg xmlns="http://www.w3.org/2000/svg" viewBox="0 0 85.04 42.52"><defs><style>.cls-1{fill:#fff;}.cls-2{fill:#e29205;}.cls-3{fill:#0ba81d;}.cls-4{fill:#dd1919;}.cls-5{fill:none;}</style></defs><title>Asset 675</title><g id="Layer_2" data-name="Layer 2"><g id="Layer_12" data-name="Layer 12"><path class="cls-1" d="M23.28,37.25l2.21.43V39.5l-9.65-2.09V35.16l9.65-1.87v1.82l-2.21.41Zm-1.46-1.56-2,.32c-.59.1-1.55.23-2.19.31v0c.64.1,1.64.24,2.2.34l2,.36Z"/><path class="cls-2" d="M16,32.23a10.85,10.85,0,0,1-.18-2.13,3.59,3.59,0,0,1,.69-2.45,2.18,2.18,0,0,1,1.74-.73,2.24,2.24,0,0,1,2.11,1.4h.05A2.32,2.32,0,0,1,22.7,26.6a2.6,2.6,0,0,1,1.89.72c.63.57,1,1.55,1,3.16a13.21,13.21,0,0,1-.1,1.75Zm3.83-1.88V30a1.25,1.25,0,0,0-1.36-1.18c-.7,0-1.25.32-1.25,1.1a1.52,1.52,0,0,0,.06.48Zm4.28,0a2.43,2.43,0,0,0,0-.41,1.31,1.31,0,0,0-1.44-1.39A1.39,1.39,0,0,0,21.19,30v.4Z"/><path class="cls-3" d="M25.35,20.69a4.09,4.09,0,0,1,.22,1.46c0,2.47-2,3.64-4.76,3.64-3.64,0-5-2-5-3.89A2.63,2.63,0,0,1,16,20.59l1.58.32a1.87,1.87,0,0,0-.19.87c0,1.06.92,2,3.31,2s3.2-.87,3.2-2a3.4,3.4,0,0,0-.14-.9Z"/><path class="cls-1" d="M18,17.93v0l.81,1.58-1.47.31-1.1-2.13V16.07h9.3v1.86Z"/><path class="cls-2" d="M25.49,14.05H24.23L23,13.12c-1.53-1.2-2.8-2.19-4.14-2.19a1.15,1.15,0,0,0-1.27,1.19,2.64,2.64,0,0,0,.47,1.4l-1.46.33a4.18,4.18,0,0,1-.57-2.07,2.46,2.46,0,0,1,2.69-2.69c1.75,0,3.15,1.08,4.4,2.16l.65.56h0V9h1.65Z"/><path class="cls-3" d="M23.71,7.68a2.8,2.8,0,0,0,.36-1.38,1.28,1.28,0,0,0-1.34-1.41c-1,0-1.48.79-1.48,1.75V6.9H19.88V6.71c0-.69-.3-1.57-1.2-1.57A1,1,0,0,0,17.6,6.22,2.34,2.34,0,0,0,18,7.4l-1.41.24a3.84,3.84,0,0,1-.49-1.92,2.22,2.22,0,0,1,2.25-2.44,2.27,2.27,0,0,1,2.09,1.33h0A2.33,2.33,0,0,1,22.8,3a2.86,2.86,0,0,1,2.8,3.1A4,4,0,0,1,25.19,8Z"/><circle class="cls-4" cx="69.06" cy="8.67" r="5.18"/><path class="cls-1" d="M72.94,6.64l-.26,0a4.82,4.82,0,0,0-.49,0V6.48a.3.3,0,0,0-.21-.3c.24,0,.44,0,.6,0h0l0,0a.17.17,0,0,0,0-.1c0-.07,0-.17-.23-.21a.75.75,0,0,0-.24,0,6.16,6.16,0,0,0-.75-.05c-.65,0-1.51,0-2.42,0s-1.79,0-2.44,0c-.32,0-.57.05-.75.05s-.17,0-.23,0-.23.14-.23.21a.17.17,0,0,0,0,.1l0,0h0l.6,0a.31.31,0,0,0-.22.31v.08l-.49,0-.26,0c-.21.05-.25.16-.25.24s0,.19.25.24a1.43,1.43,0,0,0,.26,0c.21,0,.49,0,.86.06l1,0V8.44h0l-.69.4a.79.79,0,0,0-.42.69V11.9a.13.13,0,0,0,.13.12h5.54A.12.12,0,0,0,72,11.9V9.53a.78.78,0,0,0-.41-.69l-.69-.4h-.06V7.26l1,0c.36,0,.65,0,.85-.06l.26,0c.21,0,.25-.16.25-.24S73.15,6.69,72.94,6.64Z"/><rect class="cls-5" width="85.04" height="42.52"/><path class="cls-1" d="M40,8.32a10.23,10.23,0,0,1-1.2,4c-.21.46-.41.91-.58,1.34A5,5,0,0,0,36.85,13c.17-.43.37-.87.56-1.29a9.22,9.22,0,0,0,1.07-3.42C38.48,6.71,37,5.49,35,5.49a3.2,3.2,0,0,0-3.39,3,8.38,8.38,0,0,0,1.18,3.37c.21.4.41.81.6,1.22a4.72,4.72,0,0,0-1.32.68c-.17-.4-.38-.81-.59-1.23a9.23,9.23,0,0,1-1.35-4A4.68,4.68,0,0,1,35,4C37.84,4,40,5.86,40,8.32Z"/><path class="cls-1" d="M33.9,16.44a4.09,4.09,0,0,1-1.79,2.19,4.8,4.8,0,0,1-.31-1.56V17A2.63,2.63,0,0,0,32.5,16a1.57,1.57,0,0,0,.08-.69,3.46,3.46,0,0,1,1.35-.82A3.45,3.45,0,0,1,33.9,16.44Z"/><path class="cls-1" d="M30.76,19.24a7.52,7.52,0,0,1-2.11.36h0a.74.74,0,1,1,0-1.47,6.61,6.61,0,0,0,1.74-.32A7.37,7.37,0,0,0,30.76,19.24Z"/><path class="cls-1" d="M38.57,17.14a5.43,5.43,0,0,1-.37,1.64,4.9,4.9,0,0,1-1.73-2.34,3.76,3.76,0,0,1-.07-2,3.57,3.57,0,0,1,1.38.82,2,2,0,0,0,.08.7A3.35,3.35,0,0,0,38.57,17.14Z"/><path class="cls-1" d="M40.6,19q0,.3,0,.69a7.53,7.53,0,0,1-1.1-.23A8.22,8.22,0,0,0,40,18a4.41,4.41,0,0,0,.73.17A4.15,4.15,0,0,0,40.6,19Z"/><path class="cls-1" d="M44.56,17.58A2.94,2.94,0,0,1,43,19.4a3.5,3.5,0,0,1-.87.27c0-.27,0-.49,0-.68a2.55,2.55,0,0,1,.16-.88l.12-.05a1.54,1.54,0,0,0,.81-1c0-.05,0-.1,0-.16a3.83,3.83,0,0,1,1.5-.61A3.06,3.06,0,0,1,44.56,17.58Z"/><path class="cls-1" d="M50.32,8.32a12.36,12.36,0,0,1-1.4,4.5,24.07,24.07,0,0,0-1,2.52,5.3,5.3,0,0,0-1.41-.46,25.06,25.06,0,0,1,1.07-2.66,11.48,11.48,0,0,0,1.27-3.9c0-1.75-1.75-2.83-3.38-2.83s-3.38,1.08-3.38,2.83a11.48,11.48,0,0,0,1.27,3.9,25.06,25.06,0,0,1,1.07,2.66,5.3,5.3,0,0,0-1.41.46,24.07,24.07,0,0,0-1-2.52,12.36,12.36,0,0,1-1.4-4.5A4.61,4.61,0,0,1,45.46,4,4.61,4.61,0,0,1,50.32,8.32Z"/><path class="cls-1" d="M48.84,19c0,.19,0,.41,0,.68a3.37,3.37,0,0,1-.87-.27,2.94,2.94,0,0,1-1.58-1.82,3.06,3.06,0,0,1-.15-1.25,3.9,3.9,0,0,1,1.5.61.75.75,0,0,0,0,.16,1.54,1.54,0,0,0,.81,1l.12.05A2.55,2.55,0,0,1,48.84,19Z"/><path class="cls-1" d="M50.29,19.68q0-.39,0-.69a4.15,4.15,0,0,0-.08-.79A4.41,4.41,0,0,0,51,18a8.22,8.22,0,0,0,.42,1.42A7.25,7.25,0,0,1,50.29,19.68Z"/><path class="cls-1" d="M54.45,16.44a4.9,4.9,0,0,1-1.73,2.34,5.14,5.14,0,0,1-.37-1.64A3.35,3.35,0,0,0,53.06,16a2,2,0,0,0,.08-.71,3.68,3.68,0,0,1,1.38-.81A3.76,3.76,0,0,1,54.45,16.44Z"/><path class="cls-1" d="M60.75,8.47a9.36,9.36,0,0,1-1.35,4c-.21.42-.42.83-.59,1.23a5,5,0,0,0-1.32-.69c.19-.4.39-.81.6-1.21a8.38,8.38,0,0,0,1.18-3.37,3.24,3.24,0,0,0-3.39-3c-2,0-3.44,1.19-3.44,2.83a9.22,9.22,0,0,0,1.07,3.42c.19.42.39.86.56,1.29a5,5,0,0,0-1.33.65c-.17-.43-.37-.88-.58-1.34a10.23,10.23,0,0,1-1.2-4C51,5.86,53.08,4,55.88,4A4.68,4.68,0,0,1,60.75,8.47Z"/><path class="cls-1" d="M59.12,17.07a4.8,4.8,0,0,1-.31,1.56A4.09,4.09,0,0,1,57,16.44a3.37,3.37,0,0,1,0-2,3.46,3.46,0,0,1,1.35.82,1.57,1.57,0,0,0,.08.69,2.63,2.63,0,0,0,.7,1.06Z"/><path class="cls-1" d="M63,18.87a.73.73,0,0,1-.74.73h0a7.52,7.52,0,0,1-2.11-.36,7.37,7.37,0,0,0,.38-1.43,6.61,6.61,0,0,0,1.74.32A.72.72,0,0,1,63,18.87Z"/><path class="cls-1" d="M39.38,36.65c-.18.44-.38.87-.58,1.3l-.1.21a.74.74,0,0,1-.67.43.67.67,0,0,1-.31-.07.74.74,0,0,1-.36-1l.1-.21c.17-.38.35-.76.51-1.13h0A4.62,4.62,0,0,0,39.38,36.65Z"/><path class="cls-1" d="M32.54,32.14a2.49,2.49,0,0,0-.74,1.76c0,.12,0,.23,0,.35a4,4,0,0,1-1.37.79,5.54,5.54,0,0,1-.13-1.14A4.09,4.09,0,0,1,32,30.63a7.6,7.6,0,0,1,.51,1.5Z"/><path class="cls-1" d="M32.65,38.52a.74.74,0,0,1-1-.36l-.1-.21c-.23-.49-.46-1-.67-1.5a5.9,5.9,0,0,0,1.34-.65c.19.51.43,1,.67,1.53l.1.21A.74.74,0,0,1,32.65,38.52Z"/><path class="cls-1" d="M37,29.9c-.21.46-.41.92-.58,1.37a4,4,0,0,0-1.23-.2,3.85,3.85,0,0,0-1.33.24,9.81,9.81,0,0,0-.52-1.39,5.39,5.39,0,0,1,3.66,0Z"/><path class="cls-1" d="M40.05,33.9a5.22,5.22,0,0,1-.18,1.3h-.25a2.89,2.89,0,0,1-1.16-.41,3.92,3.92,0,0,0,.11-.88A2.53,2.53,0,0,0,37.71,32a13.46,13.46,0,0,1,.59-1.42A4.12,4.12,0,0,1,40.05,33.9Z"/><path class="cls-1" d="M49.87,36.55c-.21.55-.46,1.14-.73,1.74a.73.73,0,0,1-.67.44.8.8,0,0,1-.3-.06.75.75,0,0,1-.38-1c.24-.53.52-1.16.75-1.79A3.83,3.83,0,0,0,49.87,36.55Z"/><path class="cls-1" d="M42.33,32.5a2.53,2.53,0,0,0-.41,1.4,2.16,2.16,0,0,0,0,.35h0a2.16,2.16,0,0,1-1.35.87,5.47,5.47,0,0,1-.16-1.23,4.25,4.25,0,0,1,1.76-3.38c.07.75.12,1.42.13,2Z"/><path class="cls-1" d="M42.75,38.67a.74.74,0,0,1-1-.38c-.27-.6-.52-1.19-.73-1.74a4,4,0,0,0,1.33-.64c.23.62.51,1.25.75,1.78A.75.75,0,0,1,42.75,38.67Z"/><path class="cls-1" d="M47.32,29.77c-.07.55-.12,1.07-.15,1.54a4,4,0,0,0-3.42,0c0-.47-.08-1-.15-1.54a5.57,5.57,0,0,1,3.72,0Z"/><path class="cls-1" d="M50.48,33.9a5.47,5.47,0,0,1-.16,1.23A2.16,2.16,0,0,1,49,34.26a2.38,2.38,0,0,0,0-.36,2.53,2.53,0,0,0-.41-1.4h0c0-.56,0-1.23.13-2A4.28,4.28,0,0,1,50.48,33.9Z"/><path class="cls-1" d="M60,36.45c-.21.5-.44,1-.67,1.5l-.1.21a.74.74,0,0,1-.67.43.67.67,0,0,1-.31-.07.74.74,0,0,1-.36-1l.1-.21c.24-.51.48-1,.67-1.53A5.9,5.9,0,0,0,60,36.45Z"/><path class="cls-1" d="M52.35,33.9a3.92,3.92,0,0,0,.11.88,3,3,0,0,1-1.16.41h-.25a5.22,5.22,0,0,1-.18-1.3,4.12,4.12,0,0,1,1.75-3.3A13.46,13.46,0,0,1,53.21,32,2.53,2.53,0,0,0,52.35,33.9Z"/><path class="cls-1" d="M53.2,38.52a.74.74,0,0,1-1-.36l-.1-.21c-.2-.43-.4-.86-.58-1.3A4.71,4.71,0,0,0,53,36.2c.16.37.34.75.51,1.13l.1.21A.74.74,0,0,1,53.2,38.52Z"/><path class="cls-1" d="M57.59,29.92a9.81,9.81,0,0,0-.52,1.39,3.85,3.85,0,0,0-1.33-.24,4,4,0,0,0-1.23.2c-.17-.45-.37-.91-.58-1.37a5.39,5.39,0,0,1,3.66,0Z"/><path class="cls-1" d="M60.6,33.9A5.54,5.54,0,0,1,60.47,35a4,4,0,0,1-1.37-.79c0-.11,0-.23,0-.35a2.49,2.49,0,0,0-.74-1.76h0a7.6,7.6,0,0,1,.51-1.5A4.09,4.09,0,0,1,60.6,33.9Z"/><path class="cls-1" d="M32.24,35.8a5.9,5.9,0,0,1-1.34.65A11,11,0,0,1,30.45,35a4,4,0,0,0,1.37-.79A6,6,0,0,0,32.24,35.8Z"/><path class="cls-1" d="M42.38,35.91a4,4,0,0,1-1.33.64,11,11,0,0,1-.45-1.42A2.16,2.16,0,0,0,42,34.26,7.2,7.2,0,0,0,42.38,35.91Z"/><path class="cls-1" d="M39.87,35.2a9.9,9.9,0,0,1-.49,1.45h0A4.62,4.62,0,0,1,38,36.2a9.58,9.58,0,0,0,.49-1.42,2.89,2.89,0,0,0,1.16.41Z"/><path class="cls-1" d="M43.21,16.94a3.57,3.57,0,0,0-.2-1.6,5.3,5.3,0,0,1,1.41-.46,6.77,6.77,0,0,1,.29,1.45A3.83,3.83,0,0,0,43.21,16.94Z"/><path class="cls-1" d="M47.71,16.94a3.9,3.9,0,0,0-1.5-.61,6.77,6.77,0,0,1,.29-1.45,5.3,5.3,0,0,1,1.41.46A3.57,3.57,0,0,0,47.71,16.94Z"/><path class="cls-1" d="M53,36.2a4.71,4.71,0,0,1-1.41.45,8.84,8.84,0,0,1-.49-1.45h.25a3,3,0,0,0,1.16-.41A9.58,9.58,0,0,0,53,36.2Z"/><path class="cls-1" d="M50.32,35.13a11,11,0,0,1-.45,1.42,3.83,3.83,0,0,1-1.33-.65A7,7,0,0,0,49,34.26,2.16,2.16,0,0,0,50.32,35.13Z"/><path class="cls-1" d="M60.47,35A11,11,0,0,1,60,36.45a5.9,5.9,0,0,1-1.34-.65,5.89,5.89,0,0,0,.42-1.55A4,4,0,0,0,60.47,35Z"/><path class="cls-1" d="M33.93,14.45a3.46,3.46,0,0,0-1.35.82,4.83,4.83,0,0,0-.47-1.53,4.72,4.72,0,0,1,1.32-.68A7.75,7.75,0,0,1,33.93,14.45Z"/><path class="cls-1" d="M38.18,13.68a5.17,5.17,0,0,0-.4,1.58,3.57,3.57,0,0,0-1.38-.82A8.53,8.53,0,0,1,36.85,13,5,5,0,0,1,38.18,13.68Z"/><path class="cls-1" d="M54.52,14.44a3.68,3.68,0,0,0-1.38.81,5.18,5.18,0,0,0-.4-1.57A5,5,0,0,1,54.07,13,8.53,8.53,0,0,1,54.52,14.44Z"/><path class="cls-1" d="M58.81,13.74a4.83,4.83,0,0,0-.47,1.53A3.46,3.46,0,0,0,57,14.45a8.13,8.13,0,0,1,.5-1.4A5,5,0,0,1,58.81,13.74Z"/><path class="cls-3" d="M42.08,19c0,.19,0,.41,0,.68a4.9,4.9,0,0,1-1.48,0q0-.39,0-.69a4.15,4.15,0,0,1,.08-.79,3.16,3.16,0,0,0,1.56-.09A2.55,2.55,0,0,0,42.08,19Z"/><path class="cls-3" d="M33.33,29.92a4.83,4.83,0,0,0-1.3.71c-.14-.33-.3-.67-.46-1-.25-.55-.51-1.09-.72-1.65a6.23,6.23,0,0,0,1.34-.63c.2.54.46,1.1.72,1.65C33.05,29.3,33.2,29.61,33.33,29.92Z"/><path class="cls-3" d="M33.85,31.31a3.55,3.55,0,0,0-1.31.82,7.6,7.6,0,0,0-.51-1.5,4.83,4.83,0,0,1,1.3-.71A9.81,9.81,0,0,1,33.85,31.31Z"/><path class="cls-3" d="M33.9,33.69a4.07,4.07,0,0,1-1.66,2.11,6,6,0,0,1-.42-1.55,2.52,2.52,0,0,0,.68-1,2.12,2.12,0,0,0,0-1.07h0a3.55,3.55,0,0,1,1.31-.82A3.88,3.88,0,0,1,33.9,33.69Z"/><path class="cls-3" d="M30.9,36.45a7.65,7.65,0,0,1-2.25.4h0a.74.74,0,1,1,0-1.47A6.53,6.53,0,0,0,30.45,35,11,11,0,0,0,30.9,36.45Z"/><path class="cls-3" d="M32.56,23.78a2.5,2.5,0,0,0-.76,1.79v.2a4,4,0,0,1-1.38.78,5.43,5.43,0,0,1-.1-1,4.15,4.15,0,0,1,1.76-3.32,6.66,6.66,0,0,1,.48,1.53Z"/><path class="cls-3" d="M37,21.56a11.78,11.78,0,0,0-.5,1.4,3.76,3.76,0,0,0-1.29-.22,3.84,3.84,0,0,0-1.29.22,10.24,10.24,0,0,0-.5-1.4,5.55,5.55,0,0,1,1.79-.3A5.46,5.46,0,0,1,37,21.56Z"/><path class="cls-3" d="M40.05,25.57a5.25,5.25,0,0,1-.12,1l-.31,0a1.77,1.77,0,0,1-1.07-.64c0-.12,0-.24,0-.35a2.5,2.5,0,0,0-.76-1.79h0a6.6,6.6,0,0,1,.47-1.53A4.14,4.14,0,0,1,40.05,25.57Z"/><path class="cls-3" d="M43.19,26.8l-1.5-.07c-.13-.8-.26-1.58-.37-2.29-.32-1.91-.6-3.62-.69-4.76a4.9,4.9,0,0,0,1.48,0c.1,1.07.38,2.77.67,4.53C42.93,25.12,43.06,26,43.19,26.8Z"/><path class="cls-3" d="M43.6,29.77a5.23,5.23,0,0,0-1.4.75c-.08-.72-.18-1.5-.29-2.29l1.5.05C43.48,28.81,43.55,29.3,43.6,29.77Z"/><path class="cls-3" d="M43.75,31.31a3.31,3.31,0,0,0-1.42,1.19c0-.56-.06-1.23-.13-2a5.23,5.23,0,0,1,1.4-.75C43.67,30.32,43.72,30.84,43.75,31.31Z"/><path class="cls-3" d="M43.56,34.35a3.7,3.7,0,0,1-1.18,1.56A7.2,7.2,0,0,1,42,34.26h0a2.38,2.38,0,0,0,.24-.45,4.16,4.16,0,0,0,.14-1.3h0a3.31,3.31,0,0,1,1.42-1.19A7.62,7.62,0,0,1,43.56,34.35Z"/><path class="cls-3" d="M41.05,36.55a4.26,4.26,0,0,1-1.62.1h0a9.9,9.9,0,0,0,.49-1.45,2.51,2.51,0,0,0,.73-.07A11,11,0,0,0,41.05,36.55Z"/><path class="cls-3" d="M38.46,34.78A9.58,9.58,0,0,1,38,36.2h0a3.63,3.63,0,0,1-1.81-2,4.45,4.45,0,0,1,.25-2.91,3.58,3.58,0,0,1,1.3.75,2.82,2.82,0,0,0-.15,1.68A2.06,2.06,0,0,0,38.46,34.78Z"/><path class="cls-3" d="M38.3,30.6A13.46,13.46,0,0,0,37.71,32a3.58,3.58,0,0,0-1.3-.75h0c.17-.45.37-.91.58-1.37A5,5,0,0,1,38.3,30.6Z"/><path class="cls-3" d="M39.48,28c-.24.61-.54,1.22-.82,1.82-.12.25-.25.5-.36.75A5,5,0,0,0,37,29.9l.33-.69c.28-.57.55-1.16.78-1.72a3,3,0,0,0,1.33.54Z"/><path class="cls-3" d="M43.21,16.94a2.75,2.75,0,0,0-1,1.17,3.16,3.16,0,0,1-1.56.09A4.24,4.24,0,0,1,43,15.34,3.57,3.57,0,0,1,43.21,16.94Z"/><path class="cls-3" d="M46.5,14.88a6.77,6.77,0,0,0-.29,1.45,4.05,4.05,0,0,0-1.5,0,6.77,6.77,0,0,0-.29-1.45,6.05,6.05,0,0,1,2.08,0Z"/><path class="cls-3" d="M50.32,19q0,.3,0,.69a5.43,5.43,0,0,1-.72.05,5,5,0,0,1-.76-.06c0-.27,0-.49,0-.68a2.55,2.55,0,0,0-.16-.88,3.16,3.16,0,0,0,1.56.09A4.15,4.15,0,0,1,50.32,19Z"/><path class="cls-3" d="M50.24,18.2a3.16,3.16,0,0,1-1.56-.09,2.75,2.75,0,0,0-1-1.17,3.57,3.57,0,0,1,.2-1.6A4.24,4.24,0,0,1,50.24,18.2Z"/><path class="cls-3" d="M50.29,19.68c-.09,1.14-.37,2.85-.69,4.76-.11.71-.24,1.49-.37,2.29l-1.5.07c.13-.82.26-1.68.41-2.6.29-1.76.57-3.46.67-4.53a5,5,0,0,0,.76.06A5.43,5.43,0,0,0,50.29,19.68Z"/><path class="cls-3" d="M53.11,23.78a2.5,2.5,0,0,0-.76,1.79c0,.11,0,.23,0,.35a1.79,1.79,0,0,1-1.07.64l-.31,0a5.25,5.25,0,0,1-.12-1,4.15,4.15,0,0,1,1.76-3.32,6.66,6.66,0,0,1,.48,1.53Z"/><path class="cls-3" d="M53.93,29.9a5,5,0,0,0-1.31.7c-.11-.25-.24-.5-.36-.75-.28-.6-.58-1.21-.82-1.82h.05a3,3,0,0,0,1.33-.54c.22.56.5,1.15.78,1.72Z"/><path class="cls-3" d="M54.51,31.27h0a3.58,3.58,0,0,0-1.3.75,13.46,13.46,0,0,0-.59-1.42,5,5,0,0,1,1.31-.7C54.14,30.36,54.34,30.82,54.51,31.27Z"/><path class="cls-3" d="M54.76,34.18a3.63,3.63,0,0,1-1.81,2,9.58,9.58,0,0,1-.49-1.42,2.06,2.06,0,0,0,.9-1.08A2.82,2.82,0,0,0,53.21,32a3.58,3.58,0,0,1,1.3-.75A4.45,4.45,0,0,1,54.76,34.18Z"/><path class="cls-3" d="M51.54,36.65h0a4.25,4.25,0,0,1-1.62-.1,11,11,0,0,0,.45-1.42,2.51,2.51,0,0,0,.73.07A8.84,8.84,0,0,0,51.54,36.65Z"/><path class="cls-3" d="M49,34.26a7,7,0,0,1-.43,1.64,3.53,3.53,0,0,1-1.18-1.55,7.62,7.62,0,0,1-.19-3,3.31,3.31,0,0,1,1.42,1.19h0a3.91,3.91,0,0,0,.14,1.3A2.84,2.84,0,0,0,49,34.26Z"/><path class="cls-3" d="M48.72,30.52c-.08.75-.12,1.42-.13,2a3.31,3.31,0,0,0-1.42-1.19c0-.47.08-1,.15-1.54A5.23,5.23,0,0,1,48.72,30.52Z"/><path class="cls-3" d="M49,28.23c-.11.79-.21,1.57-.29,2.29a5.23,5.23,0,0,0-1.4-.75c0-.47.12-1,.19-1.49Z"/><path class="cls-3" d="M57.52,21.56A11.69,11.69,0,0,0,57,23a3.84,3.84,0,0,0-1.29-.22,3.76,3.76,0,0,0-1.29.22,11.78,11.78,0,0,0-.5-1.4,5.51,5.51,0,0,1,1.79-.3A5.45,5.45,0,0,1,57.52,21.56Z"/><path class="cls-3" d="M60.6,25.57a5.43,5.43,0,0,1-.1,1,4.1,4.1,0,0,1-1.39-.78,1.41,1.41,0,0,0,0-.2,2.5,2.5,0,0,0-.76-1.79h0a6.66,6.66,0,0,1,.48-1.53A4.15,4.15,0,0,1,60.6,25.57Z"/><path class="cls-3" d="M63,36.12a.73.73,0,0,1-.74.73h0a7.65,7.65,0,0,1-2.25-.4A11,11,0,0,0,60.47,35a6.53,6.53,0,0,0,1.81.34A.72.72,0,0,1,63,36.12Z"/><path class="cls-3" d="M59.1,34.25a5.89,5.89,0,0,1-.42,1.55A4.07,4.07,0,0,1,57,33.69a3.88,3.88,0,0,1,0-2.38,3.63,3.63,0,0,1,1.31.82h0a2.12,2.12,0,0,0,0,1.07A2.45,2.45,0,0,0,59.1,34.25Z"/><path class="cls-3" d="M58.89,30.63a7.6,7.6,0,0,0-.51,1.5,3.63,3.63,0,0,0-1.31-.82,9.81,9.81,0,0,1,.52-1.39A4.83,4.83,0,0,1,58.89,30.63Z"/><path class="cls-3" d="M60.07,28c-.21.56-.47,1.1-.72,1.65-.16.34-.32.68-.46,1a4.83,4.83,0,0,0-1.3-.71c.13-.31.28-.62.42-.93.26-.55.52-1.11.72-1.65A6,6,0,0,0,60.07,28Z"/><path class="cls-3" d="M32.19,27.34a6.23,6.23,0,0,1-1.34.63,8.26,8.26,0,0,1-.43-1.42,4,4,0,0,0,1.38-.78A6.21,6.21,0,0,0,32.19,27.34Z"/><path class="cls-3" d="M39.93,26.6A9.05,9.05,0,0,1,39.48,28h0a3,3,0,0,1-1.33-.54,6.49,6.49,0,0,0,.45-1.57,1.77,1.77,0,0,0,1.07.64Z"/><path class="cls-3" d="M43.41,28.28l-1.5-.05h0c-.07-.5-.15-1-.22-1.5l1.5.07C43.27,27.31,43.34,27.81,43.41,28.28Z"/><path class="cls-3" d="M49.23,26.73c-.07.5-.15,1-.22,1.5l-1.5.05c.07-.47.14-1,.22-1.48Z"/><path class="cls-3" d="M52.82,27.49a3,3,0,0,1-1.33.54h-.05A9.05,9.05,0,0,1,51,26.6l.31,0a1.79,1.79,0,0,0,1.07-.64A6.49,6.49,0,0,0,52.82,27.49Z"/><path class="cls-3" d="M60.5,26.55A8.26,8.26,0,0,1,60.07,28a6,6,0,0,1-1.34-.63,5.77,5.77,0,0,0,.38-1.57A4.1,4.1,0,0,0,60.5,26.55Z"/><path class="cls-2" d="M32.11,18.63a5.75,5.75,0,0,1-1.35.61,7.37,7.37,0,0,1-.38-1.43A4,4,0,0,0,31.8,17v.05A4.8,4.8,0,0,0,32.11,18.63Z"/><path class="cls-2" d="M32.58,15.27A2.5,2.5,0,0,0,31.8,17a4,4,0,0,1-1.42.79,4.62,4.62,0,0,1-.06-.74,4.13,4.13,0,0,1,1.79-3.33A4.83,4.83,0,0,1,32.58,15.27Z"/><path class="cls-2" d="M30.85,28a7.93,7.93,0,0,1-2.2.39h0a.74.74,0,1,1,0-1.48,6.19,6.19,0,0,0,1.78-.33A8.26,8.26,0,0,0,30.85,28Z"/><path class="cls-2" d="M33.9,25.2a4.13,4.13,0,0,1-1.71,2.14,6.21,6.21,0,0,1-.39-1.57,2.47,2.47,0,0,0,.7-1.06,1.9,1.9,0,0,0,.06-.93h0A3.38,3.38,0,0,1,33.89,23,3.72,3.72,0,0,1,33.9,25.2Z"/><path class="cls-2" d="M33.89,23a3.38,3.38,0,0,0-1.33.82,6.66,6.66,0,0,0-.48-1.53,5.27,5.27,0,0,1,1.31-.69A10.24,10.24,0,0,1,33.89,23Z"/><path class="cls-2" d="M33.39,21.56a5.27,5.27,0,0,0-1.31.69c-.15-.36-.33-.74-.51-1.13-.29-.62-.58-1.24-.81-1.88a5.75,5.75,0,0,0,1.35-.61c.22.61.51,1.25.8,1.87C33.07,20.85,33.24,21.21,33.39,21.56Z"/><path class="cls-2" d="M36.85,13a8.53,8.53,0,0,0-.45,1.41,3.9,3.9,0,0,0-1.22-.2,3.86,3.86,0,0,0-1.25.21,7.75,7.75,0,0,0-.5-1.39,5.27,5.27,0,0,1,1.75-.3A5.36,5.36,0,0,1,36.85,13Z"/><path class="cls-2" d="M40,18a8.22,8.22,0,0,1-.42,1.42l-.27-.09a4.23,4.23,0,0,1-1.06-.58,5.43,5.43,0,0,0,.37-1.64,3.2,3.2,0,0,0,1.21.84Z"/><path class="cls-2" d="M40.05,17.07a5.21,5.21,0,0,1-.1,1L39.78,18a3.2,3.2,0,0,1-1.21-.84v-.07a2.47,2.47,0,0,0-.79-1.81,5.17,5.17,0,0,1,.4-1.58A4.15,4.15,0,0,1,40.05,17.07Z"/><path class="cls-2" d="M52.72,18.78a4.12,4.12,0,0,1-1.07.58l-.26.09A8.22,8.22,0,0,1,51,18l.16-.05a3.12,3.12,0,0,0,1.22-.84A5.14,5.14,0,0,0,52.72,18.78Z"/><path class="cls-2" d="M39.53,19.45c-.22.56-.48,1.12-.73,1.67-.18.39-.36.77-.52,1.13A5.27,5.27,0,0,0,37,21.56c.16-.35.32-.71.49-1.06.26-.57.53-1.15.74-1.72a4.23,4.23,0,0,0,1.06.58Z"/><path class="cls-2" d="M38.28,22.25a6.6,6.6,0,0,0-.47,1.53A3.42,3.42,0,0,0,36.47,23a11.78,11.78,0,0,1,.5-1.4A5.27,5.27,0,0,1,38.28,22.25Z"/><path class="cls-2" d="M38.55,25.92a6.49,6.49,0,0,1-.45,1.57,4.51,4.51,0,0,1-1.63-2.29,3.8,3.8,0,0,1,0-2.24,3.42,3.42,0,0,1,1.34.82h0a2,2,0,0,0,0,.93A3.62,3.62,0,0,0,38.55,25.92Z"/><path class="cls-2" d="M41.91,28.23c-.92-.05-1.75-.11-2.43-.2a9.05,9.05,0,0,0,.45-1.43c.51,0,1.11.1,1.76.13C41.76,27.23,41.84,27.73,41.91,28.23Z"/><path class="cls-2" d="M47.73,26.8c-.08.51-.15,1-.22,1.48-1.34,0-2.76,0-4.1,0-.07-.47-.14-1-.22-1.48C44.66,26.84,46.26,26.84,47.73,26.8Z"/><path class="cls-2" d="M51.44,28c-.67.09-1.51.15-2.43.2.07-.5.15-1,.22-1.5.65,0,1.25-.08,1.76-.13A9.05,9.05,0,0,0,51.44,28Z"/><path class="cls-2" d="M54.45,25.2a4.51,4.51,0,0,1-1.63,2.29,6.49,6.49,0,0,1-.45-1.57,3.62,3.62,0,0,0,.69-1.21,2,2,0,0,0,0-.93h0A3.42,3.42,0,0,1,54.45,23,3.8,3.8,0,0,1,54.45,25.2Z"/><path class="cls-2" d="M54.45,23a3.42,3.42,0,0,0-1.34.82,6.66,6.66,0,0,0-.48-1.53A5,5,0,0,1,54,21.56,11.78,11.78,0,0,1,54.45,23Z"/><path class="cls-2" d="M54,21.56a5,5,0,0,0-1.32.69c-.15-.36-.33-.74-.51-1.13-.25-.55-.52-1.11-.73-1.67l.26-.09a4.12,4.12,0,0,0,1.07-.58c.21.57.48,1.15.74,1.72C53.63,20.85,53.79,21.21,54,21.56Z"/><path class="cls-2" d="M52.35,17.07v.07a3.12,3.12,0,0,1-1.22.84L51,18a5.21,5.21,0,0,1-.1-1,4.15,4.15,0,0,1,1.87-3.39,5.18,5.18,0,0,1,.4,1.57A2.51,2.51,0,0,0,52.35,17.07Z"/><path class="cls-2" d="M57.49,13.05a8.13,8.13,0,0,0-.5,1.4,3.86,3.86,0,0,0-1.25-.21,3.9,3.9,0,0,0-1.22.2A8.53,8.53,0,0,0,54.07,13a5.36,5.36,0,0,1,1.67-.27A5.53,5.53,0,0,1,57.49,13.05Z"/><path class="cls-2" d="M60.54,17.81a7.37,7.37,0,0,1-.38,1.43,6,6,0,0,1-1.35-.61,4.8,4.8,0,0,0,.31-1.56V17A3.85,3.85,0,0,0,60.54,17.81Z"/><path class="cls-2" d="M60.6,17.07a4.62,4.62,0,0,1-.06.74A3.85,3.85,0,0,1,59.12,17a2.5,2.5,0,0,0-.78-1.75,4.83,4.83,0,0,1,.47-1.53A4.13,4.13,0,0,1,60.6,17.07Z"/><path class="cls-2" d="M60.16,19.24c-.23.64-.52,1.26-.81,1.88-.18.39-.36.77-.51,1.13a5,5,0,0,0-1.32-.69c.16-.35.32-.71.49-1.06.29-.62.58-1.26.8-1.87A6,6,0,0,0,60.16,19.24Z"/><path class="cls-2" d="M58.84,22.25a6.66,6.66,0,0,0-.48,1.53A3.38,3.38,0,0,0,57,23a11.69,11.69,0,0,1,.49-1.4A5,5,0,0,1,58.84,22.25Z"/><path class="cls-2" d="M59.11,25.77a5.77,5.77,0,0,1-.38,1.57A4.09,4.09,0,0,1,57,25.2,3.72,3.72,0,0,1,57,23a3.38,3.38,0,0,1,1.33.82h0a1.9,1.9,0,0,0,.06.93A2.54,2.54,0,0,0,59.11,25.77Z"/><path class="cls-2" d="M63,27.63a.74.74,0,0,1-.74.73h0a7.93,7.93,0,0,1-2.2-.39,8.26,8.26,0,0,0,.43-1.42,6.19,6.19,0,0,0,1.78.33A.74.74,0,0,1,63,27.63Z"/></g></g></svg>