<svg xmlns="http://www.w3.org/2000/svg" viewBox="0 0 85.04 42.52"><defs><style>.cls-1{fill:none;}.cls-2{fill:#dd1919;}.cls-3{fill:#fff;}</style></defs><title>Asset 559</title><g id="Layer_2" data-name="Layer 2"><g id="Layer_12" data-name="Layer 12"><rect class="cls-1" width="85.04" height="42.52"/><circle class="cls-2" cx="69.03" cy="8.83" r="5.18"/><rect class="cls-3" x="68.12" y="4.68" width="1.81" height="8.29" rx="0.91" ry="0.91"/><rect class="cls-3" x="68.12" y="4.68" width="1.81" height="8.29" rx="0.91" ry="0.91" transform="translate(77.85 -60.2) rotate(90)"/><path class="cls-3" d="M55.51,25.53c.54-.16,1.26,0,2.37.87a3.62,3.62,0,0,0,5-.06.59.59,0,0,0-.85-.81c-.15.16-1.51,1.47-3.46-.05a5,5,0,0,0-2.42-1.16A2.82,2.82,0,0,0,55.29,21c.56-.27,1.32-.2,2.59.79a3.62,3.62,0,0,0,5-.06.57.57,0,0,0,0-.82.59.59,0,0,0-.83,0c-.06.06-1.45,1.51-3.46-.06s-3.26-1.32-4.11-.76c-.31-.57-.28-1.34.75-2.67A6.33,6.33,0,0,0,56,16.19a3.75,3.75,0,0,1,1.87.92,3.62,3.62,0,0,0,5-.06.59.59,0,0,0-.85-.81c-.15.16-1.51,1.47-3.46,0a5.24,5.24,0,0,0-2.21-1.13,3,3,0,0,0-1.21-2.69c-.13-.12-.25-.24-.37-.37.62-.55,1.41-.83,3.07.46a3.62,3.62,0,0,0,5-.06.58.58,0,0,0,0-.82.59.59,0,0,0-.83,0c-.15.15-1.51,1.46-3.46-.06-2.11-1.65-3.43-1.28-4.28-.64a3.38,3.38,0,0,1,.92-2,3.63,3.63,0,0,0-.06-5,.59.59,0,0,0-.83,0,.59.59,0,0,0,0,.83,2.46,2.46,0,0,1-.06,3.46C53,9.84,53,11,53.32,11.85c-.64.64-1.42,1.1-3.22-.31a4.44,4.44,0,0,0-.38-.27c-.15-.54,0-1.26.88-2.36a3.64,3.64,0,0,0-.07-5,.58.58,0,0,0-.82,0,.59.59,0,0,0,0,.83c.15.15,1.47,1.51-.06,3.46a5,5,0,0,0-1.15,2.42,2.8,2.8,0,0,0-3.36.9c-.27-.57-.2-1.33.79-2.59a3.63,3.63,0,0,0-.06-5,.59.59,0,0,0-.83,0,.59.59,0,0,0,0,.83A2.46,2.46,0,0,1,45,8.18c-1.54,2-1.32,3.26-.77,4.11-.57.31-1.34.28-2.66-.75a7,7,0,0,0-1.21-.77,3.65,3.65,0,0,1,.91-1.86,3.63,3.63,0,0,0-.06-5,.58.58,0,0,0-.8.85,2.46,2.46,0,0,1-.06,3.46,5.32,5.32,0,0,0-1.12,2.21,3,3,0,0,0-2.7,1.21L36.2,12c-.56-.62-.84-1.41.46-3.06a3.63,3.63,0,0,0-.06-5,.59.59,0,0,0-.81.85c.16.15,1.47,1.51,0,3.46-1.65,2.11-1.28,3.43-.65,4.28a3.43,3.43,0,0,1-2-.92,3.63,3.63,0,0,0-5,.06.59.59,0,0,0,0,.83.6.6,0,0,0,.83,0c.14-.16,1.51-1.47,3.46.05,1.66,1.3,2.83,1.35,3.66,1,.65.64,1.11,1.42-.3,3.22-.11.13-.19.26-.28.38-.54.15-1.25,0-2.36-.87a3.63,3.63,0,0,0-5,.06.57.57,0,0,0,0,.82.59.59,0,0,0,.83,0c.06-.06,1.45-1.51,3.46.06a5,5,0,0,0,2.42,1.16,2.8,2.8,0,0,0,.89,3.35c-.56.27-1.32.2-2.59-.79a3.63,3.63,0,0,0-5,.06.59.59,0,0,0,0,.83.6.6,0,0,0,.83,0c.14-.16,1.51-1.47,3.46.05s3.25,1.32,4.11.77c.31.57.28,1.34-.75,2.66A7.13,7.13,0,0,0,35,26.39a3.73,3.73,0,0,1-1.86-.91,3.63,3.63,0,0,0-5,.06.57.57,0,0,0,0,.82.6.6,0,0,0,.83,0c.14-.15,1.51-1.46,3.46.06a5.32,5.32,0,0,0,2.21,1.12,3,3,0,0,0,1.21,2.7l.36.36c-.61.56-1.4.84-3.06-.46a3.63,3.63,0,0,0-5,.06.59.59,0,1,0,.86.8c.06-.06,1.45-1.5,3.46.07s3.43,1.27,4.28.64a3.43,3.43,0,0,1-.92,2,3.63,3.63,0,0,0,.06,5,.57.57,0,0,0,.82,0,.59.59,0,0,0,0-.83c-.06-.06-1.51-1.45.06-3.46,1.3-1.66,1.34-2.82,1-3.66.64-.65,1.41-1.1,3.22.31l.37.27c.16.54,0,1.26-.87,2.36a3.63,3.63,0,0,0,.06,5,.58.58,0,0,0,.83,0,.59.59,0,0,0,0-.83c-.06-.06-1.5-1.45.06-3.46A4.9,4.9,0,0,0,42.46,32a2.82,2.82,0,0,0,3.36-.89c.27.56.2,1.32-.79,2.59a3.63,3.63,0,0,0,.06,5,.59.59,0,0,0,.4.16.55.55,0,0,0,.42-.19.58.58,0,0,0,0-.82A2.47,2.47,0,0,1,46,34.4c1.54-2,1.32-3.25.77-4.11.57-.31,1.34-.28,2.66.76a6.66,6.66,0,0,0,1.21.77,3.69,3.69,0,0,1-.92,1.86,3.63,3.63,0,0,0,.06,5,.58.58,0,0,0,.4.16.56.56,0,0,0,.43-.19.59.59,0,0,0,0-.83c-.06-.06-1.5-1.45.07-3.46a5.32,5.32,0,0,0,1.12-2.21,2.85,2.85,0,0,0,.4,0A3.14,3.14,0,0,0,54.42,31a4.08,4.08,0,0,1,.36-.36c.55.61.83,1.4-.46,3.06a3.63,3.63,0,0,0,.06,5,.58.58,0,0,0,.83,0,.59.59,0,0,0,0-.83c-.06-.06-1.51-1.45.06-3.46s1.28-3.43.65-4.28a3.46,3.46,0,0,1,2,.93,3.62,3.62,0,0,0,5-.07.58.58,0,0,0,0-.82.59.59,0,0,0-.83,0c-.15.15-1.51,1.47-3.46-.06-1.66-1.3-2.83-1.34-3.67-1-.64-.65-1.1-1.42.31-3.23C55.34,25.77,55.43,25.65,55.51,25.53Zm-1.95,0c-.64.68-1.3,1.37-2.93.32a4.23,4.23,0,0,0,1.13-2.95,2.28,2.28,0,0,0,.36,0,3.08,3.08,0,0,0,2.26-1.21c.67.62,1.35,1.27.37,2.83A4.3,4.3,0,0,0,53.56,25.54Zm-6.68-1.2a2.66,2.66,0,0,0-.56-3.05c.61-.55,1.4-.83,3.06.46a6.74,6.74,0,0,0,1,.66c.38.58.41,1.36-.68,2.76A3.69,3.69,0,0,0,46.88,24.34Zm-9.49.44a2.76,2.76,0,0,0,0-3.05l0,0a1.77,1.77,0,0,1,2.41-.61,6.38,6.38,0,0,0,.61.64c.71.66,1.43,1.35.2,3.11A2.81,2.81,0,0,0,37.39,24.78ZM36.22,18a4.19,4.19,0,0,0,1.2-1c.64-.68,1.3-1.37,2.93-.32a4.22,4.22,0,0,0-1.14,2.95,3,3,0,0,0-2.62,1.18C35.93,20.24,35.25,19.59,36.22,18Zm7.88.22a2.67,2.67,0,0,0,.56,3.06c-.62.55-1.41.82-3.06-.47a7.72,7.72,0,0,0-1-.66c-.37-.58-.4-1.36.69-2.76A3.67,3.67,0,0,0,44.1,18.24Zm8,.05a2.47,2.47,0,0,0,1.47-.49,2.74,2.74,0,0,0,0,3.05l0,0a1.77,1.77,0,0,1-2.41.62,5.47,5.47,0,0,0-.62-.64c-.7-.67-1.43-1.35-.19-3.12A3.61,3.61,0,0,0,52.12,18.29ZM48.54,19.9a2.66,2.66,0,0,0-3,.56c-.56-.61-.83-1.4.46-3.06a7.67,7.67,0,0,0,.66-1c.58-.37,1.36-.41,2.76.68A3.69,3.69,0,0,0,48.54,19.9Zm-6.1,2.79a2.66,2.66,0,0,0,3.05-.57c.55.62.83,1.41-.46,3.06a6.79,6.79,0,0,0-.66,1c-.58.37-1.36.4-2.76-.69A3.66,3.66,0,0,0,42.44,22.69ZM54,12.84c.13.14.27.27.39.38a1.82,1.82,0,0,1,.81,1.88,3.69,3.69,0,0,0-1.63,1.15A1.79,1.79,0,0,1,51,16.8c.93-1.44.86-2.47.49-3.22a3.26,3.26,0,0,0,.6.07A2.76,2.76,0,0,0,54,12.84ZM48.76,12a4.46,4.46,0,0,0,1,1.19c.68.64,1.38,1.3.32,2.93A4.2,4.2,0,0,0,47.1,15a2.94,2.94,0,0,0-1.18-2.62C46.55,11.73,47.19,11.05,48.76,12Zm-3.71,1.16,0,0a1.77,1.77,0,0,1,.61,2.41,7.69,7.69,0,0,0-.64.62c-.66.7-1.34,1.43-3.11.19a2.81,2.81,0,0,0,0-3.25A2.76,2.76,0,0,0,45.05,13.19Zm-7.63-.79a1.82,1.82,0,0,1,1.88-.81,3.68,3.68,0,0,0,1.14,1.63A1.8,1.8,0,0,1,41,15.76c-1.44-.94-2.47-.87-3.22-.5A2.61,2.61,0,0,0,37,12.8ZM37,29.75l-.39-.39c-.51-.48-1-1-.81-1.88a3.66,3.66,0,0,0,1.63-1.14A1.78,1.78,0,0,1,40,25.79c-.93,1.44-.86,2.48-.49,3.22A2.65,2.65,0,0,0,37,29.75Zm5.23.81a4.36,4.36,0,0,0-1-1.2c-.68-.63-1.37-1.29-.31-2.92a4.24,4.24,0,0,0,2.94,1.13,3,3,0,0,0,1.18,2.62C44.43,30.85,43.78,31.53,42.22,30.56Zm3.71-1.16,0,0A1.78,1.78,0,0,1,45.27,27a5.57,5.57,0,0,0,.65-.61c.66-.71,1.34-1.43,3.11-.2A2.8,2.8,0,0,0,49,29.39,2.76,2.76,0,0,0,45.93,29.4Zm7.63.78c-.48.51-1,1-1.88.81a3.75,3.75,0,0,0-1.15-1.63A1.79,1.79,0,0,1,50,26.83a4,4,0,0,0,2.14.75,2.34,2.34,0,0,0,1.09-.26A2.62,2.62,0,0,0,54,29.79Q53.72,30,53.56,30.18Z"/><path d="M23.3,37.25l2.2.43V39.5l-9.64-2.09V35.16l9.64-1.87v1.82l-2.2.41Zm-1.46-1.56-2,.32c-.59.1-1.54.23-2.19.31v0c.65.1,1.65.24,2.21.34l2,.36Z"/><path d="M16,32.23a10.07,10.07,0,0,1-.19-2.13,3.65,3.65,0,0,1,.69-2.45,2.19,2.19,0,0,1,1.75-.73,2.22,2.22,0,0,1,2.1,1.4h.06a2.31,2.31,0,0,1,2.3-1.72,2.59,2.59,0,0,1,1.89.72,4.06,4.06,0,0,1,1,3.16,15.19,15.19,0,0,1-.1,1.75Zm3.82-1.88V30a1.24,1.24,0,0,0-1.36-1.18c-.7,0-1.24.32-1.24,1.1a1.56,1.56,0,0,0,.05.48Zm4.28,0a1.63,1.63,0,0,0,0-.41,1.32,1.32,0,0,0-1.45-1.39A1.38,1.38,0,0,0,21.21,30v.4Z"/><path d="M25.36,20.69a3.83,3.83,0,0,1,.23,1.46c0,2.47-2,3.64-4.77,3.64-3.63,0-5.05-2-5.05-3.89A2.6,2.6,0,0,1,16,20.59l1.57.32a1.89,1.89,0,0,0-.18.87c0,1.06.91,2,3.3,2s3.21-.87,3.21-2a3.4,3.4,0,0,0-.14-.9Z"/><path d="M18,17.93v0l.82,1.58-1.48.31-1.1-2.13V16.07h9.3v1.86Z"/><path d="M25.5,14.05H24.24l-1.18-.93c-1.53-1.2-2.81-2.19-4.14-2.19a1.15,1.15,0,0,0-1.27,1.19,2.56,2.56,0,0,0,.47,1.4l-1.46.33a4.18,4.18,0,0,1-.57-2.07,2.46,2.46,0,0,1,2.69-2.69c1.74,0,3.15,1.08,4.39,2.16l.66.56h0V9H25.5Z"/><path d="M23.73,7.68a2.91,2.91,0,0,0,.36-1.38,1.28,1.28,0,0,0-1.35-1.41c-1,0-1.47.79-1.47,1.75V6.9H19.89V6.71c0-.69-.3-1.57-1.2-1.57a1,1,0,0,0-1.07,1.08A2.34,2.34,0,0,0,18,7.4l-1.42.24a4,4,0,0,1-.48-1.92,2.21,2.21,0,0,1,2.24-2.44,2.26,2.26,0,0,1,2.09,1.33h0A2.33,2.33,0,0,1,22.81,3a2.86,2.86,0,0,1,2.81,3.1A4,4,0,0,1,25.2,8Z"/><path class="cls-3" d="M23.28,37.25l2.21.43V39.5l-9.65-2.09V35.16l9.65-1.87v1.82l-2.21.41Zm-1.46-1.56-2,.32c-.59.1-1.55.23-2.19.31v0c.64.1,1.64.24,2.2.34l2,.36Z"/><path class="cls-3" d="M16,32.23a10.85,10.85,0,0,1-.18-2.13,3.59,3.59,0,0,1,.69-2.45,2.18,2.18,0,0,1,1.74-.73,2.24,2.24,0,0,1,2.11,1.4h.05A2.32,2.32,0,0,1,22.7,26.6a2.6,2.6,0,0,1,1.89.72c.63.57,1,1.55,1,3.16a13.21,13.21,0,0,1-.1,1.75Zm3.83-1.88V30a1.25,1.25,0,0,0-1.36-1.18c-.7,0-1.25.32-1.25,1.1a1.52,1.52,0,0,0,.06.48Zm4.28,0a2.43,2.43,0,0,0,0-.41,1.31,1.31,0,0,0-1.44-1.39A1.39,1.39,0,0,0,21.19,30v.4Z"/><path class="cls-3" d="M25.35,20.69a4.09,4.09,0,0,1,.22,1.46c0,2.47-2,3.64-4.76,3.64-3.64,0-5-2-5-3.89A2.63,2.63,0,0,1,16,20.59l1.58.32a1.87,1.87,0,0,0-.19.87c0,1.06.92,2,3.31,2s3.2-.87,3.2-2a3.4,3.4,0,0,0-.14-.9Z"/><path class="cls-3" d="M18,17.93v0l.81,1.58-1.47.31-1.1-2.13V16.07h9.3v1.86Z"/><path class="cls-3" d="M25.49,14.05H24.23L23,13.12c-1.53-1.2-2.8-2.19-4.14-2.19a1.15,1.15,0,0,0-1.27,1.19,2.64,2.64,0,0,0,.47,1.4l-1.46.33a4.18,4.18,0,0,1-.57-2.07,2.46,2.46,0,0,1,2.69-2.69c1.75,0,3.15,1.08,4.4,2.16l.65.56h0V9h1.65Z"/><path class="cls-3" d="M23.71,7.68a2.8,2.8,0,0,0,.36-1.38,1.28,1.28,0,0,0-1.34-1.41c-1,0-1.48.79-1.48,1.75V6.9H19.88V6.71c0-.69-.3-1.57-1.2-1.57A1,1,0,0,0,17.6,6.22,2.34,2.34,0,0,0,18,7.4l-1.41.24a3.84,3.84,0,0,1-.49-1.92,2.22,2.22,0,0,1,2.25-2.44,2.27,2.27,0,0,1,2.09,1.33h0A2.33,2.33,0,0,1,22.8,3a2.86,2.86,0,0,1,2.8,3.1A4,4,0,0,1,25.19,8Z"/></g></g></svg>