<svg xmlns="http://www.w3.org/2000/svg" viewBox="0 0 57.86 57.86"><defs><style>.cls-1{fill:none;}.cls-2{fill:#fff;}</style></defs><title>Asset 18</title><g id="Layer_2" data-name="Layer 2"><g id="Layer_5" data-name="Layer 5"><rect class="cls-1" width="57.86" height="57.86"/><path class="cls-2" d="M46.25,47.16l2.46-2.38L46.17,42l2.55-2.64L46.22,37l2.48-2.57-2.5-2.6,2.5-2.65-2.5-2.56,2.52-2.46-2.51-2.53L48.7,19l-2.47-2.57,2.5-2.39L45.62,11H30.85V49a5.33,5.33,0,0,1-1.37,2.82,6.67,6.67,0,0,1-.61.54h17l2.92-2.86Z"/><path class="cls-2" d="M18.43,5.52c-4.63,0-9.31,1.14-9.31,3.33V49c0,2.19,4.68,3.33,9.31,3.33h1.95a13,13,0,0,0,5.39-1.21c1.2-.53,2-1.24,2-2.12V8.85C27.73,6.66,23.05,5.52,18.43,5.52ZM16.18,44.06a1.83,1.83,0,0,1-3.65,0v-7a1.83,1.83,0,0,1,3.65,0Zm0-12.61a1.83,1.83,0,1,1-3.65,0V16.28a1.83,1.83,0,0,1,3.65,0ZM18.43,11c-5.24,0-8.1-1.41-8.1-2.13s2.86-2.12,8.1-2.12,8.09,1.4,8.09,2.12S23.66,11,18.43,11Z"/></g></g></svg>