<svg xmlns="http://www.w3.org/2000/svg" viewBox="0 0 85.04 42.52"><defs><style>.cls-1{fill:none;}.cls-2{fill:#fff;}.cls-3{fill:#dd1919;}</style></defs><title>Asset 538</title><g id="Layer_2" data-name="Layer 2"><g id="Layer_12" data-name="Layer 12"><rect class="cls-1" width="85.04" height="42.52"/><path class="cls-2" d="M52.54,25.53c.54-.16,1.26,0,2.37.87a3.62,3.62,0,0,0,5-.06.59.59,0,0,0-.85-.81c-.15.16-1.51,1.47-3.46-.05a5,5,0,0,0-2.42-1.16A2.82,2.82,0,0,0,52.32,21c.56-.27,1.32-.2,2.59.79a3.62,3.62,0,0,0,5-.06.57.57,0,0,0,0-.82.59.59,0,0,0-.83,0c-.06.06-1.45,1.51-3.46-.06s-3.26-1.32-4.11-.76c-.31-.57-.28-1.34.75-2.67A6.33,6.33,0,0,0,53,16.19a3.75,3.75,0,0,1,1.87.92,3.62,3.62,0,0,0,5-.06.59.59,0,0,0-.85-.81c-.15.16-1.51,1.47-3.46,0a5.24,5.24,0,0,0-2.21-1.13,3,3,0,0,0-1.21-2.69c-.13-.12-.25-.24-.37-.37.62-.55,1.41-.83,3.07.46a3.62,3.62,0,0,0,5-.06.58.58,0,0,0,0-.82.59.59,0,0,0-.83,0c-.15.15-1.51,1.46-3.46-.06-2.11-1.65-3.43-1.28-4.28-.64a3.38,3.38,0,0,1,.92-2,3.63,3.63,0,0,0-.06-5,.59.59,0,0,0-.83,0,.59.59,0,0,0,0,.83,2.46,2.46,0,0,1-.06,3.46c-1.3,1.66-1.34,2.83-1,3.67-.64.64-1.42,1.1-3.22-.31a4.44,4.44,0,0,0-.38-.27c-.15-.54,0-1.26.88-2.36a3.65,3.65,0,0,0-.06-5,.59.59,0,0,0-.81.85c.15.15,1.47,1.51-.06,3.46a5,5,0,0,0-1.15,2.42,2.8,2.8,0,0,0-3.36.9c-.27-.57-.2-1.33.79-2.59a3.63,3.63,0,0,0-.06-5,.59.59,0,0,0-.83,0,.59.59,0,0,0,0,.83,2.46,2.46,0,0,1-.06,3.46c-1.54,2-1.32,3.26-.77,4.11-.57.31-1.34.28-2.66-.75a7,7,0,0,0-1.21-.77,3.65,3.65,0,0,1,.91-1.86,3.63,3.63,0,0,0-.06-5,.58.58,0,0,0-.8.85,2.46,2.46,0,0,1-.06,3.46,5.32,5.32,0,0,0-1.12,2.21,3,3,0,0,0-2.7,1.21l-.36.37c-.56-.62-.84-1.41.46-3.06a3.63,3.63,0,0,0-.06-5,.59.59,0,0,0-.81.85c.16.15,1.47,1.51,0,3.46-1.65,2.11-1.28,3.43-.65,4.28a3.43,3.43,0,0,1-2-.92,3.63,3.63,0,0,0-5,.06.59.59,0,0,0,0,.83.6.6,0,0,0,.83,0c.14-.16,1.51-1.47,3.46.05,1.66,1.3,2.83,1.35,3.66,1,.65.64,1.11,1.42-.3,3.22-.11.13-.19.26-.28.38-.54.15-1.25,0-2.36-.87a3.63,3.63,0,0,0-5,.06.57.57,0,0,0,0,.82.59.59,0,0,0,.83,0c.06-.06,1.45-1.51,3.46.06a5,5,0,0,0,2.42,1.16,2.8,2.8,0,0,0,.89,3.35c-.56.27-1.32.2-2.59-.79a3.63,3.63,0,0,0-5,.06.59.59,0,0,0,0,.83.6.6,0,0,0,.83,0c.14-.16,1.51-1.47,3.46.05s3.25,1.32,4.11.77c.31.57.28,1.34-.75,2.66A7.13,7.13,0,0,0,32,26.39a3.73,3.73,0,0,1-1.86-.91,3.63,3.63,0,0,0-5,.06.57.57,0,0,0,0,.82.6.6,0,0,0,.83,0c.14-.15,1.51-1.46,3.46.06a5.32,5.32,0,0,0,2.21,1.12,3,3,0,0,0,1.21,2.7l.36.36c-.61.56-1.4.84-3.06-.46a3.63,3.63,0,0,0-5,.06A.59.59,0,1,0,26,31c.06-.06,1.45-1.5,3.46.07s3.43,1.27,4.28.64a3.43,3.43,0,0,1-.92,2,3.63,3.63,0,0,0,.06,5,.57.57,0,0,0,.82,0,.59.59,0,0,0,0-.83c-.06-.06-1.51-1.45.06-3.46,1.3-1.66,1.34-2.82,1-3.66.64-.65,1.42-1.1,3.22.31l.38.27c.15.54,0,1.26-.88,2.36a3.63,3.63,0,0,0,.06,5,.58.58,0,0,0,.4.16.56.56,0,0,0,.43-.19.59.59,0,0,0,0-.83c-.06-.06-1.5-1.45.06-3.46A4.9,4.9,0,0,0,39.49,32a2.82,2.82,0,0,0,3.36-.89c.27.56.2,1.32-.79,2.59a3.63,3.63,0,0,0,.06,5,.59.59,0,0,0,.4.16.55.55,0,0,0,.42-.19.58.58,0,0,0,0-.82A2.47,2.47,0,0,1,43,34.4c1.54-2,1.32-3.25.77-4.11.57-.31,1.34-.28,2.66.76a6.66,6.66,0,0,0,1.21.77,3.69,3.69,0,0,1-.92,1.86,3.65,3.65,0,0,0,.06,5,.58.58,0,0,0,.4.16.56.56,0,0,0,.43-.19.6.6,0,0,0,0-.83c-.07-.06-1.51-1.45.06-3.46a5.32,5.32,0,0,0,1.12-2.21,2.85,2.85,0,0,0,.4,0A3.14,3.14,0,0,0,51.45,31a4.08,4.08,0,0,1,.36-.36c.55.61.83,1.4-.46,3.06a3.63,3.63,0,0,0,.06,5,.58.58,0,0,0,.83,0,.59.59,0,0,0,0-.83c-.06-.06-1.51-1.45.06-3.46s1.28-3.43.65-4.28a3.46,3.46,0,0,1,2,.93,3.62,3.62,0,0,0,5-.07.58.58,0,0,0,0-.82.59.59,0,0,0-.83,0c-.15.15-1.51,1.47-3.46-.06-1.66-1.3-2.83-1.34-3.67-1-.64-.65-1.1-1.42.31-3.23C52.37,25.77,52.46,25.65,52.54,25.53Zm-1.95,0c-.64.68-1.3,1.37-2.93.32a4.23,4.23,0,0,0,1.13-2.95,2.28,2.28,0,0,0,.36,0,3.08,3.08,0,0,0,2.26-1.21c.67.62,1.35,1.27.38,2.83A4.21,4.21,0,0,0,50.59,25.54Zm-6.68-1.2a2.66,2.66,0,0,0-.56-3.05c.61-.55,1.4-.83,3.06.46a6.74,6.74,0,0,0,1,.66c.38.58.41,1.36-.68,2.76A3.69,3.69,0,0,0,43.91,24.34Zm-9.49.44a2.76,2.76,0,0,0,0-3.05l0,0a1.77,1.77,0,0,1,2.41-.61,6.38,6.38,0,0,0,.61.64c.71.66,1.43,1.35.2,3.11A2.81,2.81,0,0,0,34.42,24.78ZM33.25,18a4.19,4.19,0,0,0,1.2-1c.64-.68,1.3-1.37,2.93-.32a4.22,4.22,0,0,0-1.14,2.95,3,3,0,0,0-2.62,1.18C33,20.24,32.28,19.59,33.25,18Zm7.88.22a2.67,2.67,0,0,0,.56,3.06c-.62.55-1.41.82-3.06-.47a7.72,7.72,0,0,0-1-.66c-.37-.58-.4-1.36.69-2.76A3.67,3.67,0,0,0,41.13,18.24Zm8,.05a2.47,2.47,0,0,0,1.47-.49,2.74,2.74,0,0,0,0,3.05l0,0a1.77,1.77,0,0,1-2.41.62,6.43,6.43,0,0,0-.61-.64c-.71-.67-1.44-1.35-.2-3.12A3.61,3.61,0,0,0,49.15,18.29ZM45.57,19.9a2.66,2.66,0,0,0-3,.56c-.56-.61-.83-1.4.46-3.06a7.67,7.67,0,0,0,.66-1c.58-.37,1.36-.41,2.76.68A3.69,3.69,0,0,0,45.57,19.9Zm-6.1,2.79a2.66,2.66,0,0,0,3.05-.57c.55.62.83,1.41-.46,3.06a6.79,6.79,0,0,0-.66,1c-.58.37-1.36.4-2.76-.69A3.66,3.66,0,0,0,39.47,22.69ZM51,12.84c.13.14.27.27.39.38a1.82,1.82,0,0,1,.81,1.88,3.69,3.69,0,0,0-1.63,1.15,1.79,1.79,0,0,1-2.53.55c.93-1.44.86-2.47.49-3.22a3.26,3.26,0,0,0,.6.07A2.76,2.76,0,0,0,51,12.84ZM45.79,12a4.46,4.46,0,0,0,1,1.19c.68.64,1.38,1.3.32,2.93A4.2,4.2,0,0,0,44.13,15,2.94,2.94,0,0,0,43,12.4C43.58,11.73,44.23,11.05,45.79,12Zm-3.71,1.16,0,0a1.77,1.77,0,0,1,.61,2.41,7.69,7.69,0,0,0-.64.62c-.66.7-1.34,1.43-3.11.19A2.81,2.81,0,0,0,39,13.19,2.76,2.76,0,0,0,42.08,13.19Zm-7.63-.79a1.82,1.82,0,0,1,1.88-.81,3.68,3.68,0,0,0,1.14,1.63A1.8,1.8,0,0,1,38,15.76c-1.44-.94-2.47-.87-3.22-.5a2.61,2.61,0,0,0-.74-2.46ZM34,29.75l-.39-.39c-.51-.48-1-1-.81-1.88a3.66,3.66,0,0,0,1.63-1.14A1.78,1.78,0,0,1,37,25.79c-.93,1.44-.86,2.48-.49,3.22A2.65,2.65,0,0,0,34,29.75Zm5.23.81a4.36,4.36,0,0,0-1-1.2c-.68-.63-1.37-1.29-.31-2.92a4.24,4.24,0,0,0,2.94,1.13,3,3,0,0,0,1.19,2.62C41.46,30.85,40.81,31.53,39.25,30.56ZM43,29.4l0,0A1.78,1.78,0,0,1,42.3,27a5.57,5.57,0,0,0,.65-.61c.66-.71,1.34-1.43,3.11-.2A2.8,2.8,0,0,0,46,29.39,2.76,2.76,0,0,0,43,29.4Zm7.63.78c-.48.51-1,1-1.88.81a3.82,3.82,0,0,0-1.14-1.63A1.78,1.78,0,0,1,47,26.83a4,4,0,0,0,2.14.75,2.34,2.34,0,0,0,1.09-.26A2.62,2.62,0,0,0,51,29.79Q50.76,30,50.59,30.18Z"/><circle class="cls-3" cx="66.06" cy="8.89" r="5.18"/><path class="cls-2" d="M69.94,6.86l-.26-.05-.49,0V6.7A.31.31,0,0,0,69,6.39c.24,0,.44,0,.6,0h0l0,0a.2.2,0,0,0,0-.11c0-.07,0-.16-.23-.21a1.19,1.19,0,0,0-.24,0c-.17,0-.43,0-.75,0-.65-.05-1.51-.05-2.42-.05S64.27,6,63.62,6c-.32,0-.57,0-.75,0a1.39,1.39,0,0,1-.23,0c-.19,0-.23.14-.23.21a.2.2,0,0,0,0,.11l0,0h.05c.16,0,.36,0,.6,0a.3.3,0,0,0-.22.31v.07l-.49,0-.26.05c-.21,0-.25.15-.25.24s0,.18.25.24a1.43,1.43,0,0,0,.26,0l.86.06,1,0V8.66h0l-.69.39a.81.81,0,0,0-.42.7v2.36a.12.12,0,0,0,.13.12h5.54a.12.12,0,0,0,.13-.12V9.75a.8.8,0,0,0-.41-.7l-.69-.39h-.06V7.48l1,0,.85-.06.26,0c.21-.06.25-.17.25-.24S70.15,6.91,69.94,6.86Z"/></g></g></svg>