<svg xmlns="http://www.w3.org/2000/svg" viewBox="0 0 85.04 42.52"><defs><style>.cls-1{fill:none;}.cls-2{fill:#fff;}</style></defs><title>Asset 542</title><g id="Layer_2" data-name="Layer 2"><g id="Layer_12" data-name="Layer 12"><rect class="cls-1" width="85.04" height="42.52"/><path class="cls-2" d="M50.82,5A9.6,9.6,0,0,0,38,7.43,9.5,9.5,0,0,0,50.4,21.22c.58-.35.91-.34,1.31.18s1.18.87,1,1.77c0,.12.13.31.25.42q3.72,3.75,7.47,7.48a2.32,2.32,0,0,0,3.25-3.3Q60,24,56.28,20.35c-.16-.16-.42-.34-.6-.31-.54.1-.83-.2-1.14-.53s-.67-.67-1-1a3.67,3.67,0,0,1,.21-.44A9.52,9.52,0,0,0,50.82,5Zm.24,13.38A7.63,7.63,0,0,1,40.26,7.6,7.54,7.54,0,0,1,51,7.61,7.51,7.51,0,0,1,51.06,18.38Z"/><path class="cls-2" d="M38.64,21.6a10.78,10.78,0,0,1-2.79-3.34,10.52,10.52,0,1,0,5.6,5A11.39,11.39,0,0,1,38.64,21.6Z"/><path class="cls-2" d="M51.26,15.39H50L49.2,18A6.08,6.08,0,0,0,51.26,15.39Z"/><path class="cls-2" d="M39.63,13.11a6,6,0,0,0,6,6,5.29,5.29,0,0,0,.8-.06l.92-3.1a8.94,8.94,0,0,0-1.53-8.9h-.19A6,6,0,0,0,39.63,13.11Z"/><path class="cls-2" d="M42.58,23.65a11.47,11.47,0,0,1,.84,3.28L44.28,24A12.54,12.54,0,0,1,42.58,23.65Z"/><path class="cls-2" d="M48.05,38.78a1.27,1.27,0,0,0,1.26-1.11l1.8-14.39v-.16l-.28-.27a10.9,10.9,0,0,1-4.78,1.26l-2,7a11.62,11.62,0,0,1-6.73,7.65Z"/><path class="cls-2" d="M32.12,16.69a11.4,11.4,0,0,1,3.22.47,7.22,7.22,0,0,1-.31-.89h0a11.48,11.48,0,0,1,.91-8.68c-.37.11-.58.19-.58.19L26.13,18.41A11.33,11.33,0,0,1,32.12,16.69Z"/></g></g></svg>