<svg xmlns="http://www.w3.org/2000/svg" viewBox="0 0 85.04 42.52"><defs><style>.cls-1{fill:none;}.cls-2{fill:#fff;}</style></defs><title>Asset 541</title><g id="Layer_2" data-name="Layer 2"><g id="Layer_12" data-name="Layer 12"><rect class="cls-1" width="85.04" height="42.52"/><path class="cls-2" d="M44.06,26.73l-3-2.94a1.93,1.93,0,0,1-.58-1.39V15.45a2,2,0,0,1,2-2h0a2,2,0,0,1,2,2v5.11a2.34,2.34,0,0,0,.69,1.66l1.73,1.72a2,2,0,0,1,0,2.77h0A2,2,0,0,1,44.06,26.73Z"/><path class="cls-2" d="M53.37,7.46a17.57,17.57,0,0,0-20.62-.82,17.28,17.28,0,0,0-6.86,8.82,17.55,17.55,0,0,0,1.19,14.42L23.9,33.06H34.61V22.3L30,26.94a13.72,13.72,0,1,1,21.88,4.38A13.85,13.85,0,0,1,49.6,33a12.5,12.5,0,0,1-1.78.92l-.16.07c-.27.11-.55.21-.83.3l0,0c-.31.1-.63.19-1,.27a12.07,12.07,0,0,1-1.61.32,2,2,0,0,0-1.74,1.94h0a2,2,0,0,0,2.21,1.94A16.88,16.88,0,0,0,48.31,38h0l0,0c.42-.15.85-.32,1.26-.5l.1-.06a16,16,0,0,0,1.84-.95,17.64,17.64,0,0,0,1.81-29Z"/></g></g></svg>