<svg xmlns="http://www.w3.org/2000/svg" viewBox="0 0 57.86 57.86"><defs><style>.cls-1{fill:none;}.cls-2{fill:#fff;}</style></defs><title>Asset 1</title><g id="Layer_2" data-name="Layer 2"><g id="Layer_3" data-name="Layer 3"><rect class="cls-1" width="57.86" height="57.86"/><polygon points="28.93 0 0 0 0 33.23 28.93 51.14 57.86 33.23 57.86 0 28.93 0"/><path class="cls-2" d="M28.05,17.11c-3.06,0-5.93-.06-8.1-.17-1.07-.05-1.91-.11-2.5-.18-.33,0-.58-.08-.76-.12-.61-.15-.73-.46-.73-.7s.12-.54.73-.69a5.53,5.53,0,0,1,.76-.13c.6-.06,1.44-.13,2.5-.18,2.17-.11,5-.17,8.1-.17s5.93.06,8.09.17c1.06.05,1.91.11,2.5.18a5.53,5.53,0,0,1,.76.13c.61.15.73.46.73.69s-.12.55-.73.7c-.18,0-.43.08-.76.12-.59.07-1.43.13-2.5.18C34,17.05,31.1,17.11,28.05,17.11Z"/><path class="cls-2" d="M28.05,16.83c-3.06,0-5.93-.06-8.09-.17-1.05-.05-1.89-.11-2.47-.18a7.33,7.33,0,0,1-.73-.12c-.34-.08-.52-.22-.52-.42s.18-.33.52-.42a5.52,5.52,0,0,1,.73-.11c.58-.07,1.42-.13,2.47-.19,2.16-.1,5-.16,8.09-.16s5.92.06,8.08.16c1.06.06,1.89.12,2.48.19a5.59,5.59,0,0,1,.72.11c.35.09.52.23.52.42s-.17.34-.52.42q-.26.06-.72.12c-.59.07-1.42.13-2.48.18C34,16.77,31.1,16.83,28.05,16.83Zm-9.39-.89c.47,0,1.06.07,1.81.1,2.08.1,4.77.15,7.58.15s5.49-.05,7.57-.15c.75,0,1.35-.06,1.81-.1-.46,0-1.06-.07-1.81-.1-2.08-.09-4.77-.14-7.57-.14s-5.5.05-7.58.14C19.72,15.87,19.13,15.91,18.66,15.94Z"/><path class="cls-2" d="M23.94,21.75a.94.94,0,0,1-1-.95V18.54a1,1,0,0,1,1-1H32.1a1,1,0,0,1,1,1V20.8a1,1,0,0,1-1,.95Zm7.78-1.33v-1.5h-7.4v1.5Z"/><path class="cls-2" d="M32.1,21.47H23.94a.67.67,0,0,1-.67-.67V18.54a.67.67,0,0,1,.67-.67H32.1a.67.67,0,0,1,.67.67V20.8A.67.67,0,0,1,32.1,21.47ZM24,20.71h8V18.63H24Z"/><path class="cls-2" d="M36.89,14.48l-1.31-.07-.56,0v0c-.36,0-.81-.06-1.39-.08-1.55-.08-3.53-.12-5.58-.12s-4,0-5.59.12c-.58,0-1,0-1.38.08v0l-.57,0-1.31.07H19l-.11-.23,0-.15c0-.56.74-.65,1.23-.71s1.08-.11,1.88-.15c1.62-.09,3.77-.14,6.06-.14s4.43.05,6.05.14c.8,0,1.44.09,1.88.15s1.23.15,1.23.71v.06l0,.14-.08.18Z"/><path class="cls-2" d="M20.5,14.13l.56,0h0l1.4-.09c1.54-.07,3.53-.11,5.6-.11s4.05,0,5.59.11l1.4.09h0l.56,0,1.32.07a.29.29,0,0,0,0-.09c0-.31-.59-.38-1-.43s-1.07-.11-1.86-.15c-1.62-.09-3.76-.13-6-.13s-4.43,0-6,.13c-.8,0-1.42.09-1.87.15s-1,.12-1,.43a.29.29,0,0,0,0,.09Z"/><path class="cls-2" d="M38.34,13.18c-.56,0-1.25-.1-2.11-.14h0c-.41,0-.93-.06-1.59-.08-1.82-.08-4.16-.12-6.59-.12s-4.78,0-6.6.12c-.66,0-1.18,0-1.59.08h0c-.86,0-1.55.09-2.1.14H17.6l-.09-.12a.45.45,0,0,1-.11-.31c0-.21.12-.49.69-.62.16,0,.38-.07.67-.11.53,0,1.26-.11,2.19-.15,1.9-.09,4.42-.14,7.1-.14s5.19,0,7.09.14c.93,0,1.67.1,2.19.15.29,0,.52.07.68.11.57.13.68.41.68.62a.5.5,0,0,1-.1.31l-.1.12Z"/><path class="cls-2" d="M19.85,12.76h0l1.61-.09c1.82-.07,4.16-.12,6.61-.12s4.78,0,6.6.12l1.61.09h0c.86,0,1.56.08,2.11.14a.2.2,0,0,0,0-.14c0-.16-.16-.27-.47-.35l-.64-.09c-.52-.06-1.25-.11-2.18-.16-1.89-.08-4.4-.13-7.07-.13s-5.19.05-7.08.13c-.93.05-1.66.1-2.18.16l-.64.09c-.31.08-.47.19-.47.35a.27.27,0,0,0,.05.14C18.29,12.84,19,12.8,19.85,12.76Z"/><polygon class="cls-2" points="28.93 1.53 28.93 1.53 44.7 13.5 44.7 31.72 28.93 40.83 10.67 33.15 10.67 33.16 28.93 43.7 28.93 43.7 47.19 33.16 47.19 33.16 47.19 12.07 28.93 1.53"/><polygon class="cls-2" points="27.87 5.25 42.34 13.61 42.38 13.54 27.89 2.54 27.87 2.53 11.08 12.22 11.06 12.23 11.06 31.64 27.85 38.71 27.89 38.63 13.42 30.28 13.42 13.6 27.87 5.25"/><path class="cls-2" d="M28.2,26.57a20.68,20.68,0,0,1-7.13-1.21l.14-.54,1,.1.43,0v0l1.06.12c1.19.11,2.73.17,4.32.17s3.12-.06,4.31-.17c.45,0,.79-.08,1.07-.12v0l.43,0,1-.1.14.54a19.09,19.09,0,0,1-6.82,1.21Z"/><path class="cls-2" d="M34.92,25.1c-.3,0-.64.07-1,.1l-.44,0h0c-.28,0-.63.08-1.08.12-1.2.11-2.74.17-4.34.17s-3.15-.06-4.34-.17c-.46,0-.81-.08-1.09-.12h0l-.43,0c-.38,0-.73-.06-1-.1A20.65,20.65,0,0,0,34.92,25.1Z"/><path class="cls-2" d="M20,33.23a.38.38,0,0,1-.38-.38V25.54a2.53,2.53,0,0,1,1.22-2.16l2-1.22H33.34l2,1.22a2.53,2.53,0,0,1,1.21,2.16v7.31a.38.38,0,0,1-.38.38Zm15.29-1.31V25.54a1.22,1.22,0,0,0-.58-1l-1.69-1H23.16l-1.69,1a1.22,1.22,0,0,0-.58,1v6.38Z"/><path class="cls-2" d="M35.19,23.62l-.67-.41-1.26-.76H22.87l-1.26.76-.67.41a2.26,2.26,0,0,0-1.08,1.92v7.31A.1.1,0,0,0,20,33H36.17a.1.1,0,0,0,.1-.1V25.54A2.26,2.26,0,0,0,35.19,23.62Zm.34,8.58H20.6V25.54a1.5,1.5,0,0,1,.73-1.28l1.75-1.07h10l1.75,1.07a1.5,1.5,0,0,1,.73,1.28Z"/></g></g></svg>