<svg xmlns="http://www.w3.org/2000/svg" viewBox="0 0 57.86 57.86"><defs><style>.cls-1{fill:#fff;}.cls-2{fill:none;}</style></defs><title>Asset 670</title><g id="Layer_2" data-name="Layer 2"><g id="Layer_13" data-name="Layer 13"><path class="cls-1" d="M55.05,13.92a12.79,12.79,0,0,0-1.75-.3c-.86-.1-2-.19-3.29-.28v-.49a2.11,2.11,0,0,0-1.42-2.08c1.59.11,2.92.27,4,.27H53l.23-.27a1.23,1.23,0,0,0,.23-.72c0-.48-.26-1.12-1.57-1.42a5.94,5.94,0,0,0-1.56-.25,45.19,45.19,0,0,0-5-.35c-4.37-.32-10.14-.32-16.31-.32S17,7.82,12.61,8c-2.14.09-3.82.35-5,.35-.67.09-1.17.25-1.54.25-1.31.3-1.59.94-1.59,1.42a1,1,0,0,0,.26.72l.2.27h.37c1.08-.09,2.42-.25,4-.3a2.08,2.08,0,0,0-1.44,2.11v.5c-1.3.09-2.42.18-3.29.27a12.79,12.79,0,0,0-1.75.3c-1.4.34-1.68,1-1.68,1.59s.28,1.26,1.68,1.61a7.23,7.23,0,0,0,1.75.27c1.35.16,3.29.3,5.75.42,2.06.1,4.41.18,6.93.25V26h-.38l-4.6,2.65a5.44,5.44,0,0,0-2.8,4.69V49.18a.84.84,0,0,0,.87.82h37.2a.84.84,0,0,0,.87-.82V33.33a5.43,5.43,0,0,0-2.78-4.69L41,26h-.4V18.06c2.54-.07,4.89-.15,6.93-.25,2.46-.12,4.39-.26,5.75-.42.76-.09,1.34-.27,1.75-.27,1.4-.35,1.68-1.09,1.68-1.61S56.45,14.26,55.05,13.92Z"/><rect class="cls-2" width="57.86" height="57.86"/></g></g></svg>