<svg xmlns="http://www.w3.org/2000/svg" viewBox="0 0 85.04 42.52"><defs><style>.cls-1{fill:none;}.cls-2{fill:#fff;}.cls-3{fill:#dd1919;}</style></defs><title>Asset 641</title><g id="Layer_2" data-name="Layer 2"><g id="Layer_12" data-name="Layer 12"><rect class="cls-1" width="85.04" height="42.52"/><path class="cls-2" d="M64.21,8.8a10.2,10.2,0,0,0-1.45-.24c-.71-.09-1.65-.16-2.73-.23V7.92a1.76,1.76,0,0,0-1.19-1.73c1.33.09,2.43.23,3.35.23h.28l.19-.23a.91.91,0,0,0,.19-.59c0-.41-.21-.94-1.3-1.19a4.72,4.72,0,0,0-1.29-.21,40.19,40.19,0,0,0-4.19-.29c-3.63-.26-8.42-.26-13.54-.26S32.6,3.74,29,3.91c-1.78.08-3.17.29-4.19.29-.55.08-1,.21-1.28.21-1.08.25-1.31.78-1.31,1.19a.83.83,0,0,0,.21.59l.17.23h.3c.9-.08,2-.22,3.34-.25A1.74,1.74,0,0,0,25,7.92v.41c-1.08.07-2,.15-2.73.23a10.2,10.2,0,0,0-1.45.24c-1.17.29-1.39.86-1.39,1.32s.22,1.05,1.39,1.34a5.68,5.68,0,0,0,1.45.23c1.13.13,2.73.25,4.78.34,1.71.09,3.66.16,5.76.21v6.59H32.5L28.68,21a4.51,4.51,0,0,0-2.33,3.89V38.09a.71.71,0,0,0,.73.68H58a.71.71,0,0,0,.73-.68V24.92A4.52,4.52,0,0,0,56.38,21l-3.82-2.2h-.34V12.24c2.11-.05,4.07-.12,5.76-.21,2.05-.09,3.65-.21,4.78-.34.63-.08,1.11-.23,1.45-.23,1.16-.29,1.39-.9,1.39-1.34S65.37,9.09,64.21,8.8Z"/><path class="cls-3" d="M40.23,23a1.49,1.49,0,1,0-1.5,1.49A1.48,1.48,0,0,0,40.23,23Z"/><path class="cls-3" d="M44.72,26.83a2.13,2.13,0,1,0,2.12,2.11A2.11,2.11,0,0,0,44.72,26.83Z"/><path class="cls-3" d="M53.25,25.15a10.88,10.88,0,0,0-.91-3h0l-.13-.26h0c-.07-.11-.13-.24-.2-.36a9.33,9.33,0,0,0-1.36-1.93c-.35-.38-.73-.73-1.11-1.08a9.45,9.45,0,0,0-2-1.37,11,11,0,0,0-3.3-1.1,10,10,0,0,0-1.81-.13,14.2,14.2,0,0,0-1.59.13,9.32,9.32,0,0,0-2.48.68,10.65,10.65,0,0,0-2.09,1.15,11,11,0,0,0-1.6,1.36A11.51,11.51,0,0,0,33.27,21a11.67,11.67,0,0,0-.86,1.69,11,11,0,0,0-.39,7,10.71,10.71,0,0,0,1.34,3,10.28,10.28,0,0,0,1.47,1.82A11.3,11.3,0,0,0,36.71,36,10.67,10.67,0,0,0,42,37.62a10.42,10.42,0,0,0,2.37-.15,10.58,10.58,0,0,0,3-1,10.81,10.81,0,0,0,4-3.5,9.84,9.84,0,0,0,1.21-2.26c.12-.32.23-.65.33-1a9.81,9.81,0,0,0,.41-2.41A11.34,11.34,0,0,0,53.25,25.15Zm-14,1.63-.72,0c-.09,0-.13,0-.16-.13l-.24-.88a.23.23,0,0,0-.16-.16,1.63,1.63,0,0,1-.34-.14.21.21,0,0,0-.23,0l-.79.5a.11.11,0,0,1-.16,0l-.55-.51a.14.14,0,0,1,0-.18l.47-.84a.17.17,0,0,0,0-.17c-.06-.13-.12-.26-.17-.39A.17.17,0,0,0,36,23.8l-.93-.21c-.08,0-.12-.06-.12-.13,0-.25,0-.51,0-.77a.15.15,0,0,1,.09-.1l.91-.27a.19.19,0,0,0,.16-.16c0-.12.08-.23.13-.35a.2.2,0,0,0,0-.21c-.17-.25-.32-.51-.48-.76-.06-.09-.06-.15,0-.22s.33-.35.49-.52.1-.06.17,0l.84.46a.18.18,0,0,0,.19,0,1.94,1.94,0,0,1,.36-.15.2.2,0,0,0,.13-.16l.21-.91c0-.08.06-.13.14-.13h.78s.09.07.1.11c.09.29.17.57.25.86a.23.23,0,0,0,.18.2,1.85,1.85,0,0,1,.33.12.18.18,0,0,0,.21,0l.77-.48a.15.15,0,0,1,.21,0c.16.16.33.31.5.46a.17.17,0,0,1,0,.25c-.16.26-.3.53-.44.81a.2.2,0,0,0,0,.17,2.11,2.11,0,0,0,.17.38.28.28,0,0,0,.14.12c.22.06.45.1.67.15s.2,0,.3.08a.12.12,0,0,1,.06.1c0,.24,0,.5,0,.75a.14.14,0,0,1-.13.15l-.89.25a.2.2,0,0,0-.15.16,1.75,1.75,0,0,1-.12.32.21.21,0,0,0,0,.25c.16.26.32.52.49.78a.11.11,0,0,1,0,.16l-.53.57-.08.05-.3-.16-.64-.36a.22.22,0,0,0-.14,0,4.14,4.14,0,0,0-.43.2.2.2,0,0,0-.08.13q-.12.45-.21.9C39.33,26.74,39.29,26.78,39.2,26.78Zm10.77,1-1.16.81a.2.2,0,0,0-.1.22c0,.2,0,.4,0,.6a.24.24,0,0,0,.1.25c.37.28.73.58,1.1.87a.14.14,0,0,1,.06.19c-.17.35-.32.7-.48,1.06,0,.09-.1.1-.19.08l-1.43-.25a.16.16,0,0,0-.17,0c-.16.17-.34.32-.51.49a.46.46,0,0,0-.07.16l0,0c.05.47.1.94.16,1.42,0,.08,0,.14-.08.17l-1.13.43c-.07,0-.11,0-.15-.07l-.85-1.2a.15.15,0,0,0-.16-.08l-.72,0a.2.2,0,0,0-.14.08l-.44.55-.48.59a.13.13,0,0,1-.16,0,5.66,5.66,0,0,1-1.12-.51.15.15,0,0,1,0-.11l.21-1.2c0-.11,0-.22,0-.34a.28.28,0,0,0-.07-.13,6.17,6.17,0,0,1-.43-.46.25.25,0,0,0-.22-.09L40,31.55c-.12,0-.2,0-.25-.12-.13-.36-.27-.72-.4-1.07a.11.11,0,0,1,.05-.15l.68-.49.54-.37a.24.24,0,0,0,.09-.18c0-.23,0-.47,0-.7a.17.17,0,0,0-.06-.12l-.7-.56-.49-.41a.11.11,0,0,1,0-.11l.48-1.1a.15.15,0,0,1,.19-.08l1.36.23a.28.28,0,0,0,.32-.11c.13-.14.28-.27.42-.4a.14.14,0,0,0,.07-.16c-.06-.49-.1-1-.16-1.48,0-.07,0-.11.07-.13.38-.15.76-.3,1.14-.43,0,0,.12,0,.15.06.24.34.48.69.73,1v0a.38.38,0,0,0,.42.23,1.42,1.42,0,0,1,.46,0,.32.32,0,0,0,.3-.14c.28-.36.57-.71.85-1.06a.14.14,0,0,1,.2-.06l1.06.47a.13.13,0,0,1,.08.17c-.09.47-.17.94-.25,1.41a.24.24,0,0,0,.08.25,6.14,6.14,0,0,1,.43.45.18.18,0,0,0,.19.08l1.4-.16a.18.18,0,0,1,.23.13c.13.35.27.7.4,1.06C50.1,27.68,50,27.72,50,27.77Z"/></g></g></svg>