<svg xmlns="http://www.w3.org/2000/svg" viewBox="0 0 85.04 42.52"><defs><style>.cls-1{fill:none;}.cls-2{fill:#fff;}</style></defs><title>Asset 537</title><g id="Layer_2" data-name="Layer 2"><g id="Layer_12" data-name="Layer 12"><rect class="cls-1" width="85.04" height="42.52"/><path class="cls-2" d="M42.52,39.28A17.89,17.89,0,1,1,60.41,21.39,17.92,17.92,0,0,1,42.52,39.28Zm0-34.69a16.8,16.8,0,1,0,16.8,16.8A16.82,16.82,0,0,0,42.52,4.59Z"/><path class="cls-2" d="M42.32,29.35a1.13,1.13,0,0,1-.36-.06h0a1.09,1.09,0,0,1-.68-1.39,1.1,1.1,0,0,1,2.08.71,1.09,1.09,0,0,1-.56.63A1,1,0,0,1,42.32,29.35Zm0-2a.88.88,0,0,0-.83.59.82.82,0,0,0,0,.67.89.89,0,0,0,.5.45h0a.88.88,0,0,0,1.12-.55.88.88,0,0,0-.55-1.12A.86.86,0,0,0,42.32,27.38Z"/><path class="cls-2" d="M48.8,7.15a3.4,3.4,0,0,0-4.09,1.59.08.08,0,0,1,0,0,5.5,5.5,0,0,0-.32,3.36h0a12.3,12.3,0,0,1,2.39-2.78l.06,0a1.36,1.36,0,0,1,.9-.28h.06a1.55,1.55,0,0,1,.35.07,1.31,1.31,0,0,1,.35.19A1.4,1.4,0,0,1,49,10.91a1.46,1.46,0,0,1-.51.7l-.09.06a.51.51,0,0,0-.24.29l-.64,1.79-.73,2.05L44,20l-4.27,6.52-.53.81-2,8.57a15.24,15.24,0,0,0,4.88,1l1.31-3.81,2.17-6.32,1.75-5.08,3.5-10.22A3.46,3.46,0,0,0,48.8,7.15ZM43.25,28.58a1,1,0,0,1-1.87-.65,1,1,0,1,1,1.87.65Z"/><path class="cls-2" d="M42.32,29.35a1.13,1.13,0,0,1-.36-.06,1.09,1.09,0,0,1-.68-1.39,1.1,1.1,0,0,1,2.08.71h0a1.09,1.09,0,0,1-.56.63A1,1,0,0,1,42.32,29.35Zm0-2a.88.88,0,0,0-.83.59.82.82,0,0,0,0,.67.89.89,0,0,0,.5.45.87.87,0,0,0,.67,0,.9.9,0,0,0,.45-.51.88.88,0,0,0-.55-1.12A.86.86,0,0,0,42.32,27.38Z"/><path class="cls-2" d="M42.32,29.35a1.13,1.13,0,0,1-.36-.06,1.09,1.09,0,0,1-.68-1.39,1.1,1.1,0,0,1,2.08.71h0a1.09,1.09,0,0,1-.56.63A1,1,0,0,1,42.32,29.35Zm0-2a.88.88,0,0,0-.83.59.82.82,0,0,0,0,.67.89.89,0,0,0,.5.45.87.87,0,0,0,.67,0,.9.9,0,0,0,.45-.51.88.88,0,0,0-.55-1.12A.86.86,0,0,0,42.32,27.38Z"/><path class="cls-2" d="M40.91,22.52,38.4,26.37C35.68,20.23,34,10,34.12,10.33a.44.44,0,0,1,.3.34,39.25,39.25,0,0,0,5.15,10.1C40.05,21.45,40.5,22,40.91,22.52Z"/></g></g></svg>