<svg xmlns="http://www.w3.org/2000/svg" viewBox="0 0 57.86 57.86"><defs><style>.cls-1{fill:none;}.cls-2{fill:#fff;}</style></defs><title>Asset 520</title><g id="Layer_2" data-name="Layer 2"><g id="Layer_12" data-name="Layer 12"><rect class="cls-1" width="57.86" height="57.86"/><polygon points="28.93 0 0 0 0 33.23 28.93 51.14 57.86 33.23 57.86 0 28.93 0"/><path class="cls-2" d="M53.41,11.08a.61.61,0,0,1,0-1,.05.05,0,0,0,0-.05.06.06,0,0,0-.06-.06H49.77a2.6,2.6,0,0,1-2.23-3.88L49.34,3a.05.05,0,0,0,0-.08.06.06,0,0,0-.06,0,.62.62,0,0,1-.87-.5.05.05,0,0,0,0-.05.05.05,0,0,0-.08,0l-1.8,3.12a2.61,2.61,0,0,1-4.48,0L40.2,2.36a.05.05,0,0,0-.08,0,.05.05,0,0,0,0,.05.61.61,0,0,1-.31.47.62.62,0,0,1-.56,0,.06.06,0,0,0-.06,0,.05.05,0,0,0,0,.08l1.8,3.12A2.61,2.61,0,0,1,38.7,10H19.16a2.61,2.61,0,0,1-2.24-3.88L18.72,3a.05.05,0,0,0,0-.08.06.06,0,0,0-.06,0,.62.62,0,0,1-.56,0,.61.61,0,0,1-.31-.47.05.05,0,0,0,0-.05.05.05,0,0,0-.08,0l-1.8,3.12a2.61,2.61,0,0,1-4.48,0L9.58,2.36a.05.05,0,0,0-.08,0,.05.05,0,0,0,0,.05.62.62,0,0,1-.87.5.06.06,0,0,0-.06,0,.05.05,0,0,0,0,.08l1.8,3.12A2.6,2.6,0,0,1,8.09,10H4.48a.06.06,0,0,0-.06.06.05.05,0,0,0,0,.05.61.61,0,0,1,0,1,.05.05,0,0,0,0,.05.06.06,0,0,0,.06.06H8.09a2.64,2.64,0,0,1,2.22,1.3,2.61,2.61,0,0,1,0,2.58l-1.8,3.12a.05.05,0,0,0,0,.08.06.06,0,0,0,.06,0,.62.62,0,0,1,.87.5.05.05,0,0,0,0,.05.05.05,0,0,0,.08,0l1.8-3.12a2.61,2.61,0,0,1,4.48,0l1.8,3.12a.05.05,0,0,0,.08,0,.05.05,0,0,0,0-.05.61.61,0,0,1,.31-.47.62.62,0,0,1,.56,0,.06.06,0,0,0,.06,0,.05.05,0,0,0,0-.08l-1.8-3.12a2.61,2.61,0,0,1,2.24-3.88H38.7a2.61,2.61,0,0,1,2.24,3.88l-.7,1.22h0l-7.68,13.3h0L31.17,32a2.61,2.61,0,0,1-4.48,0l-1.8-3.13a.08.08,0,0,0-.08,0,.05.05,0,0,0,0,0,.65.65,0,0,1-.31.48.62.62,0,0,1-.56,0h-.06a.07.07,0,0,0,0,.09l1.8,3.12a2.59,2.59,0,0,1-2.23,3.87H19.79a.07.07,0,0,0-.06.07.05.05,0,0,0,0,.05.62.62,0,0,1,.26.5.65.65,0,0,1-.26.5.05.05,0,0,0,0,0,.06.06,0,0,0,.06.06H23.4A2.62,2.62,0,0,1,25.62,39a2.59,2.59,0,0,1,0,2.57l-1.8,3.13a.06.06,0,0,0,0,.08h.06a.59.59,0,0,1,.56,0,.61.61,0,0,1,.31.47.05.05,0,0,0,0,.05.05.05,0,0,0,.08,0l1.8-3.12a2.6,2.6,0,0,1,4.48,0L33,45.32a.05.05,0,0,0,.08,0,.05.05,0,0,0,0-.05.61.61,0,0,1,.31-.47.59.59,0,0,1,.56,0H34a.06.06,0,0,0,0-.08l-1.8-3.13a2.59,2.59,0,0,1,0-2.57,2.62,2.62,0,0,1,2.22-1.3h3.61a.06.06,0,0,0,.06-.06.05.05,0,0,0,0,0,.65.65,0,0,1-.26-.5.62.62,0,0,1,.26-.5.05.05,0,0,0,0-.05.07.07,0,0,0-.06-.07H34.46a2.59,2.59,0,0,1-2.23-3.87L34,29.49h0L40.2,18.8h0L42,15.68a2.61,2.61,0,0,1,4.48,0l1.8,3.12a.05.05,0,0,0,.08,0,.05.05,0,0,0,0-.05.62.62,0,0,1,.87-.5.06.06,0,0,0,.06,0,.05.05,0,0,0,0-.08l-1.8-3.12a2.61,2.61,0,0,1,0-2.58,2.64,2.64,0,0,1,2.22-1.3h3.61a.06.06,0,0,0,.06-.06A.05.05,0,0,0,53.41,11.08Z"/></g></g></svg>