<svg xmlns="http://www.w3.org/2000/svg" viewBox="0 0 40.33 40.33"><defs><style>.cls-1{fill:none;}.cls-2{fill:#a0a0a0;}</style></defs><title>Asset 684</title><g id="Layer_2" data-name="Layer 2"><g id="Layer_13" data-name="Layer 13"><rect class="cls-1" width="40.33" height="40.33"/><path class="cls-2" d="M20.18,14.06a.57.57,0,0,0,0,1.13.57.57,0,0,0,.55-.58A.55.55,0,0,0,20.18,14.06Z"/><path class="cls-2" d="M32.36,2.21H8a.29.29,0,0,0-.29.29V37.83a.29.29,0,0,0,.29.29H32.36a.29.29,0,0,0,.3-.29V2.5A.29.29,0,0,0,32.36,2.21ZM10,5.42H25L23,7.5A7.91,7.91,0,0,0,16.2,8a7.25,7.25,0,0,0-1.67,1.24.43.43,0,0,0,.13.72.47.47,0,0,0,.51-.14,6.76,6.76,0,0,1,3.14-1.75,7.32,7.32,0,0,1,4,.11L21,9.43a6.45,6.45,0,0,0-1.17-.08,5.42,5.42,0,0,0-3.64,1.58.61.61,0,0,0-.16.28.39.39,0,0,0,.23.42.42.42,0,0,0,.51-.09,4.55,4.55,0,0,1,2-1.14,5.26,5.26,0,0,1,1.44-.18l-6.31,6.31H10Zm10.13,28.9a4.09,4.09,0,1,1,4.08-4.09A4.09,4.09,0,0,1,20.17,34.32ZM30.29,16.53H15.34L19,12.88a2.35,2.35,0,0,1,2.78.39.43.43,0,1,0,.6-.62c-.19-.17-.39-.33-.49-.41a3.53,3.53,0,0,0-1.75-.51l1.33-1.32a5.05,5.05,0,0,1,2,1.17.46.46,0,0,0,.66.05.44.44,0,0,0,0-.65c-.35-.31-.7-.59-1.06-.88l0,0a6.06,6.06,0,0,0-.86-.4l1.15-1.15a8.25,8.25,0,0,1,1.88,1.34.44.44,0,0,0,.65,0,.45.45,0,0,0-.05-.66A8.33,8.33,0,0,0,24,8l-.08,0,2.51-2.51h3.84Z"/><path class="cls-2" d="M20.17,29.24a1,1,0,1,0,1,1A1,1,0,0,0,20.17,29.24Z"/></g></g></svg>