<svg xmlns="http://www.w3.org/2000/svg" viewBox="0 0 57.86 57.86"><defs><style>.cls-1{fill:#fff;}.cls-2{fill:none;}</style></defs><title>Asset 24</title><g id="Layer_2" data-name="Layer 2"><g id="Layer_5" data-name="Layer 5"><path class="cls-1" d="M20.76,18.42l-7.82,6.29.44,3.65L21,33.64l3.29,1.69,2.56-1.75,4.17-2.38s2-2.62,2.08-2.72,1.06-3,1.06-3L30.5,22.51,23.75,18.7Z"/><rect class="cls-2" width="57.86" height="57.86"/><path class="cls-1" d="M56.47,26.05a1.14,1.14,0,0,0-.57-.82c-1.43-.58-2.87-1.11-4.33-1.6a1.67,1.67,0,0,1-1.2-1.26,40.39,40.39,0,0,0-1.57-3.94,1.34,1.34,0,0,1,0-1.33c.86-1.72,1.67-3.46,2.56-5.33-1.43-1.39-2.83-2.77-4.27-4.1a1,1,0,0,0-.9-.12c-1.6.71-3.16,1.51-4.76,2.22a1.55,1.55,0,0,1-1.06,0c-1.44-.52-2.85-1.14-4.3-1.64a1.35,1.35,0,0,1-1-.89c-.52-1.54-1.12-3.06-1.64-4.6a.8.8,0,0,0-.9-.65c-1.72,0-3.44,0-5.17,0a.85.85,0,0,0-1,.68c-.53,1.54-1.08,3.08-1.69,4.58a1.78,1.78,0,0,1-.9.83c-1.4.62-2.83,1.19-4.27,1.72a1.66,1.66,0,0,1-1.14,0c-1.57-.7-3.12-1.46-4.66-2.23a.78.78,0,0,0-1.09.16C11.41,9,10.16,10.23,8.9,11.45a.75.75,0,0,0-.16,1C9.5,14,10.2,15.59,11,17.12a1.21,1.21,0,0,1-.06,1.23c-.33.68-.64,1.36-.95,2l2.39,1.05a18.71,18.71,0,1,1,24.8,24.61l1,2.62c.72-.31,1.45-.62,2.17-1a1.22,1.22,0,0,1,1.24,0c1.7.84,3.42,1.62,5.19,2.45,1.44-1.44,2.88-2.86,4.27-4.32A.93.93,0,0,0,51,45c-.72-1.59-1.51-3.16-2.22-4.75a1.46,1.46,0,0,1,0-1c.52-1.48,1.12-2.93,1.63-4.41a1.33,1.33,0,0,1,.91-1c1.52-.52,3-1.11,4.51-1.63a.81.81,0,0,0,.66-.9C56.48,29.55,56.52,27.8,56.47,26.05Z"/><path class="cls-1" d="M24.89,14.19a6.22,6.22,0,0,0,6.32-.66l-3.36-1.77Z"/><path class="cls-1" d="M41.76,23.09l3-2.43-3.36-1.77C39.74,20.23,39.91,22.12,41.76,23.09Z"/><path class="cls-1" d="M4.9,30.58,1.94,33l3.35,1.77h0C6.92,33.44,6.75,31.56,4.9,30.58Z"/><path class="cls-1" d="M15.46,40.14h0l3.35,1.77,3-2.43A6.22,6.22,0,0,0,15.46,40.14Z"/><path class="cls-1" d="M6.59,35.46h0l7.57,4h0a8.63,8.63,0,0,1,8.76-.92l.83-.68L6.88,29l-.83.68C8.61,31,8.86,33.61,6.59,35.46Z"/><path class="cls-1" d="M23.74,15.13l-.83.68,16.88,8.9.83-.68c-2.57-1.35-2.81-4-.54-5.82l-7.57-4A8.62,8.62,0,0,1,23.74,15.13Z"/><polygon class="cls-1" points="44.73 23.08 18.81 44.33 1.94 35.43 1.94 37.58 18.81 46.48 44.73 25.23 44.73 23.08"/><polygon class="cls-1" points="44.73 27.21 18.81 48.46 1.94 39.56 1.94 41.7 18.81 50.6 44.73 29.35 44.73 27.21"/><polygon class="cls-1" points="44.73 31.34 18.81 52.59 1.94 43.69 1.94 45.83 18.81 54.73 44.73 33.48 44.73 31.34"/><polygon class="cls-1" points="24.9 38.27 38.64 27.01 38.64 38.48 24.9 49.74 24.9 38.27"/><path class="cls-1" d="M21.77,16.75,8,28l16.87,8.9L38.64,25.65Zm7.36,14.17-.54-.28L24.2,34.55l-1.29-2.29,3.56-2.74-3.12-1.64a18.4,18.4,0,0,1-1.86.71,6.73,6.73,0,0,1-2.2.31,4.62,4.62,0,0,1-2.09-.55,3.09,3.09,0,0,1-1.3-1.19,1.91,1.91,0,0,1-.15-1.59,3.26,3.26,0,0,1,.83-1.27L16,24a.61.61,0,0,1-.1-1.08,1.62,1.62,0,0,1,1.64-.17l.55.29L22.7,19.2l1.05,2.14-3.63,2.77.23.12,2.55,1.35a12.47,12.47,0,0,1,2.38-.89,6.73,6.73,0,0,1,2-.19,4.58,4.58,0,0,1,1.77.5,3.9,3.9,0,0,1,1.67,1.46,1.88,1.88,0,0,1,.07,1.73,4.27,4.27,0,0,1-.79,1.16l.61.32a.6.6,0,0,1,.1,1.08A1.58,1.58,0,0,1,29.13,30.92Z"/><path d="M24.81,34.45l4.06-4.24.56.24A1.6,1.6,0,0,0,31,30.16a.61.61,0,0,0-.18-1.08l-.64-.27a4.17,4.17,0,0,0,.7-1.22,1.89,1.89,0,0,0-.2-1.72,4,4,0,0,0-1.79-1.32,4.52,4.52,0,0,0-1.8-.36,6.58,6.58,0,0,0-2,.36,11.63,11.63,0,0,0-2.31,1.07l-2.64-1.14-.25-.11,3.4-3.05-1.21-2-4.29,4.19-.58-.25a1.58,1.58,0,0,0-1.61.3.6.6,0,0,0,.18,1.07l.59.26a3.22,3.22,0,0,0-.72,1.32,1.94,1.94,0,0,0,.27,1.57,3.12,3.12,0,0,0,1.4,1.09,4.64,4.64,0,0,0,2.13.39,7,7,0,0,0,2.16-.49,17.73,17.73,0,0,0,1.8-.86l3.24,1.4-3.33,3ZM19.86,27a1.81,1.81,0,0,1-1.06-.09.78.78,0,0,1-.53-.72,1.09,1.09,0,0,1,.14-.51l2.35,1A4.32,4.32,0,0,1,19.86,27Zm5.65-.25a5.81,5.81,0,0,1,.61-.22,2.27,2.27,0,0,1,1.57.13.86.86,0,0,1,.57.77,1.09,1.09,0,0,1-.1.46Z"/><polygon class="cls-1" points="1.94 45.83 19.11 57.61 44.73 33.48 18.62 53.98 1.94 45.83"/></g></g></svg>