<svg xmlns="http://www.w3.org/2000/svg" viewBox="0 0 85.04 42.52"><defs><style>.cls-1{fill:none;}.cls-2{fill:#fff;}</style></defs><title>Asset 688</title><g id="Layer_2" data-name="Layer 2"><g id="Layer_13" data-name="Layer 13"><rect class="cls-1" width="85.04" height="42.52"/><path class="cls-2" d="M54.85,11.29H53.8V3.17H31.24v8.12h-1V2.91A.79.79,0,0,1,31,2.12H54.06a.79.79,0,0,1,.79.79Z"/><path class="cls-2" d="M53.82,40.4H31.22a.94.94,0,0,1-.94-.94v-14H54.76v14A.94.94,0,0,1,53.82,40.4Zm-22.49-1H53.71V26.55H31.33Z"/><path class="cls-2" d="M49.49,35.83H35.55A.52.52,0,0,1,35,35.3a.52.52,0,0,1,.52-.52H49.49a.52.52,0,0,1,.52.52A.52.52,0,0,1,49.49,35.83Z"/><path class="cls-2" d="M49.49,31.12H35.55A.52.52,0,0,1,35,30.6a.52.52,0,0,1,.52-.53H49.49a.52.52,0,0,1,.52.53A.52.52,0,0,1,49.49,31.12Z"/><path class="cls-2" d="M57.06,30.7h-.55V29.65h.55a3,3,0,0,0,3-3l.53-10.19a3,3,0,0,0-3-3H27.45a3,3,0,0,0-3,3L25,26.59a3,3,0,0,0,3,3.06h.83V30.7H28a4.08,4.08,0,0,1-4.07-4.08l-.53-10.14a4.09,4.09,0,0,1,4.08-4.1H57.59a4.08,4.08,0,0,1,4.08,4.07l-.53,10.2A4.08,4.08,0,0,1,57.06,30.7Z"/><path class="cls-2" d="M33,17H28.31a.53.53,0,0,1-.53-.53.52.52,0,0,1,.53-.52H33a.52.52,0,0,1,.52.52A.52.52,0,0,1,33,17Z"/></g></g></svg>