<svg xmlns="http://www.w3.org/2000/svg" viewBox="0 0 107.65 107.65"><defs><style>.cls-1{fill:none;}</style></defs><title>Asset 689</title><g id="Layer_2" data-name="Layer 2"><g id="Layer_13" data-name="Layer 13"><rect class="cls-1" width="107.65" height="107.65"/><path d="M87.7,26.21H84.82V3.91h-62v22.3H20V3.2A2.17,2.17,0,0,1,22.12,1H85.53A2.17,2.17,0,0,1,87.7,3.2Z"/><path d="M84.88,106.19H22.77a2.59,2.59,0,0,1-2.58-2.59V65.26H87.46V103.6A2.59,2.59,0,0,1,84.88,106.19ZM23.07,103.3h61.5V68.14H23.07Z"/><path d="M73,93.63H34.68a1.45,1.45,0,0,1,0-2.89H73a1.45,1.45,0,0,1,0,2.89Z"/><path d="M73,80.7H34.68a1.45,1.45,0,0,1,0-2.89H73a1.45,1.45,0,0,1,0,2.89Z"/><path d="M93.78,79.53H92.27V76.64h1.51a8.32,8.32,0,0,0,8.31-8.31l1.45-28a8.31,8.31,0,0,0-8.32-8.24H12.43a8.33,8.33,0,0,0-8.32,8.32L5.55,68.26a8.34,8.34,0,0,0,8.32,8.38h2.27v2.89H13.87a11.21,11.21,0,0,1-11.2-11.2L1.23,40.48a11.22,11.22,0,0,1,11.2-11.27H95.22a11.21,11.21,0,0,1,11.2,11.2l-1.44,28A11.19,11.19,0,0,1,93.78,79.53Z"/><path d="M27.64,42H14.79a1.44,1.44,0,1,1,0-2.88H27.64a1.44,1.44,0,1,1,0,2.88Z"/></g></g></svg>