<svg xmlns="http://www.w3.org/2000/svg" viewBox="0 0 85.04 42.52"><defs><style>.cls-1{fill:none;}.cls-2{fill:#fff;}</style></defs><title>Asset 687</title><g id="Layer_2" data-name="Layer 2"><g id="Layer_13" data-name="Layer 13"><rect class="cls-1" width="85.04" height="42.52"/><path class="cls-2" d="M56.06,14.14H54.48c0-1.64,0-3.23,0-4.81a2.76,2.76,0,0,0-.75-2Q51.68,5.17,49.59,3a2.9,2.9,0,0,0-2.18-.89h-14a2.92,2.92,0,0,0-3,3v9H29V23H56.06ZM53,15.59c0,.1,0,.21,0,.34H31.85V5.24a1.47,1.47,0,0,1,1.67-1.65c4.39,0,8.79,0,13.19,0A1.26,1.26,0,0,1,48,4.84c0,.91,0,1.82,0,2.74a1.45,1.45,0,0,0,1.59,1.58h2.16A1.14,1.14,0,0,1,53,10.43C53,12.15,53,13.87,53,15.59Z"/><path class="cls-2" d="M61.47,15.72c0-.83-.44-1.5-1.13-1.55-1.05-.07-2.11,0-3.21,0V24H27.89V14.12H25.33a1.67,1.67,0,0,0-1.77,1.77V31.79h6.82v5.64a2.84,2.84,0,0,0,3,3H51.6a2.73,2.73,0,0,0,2.87-2.88c0-1.75,0-3.5,0-5.25v-.51h7V22.44C61.48,20.39,61.48,17.77,61.47,15.72ZM53,28.9v8.43c0,1.16-.45,1.6-1.6,1.6H33.5c-.89,0-1.43-.34-1.6-1a1.83,1.83,0,0,1,0-.4V28.68c0-.09,0-.17,0-.29H53Zm6.82,1.23H57.34V27.66h2.49Z"/><path class="cls-2" d="M50.33,30.52H34.72v1.4H50.33Z"/><path class="cls-2" d="M34.72,35.52H50.33V34.11H34.72Z"/></g></g></svg>