<svg xmlns="http://www.w3.org/2000/svg" viewBox="0 0 85.04 42.52"><defs><style>.cls-1{fill:#ff6700;}.cls-2{fill:none;}.cls-3{fill:#dd1919;}.cls-4{fill:#fff;}.cls-5{fill:#00f9ff;}</style></defs><title>Asset 683</title><g id="Layer_2" data-name="Layer 2"><g id="Layer_13" data-name="Layer 13"><path class="cls-1" d="M54.68,2.3H30.28a.29.29,0,0,0-.29.3V37.92a.3.3,0,0,0,.29.3h24.4a.3.3,0,0,0,.29-.3V2.6A.29.29,0,0,0,54.68,2.3Z"/><rect class="cls-2" width="85.04" height="42.52"/><circle class="cls-3" cx="62.24" cy="8.88" r="5.18"/><path class="cls-4" d="M63.12,5.14A2,2,0,0,1,64.2,6.88h0a.29.29,0,1,1,0,.57h-4a.29.29,0,0,1-.28-.4.26.26,0,0,1,.25-.17h.09a1.94,1.94,0,0,1,.48-1.28,1.87,1.87,0,0,1,.6-.47c0,.15,0,.3.08.44s.05.32.08.48a.14.14,0,0,0,.22.1A.15.15,0,0,0,61.81,6c-.05-.33-.11-.66-.17-1a.14.14,0,0,1,0-.14A.42.42,0,0,1,62,4.76h.56a.43.43,0,0,1,.31.16.06.06,0,0,1,0,.06c-.05.34-.11.67-.17,1A.15.15,0,1,0,63,6l.15-.84Z"/><path class="cls-4" d="M60.32,7.76h3.84a1.89,1.89,0,0,1-.06.71,2,2,0,0,1-.65,1,1.93,1.93,0,0,1-3.13-1.68Z"/><path class="cls-4" d="M63.67,11.81H60.81V10.55c0-.09,0-.07.07-.08a8.57,8.57,0,0,1,1.52-.11,8.81,8.81,0,0,1,1.25.12h0Z"/><path class="cls-4" d="M59.69,12.75a1.49,1.49,0,0,1-.63-.31.73.73,0,0,1-.22-.52,1.9,1.9,0,0,1,0-.34.68.68,0,0,1,.25-.42,2.23,2.23,0,0,1,.7-.4l.26-.1v1.15a.07.07,0,0,1,0,.07.6.6,0,0,0-.33.56C59.68,12.54,59.69,12.64,59.69,12.75Z"/><path class="cls-4" d="M64.79,12.75v-.29a.63.63,0,0,0-.34-.59,0,0,0,0,1,0,0V10.67h0a3,3,0,0,1,.85.41,1.16,1.16,0,0,1,.26.28.5.5,0,0,1,.09.32c0,.14,0,.28,0,.41a.7.7,0,0,1-.26.41A1.78,1.78,0,0,1,64.79,12.75Z"/><rect x="32.36" y="5.51" width="20.24" height="11.11"/><path class="cls-5" d="M46.34,8.07A8.25,8.25,0,0,1,48.09,9.4a.44.44,0,1,1-.61.61,7,7,0,0,0-6.85-1.85A6.69,6.69,0,0,0,37.48,9.9.44.44,0,0,1,37,10a.41.41,0,0,1-.13-.71,7,7,0,0,1,1.66-1.25,8,8,0,0,1,6.94-.43C45.81,7.79,46.16,8,46.34,8.07Z"/><path class="cls-5" d="M45.34,10.19c.35.29.71.58,1,.88a.43.43,0,0,1,0,.65.46.46,0,0,1-.66,0,4.72,4.72,0,0,0-4.67-1.19,4.57,4.57,0,0,0-2,1.14.43.43,0,0,1-.52.09.38.38,0,0,1-.22-.42.59.59,0,0,1,.15-.28,5.36,5.36,0,0,1,3.64-1.57,5.66,5.66,0,0,1,3.14.77Z"/><path class="cls-5" d="M44.2,12.33c.1.09.31.24.5.41a.42.42,0,0,1,0,.64.42.42,0,0,1-.63,0,2.4,2.4,0,0,0-3.3,0,.44.44,0,0,1-.56.09.42.42,0,0,1-.19-.47.65.65,0,0,1,.15-.24A3.18,3.18,0,0,1,42,11.85,3.31,3.31,0,0,1,44.2,12.33Z"/><circle class="cls-5" cx="42.5" cy="14.72" r="0.56"/><circle cx="42.48" cy="30.33" r="4.09"/><circle class="cls-4" cx="42.48" cy="30.33" r="0.99"/><path class="cls-4" d="M66.32,16.62l0,2.53c0,1.93,0,3.86.07,5.79A1.58,1.58,0,0,1,66,26.05a2.65,2.65,0,0,1-1.56.76,2.26,2.26,0,0,1-1.23-.17,1.29,1.29,0,0,1-.83-1,1.36,1.36,0,0,1,.19-.9,2.31,2.31,0,0,1,1.33-1,2.49,2.49,0,0,1,1.24-.1h.06l-.06-4.59L59.84,20.2v.09q0,3,.07,6a1.57,1.57,0,0,1-.33,1,2.6,2.6,0,0,1-2.84.79,1.32,1.32,0,0,1-.89-.93,1.24,1.24,0,0,1,.17-1,2.29,2.29,0,0,1,1.31-1,2.66,2.66,0,0,1,1.25-.1h.06l-.08-6.76,1.1-.24,5-1.08,1.55-.34.06,0Z"/></g></g></svg>