<svg xmlns="http://www.w3.org/2000/svg" viewBox="0 0 40.33 40.33"><defs><style>.cls-1{fill:none;}.cls-2{fill:#ff6700;}.cls-3{fill:#00f9ff;}.cls-4{fill:#fff;}</style></defs><title>Asset 685</title><g id="Layer_2" data-name="Layer 2"><g id="Layer_13" data-name="Layer 13"><rect class="cls-1" width="40.33" height="40.33"/><path class="cls-2" d="M32.36,2.21H8a.29.29,0,0,0-.29.29V37.83a.29.29,0,0,0,.29.29H32.36a.29.29,0,0,0,.3-.29V2.5A.29.29,0,0,0,32.36,2.21Z"/><rect x="10.04" y="5.42" width="20.24" height="11.11"/><path class="cls-3" d="M24,8A8.33,8.33,0,0,1,25.77,9.3a.45.45,0,0,1,.05.66.44.44,0,0,1-.65,0,7.07,7.07,0,0,0-6.86-1.86,6.76,6.76,0,0,0-3.14,1.75.47.47,0,0,1-.51.14.43.43,0,0,1-.13-.72A7.25,7.25,0,0,1,16.2,8a8,8,0,0,1,6.94-.43C23.5,7.7,23.85,7.89,24,8Z"/><path class="cls-3" d="M23,10.1c.36.29.71.57,1.06.88a.44.44,0,0,1,0,.65.46.46,0,0,1-.66-.05A4.68,4.68,0,0,0,18.8,10.4a4.55,4.55,0,0,0-2,1.14.42.42,0,0,1-.51.09.39.39,0,0,1-.23-.42.61.61,0,0,1,.16-.28,5.42,5.42,0,0,1,3.64-1.58,5.67,5.67,0,0,1,3.14.78Z"/><path class="cls-3" d="M21.89,12.24c.1.08.3.24.49.41a.42.42,0,0,1,0,.64.43.43,0,0,1-.63,0,2.39,2.39,0,0,0-3.29,0,.43.43,0,0,1-.56.09.4.4,0,0,1-.19-.47.57.57,0,0,1,.15-.23,3.2,3.2,0,0,1,1.81-.86A3.36,3.36,0,0,1,21.89,12.24Z"/><circle class="cls-3" cx="20.19" cy="14.62" r="0.56"/><circle cx="20.17" cy="30.23" r="4.09"/><circle class="cls-4" cx="20.17" cy="30.23" r="0.99"/></g></g></svg>