<svg xmlns="http://www.w3.org/2000/svg" viewBox="0 0 65.03 57.86"><defs><style>.cls-1{fill:#fff;}.cls-2{fill:none;}</style></defs><title>Asset 25</title><g id="Layer_2" data-name="Layer 2"><g id="Layer_5" data-name="Layer 5"><path class="cls-1" d="M31,5.52C44.41,5.65,55,9.45,64.13,17.07c1.17,1,1.18,1.21.14,2.29-1.2,1.24-2.38,2.49-3.57,3.74-.82.86-1.05.88-2,.12a39.71,39.71,0,0,0-18.67-8.79c-12.52-2.2-23.75.75-33.67,8.72-1,.83-1.09.85-2-.08-1.29-1.32-2.58-2.63-3.85-4-.73-.76-.71-1.12.1-1.81A47.72,47.72,0,0,1,23.54,6.39C26.49,5.87,29.51,5.69,31,5.52Z"/><path class="cls-1" d="M52.34,31.55a6.65,6.65,0,0,1-.51.73c-1.45,1.52-2.92,3-4.38,4.55-.54.56-1,.22-1.45-.13a20.8,20.8,0,0,0-6.65-3.46,22.19,22.19,0,0,0-20.08,3.28c-1.19.85-1.17.85-2.22-.23S14.76,34,13.61,32.78s-1-1.46.15-2.36a30.62,30.62,0,0,1,37.79.23A5.91,5.91,0,0,1,52.34,31.55Z"/><path class="cls-1" d="M32.52,42.27a12.16,12.16,0,0,1,6.17,1.67c1,.55,1,1,.27,1.78-1.82,1.92-3.64,3.86-5.47,5.78-.83.86-1.11.86-1.92,0q-2.78-2.87-5.52-5.73c-.73-.76-.68-1.28.22-1.82A11.94,11.94,0,0,1,32.52,42.27Z"/><rect class="cls-2" x="3.58" width="57.86" height="57.86"/></g></g></svg>