<svg xmlns="http://www.w3.org/2000/svg" viewBox="0 0 57.86 57.86"><defs><style>.cls-1{fill:#fff;}.cls-2{fill:none;}</style></defs><title>Asset 669</title><g id="Layer_2" data-name="Layer 2"><g id="Layer_13" data-name="Layer 13"><path class="cls-1" d="M34.16,7.48A11.58,11.58,0,0,1,40.54,17.8h.32a1.7,1.7,0,1,1,0,3.4h-11c-4.29,0-8.58,0-12.86,0a1.69,1.69,0,0,1-1.63-2.35A1.63,1.63,0,0,1,16.8,17.8c.17,0,.34,0,.53,0a11.53,11.53,0,0,1,2.8-7.54,11.27,11.27,0,0,1,3.57-2.8c.15.89.31,1.75.46,2.62s.32,1.88.5,2.82a.88.88,0,0,0,1.31.62.87.87,0,0,0,.43-.92c-.34-1.94-.67-3.89-1-5.83A.79.79,0,0,1,25.6,6a2.35,2.35,0,0,1,1.68-.72h3.3a2.22,2.22,0,0,1,1.83.92.51.51,0,0,1,.1.38c-.34,2-.7,4-1,6a.88.88,0,1,0,1.73.32c.3-1.68.6-3.35.89-5C34.11,7.72,34.14,7.6,34.16,7.48Z"/><path class="cls-1" d="M17.54,23H40.33a10.54,10.54,0,0,1-.4,4.22A11.29,11.29,0,0,1,36.12,33,11.43,11.43,0,0,1,17.54,23Z"/><path class="cls-1" d="M37.41,47h-17V39.59c0-.52-.05-.4.42-.48a49.42,49.42,0,0,1,9-.64,48.51,48.51,0,0,1,7.42.68l.13,0Z"/><path class="cls-1" d="M13.79,52.6a8.72,8.72,0,0,1-3.71-1.85,4.28,4.28,0,0,1-1.29-3,11.57,11.57,0,0,1,0-2,4.06,4.06,0,0,1,1.53-2.49,13.27,13.27,0,0,1,4.13-2.37c.49-.19,1-.36,1.53-.56v.33q0,3.24,0,6.5a.42.42,0,0,1-.25.41,3.64,3.64,0,0,0-2,3.31C13.78,51.37,13.79,52,13.79,52.6Z"/><path class="cls-1" d="M44.07,52.59V50.9a3.7,3.7,0,0,0-2-3.47.4.4,0,0,1-.16-.26V40.39a.51.51,0,0,1,0-.09H42a16.7,16.7,0,0,1,5,2.44,6,6,0,0,1,1.54,1.61,3.18,3.18,0,0,1,.56,1.93,21.9,21.9,0,0,1-.19,2.43,3.79,3.79,0,0,1-1.56,2.42A9.64,9.64,0,0,1,44.07,52.59Z"/><rect class="cls-2" width="57.86" height="57.86"/></g></g></svg>