<svg xmlns="http://www.w3.org/2000/svg" viewBox="0 0 85.04 42.52"><defs><style>.cls-1{fill:none;}.cls-2{fill:#fff;}</style></defs><title>Asset 704</title><g id="Layer_2" data-name="Layer 2"><g id="Layer_13" data-name="Layer 13"><rect class="cls-1" width="85.04" height="42.52"/><rect class="cls-2" x="13.99" y="7.13" width="12.94" height="12.94" transform="translate(6.86 34.06) rotate(-90)"/><rect class="cls-2" x="28.15" y="7.13" width="12.94" height="12.94" transform="translate(21.02 48.22) rotate(-90)"/><rect class="cls-2" x="13.99" y="21.29" width="12.94" height="12.94" transform="translate(-7.29 48.22) rotate(-90)"/><path class="cls-2" d="M68.15,26l.74-.73,1,.91,4.33-4.43.76.92-5.11,5.13Z"/><path class="cls-2" d="M54.33,33l.49-2.12a12.36,12.36,0,0,1-1.62-.7L52.08,32A14.1,14.1,0,0,0,54.33,33Z"/><path class="cls-2" d="M47.61,28.1l1.64-1.41a11.78,11.78,0,0,1-1-1.64l-2,.8A13.32,13.32,0,0,0,47.61,28.1Z"/><path class="cls-2" d="M45.63,24.25l2-.81a11.09,11.09,0,0,1-.37-1.75l-2.17.13A13.81,13.81,0,0,0,45.63,24.25Z"/><path class="cls-2" d="M51.74,29.22A11.39,11.39,0,0,1,50.36,28l-1.64,1.41a13.62,13.62,0,0,0,1.9,1.66Z"/><path class="cls-2" d="M58.5,31.46h0a11.88,11.88,0,0,1-2-.18L56,33.39a13.54,13.54,0,0,0,2.48.24l.24,0Z"/><path class="cls-2" d="M69.79,19.72h.09a6.35,6.35,0,0,1,2.1.38,13.5,13.5,0,0,0-27,0L47.15,20a11.32,11.32,0,0,1,22.64-.24Z"/><path class="cls-2" d="M59.44,19l-.28-7.42H57.8L57.52,19a1.25,1.25,0,0,0-.23.23l-4.87.29v1.35l4.88.27a1.5,1.5,0,0,0,1.18.59A1.56,1.56,0,0,0,60,20.13,1.52,1.52,0,0,0,59.44,19Z"/><path class="cls-2" d="M66.05,31.28a6.56,6.56,0,0,1-1.52-1.59,11.69,11.69,0,0,1-2.74,1.24l-.26-1.4L59.41,32.6l3.07,2.12-.3-1.64A13.56,13.56,0,0,0,66.05,31.28Z"/><path class="cls-2" d="M73.4,25a3.64,3.64,0,0,1,.22,1.19,3.74,3.74,0,1,1-3.74-3.73,3.7,3.7,0,0,1,2.17.7l.8-.82a4.87,4.87,0,1,0,1.91,3.85,4.81,4.81,0,0,0-.48-2.07Z"/></g></g></svg>