<svg xmlns="http://www.w3.org/2000/svg" viewBox="0 0 85.04 42.52"><defs><style>.cls-1{fill:none;}.cls-2{fill:#fff;}.cls-3{fill:#dd1919;}</style></defs><title>Asset 551</title><g id="Layer_2" data-name="Layer 2"><g id="Layer_12" data-name="Layer 12"><rect class="cls-1" width="85.04" height="42.52"/><path class="cls-2" d="M58,5.27H50.87V3.64a.26.26,0,0,0-.26-.26H41.83a.25.25,0,0,0-.25.26V5.27H34.46A1.23,1.23,0,0,0,33.23,6.5V9.91h3A3.48,3.48,0,0,1,39.69,13l2.48,23.17a3.29,3.29,0,0,1-.56,2.22.24.24,0,0,0,.22.18h8.78a.26.26,0,0,0,.26-.26V36.66H58a1.23,1.23,0,0,0,1.23-1.23V6.5A1.23,1.23,0,0,0,58,5.27Z"/><path class="cls-2" d="M37.56,12.6a.66.66,0,0,0-.68-.54H31.09L31,10.82a.33.33,0,0,0-.35-.29H24.78a.33.33,0,0,0-.35.29l-.05,1.24H18.59a.64.64,0,0,0-.67.54L15.43,35.77a.63.63,0,0,0,.68.65h7.26l-.05,1.21a.34.34,0,0,0,.36.32H31.8a.32.32,0,0,0,.35-.32l0-1.21h7.27a.62.62,0,0,0,.67-.65Z"/><circle class="cls-3" cx="66.36" cy="8.57" r="5.18"/><rect class="cls-2" x="65.46" y="4.43" width="1.81" height="8.29" rx="0.91" ry="0.91"/><rect class="cls-2" x="65.46" y="4.43" width="1.81" height="8.29" rx="0.91" ry="0.91" transform="translate(74.94 -57.79) rotate(90)"/><circle class="cls-3" cx="66.36" cy="19.91" r="5.18"/><rect class="cls-2" x="65.46" y="15.77" width="1.81" height="8.29" rx="0.91" ry="0.91" transform="translate(86.28 -46.45) rotate(90)"/><circle class="cls-3" cx="66.36" cy="31.25" r="5.18"/><path class="cls-2" d="M69.36,33.39a.47.47,0,0,1-.71.13l-1.88-1.6-.06,0,.47,2.33a.47.47,0,0,1-.46.56H66a.47.47,0,0,1-.46-.55L66,31.92l-.06,0L64.1,33.51a.46.46,0,0,1-.71-.12L63,32.75a.47.47,0,0,1,.25-.68l2.29-.84,0,0-2.27-.85a.48.48,0,0,1-.24-.69l.37-.6a.47.47,0,0,1,.71-.12L66,30.52h0l-.43-2.3a.48.48,0,0,1,.47-.56h.69a.47.47,0,0,1,.46.56l-.45,2.26,0,0,1.86-1.57a.48.48,0,0,1,.71.13l.37.65a.46.46,0,0,1-.24.67l-2.26.83v0l2.26.84a.47.47,0,0,1,.25.68Z"/></g></g></svg>