<svg xmlns="http://www.w3.org/2000/svg" viewBox="0 0 302.67 151.33"><defs><style>.cls-1{fill:none;}.cls-2{fill:#dd1919;}</style></defs><title>Asset 625</title><g id="Layer_2" data-name="Layer 2"><g id="Layer_12" data-name="Layer 12"><rect class="cls-1" width="302.67" height="151.33"/><path d="M210.81,53.7H84v46.55c0,5,2.31,7.33,7.4,7.33h60.77a12.9,12.9,0,0,1,2,0,3.1,3.1,0,0,1,2.69,3.17,3,3,0,0,1-2.74,2.93,10.42,10.42,0,0,1-1.77.05H91.51c-8.67,0-13.75-5.1-13.75-13.8V26.16c0-8.41,5.17-13.61,13.55-13.61H203.14c8.84,0,13.87,5,13.87,13.88q0,19.29,0,38.6c0,.39,0,.79,0,1.18a3.17,3.17,0,0,1-3.1,3.21,3.12,3.12,0,0,1-3.07-3.23c-.06-3.56,0-7.12,0-10.69Zm0-19.05V26c0-4.93-2.34-7.26-7.27-7.26H117c-8.84,0-17.69,0-26.53,0-3.28,0-6,1.83-6.32,4.83-.36,3.63-.08,7.32-.08,11.06Zm-.09,6.41H84.09v6.17H210.72Z"/><path class="cls-2" d="M181.79,122.32c-.14-.74-.45-1.33-.29-1.73.42-1.08.8-2.49,1.65-3a3.45,3.45,0,0,1,3.19.33c2.83,2.46,5.48,5.14,8.09,7.83a2.92,2.92,0,0,1-.13,4.27c-2.46,2.58-4.94,5.13-7.47,7.64a3.07,3.07,0,1,1-4.41-4.24,37,37,0,0,1,3.18-2.63l-.44-.59c-.54-.18-1.07-.39-1.61-.55C171.46,126,162.62,115,162.1,102.82c-.58-13.57,6.9-25.32,19.21-30a4.77,4.77,0,0,1,3.2-.33,3.59,3.59,0,0,1,1.89,2.59A4.35,4.35,0,0,1,184.63,78c-1.42,1-3.23,1.47-4.76,2.36-15.6,9.2-15.48,32.1.21,41.14C180.57,121.76,181.09,122,181.79,122.32Z"/><path class="cls-2" d="M202.07,71.36A30,30,0,0,1,221,85.65c9.21,15.94,1.7,36.58-15.68,43.16-2.2.83-4,.26-4.66-1.47s.18-3.35,2.41-4.27c8.74-3.62,14-10,15.52-19.41,1.6-9.74-4.62-21.14-13.45-24.5.16.57.52,1.13.39,1.51-.38,1.11-.7,2.61-1.54,3.08a3.7,3.7,0,0,1-3.39-.29c-2.83-2.45-5.45-5.16-8.06-7.86a3,3,0,0,1,.24-4.28c2.28-2.28,4.6-4.53,6.92-6.78,1.66-1.6,3.32-1.71,4.69-.36s1.18,3.17-.38,4.7a18,18,0,0,1-2.41,1.7Z"/><path d="M111,75.91h10.28c2.45,0,4,1.27,3.9,3.2s-1.51,3-3.9,3q-10.28,0-20.54,0c-2.46,0-4-1.27-3.91-3.2s1.52-3,3.9-3Z"/><path d="M139.46,82.11c-2.5,0-5,0-7.5,0-2.13,0-3.56-1.39-3.5-3.19s1.44-3,3.51-3c5,0,10,0,15,0,2.13,0,3.57,1.39,3.5,3.19s-1.44,3-3.5,3C144.47,82.14,142,82.11,139.46,82.11Z"/></g></g></svg>