<svg xmlns="http://www.w3.org/2000/svg" viewBox="0 0 43.27 43.27"><defs><style>.cls-1{fill:#fff;}.cls-2{fill:#6c6c6c;}</style></defs><title>Asset 573</title><g id="Layer_2" data-name="Layer 2"><g id="Layer_13" data-name="Layer 13"><path class="cls-1" d="M16.88,9.84H24.4v6.05a1.1,1.1,0,0,0,.69,1,1.37,1.37,0,0,0,.45.07h7v11a1.06,1.06,0,0,1-.65,1,1.09,1.09,0,0,1-.47.08H17a1.05,1.05,0,0,1-1-.75,1.5,1.5,0,0,1,0-.37V10.88a1,1,0,0,1,.9-1Z"/><path class="cls-1" d="M14.8,13.42V29.08a2,2,0,0,0,0,.35,1.07,1.07,0,0,0,.94.8h13s0,.05,0,.08c0,.39,0,.77,0,1.16a1,1,0,0,1-.65,1,1.17,1.17,0,0,1-.46.08H13.22a1.06,1.06,0,0,1-1-.68,1,1,0,0,1-.07-.36V14.56a1.84,1.84,0,0,1,0-.33,1.05,1.05,0,0,1,1.05-.81H14.8Z"/><path class="cls-1" d="M25.13,9.85l7.4,6.35H26.2a1.06,1.06,0,0,1-1.07-.89,1,1,0,0,1,0-.17V10A.46.46,0,0,1,25.13,9.85Z"/><path class="cls-2" d="M21.63,1A20.64,20.64,0,1,1,1,21.63,20.64,20.64,0,0,1,21.63,1m0-1A21.64,21.64,0,1,0,43.27,21.63,21.66,21.66,0,0,0,21.63,0Z"/></g></g></svg>