<svg xmlns="http://www.w3.org/2000/svg" xmlns:xlink="http://www.w3.org/1999/xlink" viewBox="0 0 59.99 59.99"><defs><style>.cls-1{fill:url(#linear-gradient);}.cls-2,.cls-3{fill:none;}.cls-2{stroke-miterlimit:10;stroke-width:0.25px;stroke:url(#linear-gradient-2);}.cls-4{fill:url(#linear-gradient-3);}.cls-5{fill:url(#linear-gradient-4);}</style><linearGradient id="linear-gradient" x1="3.66" y1="28.01" x2="56.35" y2="28.01" gradientTransform="translate(60.01 57.32) rotate(180)" gradientUnits="userSpaceOnUse"><stop offset="0" stop-color="#bdf9bd"/><stop offset="0.59" stop-color="#ade0ad"/><stop offset="1" stop-color="#a5d4a5"/></linearGradient><linearGradient id="linear-gradient-2" x1="3.43" y1="28.03" x2="56.6" y2="28.03" gradientTransform="translate(60.01 57.32) rotate(180)" gradientUnits="userSpaceOnUse"><stop offset="0" stop-color="#a5d4a5"/><stop offset="1" stop-color="#bdf9bd"/></linearGradient><linearGradient id="linear-gradient-3" x1="4.42" y1="54.6" x2="55.13" y2="43.42" xlink:href="#linear-gradient"/><linearGradient id="linear-gradient-4" x1="5.35" y1="54.53" x2="56.8" y2="43.19" xlink:href="#linear-gradient-2"/></defs><title>Asset 603</title><g id="Layer_2" data-name="Layer 2"><g id="Layer_13" data-name="Layer 13"><path class="cls-1" d="M3.65,7.41Q30,19.5,56.34,7.41L31.58,50.29a1.84,1.84,0,0,1-3.18,0Z"/><path class="cls-2" d="M3.65,7.41h0L28.4,50.29a1.85,1.85,0,0,0,3.19,0L56.34,7.41h0A164.56,164.56,0,0,1,3.65,7.41Z"/><rect class="cls-3" width="59.99" height="59.99" transform="translate(59.99 59.99) rotate(180)"/><path class="cls-4" d="M3.67,7.29l-.26,0L3.87,8c17.36,7.83,34.93,7.83,52.25,0l.46-.8-.26,0A165.47,165.47,0,0,1,3.67,7.29ZM52.56,8.48A60.91,60.91,0,0,1,30,12.92,61.08,61.08,0,0,1,7.45,8.48,164.62,164.62,0,0,0,52.56,8.48Z"/><path class="cls-5" d="M3.65,7.41A164.73,164.73,0,0,0,30,9.54,164.85,164.85,0,0,0,56.34,7.41Q30,19.49,3.65,7.41Z"/><rect class="cls-3" width="59.99" height="59.99"/></g></g></svg>