<svg xmlns="http://www.w3.org/2000/svg" viewBox="0 0 339.67 339.67"><defs><style>.cls-1{fill:none;}.cls-2{fill:#fff;}</style></defs><title>Asset 572</title><g id="Layer_2" data-name="Layer 2"><g id="Layer_13" data-name="Layer 13"><rect class="cls-1" width="339.67" height="339.67"/><path class="cls-2" d="M1.41,170.85c.24,17,1.75,30.57,5.19,43.94.89,3.49,2.88,5.81,6.5,6.35,6,.91,10.21-4,8.77-10.12a155.43,155.43,0,0,1-4.15-47.19c3.09-42.21,20.75-77.12,52.4-105,4.48-4,9.42-7.4,14.24-11,4.45-3.28,5.72-7.63,3.15-11.57S80,31.56,75.37,34.84C34.15,63.79,9.52,103,2.92,153.11,2,160,1.73,167,1.41,170.85Z"/><path class="cls-2" d="M167.75,70c-26.77.49-51.19,10.26-71.44,30.06a14.23,14.23,0,0,0-3.14,4.13,7.74,7.74,0,0,0,2.77,9.31,7.92,7.92,0,0,0,10.26-1.09,92.65,92.65,0,0,1,24.15-17.51,88.08,88.08,0,0,1,108.78,25.27c.69.89,1.33,1.82,2.07,2.67,3,3.49,7.57,4,11,1.39a7.85,7.85,0,0,0,1.42-11,102.8,102.8,0,0,0-25-24.62C210.81,76.17,190.9,70.19,167.75,70Z"/><path class="cls-2" d="M173.36,5.91c-20.23.26-35.66,2.29-50.72,6.77-4.17,1.24-6.57,4.51-6.28,8.22.27,3.51,3,6.83,6.55,7.21a16.64,16.64,0,0,0,5.85-.79c41.81-11,81.56-5.91,118.71,16.2C257,49.16,265.3,56.72,274,63.58c3.05,2.41,6.07,3.47,9.63,1.72,3.27-1.61,4.83-4.48,4.12-8A10.06,10.06,0,0,0,285,52.21C260,28.62,230.66,13.85,196.79,8.35,187.57,6.86,178.19,6.39,173.36,5.91Z"/><path class="cls-2" d="M305,164.52c-1.29-17.51-5.36-34-13-49.3q-30-60.1-95.81-74.56c-7-1.54-11.83,2.33-11,8.56.47,3.73,2.93,5.94,7.73,6.91a116.06,116.06,0,0,1,47.28,20.74C268.64,98.19,285,126.57,288.87,162c.13,1.24.28,2.49.52,3.71A7.87,7.87,0,0,0,305,164.52Z"/><path class="cls-2" d="M96.5,199.36c1.32,16.8,2.6,33.59,4,50.38.47,5.79,3.9,9.18,8.58,8.81,4.93-.39,7.81-4.23,7.06-10.31-3.06-24.61-3.47-49.31-2.88-74.05.32-13.69,4.49-26,13.42-36.5s20.08-16.61,33.44-19.12c5.69-1.07,8.63-4.8,7.67-9.49s-5.19-7-10.76-5.94c-35,6.73-58.92,35.12-59.49,70.69-.14,8.49,0,17,0,25.48Z"/><path class="cls-2" d="M214.07,327.63c-22.34-24.74-30.11-54.42-34.25-85.5a382.85,382.85,0,0,1-2.51-66.93c.21-5.17-2.74-8.75-7.35-9.15s-8.28,2.93-8.44,8.06c-1.21,39.48.28,78.68,13.18,116.57a136.93,136.93,0,0,0,19.73,38.07c1.52,2,2.94,2.91,5.61,2.13C204.45,329.6,209,328.78,214.07,327.63Z"/><path class="cls-2" d="M129.12,185.75c0,5-.08,10,0,15,.12,5.61,3.53,9.27,8.28,9.1s7.47-3.76,7.54-9.37c.1-9,.17-18,.41-27a24,24,0,0,1,24.87-23.62c13,.22,23.2,10.92,23.24,24.43,0,1.37-.1,2.75,0,4.12a7.86,7.86,0,0,0,15.6.2c2.87-20.77-11.87-40.29-33.31-44.12-20.34-3.63-41.28,10.39-45.19,30.73-1.29,6.7-1.24,13.65-1.79,20.48Z"/><path class="cls-2" d="M144.58,40c-5.8,1.59-12,2.9-18,5Q65.91,66.18,42.19,126c-2.65,6.67,1.41,12.66,7.89,11.87,3.65-.44,5.61-2.81,6.84-6.1A117.5,117.5,0,0,1,84,89.51,119.23,119.23,0,0,1,145.63,56.2c3.8-.78,6.49-2.66,7.19-6.57A7.31,7.31,0,0,0,149,41.41,24.14,24.14,0,0,0,144.58,40Z"/><path class="cls-2" d="M338.26,174.3c-1.13-34.51-10.53-66.1-29.93-94.57a12.77,12.77,0,0,0-5.92-4.63c-3.18-1.11-6.21.25-8.08,3.21s-1.51,6,.26,9.16c5.08,9,10.77,17.77,14.84,27.23,12.53,29.16,15.23,59.48,8.83,90.58-.73,3.51-.81,7.13,2.48,9.08a12.31,12.31,0,0,0,7.62,1.34c3.23-.51,4.81-3.4,5.25-6.59C335.2,197.51,336.72,185.9,338.26,174.3Z"/><path class="cls-2" d="M273.86,190.79c-.82-12.29-1.53-24.59-2.54-36.86a43.93,43.93,0,0,0-2.27-9.43A7.85,7.85,0,1,0,254,148.94c2.9,10.19,3.69,20.55,3.38,31.11-.63,22.11-.34,44.2,4.42,65.95,1.14,5.22,2.9,10.31,4.42,15.44,2.22,7.5,7.71,12.73,12.87,18.11a7.44,7.44,0,0,0,9.94.31,7.86,7.86,0,0,0,2-10.11,8.11,8.11,0,0,0-1.55-2.1c-8.43-7.43-10.87-17.6-12.85-28-3.08-16.13-3.76-32.45-3.7-48.82Z"/><path class="cls-2" d="M65.39,195.78A438,438,0,0,0,72.7,279.2c.7,3.7,2.13,6.73,6,7.81,5.74,1.61,10.65-2.91,9.77-9.13-1.29-9.14-3.09-18.21-4.2-27.37a464,464,0,0,1-2.45-85.62c.29-4.57,1.5-9.1,2.47-13.61,1.15-5.37-.81-9.36-5.49-10.64-4.48-1.24-8.83,1.4-9.75,6.77-1.53,9-2.82,18-3.55,27C64.94,181.51,65.39,188.66,65.39,195.78Z"/><path class="cls-2" d="M241.33,225.07c0-16.11-.19-32.22,0-48.32.46-31.27-17.26-58.5-45.66-69.7-5.35-2.11-9.79-.59-11.55,4-1.7,4.37.4,8.4,5.54,10.62,24.23,10.46,36.7,31.23,35.87,57.65-.49,15.58.48,31.21.94,46.81.19,6.41,3.44,9.82,8.56,9.54S242.6,231.71,241.33,225.07Z"/><path class="cls-2" d="M57.68,287.2c-1.34-8.23-2.77-16.44-4-24.69a476.24,476.24,0,0,1-4.63-78.43c.13-7.36.61-14.72.91-22.08a8,8,0,0,0-7.08-8.62c-4.3-.49-8.33,2.32-8.5,7-.58,16-1.42,32-.88,47.91.61,17.81,2.59,35.58,4,53.37a7.63,7.63,0,0,0,1,3.92c5.9,7.52,12,14.92,18,22.36Z"/><path class="cls-2" d="M178,333.66a164.64,164.64,0,0,1-19.11-39.33,262.91,262.91,0,0,1-12.05-59.66c-.48-5.28-3.12-8.54-7.39-8.91a7.64,7.64,0,0,0-8.35,9c2.09,14.69,4,29.43,7,43.94a189.22,189.22,0,0,0,18.75,50.73c1.58,3,3.29,4.52,6.85,4.27C168.21,333.42,172.7,333.66,178,333.66Z"/><path class="cls-2" d="M230.59,321.82l14.24-6.75c-2-2.71-3.37-5.39-5.44-7.42C226.48,295,219.88,279.07,216.06,262c-2.72-12.13-4.07-24.58-6-36.88-.74-4.72-4.06-7.75-8.26-7.45a7.87,7.87,0,0,0-7.44,8.68c1.83,20.81,5.1,41.33,13.08,60.83,4.58,11.2,10.65,21.43,19.29,30C228.05,318.48,229.12,320,230.59,321.82Z"/><path class="cls-2" d="M304.34,260c2.52-4.45,4.88-8.55,7.14-12.71a3,3,0,0,0,.37-2.38c-4.8-8-4.88-17.16-5.86-26-.75-6.81-.71-13.71-1-20.57-.2-5.29-3.1-8.35-8-8.31s-8.13,3-7.72,8.42c1,13.67,1.89,27.39,3.88,40.93C294.8,250.65,295.62,250.84,304.34,260Z"/><path class="cls-2" d="M259,306.51l12.57-9.35c-3.25-4.19-6.43-8.1-9.4-12.16-3.15-4.31-6.37-8.6-9.08-13.17s-6.83-6.63-11.1-4.55-5.84,6.82-3.08,11.54c3.32,5.66,7.25,11,11.11,16.31C252.7,298.86,255.71,302.37,259,306.51Z"/><path class="cls-2" d="M138.62,331.06c-4.55-12.56-8.8-24.51-13.23-36.4a7.52,7.52,0,0,0-9.47-4.56c-4.08,1.23-6.71,5.22-5.41,9.33,2.69,8.42,5.77,16.72,8.77,25a3.06,3.06,0,0,0,1.7,1.74C126.82,327.89,132.69,329.44,138.62,331.06Z"/><path class="cls-2" d="M81.34,307.55l16.85,9.77.92-.6c-1.43-3.71-2.34-7.74-4.42-11C91.68,300.89,85.21,301.71,81.34,307.55Z"/></g></g></svg>