<svg xmlns="http://www.w3.org/2000/svg" xmlns:xlink="http://www.w3.org/1999/xlink" viewBox="0 0 59.99 59.99"><defs><style>.cls-1{fill:url(#linear-gradient);}.cls-2,.cls-3{fill:none;}.cls-2{stroke-miterlimit:10;stroke-width:0.25px;stroke:url(#linear-gradient-2);}.cls-4{fill:url(#linear-gradient-3);}.cls-5{fill:url(#linear-gradient-4);}</style><linearGradient id="linear-gradient" x1="3.65" y1="30.68" x2="56.34" y2="30.68" gradientUnits="userSpaceOnUse"><stop offset="0" stop-color="#bdf9bd"/><stop offset="0.59" stop-color="#ade0ad"/><stop offset="1" stop-color="#a5d4a5"/></linearGradient><linearGradient id="linear-gradient-2" x1="3.41" y1="30.7" x2="56.58" y2="30.7" gradientUnits="userSpaceOnUse"><stop offset="0" stop-color="#a5d4a5"/><stop offset="1" stop-color="#bdf9bd"/></linearGradient><linearGradient id="linear-gradient-3" x1="4.41" y1="57.27" x2="55.12" y2="46.09" xlink:href="#linear-gradient"/><linearGradient id="linear-gradient-4" x1="5.33" y1="57.21" x2="56.79" y2="45.86" xlink:href="#linear-gradient-2"/></defs><title>Asset 604</title><g id="Layer_2" data-name="Layer 2"><g id="Layer_13" data-name="Layer 13"><path class="cls-1" d="M56.34,52.58Q30,40.49,3.65,52.58L28.41,9.7a1.84,1.84,0,0,1,3.18,0Z"/><path class="cls-2" d="M56.34,52.58h0L31.59,9.7a1.85,1.85,0,0,0-3.19,0L3.65,52.58h0A164.56,164.56,0,0,1,56.34,52.58Z"/><rect class="cls-3" width="59.99" height="59.99"/><path class="cls-4" d="M56.32,52.7l.26,0-.46-.8c-17.35-7.83-34.93-7.83-52.25,0l-.46.8.26,0A165.47,165.47,0,0,1,56.32,52.7ZM7.43,51.51A61,61,0,0,1,30,47.07a61.13,61.13,0,0,1,22.57,4.44A164.69,164.69,0,0,0,7.43,51.51Z"/><path class="cls-5" d="M56.34,52.58a164.75,164.75,0,0,0-52.69,0Q29.95,40.51,56.34,52.58Z"/><rect class="cls-3" width="59.99" height="59.99" transform="translate(59.99 59.99) rotate(180)"/></g></g></svg>