<svg xmlns="http://www.w3.org/2000/svg" viewBox="0 0 127.12 127.12"><defs><style>.cls-1{fill:#fff;}.cls-2{fill:none;}</style></defs><title>Asset 593</title><g id="Layer_2" data-name="Layer 2"><g id="Layer_13" data-name="Layer 13"><path class="cls-1" d="M67.24,76.18c-2.26-2.25-5.17-5.13-6.85-6.77a4.52,4.52,0,0,1-1.34-3.22v-16a4.51,4.51,0,0,1,4.51-4.51h0a4.5,4.5,0,0,1,4.51,4.5V62a5.4,5.4,0,0,0,1.59,3.83l4,4a4.52,4.52,0,0,1,0,6.39l0,0A4.51,4.51,0,0,1,67.24,76.18Z"/><path class="cls-1" d="M88.72,31.74a40.54,40.54,0,0,0-47.57-1.9,39.7,39.7,0,0,0-15.8,20.35c-4,11.43-2.89,22.5,2.73,33.25l-7.34,7.34H45.45V66l-10.7,10.7a31.62,31.62,0,1,1,57.81-.32,30.74,30.74,0,0,1-7.37,10.4A32.75,32.75,0,0,1,80,90.69a29,29,0,0,1-4.11,2.11c-.12.06-.25.1-.37.15-.63.26-1.26.5-1.91.72l-.11,0c-.72.24-1.45.45-2.19.64a35.11,35.11,0,0,1-3.73.72,4.53,4.53,0,0,0-4,4.47v0A4.53,4.53,0,0,0,68.69,104a40.13,40.13,0,0,0,8.35-2h0l.09,0c1-.35,2-.73,2.93-1.16l.23-.14a41.48,41.48,0,0,0,4.24-2.19,40.68,40.68,0,0,0,4.18-66.78Z"/><rect class="cls-2" width="127.12" height="127.12"/></g></g></svg>