<svg xmlns="http://www.w3.org/2000/svg" viewBox="0 0 288.62 216.46"><defs><style>.cls-1{fill:#fff;}</style></defs><title>Asset 643</title><g id="Layer_2" data-name="Layer 2"><g id="Layer_13" data-name="Layer 13"><rect class="cls-1" width="288.62" height="216.46"/><path d="M58.18,175V163.88l14.21-13.81c34.21-32.55,49.67-49.86,49.87-70.06,0-13.6-6.59-26.17-26.58-26.17-12.16,0-22.26,6.18-28.44,11.33L61.47,52.4A58.79,58.79,0,0,1,99.39,38.8c28.85,0,41,19.78,41,38.94,0,24.73-17.93,44.72-46.16,71.92l-10.72,9.89V160h60.17v15Z"/><path d="M232.3,106.59c0,45.55-16.9,70.69-46.57,70.69-26.17,0-43.89-24.53-44.31-68.83,0-44.92,19.37-69.65,46.58-69.65C216.23,38.8,232.3,63.94,232.3,106.59Zm-72.74,2.06c0,34.83,10.71,54.61,27.2,54.61,18.55,0,27.41-21.63,27.41-55.84,0-33-8.45-54.61-27.2-54.61C171.1,52.81,159.56,72.18,159.56,108.65Z"/></g></g></svg>