<svg xmlns="http://www.w3.org/2000/svg" viewBox="0 0 288.62 216.46"><defs><style>.cls-1{fill:#fff;}</style></defs><title>Asset 655</title><g id="Layer_2" data-name="Layer 2"><g id="Layer_13" data-name="Layer 13"><rect class="cls-1" width="288.62" height="216.46"/><path d="M99.08,141c0-16.9,10.1-28.85,26.58-35.86l-.2-.62c-14.84-7-21.23-18.54-21.23-30.08,0-21.23,17.93-35.65,41.42-35.65,26,0,38.95,16.28,38.95,33,0,11.33-5.57,23.49-22,31.32v.62c16.69,6.59,27,18.34,27,34.62,0,23.28-20,38.95-45.54,38.95C116,177.28,99.08,160.58,99.08,141Zm72.12-.83c0-16.28-11.33-24.11-29.47-29.26-15.66,4.53-24.11,14.84-24.11,27.61-.61,13.6,9.69,25.56,26.79,25.56C160.69,164.09,171.2,154,171.2,140.18Zm-49.87-67c0,13.39,10.1,20.61,25.56,24.73,11.54-3.92,20.4-12.16,20.4-24.32,0-10.71-6.39-21.84-22.67-21.84C129.58,51.78,121.33,61.67,121.33,73.21Z"/></g></g></svg>