<svg xmlns="http://www.w3.org/2000/svg" viewBox="0 0 288.62 216.46"><defs><style>.cls-1{fill:#fff;}</style></defs><title>Asset 650</title><g id="Layer_2" data-name="Layer 2"><g id="Layer_13" data-name="Layer 13"><rect class="cls-1" width="288.62" height="216.46"/><path d="M93.51,58H93.1L69.82,70.53,66.31,56.72,95.58,41.06H111V175H93.51Z"/><path d="M143.59,154.2a60.67,60.67,0,0,0,29.67,8.44c23.29,0,30.5-14.83,30.29-26-.2-18.75-17.1-26.79-34.62-26.79H158.84V96.29h10.09c13.19,0,29.88-6.8,29.88-22.67,0-10.71-6.8-20.19-23.49-20.19-10.71,0-21,4.74-26.79,8.86L143.79,49.1c7-5.15,20.61-10.3,35-10.3,26.38,0,38.33,15.66,38.33,31.94,0,13.8-8.24,25.55-24.72,31.53v.41c16.48,3.3,29.87,15.66,29.87,34.41,0,21.43-16.69,40.19-48.83,40.19-15.05,0-28.24-4.74-34.83-9.07Z"/></g></g></svg>