<svg xmlns="http://www.w3.org/2000/svg" viewBox="0 0 288.62 216.46"><defs><style>.cls-1{fill:#fff;}</style></defs><title>Asset 642</title><g id="Layer_2" data-name="Layer 2"><g id="Layer_13" data-name="Layer 13"><rect class="cls-1" width="288.62" height="216.46"/><path d="M73.32,175V163.88l14.22-13.81c34.21-32.55,49.66-49.86,49.87-70.06,0-13.6-6.6-26.17-26.59-26.17-12.15,0-22.25,6.18-28.43,11.33L76.62,52.4a58.76,58.76,0,0,1,37.91-13.6c28.85,0,41,19.78,41,38.94,0,24.73-17.93,44.72-46.16,71.92l-10.71,9.89V160h60.17v15Z"/><path d="M197.78,58h-.41L174.08,70.53l-3.5-13.81,29.26-15.66H215.3V175H197.78Z"/></g></g></svg>