<svg xmlns="http://www.w3.org/2000/svg" viewBox="0 0 288.62 216.46"><defs><style>.cls-1{fill:#fff;}</style></defs><title>Asset 651</title><g id="Layer_2" data-name="Layer 2"><g id="Layer_13" data-name="Layer 13"><rect class="cls-1" width="288.62" height="216.46"/><path d="M92.28,58h-.41L68.58,70.53l-3.5-13.81L94.34,41.06h15.45V175H92.28Z"/><path d="M138,175V163.88l14.22-13.81c34.21-32.55,49.66-49.86,49.87-70.06,0-13.6-6.59-26.17-26.58-26.17-12.16,0-22.26,6.18-28.44,11.33L141.32,52.4a58.77,58.77,0,0,1,37.92-13.6c28.85,0,41,19.78,41,38.94,0,24.73-17.92,44.72-46.16,71.92l-10.71,9.89V160h60.17v15Z"/></g></g></svg>