<svg xmlns="http://www.w3.org/2000/svg" viewBox="0 0 288.62 216.46"><defs><style>.cls-1{fill:#fff;}</style></defs><title>Asset 658</title><g id="Layer_2" data-name="Layer 2"><g id="Layer_13" data-name="Layer 13"><rect class="cls-1" width="288.62" height="216.46"/><path d="M177.18,53.84a65.46,65.46,0,0,0-13.6.82C135.14,59.4,120.1,80.22,117,102.27h.61C124,93.82,135.14,86.81,150,86.81c23.7,0,40.39,17.1,40.39,43.28,0,24.52-16.69,47.19-44.51,47.19-28.65,0-47.4-22.26-47.4-57.09,0-26.37,9.48-47.19,22.67-60.37C132.26,48.89,147.09,42.09,164,40a87.64,87.64,0,0,1,13.19-1ZM172,131.12c0-19.17-10.92-30.71-27.62-30.71-10.92,0-21,6.8-26,16.49a15.39,15.39,0,0,0-2.06,8c.41,22,10.51,38.33,29.47,38.33C161.52,163.26,172,150.28,172,131.12Z"/></g></g></svg>