<svg xmlns="http://www.w3.org/2000/svg" viewBox="0 0 288.62 216.46"><defs><style>.cls-1{fill:#fff;}</style></defs><title>Asset 659</title><g id="Layer_2" data-name="Layer 2"><g id="Layer_13" data-name="Layer 13"><rect class="cls-1" width="288.62" height="216.46"/><path d="M180.68,56.31h-51.1l-5.16,34.42a72,72,0,0,1,10.93-.83c10.3,0,20.6,2.27,28.85,7.21,10.51,6,19.16,17.52,19.16,34.42,0,26.17-20.81,45.75-49.87,45.75-14.63,0-27-4.12-33.38-8.25l4.53-13.8a60.11,60.11,0,0,0,28.65,7.42c17.1,0,31.73-11.13,31.73-29.06-.21-17.31-11.75-29.68-38.53-29.68a138.15,138.15,0,0,0-18.55,1.45l8.65-64.3h64.09Z"/></g></g></svg>