<svg xmlns="http://www.w3.org/2000/svg" viewBox="0 0 288.62 216.46"><defs><style>.cls-1{fill:#fff;}</style></defs><title>Asset 644</title><g id="Layer_2" data-name="Layer 2"><g id="Layer_13" data-name="Layer 13"><rect class="cls-1" width="288.62" height="216.46"/><path d="M90.42,58H90L66.73,70.53,63.22,56.72,92.48,41.06h15.46V175H90.42Z"/><path d="M146.68,162.23c3.91.41,8.45,0,14.63-.62a50.42,50.42,0,0,0,28-13c8.86-8,15.25-19.78,17.73-35.65h-.62c-7.42,9.07-18.14,14.43-31.53,14.43-24.11,0-39.57-18.14-39.57-41,0-25.35,18.34-47.6,45.75-47.6S225.4,61.05,225.4,95.26c0,29.47-9.89,50.08-23.08,62.85C192,168.21,177.79,174.39,163.37,176a84.17,84.17,0,0,1-16.69,1Zm6.59-77.07c0,16.69,10.1,28.44,25.76,28.44,12.16,0,21.64-6,26.38-14a12,12,0,0,0,1.65-6.6c0-22.87-8.45-40.39-27.41-40.39C164.19,52.6,153.27,66.2,153.27,85.16Z"/></g></g></svg>