<svg xmlns="http://www.w3.org/2000/svg" viewBox="0 0 42.77 42.77"><defs><style>.cls-1{fill:none;stroke:#fff;stroke-miterlimit:10;stroke-width:0.25px;}.cls-2{fill:#fff;}</style></defs><title>Asset 665</title><g id="Layer_2" data-name="Layer 2"><g id="Layer_12" data-name="Layer 12"><rect class="cls-1" x="0.13" y="0.13" width="42.52" height="42.52" rx="1.55" ry="1.55"/><path class="cls-2" d="M33,23.11c-.09.23-.21.3-.36.29h-.75v-4a8.77,8.77,0,0,1,.89,0c.08,0,.15.19.22.3Z"/><path class="cls-2" d="M10.57,13.79a7.55,7.55,0,0,1,.22-.85,3.19,3.19,0,0,1,2.94-2H27.22a13.49,13.49,0,0,1,1.56,0,3.16,3.16,0,0,1,2.76,2.73,6.7,6.7,0,0,1,0,.9V27.72c0,.46,0,.92,0,1.38A3.17,3.17,0,0,1,29,31.83a7.43,7.43,0,0,1-1.25.08c-.26,0-.52,0-.79,0H13.79a3.22,3.22,0,0,1-3.2-2.78s0-.08,0-.12Zm19.62,7.66v-7.3a2.1,2.1,0,0,0-.05-.43,1.82,1.82,0,0,0-1.78-1.43H13.84a1.75,1.75,0,0,0-1,.27,1.8,1.8,0,0,0-.89,1.6V28.63a1.84,1.84,0,0,0,1.9,1.9H28.31a2.45,2.45,0,0,0,.39,0,1.85,1.85,0,0,0,1.49-1.83C30.18,26.26,30.19,23.85,30.19,21.45Z"/><path class="cls-2" d="M27.68,10.36H14.46c0-.06,0-.11,0-.16.16-1.23.33-2.47.5-3.7.07-.54.14-1.09.23-1.64A1.46,1.46,0,0,1,15.62,4a1,1,0,0,1,.69-.27h9.43a1.05,1.05,0,0,1,1.08.72A4.75,4.75,0,0,1,27,5.4c.22,1.59.44,3.17.65,4.76C27.67,10.22,27.67,10.28,27.68,10.36Z"/><path class="cls-2" d="M15,36.28l.21,1.52A1.37,1.37,0,0,0,16,39H26.2a1.33,1.33,0,0,0,.72-1,4.22,4.22,0,0,0,.09-.59l.57-4.14c0-.27.07-.54.1-.82H14.46s0,.1,0,.14C14.64,33.83,14.81,35.05,15,36.28Z"/><path class="cls-2" d="M26,17.35A10.39,10.39,0,0,1,28.15,19a.55.55,0,0,1,.05.8.54.54,0,0,1-.8,0A8.58,8.58,0,0,0,19,17.46a8.22,8.22,0,0,0-3.84,2.13.52.52,0,0,1-.61.17.51.51,0,0,1-.16-.87,8.62,8.62,0,0,1,2-1.52,9.74,9.74,0,0,1,8.47-.53C25.37,17,25.79,17.25,26,17.35Z"/><path class="cls-2" d="M24.79,19.94c.43.36.86.71,1.28,1.08a.53.53,0,0,1,.06.8.57.57,0,0,1-.81-.06,5.73,5.73,0,0,0-5.69-1.45,5.45,5.45,0,0,0-2.44,1.4.54.54,0,0,1-.63.11.47.47,0,0,1-.27-.52.66.66,0,0,1,.18-.34A6.56,6.56,0,0,1,20.92,19a6.85,6.85,0,0,1,3.83.94Z"/><path class="cls-2" d="M23.4,22.56c.12.1.37.29.6.5a.53.53,0,1,1-.73.76,2.91,2.91,0,0,0-4-.06.52.52,0,0,1-.69.11.5.5,0,0,1-.23-.57.81.81,0,0,1,.19-.29A3.91,3.91,0,0,1,20.73,22,4.09,4.09,0,0,1,23.4,22.56Z"/><circle class="cls-2" cx="21.33" cy="25.47" r="0.69"/></g></g></svg>