<svg xmlns="http://www.w3.org/2000/svg" viewBox="0 0 288.62 216.46"><defs><style>.cls-1{fill:#fff;}</style></defs><title>Asset 653</title><g id="Layer_2" data-name="Layer 2"><g id="Layer_13" data-name="Layer 13"><rect class="cls-1" width="288.62" height="216.46"/><path d="M90.53,58h-.42L66.83,70.53l-3.5-13.81L92.59,41.06H108V175H90.53Z"/><path d="M225.29,106.59c0,45.54-16.89,70.69-46.57,70.69-26.17,0-43.89-24.53-44.3-68.83,0-44.92,19.37-69.65,46.57-69.65C209.22,38.8,225.29,63.94,225.29,106.59Zm-72.74,2.06c0,34.83,10.72,54.61,27.2,54.61,18.55,0,27.41-21.63,27.41-55.84,0-33-8.45-54.61-27.2-54.61C164.09,52.81,152.55,72.18,152.55,108.65Z"/></g></g></svg>