<svg xmlns="http://www.w3.org/2000/svg" viewBox="0 0 288.62 216.46"><defs><style>.cls-1{fill:#fff;}</style></defs><title>Asset 647</title><g id="Layer_2" data-name="Layer 2"><g id="Layer_13" data-name="Layer 13"><rect class="cls-1" width="288.62" height="216.46"/><path d="M90.22,58h-.41L66.52,70.53,63,56.72,92.28,41.06h15.45V175H90.22Z"/><path d="M212.41,53.84a65.49,65.49,0,0,0-13.6.82c-28.43,4.74-43.48,25.56-46.57,47.61h.62c6.39-8.45,17.52-15.46,32.35-15.46,23.7,0,40.39,17.11,40.39,43.28,0,24.52-16.69,47.19-44.51,47.19-28.64,0-47.39-22.26-47.39-57.09,0-26.37,9.47-47.19,22.66-60.37,11.13-10.93,26-17.73,42.86-19.79a87.73,87.73,0,0,1,13.19-1Zm-5.15,77.28c0-19.17-10.92-30.71-27.61-30.71-10.92,0-21,6.8-26,16.49a15.49,15.49,0,0,0-2.06,8c.42,22,10.51,38.33,29.47,38.33C196.75,163.26,207.26,150.28,207.26,131.12Z"/></g></g></svg>