<svg xmlns="http://www.w3.org/2000/svg" viewBox="0 0 288.62 216.46"><defs><style>.cls-1{fill:#fff;}</style></defs><title>Asset 661</title><g id="Layer_2" data-name="Layer 2"><g id="Layer_13" data-name="Layer 13"><rect class="cls-1" width="288.62" height="216.46"/><path d="M105.05,154.2a60.74,60.74,0,0,0,29.68,8.45c23.28,0,30.5-14.84,30.29-26-.21-18.75-17.1-26.79-34.62-26.79H120.3V96.29h10.1c13.19,0,29.88-6.8,29.88-22.67,0-10.71-6.8-20.19-23.49-20.19-10.72,0-21,4.74-26.79,8.86L105.26,49.1c7-5.15,20.61-10.3,35-10.3,26.38,0,38.33,15.66,38.33,31.94,0,13.8-8.24,25.55-24.73,31.53v.41c16.49,3.3,29.88,15.66,29.88,34.41,0,21.43-16.69,40.19-48.84,40.19-15,0-28.23-4.74-34.82-9.07Z"/></g></g></svg>