<svg xmlns="http://www.w3.org/2000/svg" viewBox="0 0 288.62 216.46"><defs><style>.cls-1{fill:#fff;}</style></defs><title>Asset 648</title><g id="Layer_2" data-name="Layer 2"><g id="Layer_13" data-name="Layer 13"><rect class="cls-1" width="288.62" height="216.46"/><path d="M93.72,58h-.41L70,70.53l-3.5-13.81L95.78,41.06h15.46V175H93.72Z"/><path d="M219.42,56.31H168.31l-5.15,34.42a70.52,70.52,0,0,1,10.92-.83c10.31,0,20.61,2.27,28.85,7.21,10.51,6,19.17,17.52,19.17,34.42,0,26.17-20.81,45.75-49.87,45.75-14.63,0-27-4.13-33.38-8.25l4.53-13.8A60.07,60.07,0,0,0,172,162.64c17.11,0,31.74-11.12,31.74-29-.21-17.31-11.75-29.67-38.54-29.67a138.2,138.2,0,0,0-18.54,1.44l8.65-64.3h64.09Z"/></g></g></svg>