<svg xmlns="http://www.w3.org/2000/svg" viewBox="0 0 288.62 216.46"><defs><style>.cls-1{fill:#fff;}</style></defs><title>Asset 645</title><g id="Layer_2" data-name="Layer 2"><g id="Layer_13" data-name="Layer 13"><rect class="cls-1" width="288.62" height="216.46"/><path d="M90.63,58h-.41L66.93,70.53l-3.5-13.81L92.69,41.06h15.46V175H90.63Z"/><path d="M134.73,141c0-16.9,10.09-28.85,26.58-35.86l-.21-.62c-14.84-7-21.22-18.54-21.22-30.08,0-21.23,17.92-35.65,41.42-35.65,26,0,38.94,16.28,38.94,33,0,11.33-5.56,23.49-22.05,31.32v.62c16.7,6.59,27,18.34,27,34.62,0,23.28-20,38.95-45.54,38.95C151.62,177.28,134.73,160.58,134.73,141Zm72.12-.83c0-16.28-11.33-24.11-29.47-29.26-15.66,4.53-24.11,14.84-24.11,27.61-.62,13.61,9.69,25.56,26.79,25.56C196.34,164.09,206.85,154,206.85,140.18ZM157,73.21c0,13.39,10.1,20.61,25.55,24.73,11.54-3.92,20.4-12.16,20.4-24.32,0-10.71-6.38-21.84-22.66-21.84C165.22,51.78,157,61.67,157,73.21Z"/></g></g></svg>