<svg xmlns="http://www.w3.org/2000/svg" viewBox="0 0 288.62 216.46"><defs><style>.cls-1{fill:#fff;}</style></defs><title>Asset 654</title><g id="Layer_2" data-name="Layer 2"><g id="Layer_13" data-name="Layer 13"><rect class="cls-1" width="288.62" height="216.46"/><path d="M111.24,162.23c3.91.41,8.45,0,14.63-.62a50.49,50.49,0,0,0,28-13c8.86-8,15.25-19.78,17.72-35.65H171c-7.42,9.07-18.14,14.43-31.53,14.43-24.11,0-39.57-18.14-39.57-41,0-25.35,18.34-47.6,45.75-47.6S190,61.05,190,95.26c0,29.47-9.89,50.08-23.07,62.85-10.31,10.1-24.53,16.28-38.95,17.93a84.21,84.21,0,0,1-16.69,1Zm6.59-77.07c0,16.69,10.1,28.44,25.76,28.44,12.16,0,21.64-6,26.38-14a12,12,0,0,0,1.64-6.6c0-22.87-8.44-40.39-27.4-40.39C128.75,52.6,117.83,66.2,117.83,85.16Z"/></g></g></svg>