<svg xmlns="http://www.w3.org/2000/svg" viewBox="0 0 42.77 42.77"><defs><style>.cls-1{fill:none;stroke:#fff;stroke-miterlimit:10;stroke-width:0.25px;}.cls-2{fill:#fff;}</style></defs><title>Asset 666</title><g id="Layer_2" data-name="Layer 2"><g id="Layer_12" data-name="Layer 12"><rect class="cls-1" x="0.13" y="0.13" width="42.52" height="42.52" rx="1.55" ry="1.55"/><path class="cls-2" d="M25.28,5.43A8.62,8.62,0,0,1,30,13.12h.24a1.27,1.27,0,1,1,0,2.54H12.45a1.27,1.27,0,0,1-1.22-1.76,1.24,1.24,0,0,1,1.12-.78h.39a8.7,8.7,0,0,1,4.74-7.71c.12.67.24,1.31.35,2s.24,1.4.38,2.1a.65.65,0,1,0,1.29-.22c-.25-1.45-.5-2.9-.77-4.35a.6.6,0,0,1,.18-.58,1.7,1.7,0,0,1,1.25-.53c.82,0,1.63,0,2.45,0A1.65,1.65,0,0,1,24,4.47a.45.45,0,0,1,.07.28c-.25,1.49-.52,3-.78,4.46a.66.66,0,0,0,.52.79.65.65,0,0,0,.78-.55l.66-3.75A2.56,2.56,0,0,0,25.28,5.43Z"/><path class="cls-2" d="M12.9,17h17a8,8,0,0,1-.3,3.15,8.39,8.39,0,0,1-2.83,4.26A8.52,8.52,0,0,1,12.9,17Z"/><path class="cls-2" d="M27.7,34.9H15.05V29.36c0-.39,0-.3.31-.36a37.68,37.68,0,0,1,12.25,0l.09,0Z"/><path class="cls-2" d="M10.1,39.05a6.41,6.41,0,0,1-2.76-1.37,3.22,3.22,0,0,1-1-2.28,8.57,8.57,0,0,1,0-1.52A3.05,3.05,0,0,1,7.53,32a10,10,0,0,1,3.08-1.77l1.14-.42v.25c0,1.61,0,3.22,0,4.84a.29.29,0,0,1-.19.3A2.74,2.74,0,0,0,10.1,37.7C10.09,38.14,10.1,38.57,10.1,39.05Z"/><path class="cls-2" d="M32.67,39.05V37.78a2.77,2.77,0,0,0-1.53-2.58A.28.28,0,0,1,31,35V30s0,0,0-.07h.08a12.51,12.51,0,0,1,3.74,1.83A4.38,4.38,0,0,1,36,32.91a2.36,2.36,0,0,1,.41,1.43,15.41,15.41,0,0,1-.14,1.81A2.74,2.74,0,0,1,35.11,38,7,7,0,0,1,32.67,39.05Z"/></g></g></svg>