<svg xmlns="http://www.w3.org/2000/svg" viewBox="0 0 85.04 42.52"><defs><style>.cls-1{fill:none;}.cls-2{fill:#dd1919;}</style></defs><title>Asset 668</title><g id="Layer_2" data-name="Layer 2"><g id="Layer_12" data-name="Layer 12"><rect class="cls-1" width="85.04" height="42.52"/><circle class="cls-2" cx="74.78" cy="7.23" r="5.18"/><rect x="73.87" y="3.09" width="1.81" height="8.29" rx="0.91" ry="0.91"/><rect x="73.87" y="3.09" width="1.81" height="8.29" rx="0.91" ry="0.91" transform="translate(82.01 -67.55) rotate(90)"/><path d="M26.87,5.31A8.6,8.6,0,0,1,31.62,13h.24a1.27,1.27,0,1,1,0,2.54H14a1.26,1.26,0,0,1-1.21-1.75A1.19,1.19,0,0,1,13.93,13h.39a8.64,8.64,0,0,1,4.75-7.71c.12.66.23,1.31.34,2s.25,1.4.38,2.1a.65.65,0,0,0,1,.46.67.67,0,0,0,.33-.68c-.26-1.45-.51-2.9-.78-4.35a.6.6,0,0,1,.18-.58,1.74,1.74,0,0,1,1.25-.53c.82,0,1.64,0,2.45,0a1.66,1.66,0,0,1,1.37.68.38.38,0,0,1,.07.29c-.25,1.48-.51,3-.77,4.45a.66.66,0,0,0,.51.8.65.65,0,0,0,.78-.56c.23-1.25.44-2.5.67-3.74A2.56,2.56,0,0,1,26.87,5.31Z"/><path d="M14.48,16.9h17a8,8,0,0,1-.29,3.15A8.53,8.53,0,0,1,14.48,16.9Z"/><path d="M29.28,34.77H16.64v-.25c0-1.77,0-3.53,0-5.29,0-.38,0-.3.31-.36a36.76,36.76,0,0,1,6.71-.47,35.32,35.32,0,0,1,5.53.51l.09,0Z"/><path d="M11.69,38.92a6.45,6.45,0,0,1-2.77-1.37,3.22,3.22,0,0,1-1-2.28,8.58,8.58,0,0,1,0-1.52A3,3,0,0,1,9.11,31.9a10.17,10.17,0,0,1,3.08-1.77l1.15-.42V30c0,1.61,0,3.23,0,4.84a.3.3,0,0,1-.19.31,2.73,2.73,0,0,0-1.46,2.47C11.68,38,11.69,38.45,11.69,38.92Z"/><path d="M34.25,38.92V37.66a2.76,2.76,0,0,0-1.52-2.59.25.25,0,0,1-.12-.19c0-1.68,0-3.37,0-5.05a.25.25,0,0,1,0-.07s.05,0,.07,0a12.54,12.54,0,0,1,3.75,1.82,4.65,4.65,0,0,1,1.14,1.2A2.38,2.38,0,0,1,38,34.22a18,18,0,0,1-.15,1.8,2.79,2.79,0,0,1-1.16,1.81A7.19,7.19,0,0,1,34.25,38.92Z"/><path d="M70.15,23.28c-.09.23-.21.3-.36.29s-.49,0-.75,0v-4a9,9,0,0,1,.9,0c.07,0,.14.19.21.3Z"/><path d="M47.72,14a6.14,6.14,0,0,1,.23-.84,3.17,3.17,0,0,1,2.94-2H64.38a13.31,13.31,0,0,1,1.55,0,3.16,3.16,0,0,1,2.77,2.72,6.92,6.92,0,0,1,0,.91c0,2.09,0,4.19,0,6.28v6.87a12.71,12.71,0,0,1,0,1.38A3.14,3.14,0,0,1,66.2,32a8.79,8.79,0,0,1-1.26.08c-.26,0-.52,0-.78,0H57c-2,0-4,0-6.05,0a3.22,3.22,0,0,1-3.19-2.78l0-.12Zm19.62,7.67v-7.3a2.09,2.09,0,0,0,0-.43,1.83,1.83,0,0,0-1.78-1.43H51a1.81,1.81,0,0,0-1,.27,1.79,1.79,0,0,0-.88,1.59q0,7.24,0,14.48A1.85,1.85,0,0,0,51,30.7H65.47a2.56,2.56,0,0,0,.39,0,1.87,1.87,0,0,0,1.49-1.83C67.34,26.43,67.34,24,67.34,21.62Z"/><path d="M64.84,10.53H51.62a.81.81,0,0,1,0-.16c.17-1.23.34-2.47.5-3.7.08-.54.15-1.09.23-1.64a1.48,1.48,0,0,1,.42-.82,1,1,0,0,1,.68-.27h9.43A1,1,0,0,1,64,4.66a5.69,5.69,0,0,1,.2.91c.22,1.59.43,3.17.65,4.76A1.68,1.68,0,0,0,64.84,10.53Z"/><path d="M52.13,36.45c.07.51.13,1,.21,1.52a1.36,1.36,0,0,0,.8,1.2H63.35a1.36,1.36,0,0,0,.73-1c0-.2.06-.4.09-.59.19-1.38.37-2.76.56-4.14,0-.27.07-.55.11-.82H51.62a.61.61,0,0,0,0,.14C51.8,34,52,35.22,52.13,36.45Z"/><path d="M63.16,17.52a10.39,10.39,0,0,1,2.14,1.62.54.54,0,1,1-.75.75,8.58,8.58,0,0,0-8.36-2.26,8.22,8.22,0,0,0-3.84,2.13.57.57,0,0,1-.62.17.51.51,0,0,1-.16-.87,8.83,8.83,0,0,1,2-1.52A9.76,9.76,0,0,1,62.08,17C62.52,17.18,62.94,17.42,63.16,17.52Z"/><path d="M61.94,20.11c.43.36.87.71,1.28,1.08a.52.52,0,0,1,.06.79.57.57,0,0,1-.81-.05,5.71,5.71,0,0,0-5.69-1.45,5.5,5.5,0,0,0-2.44,1.4.52.52,0,0,1-.62.11.48.48,0,0,1-.28-.52.77.77,0,0,1,.19-.34,6.6,6.6,0,0,1,4.45-1.93,6.89,6.89,0,0,1,3.83.95Z"/><path d="M60.55,22.73c.12.1.38.29.61.5a.53.53,0,1,1-.74.76,2.91,2.91,0,0,0-4-.06.52.52,0,0,1-.69.11.49.49,0,0,1-.22-.57.62.62,0,0,1,.18-.29,3.91,3.91,0,0,1,2.21-1.05A4.06,4.06,0,0,1,60.55,22.73Z"/><circle cx="58.48" cy="25.64" r="0.69"/><rect x="34.66" y="19.85" width="1.38" height="3.51" rx="0.69" ry="0.69" transform="translate(13.75 56.95) rotate(-90)"/><rect x="39.06" y="19.85" width="1.38" height="3.51" rx="0.69" ry="0.69" transform="translate(18.16 61.35) rotate(-90)"/><rect x="43.47" y="19.85" width="1.38" height="3.51" rx="0.69" ry="0.69" transform="translate(22.56 65.76) rotate(-90)"/></g></g></svg>