<svg xmlns="http://www.w3.org/2000/svg" viewBox="0 0 85.04 42.52"><defs><style>.cls-1{fill:none;}</style></defs><title>Asset 705</title><g id="Layer_2" data-name="Layer 2"><g id="Layer_13" data-name="Layer 13"><path d="M22.63,7.1A11.13,11.13,0,0,0,8,3a11,11,0,0,0,5.83,20.71c.78,0,1.12.11,1.27.86s.78,1.52.16,2.37c-.09.12,0,.39,0,.57,1.3,3.87,2.59,7.74,3.92,11.6a2.65,2.65,0,0,0,3.38,1.48,2.68,2.68,0,0,0,1.69-3.23q-1.93-5.77-3.91-11.53c-.08-.24-.26-.57-.46-.62-.61-.17-.76-.64-.91-1.14s-.35-1-.54-1.62a5.14,5.14,0,0,1,.43-.35A11,11,0,0,0,22.63,7.1ZM16,21.12A8.84,8.84,0,0,1,10.34,4.37,8.73,8.73,0,0,1,21.52,9.92,8.71,8.71,0,0,1,16,21.12Z"/><rect class="cls-1" width="85.04" height="42.52"/></g></g></svg>